<?xml version="1.0" encoding="UTF-8"?>
<!DOCTYPE svg PUBLIC "-//W3C//DTD SVG 1.1//EN" "http://www.w3.org/Graphics/SVG/1.1/DTD/svg11.dtd">
<!-- Creator: CorelDRAW 2017 -->
<svg xmlns="http://www.w3.org/2000/svg" xml:space="preserve" width="0.2in" height="0.2in" version="1.1" style="shape-rendering:geometricPrecision; text-rendering:geometricPrecision; image-rendering:optimizeQuality; fill-rule:evenodd; clip-rule:evenodd"
viewBox="0 0 174.4 174.4"
 xmlns:xlink="http://www.w3.org/1999/xlink">
 <defs>
  <style type="text/css">
   <![CDATA[
    .fil0 {fill:silver;fill-rule:nonzero}
   ]]>
  </style>
 </defs>
 <g id="Layer_x0020_1">
  <metadata id="CorelCorpID_0Corel-Layer"/>
  <path class="fil0" d="M113.36 34.88c0,-14.43 -11.73,-26.16 -26.16,-26.16 -14.43,0 -26.16,11.74 -26.16,26.16 0,8.72 4.41,16.89 11.63,21.73l0 4.58c-3.32,0.68 -5.82,3.61 -5.82,7.12 0,2.59 1.37,4.84 3.41,6.13 -0.31,0.81 -0.5,1.67 -0.5,2.59 0,4.01 3.26,7.27 7.27,7.27l20.34 0c4.01,0 7.27,-3.26 7.27,-7.27 0,-0.92 -0.19,-1.78 -0.49,-2.59 2.04,-1.29 3.4,-3.55 3.4,-6.13 0,-3.51 -2.5,-6.44 -5.82,-7.12l0 -4.58c7.21,-4.83 11.63,-13.01 11.63,-21.73zm34.88 26.16l-5.81 0 0 5.81 -5.81 0 0 5.82 5.81 0 0 5.81 5.81 0 0 -5.81 5.82 0 0 -5.82 -5.82 0 0 -5.81zm-101.73 31.97l0 -5.81 5.81 0 0 -5.81 -5.81 0 0 -5.82 -5.82 0 0 5.82 -5.81 0 0 5.81 5.81 0 0 5.81 5.82 0zm-8.72 -69.76l-5.82 0 0 -5.82 -5.81 0 0 5.82 -5.82 0 0 5.81 5.82 0 0 5.82 5.81 0 0 -5.82 5.82 0 0 -5.81zm-26.16 23.25l-5.82 0 0 5.82 -5.81 0 0 5.81 5.81 0 0 5.82 5.82 0 0 -5.82 5.81 0 0 -5.81 -5.81 0 0 -5.82zm127.89 -29.07l5.82 0 0 -5.81 5.81 0 0 -5.81 -5.81 0 0 -5.81 -5.82 0 0 5.81 -5.81 0 0 5.81 5.81 0 0 5.81zm29.07 17.44l0 -5.82 -5.81 0 0 5.82 -5.81 0 0 5.81 5.81 0 0 5.81 5.81 0 0 -5.81 5.81 0 0 -5.81 -5.81 0zm-66.47 -31.66l5.04 2.9 -2.91 5.04 -5.04 -2.9 2.91 -5.04zm13.84 11.71l2.91 5.04 -5.04 2.9 -2.9 -5.04 5.03 -2.9zm0.31 17.04l5.81 0 0 5.81 -5.81 0 0 -5.81zm-0.32 22.86l-5.04 -2.91 2.91 -5.03 5.03 2.9 -2.9 5.04zm-57.51 0.01l-2.91 -5.04 5.04 -2.9 2.9 5.03 -5.03 2.91zm-6.12 -22.87l5.81 0 0 5.81 -5.81 0 0 -5.81zm6.12 -17.05l5.04 2.91 -2.91 5.04 -5.04 -2.91 2.91 -5.04zm13.84 -11.7l2.9 5.03 -5.03 2.91 -2.91 -5.04 5.04 -2.9zm12.02 -3.22l5.81 0 0 5.81 -5.81 0 0 -5.81zm27.41 136.32c-1.33,-3.35 -4.51,-5.52 -8.11,-5.52l-1.86 0 0 -33.43c0,-5.61 -4.56,-10.17 -10.17,-10.17 -5.61,0 -10.17,4.56 -10.17,10.17l0 13.82c-1.03,-0.44 -2.13,-0.74 -3.29,-0.74l-2.76 0c-4.68,0 -8.49,3.81 -8.49,8.49l0 0.23 -3.13 0c-4.68,0 -8.49,3.81 -8.49,8.49l0 0.23 -0.23 0c-4.68,0 -8.49,3.81 -8.49,8.49l0 0.23 0 0.59 0 5.83c0,4 0.8,7.89 2.39,11.56l4.41 10.17c1.27,2.94 1.92,6.05 1.92,9.25l0 0.38 5.81 0 0 -0.39c0,-4 -0.81,-7.89 -2.4,-11.56l-4.4 -10.17c-0.76,-1.74 -1.26,-3.56 -1.57,-5.4l10.93 10.93c1.7,1.7 3.93,2.55 6.17,2.55 2.23,0 4.47,-0.85 6.17,-2.55l0.5 -0.5c1.38,-1.38 2.17,-3.11 2.43,-4.9 0.11,0.01 0.23,0.03 0.34,0.03 1.57,0 3.14,-0.43 4.53,-1.31l0.18 -0.11c0.42,-0.28 0.79,-0.6 1.15,-0.94 1.31,1.18 2.91,2.07 4.71,2.52l3.9 0.97 2.4 7.21 5.51 -1.84 -3.41 -10.24 -6.99 -1.75c-2.34,-0.58 -3.98,-2.67 -3.98,-5.09 0,-2.9 2.36,-5.26 5.25,-5.26l3.46 0 5.82 0 1.86 0c1.18,0 2.27,0.74 2.7,1.84l3.56 9.02c0.4,1.02 0.6,2.1 0.6,3.2l0 0.64c0,1.35 -0.32,2.7 -0.92,3.9l-3.36 6.72c-1,2 -1.53,4.25 -1.53,6.49l0 5.98 5.82 0 0 -5.98c0,-1.35 0.32,-2.7 0.92,-3.9l3.36 -6.72c1,-2 1.53,-4.25 1.53,-6.49l0 -0.64c0,-1.83 -0.34,-3.62 -1.01,-5.33l-3.55 -9.02zm-39.39 16.88l-0.5 0.5c-1.14,1.14 -2.97,1.14 -4.11,0l-14.6 -14.6c-0.51,-0.5 -0.79,-1.18 -0.79,-1.9l0 -0.59 0 -0.23c0,-1.48 1.2,-2.68 2.68,-2.68l0.82 0c0.71,0 1.39,0.28 1.89,0.78l14.6 14.6c1.14,1.14 1.14,2.98 0,4.11zm9.44 -8.54c-0.12,0.47 -0.4,1.05 -1.02,1.49l-0.06 0.04c-1.06,0.7 -2.48,0.56 -3.37,-0.33l-0.88 -0.88 -14.6 -14.6c-0.5,-0.5 -0.78,-1.18 -0.78,-1.9l0 -0.82c0,-1.48 1.2,-2.68 2.68,-2.68l3.25 0c0.83,0 1.63,0.4 2.13,1.06l6.75 8.99 5.49 7.31c0.02,0.03 0.04,0.08 0.07,0.08 0,0 0,0 0.01,0l0.03 0.05c0.04,0.73 0.16,1.46 0.34,2.15 -0.01,0.01 -0.01,0.02 -0.02,0.03zm5.44 -13.01c0.01,0.81 -2.55,2.06 -3.75,4.96 -0,0 -0.01,0 -0.01,0l-6.23 -8.88 -3.45 -4.88 -0.55 -0.95c-0.36,-0.47 -0.54,-1.1 -0.54,-1.69l0 -1.27c0,-1.48 1.2,-2.67 2.68,-2.67l2.76 0c0.97,0 1.36,0.53 1.83,1.38l7.26 14c0,0 0,0 0,0zm8.72 -0.85l-1.52 0 -7.2 -12.96 0 -20.47c-0,-2.4 1.95,-4.36 4.36,-4.36 2.4,0 4.36,1.96 4.36,4.36l0 33.43zm1.45 -52.32l-20.34 0c-0.8,0 -1.46,-0.66 -1.46,-1.46 0,-0.8 0.66,-1.45 1.46,-1.45l20.34 0c0.8,0 1.46,0.66 1.46,1.45 0,0.8 -0.66,1.46 -1.46,1.46zm2.91 -8.72l-2.91 0 -20.34 0 -2.91 0c-0.8,0 -1.45,-0.66 -1.45,-1.46 0,-0.8 0.65,-1.45 1.45,-1.45l26.16 0c0.8,0 1.45,0.66 1.45,1.45 0,0.8 -0.65,1.46 -1.45,1.46zm-15.98 -34.88c0,-1.61 1.3,-2.91 2.9,-2.91 1.6,0 2.91,1.3 2.91,2.91 0,1.6 -1.3,2.9 -2.91,2.9 -1.6,0 -2.9,-1.3 -2.9,-2.9zm13.07 17.6l-1.45 0.84 0 7.72 -5.81 0 0 -17.98c3.37,-1.2 5.81,-4.4 5.81,-8.18 0,-4.81 -3.91,-8.72 -8.72,-8.72 -4.81,0 -8.72,3.91 -8.72,8.72 0,3.78 2.44,6.98 5.82,8.18l0 17.98 -5.82 0 0 -7.72 -1.45 -0.84c-6.28,-3.64 -10.18,-10.38 -10.18,-17.6 0,-11.22 9.13,-20.35 20.35,-20.35 11.22,0 20.35,9.13 20.35,20.35 0,7.22 -3.9,13.97 -10.18,17.6z"/>
 </g>
</svg>
