<?xml version="1.0" encoding="UTF-8"?>
<!DOCTYPE svg PUBLIC "-//W3C//DTD SVG 1.1//EN" "http://www.w3.org/Graphics/SVG/1.1/DTD/svg11.dtd">
<!-- Creator: CorelDRAW 2017 -->
<svg xmlns="http://www.w3.org/2000/svg" xml:space="preserve" width="1.84999in" height="1.06667in" version="1.1" style="shape-rendering:geometricPrecision; text-rendering:geometricPrecision; image-rendering:optimizeQuality; fill-rule:evenodd; clip-rule:evenodd"
viewBox="0 0 20532.56 11838.63"
 xmlns:xlink="http://www.w3.org/1999/xlink">
 <defs>
  <style type="text/css">
   <![CDATA[
    .fil5 {fill:#5220A8}
    .fil12 {fill:#072333;fill-rule:nonzero}
    .fil6 {fill:#24D0F4;fill-rule:nonzero}
    .fil11 {fill:#6DB5C8;fill-rule:nonzero}
    .fil10 {fill:#CCCCCC;fill-rule:nonzero}
    .fil3 {fill:#DA1392;fill-rule:nonzero}
    .fil8 {fill:#E64236;fill-rule:nonzero}
    .fil7 {fill:#F0CA4F;fill-rule:nonzero}
    .fil9 {fill:white;fill-rule:nonzero}
    .fil4 {fill:#CF178B;fill-rule:nonzero}
    .fil0 {fill:url(#id0);fill-rule:nonzero}
    .fil1 {fill:url(#id1);fill-rule:nonzero}
    .fil2 {fill:url(#id2);fill-rule:nonzero}
   ]]>
  </style>
  <linearGradient id="id0" gradientUnits="userSpaceOnUse" x1="8521.9" y1="10282.4" x2="11406.22" y2="8417.25">
   <stop offset="0" style="stop-opacity:1; stop-color:#F0D74C"/>
   <stop offset="0.129412" style="stop-opacity:1; stop-color:#F0D74C"/>
   <stop offset="0.988235" style="stop-opacity:1; stop-color:#D1534D"/>
   <stop offset="1" style="stop-opacity:1; stop-color:#D1534D"/>
  </linearGradient>
  <linearGradient id="id1" gradientUnits="userSpaceOnUse" xlink:href="#id0" x1="15453.36" y1="5910.34" x2="20510.06" y2="2640.36">
  </linearGradient>
  <linearGradient id="id2" gradientUnits="userSpaceOnUse" xlink:href="#id0" x1="9323.63" y1="4444.78" x2="12227.7" y2="2566.91">
  </linearGradient>
 </defs>
 <g id="Layer_x0020_1">
  <metadata id="CorelCorpID_0Corel-Layer"/>
  <g id="_2348624661408">
   <path class="fil0" d="M8585.04 10033.16l2824.41 -1651.48c3.06,-1.79 6.95,-0.79 8.74,2.27 1.66,2.88 0.83,6.51 -1.79,8.43l-2664.96 1898.06c-69,49.16 -164.78,33.08 -213.89,-35.92 -49.16,-69 -33.03,-164.78 35.96,-213.89 3.67,-2.67 7.69,-5.24 11.54,-7.47z"/>
   <path class="fil1" d="M15564.05 5473.29l4951.65 -2895.33c5.37,-3.1 12.23,-1.31 15.34,4.02 2.93,5.03 1.49,11.45 -3.19,14.81l-4672.13 3327.65c-120.95,86.12 -288.83,57.9 -375,-63.05 -86.12,-120.95 -57.9,-288.83 63.05,-375 6.47,-4.59 13.55,-9.13 20.27,-13.11z"/>
   <path class="fil2" d="M9387.21 4193.79l2843.77 -1662.76c3.06,-1.79 6.99,-0.79 8.78,2.32 1.7,2.88 0.87,6.55 -1.79,8.48l-2683.23 1911.08c-69.43,49.46 -165.87,33.25 -215.33,-36.22 -49.46,-69.43 -33.3,-165.87 36.18,-215.33 3.71,-2.67 7.78,-5.29 11.62,-7.56z"/>
   <path class="fil3" d="M13938.43 4842.32c590.94,945.36 303.64,2190.78 -641.76,2781.72 -945.36,590.94 -2190.78,303.6 -2781.72,-641.76 -590.94,-945.4 -303.6,-2190.82 641.76,-2781.72 945.4,-590.94 2190.82,-303.6 2781.72,641.76z"/>
   <path class="fil4" d="M13052.63 7074.09c-17.74,48.41 -28.27,103.86 -6.34,150.66 29.98,64.15 114.09,88.88 182.39,70 68.3,-18.79 122.26,-71.18 165.3,-127.42 31.5,-41.12 59.25,-86.39 71.7,-136.68 25.74,-104.39 -47.06,-243.08 -168.71,-224.95 -118.24,17.7 -207.6,168.27 -244.35,268.38zm-540.82 35.48c-37.62,10.71 -72.8,39.06 -79.7,77.6 -8.74,48.63 28.4,92.68 65.37,125.45 38.85,34.39 81.36,65.76 129.78,84.25 48.41,18.53 103.65,23.29 152.02,4.63 48.46,-18.57 88.18,-62.92 93.33,-114.53 5.77,-56.85 -30.67,-111.69 -78.83,-142.49 -75.59,-48.37 -196.06,-59.3 -281.97,-34.91zm1244.85 -588.15c60.96,118.72 215.51,184.83 339.12,134.23 3.15,-1.31 6.25,-2.67 9.39,-4.02 75.9,-193.35 121.74,-397.46 135.72,-604.75l-5.33 -2.84c-161.85,-83.15 -393.83,29.67 -471.48,179.55 -47.15,91.15 -55.01,205.24 -7.43,297.83zm193.31 -732.69c32.9,4.37 65.89,-13.81 86.52,-39.81 81.41,-102.42 72.23,-369.4 -111.12,-330.51 -157.7,33.34 -113.43,351.79 24.6,370.32zm-288.44 -623.15c26.96,26.3 70.79,36.05 103.95,18.22 42.47,-22.72 54.23,-78.65 50.73,-126.72 -5.11,-68.51 -66.77,-153.24 -142.27,-102.99 -61.83,41.21 -61.74,163.2 -12.41,211.49zm-1623.87 2262.48c46.97,22.24 109.98,-0.13 132.44,-47.02 22.42,-46.93 0.39,-109.98 -46.45,-132.66 -46.8,-22.63 -109.98,-0.83 -132.84,45.84 -22.85,46.71 -1.35,110.03 45.27,133.14l1.57 0.7zm-422.93 -350.75c101.85,40.07 225.86,43.7 313.34,-22.02 106.57,-80.14 124.49,-243.43 65.02,-362.68 -59.43,-119.33 -179.02,-198.6 -304.08,-244.78 -66.9,-24.69 -139.04,-41.64 -209.48,-30.46 -400.3,63.49 -82.63,574.16 135.19,659.94zm-423.85 268.47c46.8,12.28 106.71,9.53 130.56,-32.51 20.84,-36.62 2.49,-82.76 -19.31,-118.85 -32.12,-53.27 -71.79,-102.03 -117.37,-144.33 -74.63,-69.39 -226.48,-105.04 -234.43,36.57 -6.95,123.96 135.28,231.33 240.55,259.12zm-817.68 -633.2c26.44,0.96 52.7,-3.32 77.08,-13.94 92.77,-40.37 128.68,-152.5 141.14,-252.82 13.55,-108.89 11.45,-222.06 -27.09,-324.79 -38.58,-102.73 -117.85,-193.88 -222.15,-227.74 -52.13,-16.95 -96.44,-23.46 -133.84,-21.59 -5.9,283.1 47.5,569.88 164.86,840.88zm582.73 -106.44c52.17,-13.81 84.73,-66.68 98.75,-118.81 35.66,-132.14 -90.93,-331.74 -218.22,-189.73 -82.1,91.59 -42.52,351.31 119.46,308.54zm1537.79 -2421.4c-5.07,63.27 46.1,116.1 96.87,154.12 85.47,63.93 181.99,113.08 283.94,144.72 52.78,16.39 112.56,27.44 161.37,1.44 53.44,-28.45 77.47,-97 65.37,-156.34 -34.74,-170.24 -585.04,-423.5 -607.55,-143.93zm-434.6 -136.2c-34.04,26.44 -54.53,75.77 -34.52,113.96 22.68,43.26 82.32,50.47 130.39,41.25 37.36,-7.17 74.63,-21.72 100.94,-49.16 26.3,-27.53 39.33,-69.87 24.73,-104.96 -33.69,-80.88 -171.9,-39.63 -221.54,-1.09zm-246.01 604.88c-12.8,124.27 69.43,246.88 181.99,301.06 112.56,54.23 248.06,46.8 364.2,0.74 82.72,-32.73 163.29,-91.76 185.1,-177.93 26.39,-104.61 -45.75,-213.98 -140.31,-265.98 -177.54,-97.66 -561.84,-139.87 -590.99,142.1zm1238.08 180.68c-22.5,28.8 -38.76,70.04 -19.4,101.11 19.23,30.67 62,34.43 98.1,31.99 44.48,-2.97 89.84,-10.71 128.29,-33.25 38.36,-22.63 68.95,-62.53 70.44,-107.05 5.77,-175.92 -225.51,-59.12 -277.42,7.21zm316.01 582.03c7.56,11.19 20.54,19.4 34.04,18.35 49.94,-4.11 82.24,-130.52 21.41,-145.55 -70.66,-17.57 -84.64,84.11 -55.45,127.2zm-1232.96 1359.33c32.47,15.99 74.15,5.64 99.67,-20.06 57.94,-58.16 39.33,-200.04 -61.92,-191.69 -93.33,7.78 -120.99,170.72 -37.75,211.75zm-370.58 -657.53c22.24,65.33 89.75,108.98 158.53,114.44 68.78,5.46 137.16,-22.5 191.61,-64.98 94.3,-73.37 149.92,-232.37 32.77,-315.31 -92.33,-65.37 -246.09,-1.66 -319.29,65.85 -53.35,49.16 -88.05,128.03 -63.62,200zm757.51 541.57c-2.18,28.49 -1.05,57.94 9.57,84.55 10.57,26.57 31.94,49.99 59.56,57.55 30.15,8.26 63.05,-3.63 87.04,-23.68 24.03,-20.01 40.68,-47.32 56.11,-74.55 31.77,-55.93 60.52,-114.75 71.18,-178.1 16.69,-98.97 -26.04,-219.35 -137.07,-136.68 -83.59,62.18 -138.34,167.92 -146.38,270.91zm408.29 -1021.48c-25.61,59.95 -22.59,128.03 -14.81,192.74 17.17,143.02 55.45,283.5 113.22,415.5 30.24,69.04 70.79,140.61 139.91,170.59 55.01,23.81 120.64,16.08 173.6,-12.1 53,-28.23 94.34,-75.03 124.75,-126.72 81.62,-138.82 86.56,-319.63 12.72,-462.74 -58.86,-113.91 -164.78,-198.82 -286.12,-237.84 -104.3,-33.6 -206.24,-73.28 -263.27,60.56zm-2444.74 -451.86c-63.62,144.11 -71.53,312.16 -21.54,461.6 22.33,66.85 67.47,138.21 137.69,144.11 71.62,5.94 127.59,-58.55 166.61,-118.81 87.48,-135.19 156.39,-282.41 204.19,-436.13 22.5,-72.45 40.42,-149.66 23.46,-223.59 -24.6,-107.19 -127.68,-183.43 -229.45,-131.7 -123.66,62.83 -225.38,178.76 -280.96,304.52zm649.06 643.25c-10.31,101.33 13.41,209.52 81.27,285.46 67.9,75.81 184.4,111.07 276.99,68.56 56.32,-25.82 98.45,-76.51 124.75,-132.57 53.53,-114.05 44.22,-255.36 -23.81,-361.5 -56.24,-87.61 -192.22,-195.15 -304.56,-158.62 -107.1,34.83 -144.85,201.92 -154.64,298.66zm941.95 -456.62c-14.42,90.49 22.02,181.38 67.16,261.08 49.07,86.74 109.33,167.14 178.8,238.58 57.85,59.34 134.76,116.19 216.16,100.37 61.35,-11.97 108.76,-64.58 129.86,-123.44 21.06,-58.81 19.88,-123.13 14.07,-185.36 -11.54,-123.13 -42.65,-249.77 -123.09,-343.75 -122.13,-142.71 -443.64,-194.18 -482.97,52.52zm630.88 -101.07c10.57,41.99 43.04,83.46 86.34,84.33 27.4,0.61 52.65,-15.38 72.67,-34.21 27.7,-26.17 49.2,-59.78 56.8,-97.18 7.56,-37.36 0.09,-78.39 -23.81,-108.06 -104.43,-129.82 -219.31,47.06 -192,155.12zm-1130.93 -540.6c29.41,7.12 59.56,-8.65 82.8,-28.05 65.59,-54.75 65.54,-202.44 -47.58,-169.36 -71.88,21.02 -137.82,172.73 -35.22,197.42zm215.2 891.39c29.36,7.08 59.56,-8.7 82.8,-28.05 65.54,-54.75 65.54,-202.49 -47.54,-169.41 -71.92,20.97 -137.82,172.73 -35.26,197.46zm-449.5 -511.24c-11.19,28.23 -18.57,58.95 -14.07,89.05 4.59,30.02 22.77,59.25 50.91,70.74 44.92,18.53 94.34,-12.1 130.87,-44.09 39.63,-34.74 76.12,-73.02 108.89,-114.31 26.96,-33.91 52.35,-72.8 52.78,-116.14 0.87,-90.93 -84.2,-95.96 -146.29,-69.21 -81.97,35.13 -149.88,100.46 -183.09,183.96zm-365.6 -621.92c-20.8,43.39 -33.73,100.41 -0.83,135.68 33.12,35.57 91.32,26.26 137.2,10.05 127.59,-45.14 243.78,-122.13 335.06,-222.15 20.54,-22.55 40.24,-46.84 50.64,-75.51 10.49,-28.62 10.49,-62.57 -6.64,-87.87 -52.22,-76.82 -198.9,-41.07 -265.23,-9.05 -107.88,52.04 -198.25,140.61 -250.2,248.85zm458.02 3100.17c-62.53,17.3 -128.86,48.98 -162.11,101.55 307.71,164.86 654.04,247.36 1002.69,239.5 -12.37,-137.73 -184.13,-236.44 -292.5,-295.47 -161.19,-87.74 -374.25,-93.95 -548.08,-45.57z"/>
   <circle class="fil5" cx="14262.04" cy="3323.96" r="628.94"/>
   <path class="fil6" d="M13853.53 4755.85c60.91,69.35 117.93,143.15 170.11,222.24 482.62,-231.46 804.88,-336.2 852.85,-259.42 49.2,78.7 -199.78,333.14 -639.44,678.55 -422.06,331.61 -1019.82,747.07 -1699.9,1172.18 -614.19,383.91 -1192.02,711.02 -1654.06,943.3 -582.38,292.76 -980.71,434.77 -1034.45,348.78 -52.52,-84.03 234.78,-368.36 731.25,-749.91 -46.93,-80.75 -87.61,-163.33 -122.26,-247.49 -1077.01,789.15 -1743.94,1438.6 -1623.39,1631.47 123.53,197.68 1040.53,-137.9 2266.63,-791.55 486.16,-259.2 1020.86,-568.26 1574.14,-914.12 607.68,-379.85 1165.8,-759 1641.08,-1109.39 1048.7,-773.11 1693.56,-1405.96 1574.8,-1595.94 -115.71,-185.1 -927.66,97.83 -2037.36,671.3z"/>
   <path class="fil3" d="M14262.04 2851.5c-260.91,0 -472.48,211.53 -472.48,472.44 0,260.95 211.57,472.48 472.48,472.48 260.95,0 472.48,-211.53 472.48,-472.48 0,-260.91 -211.53,-472.44 -472.48,-472.44z"/>
   <g>
    <path class="fil7" d="M5721.7 7491.07l-4099.19 1364.31c-275.72,91.76 -571.76,-63.1 -661.25,-345.81l-285.9 -903.5c-89.49,-282.76 61.52,-586.35 337.2,-678.11l4099.23 -1364.31c275.68,-91.76 571.72,63.1 661.2,345.81l285.9 903.5c89.49,282.76 -61.48,586.35 -337.2,678.11z"/>
    <path class="fil8" d="M5206.13 5696.14l-4194.1 1395.86c-249.5,83.07 -386.14,357.78 -305.17,613.66l269.82 852.55c80.97,255.88 348.87,396.01 598.37,312.95l4194.1 -1395.86c249.5,-83.07 386.14,-357.78 305.13,-613.66l-269.78 -852.55c-80.97,-255.88 -348.87,-396.01 -598.37,-312.95z"/>
    <path class="fil8" d="M662.17 7564.26c0,0 -1241.48,270.91 -324.57,2054.4l261.48 -459.42c0,0 -305.13,-680.52 -80.18,-903.89 224.9,-223.33 299.45,-197.55 299.45,-197.55l-156.17 -493.54z"/>
    <polygon class="fil9" points="6680.82,8778.22 7361.3,11838.63 2215.59,11838.63 2110.33,11574.75 1245.9,8709.36 5780.34,7083.09 "/>
    <path class="fil10" d="M5759.76 5867.69c0,0 1159.99,-528.37 1439.03,1467.44l-474.71 -214.37c0,0 -142.67,-734.61 -452.64,-779.93 -309.93,-45.36 -355.51,20.41 -355.51,20.41l-156.17 -493.54z"/>
    <g>
     <path class="fil9" d="M1115.9 7172.18c-134.67,-425.55 -151.19,-880.99 -32.47,-1286.88 152.98,-522.99 525.62,-1139.8 1414.91,-1435.71 790.54,-263.09 1415.48,14.77 1829.85,336.54 331.83,257.67 582.25,638.26 717.97,1067.14l30.37 96c140.79,444.87 151.19,921.24 16.91,1340.46 -157.22,490.79 -507.88,1049.22 -1282.69,1307.07 -779.53,259.47 -1418.41,24.95 -1858.95,-269.47 -386.49,-258.33 -683.49,-673.4 -835.51,-1153.92l-0.39 -1.22z"/>
    </g>
    <path class="fil11" d="M3766.14 8610.87c87.22,-117.72 149.75,-232.07 175.96,-332.18 35.31,-135.06 35.66,-342.92 -71.18,-420.09 -146.56,-105.96 -361.19,130.91 -689.56,204.15 -538.51,120.03 -1150.2,-251.95 -1478.58,-687.12 -357.52,-473.84 -361.36,-999.06 -362.72,-1185.29 -4.46,-611.78 257.28,-1056.39 216.6,-1073.78 -36.75,-15.73 -240.55,350.13 -400.17,767.17 -62.48,163.16 -110.86,315.48 -149.05,452.82 -15.47,276.86 21.98,562.41 108.45,835.64l0.39 1.22c152.02,480.52 449.02,895.59 835.51,1153.92 432.11,288.79 1055.08,519.59 1814.34,283.54z"/>
    <path class="fil12" d="M1521.09 6908.83c-86.91,-274.63 -85.34,-572.59 14.9,-842.37 129.16,-347.6 423.94,-763.71 1091.83,-985.95 593.69,-197.59 1048.31,-35.39 1345.61,162.29 238.05,158.31 412.05,399.77 499.66,676.54l19.58 61.96c90.84,287.04 84.16,598.89 -28.01,877.89 -131.35,326.67 -408.07,703.81 -989.97,897.47 -585.44,194.84 -1051.71,61.48 -1369.21,-117.45 -278.56,-157 -486.03,-419.57 -584.13,-729.59l-0.26 -0.79z"/>
    <path class="fil9" d="M5711.69 7012.12c0,0 -273.58,-270.08 -414.98,-575.74l154.9 682.53 260.08 -106.79z"/>
    <path class="fil11" d="M5033.49 6379.54c28.18,81.75 41.07,168.45 45.49,255.27 4.5,87.09 -2.49,174.87 -18.83,261.21 -17.43,86.12 -48.24,169.85 -90.89,246.36 -42.3,76.99 -102.73,142.32 -170.02,193.62 48.9,-70.92 94.08,-140.04 126.02,-216.86 4.72,-9.09 8.43,-18.75 11.62,-28.66l10.88 -29.01c7.56,-19.18 14.81,-38.41 19.66,-58.64 5.33,-19.97 12.45,-39.33 17.3,-59.43l13.37 -60.69c16.6,-81.23 25.96,-164.25 31.55,-248.15 4.85,-83.98 6.16,-168.67 3.85,-255.01z"/>
    <path class="fil12" d="M1461.36 7568.42c47.54,71.27 97.09,139.04 149.09,204.1 52.61,64.54 107.71,126.11 167.66,181.86l45.57 41.03c15.42,13.37 32.29,24.78 48.02,37.71 15.51,13.46 32.42,24.64 49.51,35.66l25.43 16.91c8.26,6.12 16.78,11.67 25.82,16.21 69.83,42.95 145.99,71.66 226.17,99.67 -83.85,-1.05 -170.15,-17.52 -248.5,-54.36 -78.3,-36.27 -151.19,-85.47 -214.63,-144.72 -62.66,-59.99 -118.59,-126.89 -164.78,-200.04 -46.14,-72.97 -85.38,-150.84 -109.37,-234.03z"/>
    <path class="fil9" d="M5821.85 9338.88c0,0 1811.37,-731.99 1402.42,-2632.1 0,0 -1646.41,-327.98 -2033.73,-105.66 0,0 -570.27,2086.65 631.32,2737.76z"/>
    <path class="fil9" d="M7224.27 6706.78c0,0 352.49,-2163.99 56.37,-2509.93l-1616.74 -46.89c0,0 -515.61,1921.96 -473.36,2451.16 0,0 664.48,-194.88 2033.73,105.66z"/>
    <path class="fil11" d="M7280.64 4196.85l-922.81 -26.74c-229.93,113.74 -438.44,290.14 -578.79,499.4 -217.04,323.7 -365.25,865.79 -147.74,1148.11 151.97,197.24 422.63,189.99 424.11,298.4 2.27,163.68 -614.36,247.62 -607.81,371.33 7.43,140.83 814.49,200.96 811.12,271.09 -2.97,61.22 -615.11,-54.05 -904.55,267.2 -219.57,243.74 -151.19,625.07 -135.33,822.75 122.3,1523.41 -2021.19,2782.9 -1726.33,3296.45 196.33,342.01 1164.23,-186.45 1594.37,297.79 102.69,115.58 140.83,250.86 145.86,396.01l2128.55 0 -680.47 -3060.41 -16.3 -30.67c406.63,-419.92 766.25,-1081.38 559.74,-2040.77 0,0 352.49,-2163.99 56.37,-2509.93zm-66.2 2507.74l0 0c2.18,0.52 4.11,0.92 6.29,1.4 -1.62,-0.35 -3.63,-0.79 -6.29,-1.4zm-171.72 -37.67l0 0c3.85,0.83 10.36,2.27 19.71,4.33 -8.7,-1.92 -15.51,-3.41 -19.71,-4.33zm29.15 6.38l0 0c5.2,1.18 11.14,2.45 17.74,3.89 -6.34,-1.35 -12.23,-2.67 -17.74,-3.89zm39.37 8.65l0 0c1.57,0.35 3.19,0.7 4.81,1.05 -1.62,-0.35 -3.19,-0.7 -4.81,-1.05zm33.86 7.43l0 0c19.66,4.33 42.52,9.35 68.86,15.12 -13.98,-3.06 -40.55,-8.91 -68.86,-15.12z"/>
    <path class="fil9" d="M1381.92 8409.6c0,0 1788.64,1189.79 946.58,3137.75 0,0 -1836.53,-15.47 -2205.06,-340.52 0,0 -169.23,-2366.61 1258.48,-2797.23z"/>
    <path class="fil12" d="M5338.36 9858.29l0 0c-663.13,358.44 -1381.35,597.5 -2123.35,706.69l-375.04 -1185.12 241.03 -117.98c537.59,-263.14 1107.64,-449.89 1694.39,-555.02l187.94 -33.69 375.04 1185.12z"/>
    <path class="fil9" d="M178.1 11838.63c13.68,-202.57 49.46,-386.58 116.19,-535.27l1926.98 262.96c0,0 16.21,105.09 38.93,272.31l-2082.1 0z"/>
    <g>
     <path class="fil9" d="M2627.82 5080.51c-1281.86,426.56 -1189.36,1567.24 -1189.36,1567.24l34.69 109.63c0,0 -92.5,-1140.68 1189.36,-1567.24 1126.7,-374.95 1752.55,545.8 1752.55,545.8l-34.69 -109.59c0,0 -625.85,-920.8 -1752.55,-545.85z"/>
    </g>
    <path class="fil12" d="M1438.47 6647.75c-10.57,-348.3 100.81,-702.45 309.19,-984.29 103.56,-141.66 232.42,-262.92 374.3,-363.55 142.32,-100.41 299.45,-176.57 461.08,-236.22 161.46,-60.74 333.05,-97.88 506.08,-104.65 173.04,-5.55 347.6,19.75 510.45,79.05 163.25,58.2 314.39,146.69 450.33,253.04 135.06,107.75 257.24,231.02 364.38,366.21 -117.93,-125.14 -243.6,-242.73 -382.95,-340.13 -138.08,-98.58 -288.57,-178.5 -447.53,-230.58 -159.01,-51.56 -326.19,-74.63 -492.23,-65.67 -166.13,7.78 -330.47,44.48 -487.38,103.86 -157.87,56.85 -310.07,130.78 -448.93,225.69 -69.26,47.67 -135.76,99.58 -197.46,157.17 -60.87,58.33 -119.86,119.2 -171.51,186.58 -103.86,134.01 -188.15,284.85 -246.4,446.7 -59.56,161.24 -95.34,332.87 -101.42,506.78z"/>
    <path class="fil12" d="M4629.26 6336.72c26.92,344.28 -83.33,700.4 -297.26,973.98 -53.61,68.17 -111.69,133.23 -176.79,190.21 -15.64,14.99 -32.16,28.88 -48.98,42.38 -16.78,13.59 -33.21,27.66 -50.29,40.86 -35.13,24.86 -68.86,52.09 -105.66,74.41 -144.5,93.68 -301.06,166.18 -462.39,221.28 -161.89,54.49 -331.17,89.49 -502.28,96 -170.89,6.2 -343.19,-14.73 -506.57,-66.02 -163.64,-50.25 -317.8,-129.38 -456.62,-229.01 -138.12,-100.81 -262.79,-219.83 -368.92,-353.67 230.93,249.72 518.89,445.43 839.13,534.18 319.85,90.49 662.47,65.72 975.38,-43.13 157.61,-53 309.76,-122.74 450.29,-211.88 141.44,-87.57 268.25,-199.08 375.3,-327.85 107.1,-128.95 190.51,-278.52 247.76,-438.49 57.81,-159.75 89.66,-330.91 87.92,-503.24z"/>
    <path class="fil9" d="M4012.23 5661.79c-47.58,229.18 -342.79,358.92 -659.28,289.83 -316.53,-69.13 -534.57,-310.94 -486.99,-540.12 47.58,-229.18 342.75,-358.92 659.28,-289.83 316.53,69.13 534.53,310.94 486.99,540.12z"/>
    <path class="fil11" d="M1588.6 5241.4c-22.68,-14.77 -10.79,-75.55 26.52,-135.68 37.36,-60.13 85.99,-96.87 108.63,-82.1 22.68,14.81 10.79,75.55 -26.52,135.68 -37.32,60.17 -85.95,96.92 -108.63,82.1z"/>
    <path class="fil11" d="M2241.55 4639.92c120.73,-80.58 255.53,-138.34 394,-181.38 138.82,-42.78 283.28,-67.82 428.87,-74.02 72.8,-1.84 145.81,-0.52 218.35,7.17 72.32,9.22 144.63,19.75 214.81,39.98 140.96,36.92 275.33,98.45 395.1,179.72 -132.35,-57.37 -267.33,-103.47 -406.02,-130.21 -138.47,-26.96 -279.35,-37.58 -419.87,-31.68 -140.57,4.76 -280.57,26.09 -418.61,57.94 -137.82,33.03 -274.06,75.99 -406.63,132.49z"/>
    <g>
     <path class="fil11" d="M4974.11 6018.18c16.47,13.59 26.57,29.15 35.18,45.18 8.26,16.17 14.11,32.99 17.92,50.34 3.76,17.3 5.37,35.13 4.54,53.31 -1.22,18.31 -4.02,36.79 -13.41,56.24 -16.78,-14.77 -26.96,-30.41 -35.52,-46.32 -8.21,-15.99 -13.94,-32.33 -17.52,-49.2 -3.63,-16.82 -5.11,-34.17 -4.24,-52.22 1.27,-18.13 4.02,-36.7 13.07,-57.33z"/>
     <path class="fil11" d="M4127.5 4751.09c96.74,52.96 184.09,122.79 264.97,198.82 81.14,76.03 155.29,160.06 221.67,250.11 17.09,22.15 32.6,45.49 48.07,68.82 15.21,23.55 32.03,45.97 45.84,70.39 27.83,48.72 57.29,96.39 80.49,147.65 50.77,99.93 88.44,206.51 116.97,314.57 -53.18,-98.32 -102.42,-196.54 -160.23,-289.79 -55.76,-94.3 -116.84,-184.83 -181.64,-272.36 -63.62,-88.53 -133.71,-171.99 -205.98,-253.61 -72.84,-81.27 -148.78,-159.84 -230.15,-234.6z"/>
    </g>
    <g>
     <path class="fil11" d="M912.46 11496.36c-17.13,9.88 -33.17,13.07 -48.9,14.73 -15.64,1.27 -30.85,0 -45.57,-3.41 -14.73,-3.36 -28.97,-8.96 -42.56,-17 -13.5,-8.43 -26.57,-18.44 -37.8,-35.04 17.87,-9.79 33.95,-13.02 49.59,-14.68 15.51,-1.27 30.41,-0.09 44.83,3.32 14.42,3.41 28.36,8.91 41.82,16.95 13.41,8.43 26.57,18.44 38.58,35.13z"/>
     <path class="fil11" d="M2387.01 11515.54c-103.21,30.94 -209.22,49.73 -315.61,63.14 -106.4,13.9 -213.58,20.41 -320.86,22.2 -53.61,0.83 -107.32,-0.83 -160.93,-2.1 -53.53,-3.85 -107.19,-5.2 -160.49,-12.15 -106.79,-10.01 -212.89,-29.23 -316.84,-56.15 107.49,0.09 213.45,5.03 319.63,5.51 106.05,1.35 211.92,1.92 317.8,-0.13 105.87,-0.48 211.75,-4.15 317.84,-7.56l319.46 -12.76z"/>
    </g>
    <g>
     <g>
      <path class="fil12" d="M5773.66 6696.2c-17.09,9.92 -33.12,13.11 -48.85,14.77 -15.64,1.27 -30.85,0 -45.57,-3.41 -14.73,-3.36 -28.97,-8.96 -42.56,-17.04 -13.5,-8.39 -26.57,-18.44 -37.8,-35 17.87,-9.79 33.91,-13.02 49.59,-14.68 15.51,-1.27 30.41,-0.09 44.83,3.32 14.42,3.41 28.36,8.91 41.86,16.95 13.37,8.43 26.52,18.44 38.5,35.09z"/>
      <path class="fil12" d="M7248.26 6715.43c-103.21,30.94 -209.22,49.68 -315.57,63.14 -106.44,13.9 -213.63,20.36 -320.9,22.15 -53.66,0.87 -107.32,-0.79 -160.93,-2.1 -53.57,-3.85 -107.19,-5.16 -160.49,-12.1 -106.79,-10.05 -212.89,-29.23 -316.84,-56.15 107.49,0.09 213.45,5.03 319.63,5.46 106.05,1.4 211.92,1.97 317.8,-0.09 105.87,-0.48 211.75,-4.15 317.84,-7.6l319.46 -12.72z"/>
     </g>
    </g>
    <g>
     <g>
      <path class="fil12" d="M6014.38 10707.61c-12.32,15.73 -26.04,24.78 -40.03,32.29 -14.11,7.12 -28.66,11.75 -43.56,14.2 -14.9,2.45 -30.15,2.67 -45.71,0.39 -15.56,-2.71 -31.33,-7.04 -47.76,-18.13 13.07,-15.91 26.79,-25.04 40.72,-32.51 13.98,-7.12 28.23,-11.67 42.87,-13.98 14.59,-2.36 29.54,-2.53 44.96,-0.17 15.51,2.71 31.33,6.99 48.5,17.92z"/>
      <path class="fil12" d="M6806.14 10425.6c-97.57,42.21 -196.06,81.97 -295.03,121.08 -98.8,39.98 -198.95,75.72 -298.84,116.58 106.31,-14.55 211.75,-37.14 314.57,-68.47 52.04,-13.85 102.29,-33.03 153.42,-49.81 50.25,-19.23 100.68,-38.15 150.18,-59.34 70.48,-30.24 140.04,-62.88 208.17,-98.36l-12.76 -57.29c-72.97,32.64 -146.03,65.02 -219.7,95.61z"/>
     </g>
    </g>
    <g>
     <path class="fil11" d="M3593.5 10346.42c-12.76,15.34 -26.7,23.99 -40.94,31.11 -14.24,6.69 -28.93,10.84 -43.91,12.85 -14.94,2.05 -30.19,1.84 -45.66,-0.92 -15.51,-3.15 -31.16,-7.95 -47.28,-19.58 13.5,-15.51 27.53,-24.21 41.64,-31.24 14.16,-6.69 28.58,-10.84 43.22,-12.76 14.68,-1.88 29.63,-1.62 44.96,1.18 15.42,3.19 31.11,7.91 47.98,19.36z"/>
     <path class="fil11" d="M4984.38 9843.92c-86.47,65.46 -179.72,120.51 -275.06,170.68 -95.26,50.6 -193.75,94.56 -293.85,134.1 -50.08,19.71 -100.98,37.1 -151.76,54.84 -51.6,15.29 -102.38,32.99 -154.77,45.27 -103.65,28.27 -209.7,47.72 -316.36,59.12 100.98,-37.88 202.14,-70.66 301.98,-107.67 100.02,-36.18 199.6,-72.97 298.31,-112.3 99.28,-37.84 197.46,-78.65 295.86,-119.33l295.65 -124.71z"/>
    </g>
    <g>
     <path class="fil11" d="M4647.44 8886.41c14.33,-16.6 30.11,-26.57 46.23,-35.04 16.17,-8.04 32.9,-13.55 50.03,-17 17.13,-3.41 34.65,-4.59 52.61,-3.23 18,1.7 36.27,5.03 55.54,15.12 -14.77,16.78 -30.59,26.79 -46.67,35.18 -16.12,8.04 -32.64,13.55 -49.59,16.82 -16.91,3.28 -34.26,4.46 -52.13,3.1 -17.96,-1.75 -36.22,-5.03 -56.02,-14.94z"/>
     <path class="fil11" d="M2981.06 9459.18c109.85,-66.72 224.64,-123.83 341.05,-176.71 116.32,-53.35 235.08,-100.68 355.03,-144.63 60.04,-21.67 120.69,-41.73 181.25,-61.92 61.22,-18.05 121.78,-38.28 183.7,-53.88 122.92,-34.21 247.84,-61.26 373.95,-80.79 -119.64,45.79 -239.98,86.21 -359.49,129.34 -119.64,42.6 -239.28,84.68 -358.31,128.55 -238.97,85.51 -476.07,175.31 -717.18,260.03z"/>
    </g>
    <path class="fil11" d="M1381.92 8409.6c0,0 392.52,-271.57 763.02,-116.58l57.46 181.6 -591.51 261.78 -228.97 -326.8z"/>
    <path class="fil12" d="M1681.2 8410.83c144.9,59.12 299.75,80.79 453.08,92.72 76.77,6.42 153.94,8.04 230.93,7.56l115.44 -2.27 115.36 -7.25c38.45,-1.66 76.77,-6.47 115.09,-10.57 38.28,-4.41 76.69,-7.04 114.92,-12.15l114.48 -16.47c38.19,-5.16 76.34,-11.01 114.18,-18.75 75.81,-14.81 152.19,-25.65 227.39,-43.91 75.29,-17.13 151.49,-31.5 225.03,-53.75 74.15,-20.36 149.35,-37.27 221.49,-64.1l109.28 -36.92c36.44,-12.19 71.14,-29.01 107.05,-42.69 144.2,-54.23 279.43,-128.77 412.79,-206.03 130.96,-81.54 255.53,-174.39 369.05,-280.83 113.26,-106.36 217.87,-224.99 297.18,-362.68 -60.65,148.09 -157.74,278.47 -264.32,396.76 -108.5,117.15 -230.58,221.41 -362.24,311.11 -264.4,178.32 -561.97,300.28 -866.97,379.93 -305.17,76.07 -616.07,129.47 -930.94,136.81 -157.04,6.03 -314.87,-3.98 -470.43,-26.44 -77.73,-11.67 -154.86,-28.53 -230.45,-49.99 -75.2,-22.68 -150.01,-49.42 -217.43,-90.1z"/>
    <g>
     <path class="fil9" d="M1869.57 7090.69c0,0 64.15,124.66 252.34,191.91l-252.34 -191.91z"/>
     <path class="fil9" d="M1981.82 7079.94c0,0 64.19,124.62 252.39,191.87l-252.39 -191.87z"/>
     <path class="fil9" d="M2178.67 7096.37c0,0 43.35,84.16 170.54,129.51l-170.54 -129.51z"/>
    </g>
    <g>
     <path class="fil9" d="M4277.12 6445.48c0,0 109.33,-85.47 143.02,-286.86l-143.02 286.86z"/>
     <path class="fil9" d="M4248.24 6333.66c0,0 109.33,-85.43 143.06,-286.86l-143.06 286.86z"/>
     <path class="fil9" d="M4231.67 6131.83c0,0 73.8,-57.68 96.48,-193.83l-96.48 193.83z"/>
    </g>
    <path class="fil11" d="M1417.1 6793.34c-53.7,-256.93 -38.02,-763.37 336.54,-1244.81 217.43,-279.43 373.73,-423.98 1022.44,-682.62 9.18,-3.67 -881.56,187.28 -1291.95,850.54 -387.76,626.68 -62.66,1097.73 -67.03,1076.88z"/>
    <path class="fil12" d="M3737.56 4880.86c24.99,-5.64 48.07,-4.33 70.61,-1.05 22.37,3.63 43.87,10.09 64.36,18.96 20.54,8.83 39.98,20.19 58.12,34.13 17.96,14.24 34.96,30.32 48.46,52.65 -25.52,1.97 -47.85,-1.66 -69.52,-6.34 -21.54,-5.03 -42.04,-11.93 -61.79,-20.58 -19.75,-8.61 -38.85,-18.88 -57.33,-31.2 -18.35,-12.72 -36.44,-26.57 -52.92,-46.58z"/>
    <path class="fil12" d="M1514.32 5672.63c101.2,-164.34 231.89,-310.76 381.6,-432.81 149.48,-122.65 317.41,-221.1 493.46,-297.83 175.92,-75.77 360.36,-136.77 551.57,-159.88 190.34,-25.04 385.48,-13.55 568.7,37.4 -188.72,-20.32 -377.01,-13.98 -560.7,18.57 -45.97,7.56 -91.54,17.7 -136.86,28.84 -45.4,10.66 -90.36,23.16 -135.02,36.84 -88.92,28.45 -177.54,60.21 -263.92,96.48 -172.55,73.41 -338.55,163.55 -490.14,276.24 -152.19,111.51 -290.27,244.43 -408.69,396.15z"/>
    <g>
     <path class="fil12" d="M2321.25 8050.82c-24.99,5.64 -48.07,4.28 -70.57,1.05 -22.42,-3.67 -43.91,-10.14 -64.41,-19.01 -20.49,-8.83 -40.03,-20.14 -58.12,-34.08 -17.96,-14.29 -34.96,-30.37 -48.41,-52.7 25.47,-1.97 47.8,1.62 69.48,6.34 21.54,5.03 41.99,11.93 61.79,20.58 19.75,8.61 38.85,18.88 57.33,31.2 18.4,12.76 36.44,26.57 52.92,46.62z"/>
     <path class="fil12" d="M4544.49 7259.01c-101.2,164.34 -231.89,310.76 -381.6,432.81 -149.48,122.61 -317.41,221.1 -493.46,297.83 -175.92,75.77 -360.36,136.77 -551.57,159.88 -190.34,25.04 -385.48,13.55 -568.7,-37.36 188.72,20.27 377.01,13.94 560.7,-18.61 46.01,-7.52 91.54,-17.7 136.86,-28.84 45.4,-10.62 90.36,-23.16 135.02,-36.84 88.92,-28.45 177.54,-60.21 263.92,-96.48 172.55,-73.41 338.55,-163.6 490.14,-276.2 152.19,-111.6 290.27,-244.48 408.69,-396.19z"/>
    </g>
    <path class="fil9" d="M2835.73 5737.47c24.99,28.8 50.86,56.41 79.22,81.23 13.55,13.07 28.18,24.86 42.21,37.27l44.35 34.26c60.52,43.56 125.45,80.23 194.23,106.4 68.3,27.22 140.48,44.53 214.02,50.03 73.63,8.61 147.74,0.09 222.59,-7.91 -18.05,5.07 -36.31,9.88 -54.66,14.33 -18.4,4.19 -36.66,10.31 -55.58,11.71 -37.62,4.02 -75.51,9.18 -113.65,6.82 -38.36,1.62 -75.99,-6.25 -113.96,-11.58 -18.79,-3.5 -37.05,-9.74 -55.62,-14.51 -18.7,-4.41 -36.62,-11.27 -54.44,-18.53 -71.44,-28.1 -138.82,-67.25 -197.59,-116.93 -58.68,-49.55 -111.56,-106.75 -151.1,-172.6z"/>
    <path class="fil9" d="M1072.56 6487.43c4.72,46.71 9.88,93.16 16.87,139.39 6.29,46.27 13.37,92.42 21.72,138.3 16.52,91.72 35.31,182.95 58.6,273.01 22.11,90.32 48.72,179.41 78.48,267.51 7.56,21.98 14.55,44.22 22.59,66.07l25.08 65.11c15.12,44.22 35.74,85.91 52.22,129.91 -46.75,-80.62 -89.1,-164.56 -122.74,-252.26 -18.88,-43.04 -32.12,-88.22 -48.02,-132.44 -13.2,-45.14 -27.35,-90.01 -38.28,-135.81 -22.81,-91.28 -40.99,-183.83 -51.91,-277.34 -11.4,-93.33 -18.35,-187.5 -14.59,-281.44z"/>
    <path class="fil11" d="M2494.77 11838.63c-30.11,-38.58 -52.74,-83.55 -62.75,-137.95 -55.93,-302.81 221.45,-476.07 184.88,-822.31 -42.38,-401.13 -544.27,-804.26 -768.08,-708.05 -46.67,20.06 -87.78,64.89 -123.09,129.51l384.61 1274.91 105.26 263.88 279.17 0z"/>
    <path class="fil11" d="M1812.33 9117.39c37.8,-29.84 17.65,-152.02 -137.51,-466.71 -168.1,-158 -292.89,-241.07 -292.89,-241.07 -1427.72,430.62 -1258.48,2797.23 -1258.48,2797.23 40.59,35.83 99.06,67.86 170.85,96.52 -66.72,148.7 -102.51,332.7 -116.19,535.27l368.31 0c-31.59,-37.27 -61.22,-78.22 -88.09,-123.53 -74.55,-125.54 -105.74,-312.99 -168.23,-687.86 -78.7,-472.18 -115.84,-710.27 -8.61,-808.63 198.55,-182.21 716.87,129.51 743.35,56.89 42.47,-116.54 -621.97,-447.05 -570.89,-553.84 50.56,-105.83 584.87,46.67 594.96,4.85 8.26,-34.08 -361.06,-72.27 -434.21,-278.17 -74.02,-208.39 159.4,-576.96 441.33,-637.17 358.92,-76.64 671.34,373.29 756.29,306.22z"/>
    <g>
     <path class="fil9" d="M1581.7 8547.29c0,0 -120.29,-68.21 -313.65,-18.61l313.65 18.61z"/>
     <path class="fil9" d="M1493.57 8619.39c0,0 -120.29,-68.17 -313.6,-18.57l313.6 18.57z"/>
     <path class="fil9" d="M1320.18 8716.3c0,0 -81.27,-46.01 -211.88,-12.41l211.88 12.41z"/>
    </g>
    <g>
     <path class="fil9" d="M7166.5 4481.53c0,0 -120.34,-68.17 -313.65,-18.61l313.65 18.61z"/>
     <path class="fil9" d="M7078.37 4553.67c0,0 -120.29,-68.17 -313.65,-18.61l313.65 18.61z"/>
     <path class="fil9" d="M6904.94 4650.59c0,0 -81.23,-46.01 -211.88,-12.41l211.88 12.41z"/>
    </g>
    <g>
     <path class="fil11" d="M685.72 10315.31c0,0 -131.35,-41.47 -310.72,47.58l310.72 -47.58z"/>
     <path class="fil11" d="M613.84 10404.4c0,0 -131.35,-41.47 -310.72,47.54l310.72 -47.54z"/>
     <path class="fil11" d="M463.39 10535.67c0,0 -88.7,-28.01 -209.87,32.25l209.87 -32.25z"/>
    </g>
    <g>
     <g>
      <g>
       <path class="fil8" d="M5534.86 1325.34l-483.36 -996c0,0 -92.77,-196.94 -244.43,-117.15 -151.67,79.79 -80.71,275.59 -80.71,275.59l486.55 1258.44c0,0 -98.18,159.84 -65.19,250.86 32.99,91.02 384.48,587.97 534.84,606.02 150.4,18 668.63,206.59 1176.25,-90.41l-74.98 -206.86c0,0 242.03,-421.8 214.33,-599.59 -27.7,-177.75 -227.83,-628.83 -227.83,-628.83l-46.01 -811.12c0,0 21.85,-243.74 -169.5,-265.01 -191.3,-21.24 -179.98,238.1 -179.98,238.1l6.07 675.67 -846.04 410.3z"/>
      </g>
      <path class="fil12" d="M5588.56 2174.78c37.84,15.25 171.59,-143.76 224.38,-165.56 64.19,-26.48 74.98,-86.91 136.02,-156.21 74.76,-84.81 113.26,-56.24 211.18,-133.67 155.99,-123.4 203.1,-310.55 214.72,-356.78 22.72,-90.19 23.38,-167.92 20.32,-219.13 0,0 85.51,-42.34 167.44,-55.71 81.89,-13.41 75.94,-23.73 75.94,-23.73 0,0 -155.25,-36.31 -344.76,16.08l-601.6 632.28 -103.65 462.43z"/>
      <g>
       <path class="fil8" d="M5952.55 949.73c0,0 -367.57,-133.67 -437.79,85.69 -70.22,219.35 18.09,708.79 124.84,724.61 106.71,15.82 277.07,-20.84 243.39,-215.2 -33.69,-194.32 -31.11,-340.52 -31.11,-340.52 0,0 48.28,3.23 75.03,32.38l25.65 -286.95z"/>
       <path class="fil12" d="M5952.55 949.73c-78.65,-22.5 -160.41,-37.45 -241.03,-32.2 -39.98,2.71 -80.05,10.92 -114.05,30.5 -34.48,18.83 -58.95,51.69 -70.7,89.1 -22.63,77.82 -24.91,162.33 -22.11,244.91 3.71,82.89 14.59,165.74 32.9,246.44 9.53,40.2 20.1,80.18 34.48,118.28 7.21,18.96 15.34,37.58 25.17,54.53 9.66,16.74 21.67,32.9 35.04,40.42 3.32,1.84 6.38,2.84 9.74,3.5l14.51 1.79c9.7,1.05 19.49,1.49 29.28,1.49 19.58,0.09 39.15,-1.7 58.2,-5.64 37.88,-7.78 74.41,-24.73 98.67,-53.75 24.95,-28.45 34.78,-68.51 33.21,-108.41 -0.61,-19.93 -4.33,-40.11 -7.3,-61.26 -2.97,-20.89 -5.72,-41.82 -8.04,-62.75 -9.83,-83.81 -13.55,-168.14 -11.54,-252.43l0.09 -3.32 3.02 0.39c27.75,3.85 55.84,14.07 74.81,35.35 -20.27,-19.84 -48.63,-27.14 -75.2,-29.41l3.1 -2.93c2.05,83.72 12.02,167.18 23.64,249.85 3.02,20.71 6.42,41.29 10.05,61.87 3.5,20.27 8.17,41.34 9.61,63.45 3.28,43.3 -5.99,91.37 -35.22,127.11 -28.97,35.92 -71.53,55.28 -113.17,64.36 -21.11,4.63 -42.47,6.86 -63.84,6.99 -10.71,0.09 -21.37,-0.26 -32.07,-1.27l-15.99 -1.79c-6.73,-1.09 -13.55,-3.36 -19.23,-6.47 -22.81,-13.07 -35.66,-32.51 -47.19,-51.21 -11.27,-19.05 -20.1,-38.85 -28.01,-58.86 -15.6,-40.07 -27.31,-81.19 -36.22,-122.79 -17.96,-83.11 -28.05,-167.57 -30.94,-252.47 -1.84,-84.68 0.48,-171.16 28.23,-253.83 14.51,-41.99 44.79,-79.35 83.76,-98.84 38.5,-20.14 81.14,-27.53 122.7,-28.18 83.33,-0.22 164.86,18.31 241.64,47.45z"/>
      </g>
      <g>
       <path class="fil8" d="M6636.91 1064.08c0,0 -78.04,-37.93 -343.1,15.99 0,0 -2.53,170.46 31.16,364.82 33.69,194.32 -136.68,230.98 -243.43,215.16 -106.71,-15.82 -195.06,-505.21 -124.8,-724.61 70.22,-219.35 423.54,-89.79 423.54,-89.79l256.63 218.44z"/>
       <path class="fil12" d="M6636.91 1064.08c-27.57,-9 -56.8,-9.48 -85.43,-9.83 -28.71,0.04 -57.46,1.92 -86.04,5.11 -57.2,6.12 -113.7,17.57 -169.98,29.41l6.95 -8.52c1.18,83.68 7.95,167.84 18.7,250.99 5.2,41.95 12.93,82.06 18.88,124.97 6.2,43.26 2.53,91.37 -20.97,131.83 -23.68,40.29 -64.89,66.2 -106.4,78.39 -41.99,12.58 -85.56,15.16 -128.47,9.88 -4.63,-0.09 -12.8,-2.49 -19.05,-4.68 -5.72,-3.15 -12.1,-6.07 -16.52,-10.27 -10.14,-7.65 -17.43,-16.82 -24.25,-26 -13.41,-18.48 -22.9,-38.41 -31.68,-58.33 -16.6,-40.16 -28.88,-81.36 -38.58,-122.96 -19.4,-83.28 -30.54,-168.01 -34.61,-253.26 -3.67,-85.08 -0.44,-171.59 22.98,-255.18 11.06,-42.08 36.7,-82.76 73.41,-106.88 36.62,-24.25 79.4,-34.3 121.08,-36.57 83.81,-3.67 166.13,14.59 243.34,43.48 -78.87,-22.98 -161.46,-37.67 -242.25,-29.76 -40.03,4.46 -79.79,15.42 -112.04,38.23 -32.29,22.98 -53.27,58.2 -62.62,97.7 -20.06,79.7 -20.1,164.47 -16.39,247.54 4.76,83.33 16.56,166.52 36.18,247.27 9.88,40.37 22.2,80.05 38.1,117.45 8.17,18.48 17.52,36.4 28.4,51.95 11.45,15.29 23.25,28.27 38.45,28.8 38.71,5.2 78.91,3.15 116.14,-7.69 37.05,-10.49 71.01,-32.16 90.45,-64.41 41.38,-67.07 6.42,-154.51 1.88,-238.54 -8.39,-84.51 -12.76,-169.15 -11.45,-254.27l0.09 -7.25 6.86 -1.31c57.02,-10.75 114.66,-18.4 172.55,-21.98 28.97,-1.75 58.03,-2.18 87,-0.79 28.8,1.92 58.2,4.68 85.25,15.47z"/>
      </g>
      <g>
       <path class="fil8" d="M5212.91 1746.21c0,0 519.41,-721.99 723.51,-500.05 204.1,221.89 1.27,346.29 -183.39,444.91 0,0 -62.05,310.11 -164.47,483.71l-375.65 -428.57z"/>
       <path class="fil12" d="M5212.91 1746.21c73.58,-107.45 154.25,-210.13 243.3,-305.26 44.44,-47.63 91.19,-93.25 141.44,-135.15 50.64,-41.16 105.22,-79.13 168.19,-102.64 31.29,-11.62 66.37,-17.87 101.59,-11.93 35.35,5.24 67.77,28.4 89.01,54.49 21.98,25.04 42.73,52.13 57.5,83.59 16.25,30.54 23.6,66.99 22.15,102.95 -2.49,36.66 -18.88,69.78 -38.71,97.7 -20.01,28.49 -45.97,50.03 -71.53,71.18 -52.7,40.16 -109.81,71.62 -167.22,100.89l6.25 -8.48c-19.31,84.11 -42.38,166.7 -70,248.02 -28.84,80.62 -60.74,161.02 -106.31,233.2 39.37,-75.72 67.95,-156.3 91.76,-238.1 24.25,-81.62 44.79,-164.73 60.91,-248.1l1.09 -5.59 5.16 -2.88c55.8,-31.59 111.56,-63.1 161.32,-101.81 48.41,-38.71 92.81,-88.57 97.14,-148.39 2.84,-59.56 -31.99,-116.06 -72.67,-162.99 -19.53,-24.03 -42.65,-40.37 -71.09,-45.44 -27.97,-5.07 -58.33,-0.7 -87.04,9.7 -57.81,20.71 -111.29,56.67 -161.15,96.09 -50.38,39.2 -98.05,82.54 -143.58,128.16 -90.84,91.63 -176.57,189.07 -257.5,290.8z"/>
      </g>
     </g>
    </g>
    <g>
     <path class="fil8" d="M5495.01 4176.79l1881.54 34.56 -517.75 -1698.67 -1176.25 90.41c0,0 174.43,587.27 -187.54,1573.7z"/>
    </g>
    <path class="fil12" d="M6634.11 8716c-69.61,-9.57 -140,-9.61 -209.78,-19.14 -69.56,-9.92 -138.52,-24.25 -206.29,-43.87 -67.6,-20.14 -133.1,-47.15 -196.02,-81.41l-3.45 5.46c58.03,43.39 122.48,77.65 189.12,106.66 67.55,26.44 137.07,47.67 207.69,64.36 70.61,15.47 141.92,32.64 214.5,32.86 17.13,0.09 34.21,-0.22 51.34,-0.87l-0.39 -1.84 -16.3 -30.67c7.78,-8.04 15.51,-16.34 23.29,-24.56 -17.96,-2.36 -35.83,-4.68 -53.7,-6.99z"/>
    <g>
     <g>
      <path class="fil12" d="M5174.41 790.06c26.22,-15.64 50.86,-34.13 74.59,-53.79l-9.96 -20.54c-21.15,24.64 -43,48.81 -66.5,71.7l1.88 2.62z"/>
     </g>
     <g>
      <path class="fil12" d="M5117.39 737.02l1.31 2.97c37.67,-12.06 76.21,-20.76 113.74,-37.8l-11.23 -23.16c-32.33,20.89 -69.3,37.23 -103.82,57.98z"/>
     </g>
    </g>
    <path class="fil7" d="M4751.87 518.54c-29.45,-88.53 -1.44,-204.02 63.8,-224.12 56.8,-17.48 115.14,45.44 123,54.18 72.93,80.66 101.37,240.55 49.77,294.07 -54.05,56.02 -196.59,-3.8 -236.57,-124.14z"/>
    <path class="fil7" d="M4805.36 656.62c0,0 32.2,43.17 82.89,37.36l-82.89 -37.36z"/>
    <path class="fil7" d="M4922.77 279.22c16.17,7.6 30.5,18.53 43.83,30.59 13.41,12.02 25.04,26.17 35,41.6 9.48,15.73 17.09,32.9 20.84,51.17 3.67,18.31 3.1,37.32 -1.79,54.71 -1.66,-18.13 -4.28,-35.13 -9.96,-51.34 -6.12,-15.99 -13.37,-31.33 -22.42,-45.79 -18.26,-28.97 -41.03,-54.97 -65.5,-80.92z"/>
    <path class="fil7" d="M6419.78 218.74c3.63,-81.71 62.44,-166.48 121.78,-161.46 51.65,4.37 79.53,74.72 83.24,84.38 34.17,89.58 7.52,229.01 -51.17,255.66 -61.48,27.88 -158.79,-67.55 -153.85,-178.58z"/>
    <path class="fil7" d="M6420.27 348.6c0,0 12.76,45.71 55.84,57.63l-55.84 -57.63z"/>
    <path class="fil7" d="M6633.46 80.01c11.14,11.27 19.58,24.78 26.83,38.93 7.34,14.16 12.45,29.58 15.82,45.44 2.75,15.99 3.63,32.6 0.79,48.76 -2.93,16.17 -9.48,31.5 -19.27,43.87 3.93,-15.51 6.86,-30.19 7.12,-45.14 -0.17,-14.94 -1.31,-29.67 -4.19,-44.35 -5.72,-29.41 -15.91,-57.94 -27.09,-87.52z"/>
    <path class="fil7" d="M5193.38 1989.91c25.17,78.17 100.46,162.64 183.92,160.19 150.53,-4.41 313.82,-291.41 248.63,-497.48 -10.44,-33.03 -36.75,-116.14 -99.36,-129.12 -130.04,-27 -402.13,251.95 -333.18,466.41z"/>
    <path class="fil7" d="M5634.83 1196.96c-38.45,5.55 -75.51,-21.11 -79.83,-60.69 -5.77,-52.48 4.72,-99.41 34.17,-127.15 23.03,-21.72 57.29,-25.26 125.76,-32.33 69.52,-7.21 122.22,-12.67 141.22,16.39 18.66,28.53 -4.85,75.51 -9.96,85.73 -40.07,80.05 -141.92,108.1 -211.36,118.07z"/>
    <path class="fil7" d="M5268.23 973.63c10.22,31.9 -19.49,81.84 -68.12,109.55 -64.45,36.79 -123.44,55.36 -160.45,45.05 -28.88,-8.04 -36.31,-37.27 -51.12,-95.69 -15.08,-59.3 -26.48,-104.21 7.82,-139.08 33.69,-34.21 93.9,-40.9 107.01,-42.34 102.69,-11.4 146.38,64.98 164.86,122.52z"/>
    <path class="fil7" d="M5392.54 1373.88c11.75,30.81 -9.92,74.76 -50.03,96.26 -53.18,28.49 -103.21,40.46 -136.51,27.44 -25.96,-10.18 -35.04,-38.23 -53.09,-94.25 -18.35,-56.85 -32.29,-99.98 -5.29,-129.43 26.48,-28.93 78.61,-29.67 89.97,-29.84 88.83,-1.22 133.8,74.28 154.95,129.82z"/>
    <path class="fil7" d="M6698.21 819.78c-2.01,33.51 -47.67,68.56 -102.82,75.86 -73.15,9.7 -134.67,4.5 -165.3,-19.1 -23.95,-18.44 -20.27,-48.41 -12.98,-108.32 7.43,-60.78 13.07,-106.88 57.5,-126.19 43.65,-19.01 101.99,-2.32 114.7,1.31 99.5,28.4 112.52,115.97 108.89,176.44z"/>
    <path class="fil7" d="M6073.71 1085.45c-37.75,5.29 -73.8,-22.11 -78.08,-60.96 -5.77,-52.48 4.72,-99.41 34.21,-127.15 23.03,-21.72 57.24,-25.26 125.76,-32.38 69.48,-7.21 122.17,-12.63 141.18,16.43 18.66,28.53 -4.85,75.46 -9.96,85.73 -40.37,80.75 -143.67,108.58 -213.1,118.33z"/>
    <path class="fil7" d="M6091.72 2405.76c-134.54,-124.66 85.99,-805.14 485.37,-888.51 17.48,-3.63 211.01,-41.69 282.19,58.25 109.89,154.2 -107.4,586.4 -442.25,764.28 -72.19,38.32 -252.08,133.88 -325.32,65.98z"/>
    <path class="fil11" d="M5574.53 4495.9c0,0 518.84,-253.57 1067.18,-298.05l-985.73 -18.09 -81.45 316.14z"/>
    <path class="fil12" d="M5465.86 1176.99l13.46 28.75 11.97 213.98 -47.63 48.94c0,0 -18.92,-187.02 22.2,-291.67z"/>
    <path class="fil7" d="M5595.38 2345.11c-17.96,-10.31 -16.52,-37.27 2.53,-45.23 28.97,-12.1 61.52,-28.53 95.08,-51.26 92.94,-62.83 111.16,-117.67 149.66,-113.22 68.56,8.04 139.43,197.29 83.46,263.88 -44.66,53.13 -175.74,34.83 -330.73,-54.18z"/>
    <g>
     <path class="fil7" d="M5495.01 4176.79l186.14 3.45c24.08,-555.07 230.32,-1105.2 239.32,-1538.22l-222.76 29.67c33.03,181.25 87.26,714.91 -202.7,1505.1z"/>
    </g>
    <path class="fil7" d="M680.61 7622.64l-18.44 -58.38c0,0 -1241.48,270.91 -324.57,2054.4l25.39 -44.57c-726.7,-1489.2 97.83,-1877.26 317.62,-1951.45z"/>
    <g>
     <g>
      <path class="fil12" d="M576.22 8167.79c-39.28,-59.78 -76.38,-121.56 -127.85,-180.38 0.96,40.03 10.62,77.52 22.94,113.87 12.72,36.18 29.45,70.87 50.34,103.3 6.25,9.83 13.02,19.36 20.1,28.75 16.82,-16.17 32.9,-31.2 47.93,-44.53 -4.46,-7.04 -8.96,-13.98 -13.46,-21.02z"/>
      <path class="fil12" d="M239.58 8558.52c33.95,19.75 70.26,30.54 107.01,38.41 31.11,6.29 62.88,8.74 94.78,8.56 -2.32,-22.15 -3.8,-44.05 -4.54,-65.67 -63.88,3.1 -128.51,5.07 -197.24,18.7z"/>
      <path class="fil12" d="M489.44 8847.83c-1.84,1.18 -3.63,2.32 -5.51,3.45 -59.51,38.36 -120.86,74.46 -179.81,125.36 39.02,0.26 75.86,-8.48 111.69,-19.93 32.29,-10.75 63.27,-25.47 92.81,-43.13 -6.51,-21.19 -12.93,-43.17 -19.18,-65.76z"/>
     </g>
    </g>
    <g>
     <path class="fil12" d="M6706.69 510.98c-38.06,6.9 -76.64,12.23 -115.84,15.08l-0.17 3.28c39.02,6.55 78.83,8.83 118.59,7.56 2.36,-0.09 4.76,-0.09 7.12,-0.13 -31.02,18.4 -62.79,35.74 -95.91,51.17l0.96 3.1c38.8,-7.78 76.95,-19.88 113.74,-35.26 1.79,-0.74 3.63,-1.44 5.42,-2.18l-2.84 -49.68c-10.31,2.36 -20.62,5.2 -31.07,7.08z"/>
    </g>
    <g>
     <path class="fil12" d="M6706.91 1070.98l0.31 3.23c20.89,0.7 41.86,0 62.79,-1.66l-0.96 -16.87c-20.45,5.68 -41.12,10.88 -62.14,15.29z"/>
    </g>
    <g>
     <path class="fil12" d="M5391.89 1031c-18.61,21.32 -37.8,42.3 -58.25,62.27l1.88 2.62c22.9,-13.68 44.48,-29.54 65.5,-46.32l-19.53 -40.24c-28.71,21.89 -61.39,38.76 -96.66,51.04l0.7 3.19c20.36,-2.49 40.81,-6.38 60.91,-12.54 15.64,-5.16 30.72,-12.15 45.44,-20.01z"/>
    </g>
    <g>
     <path class="fil12" d="M6783.95 2306.18c-143.8,107.19 -376.53,252.65 -607.02,277.29 0,0 386.45,36.84 681.61,-71.44l-74.59 -205.85z"/>
    </g>
    <g>
     <path class="fil12" d="M5760.37 2612.18c-27.79,-2.88 -55.14,-10.22 -82.85,-10.14 1.66,0.31 3.41,0.83 5.03,1.05 0,0 6.69,22.81 14.73,66.37 20.8,-0.57 41.69,-3.85 62.35,-5.24 32.33,-2.14 64.54,-5.77 96.57,-10.53 32.03,-5.42 63.88,-10.49 95.43,-18.7l-0.66 -6.42c-32.07,-2.23 -63.97,-4.02 -95.74,-7.38l-94.86 -9z"/>
    </g>
    <path class="fil12" d="M7070.15 10609.64c-66.11,23.07 -128.42,56.15 -193.53,82.76 -65.06,26.65 -130.78,51.95 -197.2,75.46 -66.02,24.82 -133.05,46.71 -200,69.65l1.53 6.34c69.52,-12.89 138.6,-28.23 207.51,-44.79 68.65,-17.43 136.94,-36.75 204.93,-57.55 67.64,-21.5 137.2,-39.33 201.13,-71.79 2.05,-1.05 4.06,-2.23 6.16,-3.28l-13.94 -62.66c-5.55,1.97 -11.1,3.89 -16.6,5.86z"/>
    <g>
     <path class="fil12" d="M7107.91 3833.91c7.82,11.58 12.37,22.33 16.17,32.9 3.58,10.53 5.99,20.71 7.3,30.63 1.35,9.88 1.57,19.44 0.57,28.53 -1.18,9.05 -3.15,17.83 -8.48,25.34 -7.87,-12.06 -12.45,-22.9 -16.25,-33.38 -3.58,-10.44 -5.94,-20.45 -7.17,-30.15 -1.27,-9.66 -1.49,-19.01 -0.48,-28.05 1.22,-9 3.15,-17.78 8.35,-25.82z"/>
     <path class="fil12" d="M6830.48 2842.98c33.95,69.43 63.01,140.74 89.75,212.27 26.87,71.57 50.6,143.63 72.27,215.73 10.75,36.05 20.45,72.1 30.24,108.1 8.7,36.01 18.48,72.05 25.69,107.84 16.17,71.75 28.1,142.97 36.14,212.8 -20.84,-72.27 -39.15,-143.45 -59.56,-214.81 -19.97,-71.27 -40.24,-142.4 -61.74,-213.58 -20.76,-71.14 -42.91,-142.32 -65.06,-213.63l-67.73 -214.72z"/>
    </g>
   </g>
  </g>
 </g>
</svg>
