<?xml version="1.0" encoding="UTF-8"?>
<!DOCTYPE svg PUBLIC "-//W3C//DTD SVG 1.1//EN" "http://www.w3.org/Graphics/SVG/1.1/DTD/svg11.dtd">
<!-- Creator: CorelDRAW 2017 -->
<svg xmlns="http://www.w3.org/2000/svg" xml:space="preserve" width="0.2in" height="0.200008in" version="1.1" style="shape-rendering:geometricPrecision; text-rendering:geometricPrecision; image-rendering:optimizeQuality; fill-rule:evenodd; clip-rule:evenodd"
viewBox="0 0 200.01 200.02"
 xmlns:xlink="http://www.w3.org/1999/xlink">
 <defs>
  <style type="text/css">
   <![CDATA[
    .fil0 {fill:silver;fill-rule:nonzero}
   ]]>
  </style>
 </defs>
 <g id="Layer_x0020_1">
  <metadata id="CorelCorpID_0Corel-Layer"/>
  <path class="fil0" d="M86.03 188.3c-4.65,3.44 -10.26,5.29 -16.16,5.29 -5.26,0 -10.32,-1.5 -14.74,-4.35 -1.14,0.34 -2.31,0.59 -3.5,0.77 -0.22,0.04 -0.44,0.07 -0.67,0.11 -1.17,0.15 -2.37,0.26 -3.59,0.26 -15.06,0 -27.31,-12.25 -27.31,-27.31 0,-3.39 0.63,-6.7 1.86,-9.85 -3.28,-4.61 -5.08,-10.17 -5.08,-15.85 0,-12.15 8.09,-22.8 19.56,-26.19 1.8,-13.42 13.24,-23.62 27.03,-23.62 2.49,0 4.97,0.35 7.39,1.04 1.16,-1.28 2.46,-2.41 3.86,-3.38l0 -23.36c0,-7.09 -5.76,-12.85 -12.85,-12.85l-19.27 0c-7.09,0 -12.85,5.76 -12.85,12.85l0 6.43c0,7.09 -5.76,12.85 -12.85,12.85l-6.43 0 5.79 7.71 -5.14 3.85 -11.08 -14.78 11.08 -14.78 5.14 3.86 -5.78 7.71 6.43 0c3.54,0 6.43,-2.88 6.43,-6.43l0 -6.43c0,-10.63 8.64,-19.28 19.28,-19.28l9.63 0 0 -6.43 6.43 0 0 6.43 3.21 0c10.63,0 19.28,8.65 19.28,19.28l0 20.24c2.07,-0.62 4.23,-0.96 6.43,-0.96 6.26,0 12.17,2.6 16.39,7.09 5.9,-4.6 13.08,-7.09 20.56,-7.09 1.64,0 3.24,0.15 4.82,0.37l0 -10.02 -3.78 0 0.12 -6.43 4.6 0c2.78,-9.64 11.38,-16.07 21.54,-16.07l12.85 0c8.85,0 16.06,-7.21 16.06,-16.06l0 -22.49 -7.71 5.78 -3.86 -5.14 14.78 -11.08 14.78 11.08 -3.85 5.14 -7.71 -5.78 0 22.49c0,12.4 -10.09,22.49 -22.49,22.49l-12.85 0c-8.86,0 -16.06,7.21 -16.06,16.06l0 11.58c11.98,4.21 20.84,14.95 22.26,28.12 7.69,2.29 13.84,7.85 17.05,14.93l2.46 0 0 6.43 -0.44 0c0.28,1.57 0.44,3.18 0.44,4.82 0,7.37 -2.94,14.33 -8.14,19.45 1.13,3.04 1.71,6.21 1.71,9.46 0,15.06 -12.25,27.31 -27.31,27.31 -5,0 -9.78,-1.33 -14,-3.88 -5.16,6.5 -12.92,10.3 -21.34,10.3 -9.07,0 -17.34,-4.4 -22.4,-11.72zm3.7 -6.35c3.55,7.18 10.72,11.64 18.7,11.64 6.39,0 12.29,-2.87 16.24,-7.79 -4.77,-4.65 -7.72,-10.91 -8.17,-17.71l6.41 -0.43c0.36,5.46 2.79,10.45 6.75,14.06l1.28 1c3.71,2.9 8.15,4.43 12.83,4.43 11.27,0 20.46,-8.98 20.84,-20.16 -0.38,-12.33 -8.78,-20.03 -19.45,-20.73l0.42 -6.02c8.39,0.56 15.7,4.45 20.33,10.81 3.3,-3.78 5.17,-8.6 5.17,-13.71 0,-1.66 -0.26,-3.26 -0.65,-4.82l-2.57 0 0 -6.18c-2.97,-4.75 -7.76,-8.3 -13.54,-9.46l-2.49 -0.5 -0.09 -2.53c-0.39,-10.73 -6.85,-19.75 -16.01,-23.88l0 10.42c0,12.4 -10.09,22.49 -22.49,22.49l-3.21 0 0 -6.43 3.21 0c8.86,0 16.07,-7.21 16.07,-16.07l0 -12.41c-1.57,-0.28 -3.27,-0.44 -4.92,-0.44 -6.97,0 -13.73,2.7 -18.86,7.59l-1.84 1.56c-4.42,4.98 -7.32,11.45 -7.32,18.15 0,15.06 13.66,27.31 26.51,27.31l0 6.43c-16.06,0 -32.93,-15.13 -32.93,-33.74 0,-8.22 3.84,-16.15 9.23,-22.28 -3.01,-3.17 -7.19,-5.03 -11.64,-5.03 -2.24,0 -4.42,0.5 -6.43,1.39l0 21.1 -6.43 0 0 -16.01c-0.05,0.07 -0.11,0.13 -0.16,0.19l-1.44 1.99 -2.3 -0.87c-2.39,-0.91 -4.87,-1.37 -7.35,-1.37 -1.66,0 -3.27,0.22 -4.82,0.58l0 9.06 -6.43 0 0 -6.35c-5.51,3.53 -9.26,9.59 -9.58,16.61l-0.11 2.5 -2.46 0.5c-9.71,1.95 -16.75,10.56 -16.75,20.47 0,4.87 1.71,9.59 4.82,13.34l1.31 1.58 -0.88 1.85c-1.35,2.84 -2.04,5.85 -2.04,8.94 0,11.52 9.37,20.89 20.89,20.89 1.15,0 2.3,-0.11 3.45,-0.31 0.07,-0.02 0.15,-0.02 0.23,-0.04 1.15,-0.21 2.3,-0.52 3.43,-0.93 8.02,-2.92 13.78,-10.59 13.78,-19.61 0,-7.78 -4.28,-14.86 -11.17,-18.5l3 -5.69c6.45,3.4 11.1,9.13 13.25,15.84 3.95,-0.66 7.64,-2.43 10.64,-5.17l4.34 4.74c-3.88,3.56 -8.65,5.87 -13.77,6.76 0.05,0.67 0.14,1.34 0.14,2.02 0,9.46 -4.83,17.8 -12.16,22.71 2.33,0.89 4.8,1.39 7.34,1.39 5.54,0 10.77,-2.15 14.71,-6.06l3.16 -3.15 1.98 4zm58.86 -49.41l0 -6.43 9.64 0 0 6.43 -9.64 0zm36.6 -8.4c2.35,-1.3 4.37,-3.18 5.82,-5.43l5.41 3.48c-2.04,3.15 -4.85,5.78 -8.13,7.58l-3.1 -5.63zm-133 -1.24l0 -9.64 6.43 0 0 9.64 -6.43 0zm141.34 -11.72c0.03,-0.38 0.04,-0.76 0.04,-1.13l0 -9.64 6.43 0 0 9.64c0,0.53 -0.02,1.06 -0.05,1.58l-6.41 -0.45zm0.04 -20.41l0 -3.22c0,-1.41 -0.19,-2.81 -0.55,-4.17l6.2 -1.67c0.52,1.9 0.78,3.87 0.78,5.85l0 3.22 -6.43 0zm-141.38 -6.43l0 -9.64 6.43 0 0 9.64 -6.43 0zm130.16 -12.1l1.96 -6.12c3.56,1.14 6.82,3.18 9.43,5.9l-4.64 4.44c-1.87,-1.94 -4.2,-3.41 -6.74,-4.22zm-17.7 -0.75l0 -6.43 9.64 0 0 6.43 -9.64 0zm-19.28 0l0 -6.43 9.64 0 0 6.43 -9.64 0zm-38.5 -10.84l5.48 -3.34c1.4,2.3 3.37,4.22 5.69,5.58l-3.24 5.55c-3.24,-1.89 -5.98,-4.58 -7.93,-7.78zm-54.68 4.41l0 -9.63 6.43 0 0 9.63 -6.43 0zm51.41 -16.06l0 -9.64 6.43 0 0.01 9.93 -6.42 0.71c-0.02,-0.33 -0.02,-0.67 -0.02,-1zm0 -19.28l0 -9.63 6.43 0 0 9.63 -6.43 0zm-51.41 -3.21l0 -9.64 6.43 0 0 9.64 -6.43 0zm57.84 -16.07l-6.43 0 -7.71 5.78 -3.85 -5.14 14.78 -11.08 14.78 11.08 -3.86 5.14 -7.71 -5.78zm-54.62 -2.41l-10.92 8.19 -3.86 -5.14 14.78 -11.08 14.78 11.08 -3.86 5.14 -10.93 -8.19z"/>
 </g>
</svg>
