<?xml version="1.0" encoding="UTF-8"?>
<!DOCTYPE svg PUBLIC "-//W3C//DTD SVG 1.1//EN" "http://www.w3.org/Graphics/SVG/1.1/DTD/svg11.dtd">
<!-- Creator: CorelDRAW 2017 -->
<svg xmlns="http://www.w3.org/2000/svg" xml:space="preserve" width="0.333339in" height="0.333335in" version="1.1" style="shape-rendering:geometricPrecision; text-rendering:geometricPrecision; image-rendering:optimizeQuality; fill-rule:evenodd; clip-rule:evenodd"
viewBox="0 0 333.34 333.33"
 xmlns:xlink="http://www.w3.org/1999/xlink">
 <defs>
  <style type="text/css">
   <![CDATA[
    .fil0 {fill:#2A094E}
    .fil1 {fill:white}
   ]]>
  </style>
 </defs>
 <g id="Layer_x0020_1">
  <metadata id="CorelCorpID_0Corel-Layer"/>
  <g id="_2377884798656">
   <circle class="fil0" cx="166.67" cy="166.67" r="166.67"/>
   <path class="fil1" d="M156.92 110.06l0 4.83c-0.01,0.09 -0.01,0.17 -0.01,0.26l0 9.24c0,1.49 1.2,2.7 2.7,2.7l13.85 0c1.49,0 2.7,-1.21 2.7,-2.7l0 -9.24c0,-0.09 -0,-0.17 -0.01,-0.25l0 -4.83c4.79,-3.2 7.71,-8.57 7.71,-14.41 0,-9.55 -7.77,-17.32 -17.32,-17.32 -9.55,0 -17.31,7.77 -17.31,17.32 0,5.83 2.91,11.21 7.71,14.41zm-20.19 -3.57l-27.72 0c-1.49,0 -2.7,1.21 -2.7,2.7l0 47.93c-8.35,1.09 -14.83,8.24 -14.83,16.89l0 4.33c-1.61,1.33 -2.63,3.35 -2.63,5.59 0,3.8 2.93,6.92 6.65,7.23 1.01,3 3.07,5.52 5.75,7.13l0 1.16 -10.17 3.98c-0.99,0.36 -9.11,3.62 -9.11,13.96l0 8.95c0,1.49 1.21,2.7 2.7,2.7l6.39 0c1.49,0 2.7,-1.21 2.7,-2.7 0,-1.49 -1.21,-2.7 -2.7,-2.7l-3.69 0 0 -6.26c0,-6.82 5.32,-8.8 5.52,-8.87 0.04,-0.02 0.08,-0.03 0.13,-0.05l9.31 -3.64 4.91 4.79c0.51,0.49 1.18,0.76 1.89,0.76 0.01,0 0.03,0 0.04,0 0.72,-0.01 1.4,-0.31 1.9,-0.83l4.64 -4.81 9.28 3.72c0.05,0.02 0.07,0.03 0.12,0.05 0.22,0.08 5.55,2.06 5.55,8.88l0 6.26 -13.92 0 -15.45 0 -2.24 0c-1.49,0 -2.7,1.2 -2.7,2.7 0,1.49 1.21,2.7 2.7,2.7l2.24 0 15.45 0 16.61 0c1.49,0 2.7,-1.22 2.7,-2.72l0 -8.94c0,-10.3 -8.06,-13.57 -9.1,-13.95l-9.9 -3.97 0 -1.17c2.68,-1.6 4.74,-4.13 5.76,-7.13 3.68,-0.35 6.56,-3.46 6.56,-7.23 0,-2.23 -1.02,-4.23 -2.61,-5.57l0 -4.35c0,-8.72 -6.59,-15.93 -15.05,-16.92l0 -45.2 25.02 0c1.49,0 2.7,-1.2 2.7,-2.7 0,-1.49 -1.2,-2.7 -2.7,-2.7zm-41.93 78.76c-0.34,-0.34 -0.56,-0.81 -0.56,-1.33 0,-0.45 0.17,-0.85 0.43,-1.18 0.04,-0.01 0.08,-0.02 0.12,-0.03l0 2.53zm28.69 -2.56c0.29,0.33 0.47,0.76 0.47,1.23 0,0.47 -0.18,0.9 -0.47,1.23l0 -2.46zm-11.84 18.46l-2.59 2.69 -2.41 -2.35 0 -1.42c0.45,0.04 0.9,0.07 1.36,0.07l2.28 0c0.46,0 0.91,-0.02 1.36,-0.07l0 1.08 0 0zm6.44 -14.21c0,4.3 -3.5,7.81 -7.81,7.81l-2.28 0c-4.31,0 -7.81,-3.5 -7.81,-7.81l0 -6.43c3.27,-0.37 8.84,-1.52 13.22,-5.09 1,1.65 2.5,3.4 4.68,4.46l0 7.06zm3.27 -12.94l0 1.35c-3.33,-0.79 -4.44,-5.29 -4.45,-5.32 -0.23,-1.04 -1.05,-1.83 -2.09,-2.05 -1.04,-0.21 -2.1,0.2 -2.72,1.06 -4.46,6.17 -14.44,6.25 -14.59,6.25 0,0 -0,0 -0.01,0 -0.09,0 -0.19,0 -0.28,0.01 -0.03,0 -0.06,0.01 -0.08,0.02 -0.06,0.01 -0.12,0.02 -0.19,0.03 -0.02,0 -0.05,0.01 -0.08,0.02l0 -1.37c0,-6.42 5.22,-11.64 11.65,-11.64l1.19 0c6.42,0 11.65,5.22 11.65,11.64zm120.9 29.42l-9.9 -3.97 0 -1.17c2.68,-1.6 4.74,-4.13 5.76,-7.13 3.68,-0.35 6.56,-3.46 6.56,-7.23 0,-2.23 -1.01,-4.23 -2.6,-5.57l0 -4.35c0,-8.72 -6.59,-15.93 -15.05,-16.92l0 -47.9c0,-1.49 -1.21,-2.7 -2.7,-2.7l-27.72 0c-1.49,0 -2.7,1.21 -2.7,2.7 0,1.49 1.2,2.7 2.7,2.7l25.02 -0 0 45.23c-8.35,1.09 -14.83,8.24 -14.83,16.89l0 4.33c-1.61,1.33 -2.63,3.34 -2.63,5.59 0,3.8 2.93,6.92 6.65,7.23 1.02,3 3.08,5.52 5.75,7.13l0 1.15 -10.17 3.98c-0.99,0.36 -9.11,3.62 -9.11,13.96l0 8.95c0,1.49 1.2,2.7 2.7,2.7l6.39 0c1.49,0 2.7,-1.21 2.7,-2.7 0,-1.49 -1.21,-2.7 -2.7,-2.7l-3.69 0 0 -6.26c0,-6.82 5.32,-8.8 5.52,-8.87 0.04,-0.02 0.08,-0.03 0.12,-0.05l9.31 -3.65 4.92 4.79c0.5,0.49 1.18,0.76 1.88,0.76 0.02,0 0.03,0 0.04,0 0.72,-0.01 1.4,-0.31 1.9,-0.83l4.64 -4.81 9.28 3.72c0.05,0.02 0.07,0.03 0.12,0.05 0.22,0.08 5.55,2.06 5.55,8.88l0 6.26 -13.92 0 -15.45 0 -2.24 0c-1.49,0 -2.7,1.21 -2.7,2.7 0,1.49 1.21,2.7 2.7,2.7l2.24 0 15.45 0 16.61 0c1.49,0 2.7,-1.22 2.7,-2.72l0 -8.94c0,-10.3 -8.06,-13.57 -9.1,-13.95zm-3.45 -20.73c0.29,0.33 0.47,0.76 0.47,1.23 0,0.47 -0.18,0.9 -0.47,1.23l0 -2.46zm-28.69 2.56c-0.34,-0.34 -0.56,-0.81 -0.56,-1.33 0,-0.45 0.17,-0.85 0.43,-1.18 0.04,-0.01 0.08,-0.02 0.13,-0.03l0 2.53zm2.7 -9.95c-0,0 -0,0 -0.01,0 -0.09,0 -0.19,0 -0.28,0.01 -0.03,0 -0.06,0.01 -0.08,0.01 -0.06,0.01 -0.13,0.02 -0.19,0.03 -0.03,0 -0.05,0.01 -0.08,0.02l0 -1.37c0,-6.42 5.22,-11.65 11.65,-11.65l1.19 0c6.42,0 11.65,5.22 11.65,11.64l0 1.35c-3.34,-0.79 -4.44,-5.29 -4.45,-5.32 -0.23,-1.04 -1.05,-1.83 -2.09,-2.05 -1.04,-0.21 -2.11,0.2 -2.72,1.06 -4.46,6.17 -14.44,6.25 -14.59,6.25zm14.14 25.86l-2.59 2.69 -2.41 -2.35 0 -1.42c0.44,0.04 0.9,0.07 1.36,0.07l2.28 0c0.46,0 0.91,-0.02 1.36,-0.07l0 1.08 0 0zm-1.36 -6.41l-2.28 0c-4.31,0 -7.81,-3.5 -7.81,-7.81l0 -6.43 0 0c3.26,-0.37 8.84,-1.52 13.21,-5.09 1,1.65 2.5,3.4 4.69,4.46l0 7.06c0,4.3 -3.5,7.81 -7.81,7.81zm-41.01 8.67l-9.9 -3.97 0 -1.17c2.68,-1.6 4.74,-4.13 5.76,-7.13 3.68,-0.35 6.56,-3.46 6.56,-7.23 0,-2.23 -1.02,-4.23 -2.61,-5.57l0 -4.35c0,-8.75 -6.64,-15.98 -15.14,-16.93l0 -15.72c0,-1.49 -1.21,-2.7 -2.7,-2.7 -1.49,0 -2.7,1.21 -2.7,2.7l0 15.78c-8.31,1.13 -14.73,8.26 -14.73,16.88l0 4.33c-1.61,1.33 -2.63,3.35 -2.63,5.59 0,3.8 2.93,6.92 6.64,7.23 1.02,3 3.08,5.52 5.76,7.13l0 1.15 -10.17 3.98c-0.99,0.36 -9.11,3.62 -9.11,13.96l0 8.95c0,1.49 1.2,2.7 2.7,2.7l6.39 0c1.49,0 2.7,-1.21 2.7,-2.7 0,-1.49 -1.2,-2.7 -2.7,-2.7l-3.69 0 0 -6.26c0,-6.82 5.32,-8.8 5.52,-8.87 0.04,-0.02 0.08,-0.03 0.13,-0.05l9.31 -3.64 4.92 4.79c0.5,0.49 1.18,0.76 1.88,0.76 0.01,0 0.03,0 0.04,0 0.72,-0.01 1.4,-0.31 1.9,-0.82l4.64 -4.81 9.28 3.72c0.05,0.02 0.07,0.03 0.12,0.05 0.22,0.08 5.55,2.06 5.55,8.88l0 6.26 -13.92 0 -15.45 0 -2.24 0c-1.49,0 -2.7,1.2 -2.7,2.7 0,1.49 1.21,2.7 2.7,2.7l2.24 0 15.45 0 16.61 0c1.49,0 2.7,-1.22 2.7,-2.72l0 -8.94c0,-10.3 -8.06,-13.57 -9.1,-13.95zm-3.45 -20.73c0.29,0.33 0.47,0.76 0.47,1.23 0,0.47 -0.18,0.9 -0.47,1.23l0 -2.46zm-28.69 2.56c-0.34,-0.34 -0.56,-0.81 -0.56,-1.33 0,-0.45 0.17,-0.85 0.43,-1.18 0.04,-0.01 0.08,-0.02 0.13,-0.03l0 2.53 0 0zm2.7 -9.95c0,0 -0,0 -0.01,0 -0.09,0 -0.19,0 -0.28,0.01 -0.03,0 -0.06,0.01 -0.08,0.01 -0.06,0.01 -0.12,0.02 -0.19,0.03 -0.02,0 -0.05,0.01 -0.08,0.02l0 -1.37c0,-6.42 5.22,-11.65 11.65,-11.65l1.19 0c6.42,0 11.65,5.22 11.65,11.64l0 1.35c-3.34,-0.79 -4.44,-5.29 -4.45,-5.32 -0.23,-1.04 -1.05,-1.84 -2.09,-2.05 -1.04,-0.21 -2.11,0.2 -2.72,1.06 -4.46,6.17 -14.44,6.25 -14.59,6.25zm14.14 25.86l-2.59 2.69 -2.41 -2.35 0 -1.42c0.45,0.04 0.9,0.07 1.36,0.07l2.28 0c0.46,0 0.91,-0.02 1.36,-0.07l0 1.08 0 0zm-1.36 -6.41l-2.28 0c-4.31,0 -7.81,-3.5 -7.81,-7.81l0 -6.43 0 0c3.26,-0.37 8.83,-1.53 13.22,-5.09 1,1.65 2.5,3.4 4.68,4.46l0 7.06c0,4.3 -3.5,7.81 -7.81,7.81zm-19.28 -113.57c0.53,0.53 1.22,0.79 1.91,0.79 0.69,0 1.38,-0.26 1.91,-0.79 1.06,-1.05 1.06,-2.76 0,-3.81l-5.38 -5.38c-1.05,-1.06 -2.76,-1.06 -3.81,0 -1.05,1.05 -1.05,2.76 0,3.81l5.38 5.38zm31.9 28.09c-1.06,1.05 -1.06,2.76 0,3.81l5.38 5.38c0.53,0.53 1.22,0.79 1.91,0.79 0.69,0 1.38,-0.26 1.91,-0.79 1.05,-1.05 1.05,-2.76 0,-3.81l-5.38 -5.38c-1.06,-1.06 -2.76,-1.06 -3.81,0zm-14.04 -33.9c1.49,0 2.7,-1.21 2.7,-2.7l0 -7.61c0,-1.49 -1.2,-2.7 -2.7,-2.7 -1.49,0 -2.7,1.21 -2.7,2.7l0 7.61c0,1.49 1.21,2.7 2.7,2.7zm15.95 6.61c0.69,0 1.38,-0.26 1.91,-0.79l5.38 -5.38c1.06,-1.06 1.06,-2.76 0,-3.81 -1.05,-1.06 -2.76,-1.06 -3.81,0l-5.38 5.38c-1.06,1.06 -1.06,2.76 0,3.81 0.53,0.53 1.22,0.79 1.91,0.79zm-33.8 27.3l-5.38 5.38c-1.05,1.06 -1.05,2.76 0,3.81 0.53,0.53 1.22,0.79 1.91,0.79 0.69,0 1.38,-0.26 1.91,-0.79l5.38 -5.38c1.05,-1.05 1.05,-2.76 0,-3.81 -1.06,-1.06 -2.76,-1.06 -3.81,0zm37.71 -14.04c0,1.49 1.21,2.7 2.7,2.7l7.61 0c1.49,0 2.7,-1.21 2.7,-2.7 0,-1.49 -1.21,-2.7 -2.7,-2.7l-7.61 0c-1.49,0 -2.7,1.2 -2.7,2.7zm-50.02 2.7l7.61 0c1.49,0 2.7,-1.21 2.7,-2.7 0,-1.49 -1.2,-2.7 -2.7,-2.7l-7.61 0c-1.49,0 -2.7,1.21 -2.7,2.7 0,1.49 1.21,2.7 2.7,2.7zm27.24 30.6c-1.49,0 -2.7,1.21 -2.7,2.7 0,1.49 1.21,2.7 2.7,2.7l5.84 0c1.49,0 2.7,-1.21 2.7,-2.7 0,-1.49 -1.2,-2.7 -2.7,-2.7l-5.84 0zm7.15 -6.82l-8.45 0 0 -3.85 8.45 0 0 3.85zm-4.23 -37.96c6.57,0 11.92,5.35 11.92,11.92 0,4.39 -2.41,8.42 -6.29,10.51 -0.87,0.47 -1.42,1.38 -1.42,2.37l0 3.91 -1.47 0 0 -9.8c0,-1.49 -1.21,-2.7 -2.7,-2.7 -1.49,0 -2.7,1.21 -2.7,2.7l0 9.8 -1.56 0 0 -3.91c0,-0.99 -0.55,-1.91 -1.42,-2.37 -3.88,-2.09 -6.29,-6.11 -6.29,-10.51 0,-6.57 5.35,-11.92 11.92,-11.92z"/>
  </g>
 </g>
</svg>
