<?xml version="1.0" encoding="UTF-8"?>
<!DOCTYPE svg PUBLIC "-//W3C//DTD SVG 1.1//EN" "http://www.w3.org/Graphics/SVG/1.1/DTD/svg11.dtd">
<!-- Creator: CorelDRAW 2020 (64-Bit) -->
<svg xmlns="http://www.w3.org/2000/svg" xml:space="preserve" width="25.4mm" height="6.7733mm" version="1.1" style="shape-rendering:geometricPrecision; text-rendering:geometricPrecision; image-rendering:optimizeQuality; fill-rule:evenodd; clip-rule:evenodd"
viewBox="0 0 1555 414.66"
 xmlns:xlink="http://www.w3.org/1999/xlink"
 xmlns:xodm="http://www.corel.com/coreldraw/odm/2003">
 <defs>
  <style type="text/css">
   <![CDATA[
    .fil1 {fill:white}
    .fil0 {fill:white;fill-rule:nonzero}
   ]]>
  </style>
 </defs>
 <g id="Layer_x0020_1">
  <metadata id="CorelCorpID_0Corel-Layer"/>
  <g id="_2294467687440">
   <path class="fil0" d="M1472.33 402.7c-1.31,1.09 -3.56,2.54 -5.06,3.09 -1.49,0.54 -1.49,0.18 -0.19,-1.09 1.5,-1.09 3.75,-2.54 5.25,-3.09 1.31,-0.54 1.5,0 0,1.09zm-795.11 -7.44c-0.75,0 -1.5,-0.18 -2.06,-0.72 -1.31,-1.08 -1.69,-2.9 -0.93,-4.35 6.92,-12.51 8.61,-17.23 10.49,-23.03 0.56,-1.63 2.43,-2.72 4.3,-2.18 1.88,0.36 3,2.36 2.44,4.18 -0.56,1.81 -1.32,3.44 -1.87,5.26 -0.37,0.72 0.56,1.27 1.13,0.72 5.99,-5.98 10.3,-11.25 12.92,-15.78 0.75,-1.27 2.25,-3.63 4.87,-3.08 2.81,0.54 3.19,2.9 3.37,4.71 0.38,2.72 0.94,7.62 5.63,10.52 3.53,2.16 15.35,6.62 48.43,0.34 1.1,-2.11 2.33,-4.35 2.52,-5.23 0.56,-1.82 2.44,-2.73 4.31,-2.36 1.87,0.54 2.8,2.36 2.44,4.18 -0.57,1.63 -1.69,3.8 -3.18,6.7 -1.69,3.08 -3.75,6.89 -4.88,10.33 -1.68,4.54 -1.11,5.99 -0.93,5.99 0.18,0.37 0.93,0.73 2.81,0.73 5.06,-0.18 12.92,-4.35 21.16,-8.71 7.98,-4.22 17.01,-8.94 26.25,-11.53 7.03,-11.15 19.96,-16.15 26.58,-12.77 3.37,1.63 5.8,5.8 2.62,12.34 -0.75,1.63 -2.81,2.36 -4.68,1.63 -1.69,-0.91 -2.44,-2.91 -1.69,-4.54 0.75,-1.45 1.12,-3.09 0.56,-3.45 -2.63,-1.27 -12.18,1.63 -17.8,10.88 -2.44,4.18 -3.37,7.62 -2.06,9.43 1.3,2 5.99,2.72 12.55,2 19.14,-2.12 48.05,-11.46 59.94,-15.46 8.67,-7.99 17.14,-10.76 21.9,-9.94 2.06,0.37 3.18,2 2.99,3.81 -0.37,1.82 -2.25,3.09 -4.12,2.72 -2,-0.32 -8.33,1.23 -15.65,7.87 -0.31,0.58 -0.81,1.07 -1.45,1.37l-1.26 1.28c-0.94,1.09 -2.06,2.18 -2.81,3.26 -2.06,3.08 0.18,4.71 3,3.26 0.75,-0.36 1.31,-0.54 2.06,-0.91 0.75,-0.54 1.49,-0.91 2.06,-1.27 0.94,-0.54 1.68,-0.91 2.43,-1.45 0.94,-0.54 1.88,-1.27 2.82,-1.81 0.37,-0.18 0.75,-0.54 1.3,-0.72 6.94,-4.9 13.12,-9.8 13.87,-10.7 1.12,-1.27 3.37,-1.45 4.87,-0.36 1.12,1.08 1.5,2.9 0.75,4.16 -1.32,2.36 -1.13,4.18 0.18,5.62 0.94,1.1 4.49,3.45 14.05,2.72 8.8,-0.72 20.04,-3.81 32.78,-9.07l0.09 -0.04c0.59,-1.6 1.09,-3.09 1.6,-4.66 0.56,-1.63 2.44,-2.72 4.31,-2.18 1.87,0.36 2.99,2.36 2.43,4.18 -0.56,1.81 -1.31,3.44 -1.87,5.26 -0.37,0.72 0.56,1.27 1.13,0.72 5.99,-5.98 10.3,-11.25 12.92,-15.78 0.75,-1.27 2.25,-3.63 4.87,-3.08 2.81,0.54 3.19,2.9 3.37,4.71 0.37,2.72 0.94,7.62 5.62,10.52 3.53,2.16 15.34,6.63 48.39,0.35 3.25,-3.39 7.06,-5.91 10.99,-6.15 2.25,-0.18 5.24,0.36 7.87,2.9 9.92,-13.42 21.92,-32.64 36.15,-56.95 1.69,-3.08 3.56,-6.35 5.62,-9.8 0.94,-1.63 3,-2.17 4.49,-1.45 1.87,0.91 2.63,2.9 1.69,4.72 -2.06,3.26 -3.94,6.53 -5.63,9.61 -11.23,19.6 -18.73,35.19 -22.66,46.61 -4.5,13.6 -2.81,18.14 -1.51,19.77 3.94,4.35 19.49,-1.63 29.79,-5.8l8.83 -3.35c0.24,-0.69 0.54,-1.4 0.9,-2.09 2.44,-4.17 6.56,-6.89 10.87,-7.07 3.37,0 6.18,1.45 7.87,3.99 1.12,1.63 2.06,4.35 1.12,8.34 -0.37,1.45 0.94,2.9 2.63,2.9 15.73,-0.54 36.52,-3.26 47.2,-6.34 2.06,-0.55 3.93,0.54 4.49,2.53 0.37,1.63 -0.75,3.45 -2.62,3.99 -12.74,3.45 -38.02,6.89 -54.88,6.71 -0.75,0 -1.68,0.37 -2.06,0.92 -4.49,6.34 -11.04,12.32 -16.67,13.41 -0.75,0.18 -1.49,0.18 -2.06,0.18 -3,0 -4.49,-1.45 -5.06,-2.54 -2.58,-3.92 0.64,-10.88 3.75,-15.94l-1.68 0.7c-14.23,5.62 -30.35,11.79 -37.65,3.8 -2.62,-2.9 -3.56,-7.07 -3,-12.87 0.19,-1.81 -2.25,-2.72 -3.37,-1.08 -15.73,22.13 -23.04,26.66 -27.35,27.21 -0.56,0.18 -0.94,0.18 -1.31,0.18 -1.68,0 -3.37,-0.55 -4.5,-1.82 -1.68,-1.44 -3.18,-4.71 -0.75,-11.61 0.66,-1.81 1.59,-3.82 2.75,-5.85 -22.09,3.54 -38.01,2.71 -46.4,-2.49 -2.25,-1.44 -3.93,-3.08 -5.06,-4.71 -1.5,-2 -4.31,-2.18 -5.81,-0.37 -5.61,6.72 -13.49,14.15 -23.41,22.49 -0.56,0.54 -1.31,0.72 -2.25,0.72 -0.75,0 -1.49,-0.18 -2.06,-0.72 -1.31,-1.08 -1.68,-2.9 -0.93,-4.35 2.14,-3.86 3.78,-6.99 5.08,-9.63 -10.86,4.08 -20.5,6.49 -28.68,7.1 -8.99,0.72 -15.73,-1.09 -19.48,-4.9 -0.56,-0.37 -0.94,-0.91 -1.13,-1.27 -0.94,-1.27 -2.62,-1.63 -3.74,-0.72 -1.87,1.45 -3.94,2.9 -5.8,4.16 -11.43,7.63 -16.86,9.26 -19.86,9.26 -0.56,0 -0.94,-0.18 -1.5,-0.18 -3.74,-0.73 -5.06,-2.91 -5.62,-4.18 -0.83,-2.49 0.07,-5.39 1.59,-8.09 -14.56,4.61 -35.39,10.65 -50.84,12.45 -2.06,0.18 -3.94,0.36 -5.63,0.36 -6.74,0 -11.23,-1.81 -13.67,-5.44 -1.35,-1.78 -2.3,-4.63 -1.38,-8.78 -6.67,2.53 -13.27,5.99 -19.22,9.15 -9.37,4.89 -17.42,9.07 -24.35,9.43 -0.18,0 -0.37,0 -0.56,0 -4.87,0 -7.12,-2 -8.24,-3.81 -2.76,-3.94 -1,-9.93 1.71,-15.78 -23.11,3.91 -39.71,3.18 -48.35,-2.17 -2.25,-1.44 -3.94,-3.08 -5.06,-4.71 -1.5,-2 -4.31,-2.18 -5.81,-0.37 -5.61,6.72 -13.49,14.15 -23.41,22.49 -0.56,0.54 -1.31,0.72 -2.25,0.72zm96.65 -42.98c-1.12,0 -2.25,-0.55 -2.8,-1.46 -1.13,-1.63 -0.57,-3.81 0.94,-4.71 0.37,-0.18 1.3,-0.91 2.06,-1.45 4.87,-3.62 7.12,-5.25 9.37,-5.25 2.06,0 3.56,1.63 3.56,3.44 0,1.63 -1.31,3.09 -3.19,3.26 -1.11,0.54 -4.12,2.91 -5.42,3.81 -1.13,0.72 -1.88,1.45 -2.44,1.81 -0.75,0.37 -1.32,0.55 -2.06,0.55zm292.76 20.13c-0.56,0 -1.31,0.18 -1.68,0.36 -3,1.45 -6.75,5.26 -9.55,9.98 -0.94,1.99 -1.69,3.62 -2.25,5.08 -0.56,1.63 1.49,3.08 2.81,1.99 2.63,-2.17 6.37,-5.99 12.17,-13.06 0.19,-0.36 0.19,-0.54 0.38,-0.73 1.31,-1.44 0.19,-3.62 -1.68,-3.62l-0.19 0zm76.23 -2.9c-0.18,0 -0.18,0 -0.18,0 -1.32,0.18 -3.56,1.09 -4.87,3.63 -0.37,0.54 -0.94,1.81 -0.56,2.71 0.38,0.55 0.94,1.09 1.87,1.46 0.56,0.18 1.5,0.36 2.63,0.54 0.75,0 1.49,-0.37 1.87,-1.09 0.56,-1.27 0.94,-2.36 1.13,-3.08 0.19,-1.46 0.19,-2.55 -0.19,-3.27 -0.37,-0.54 -0.94,-0.91 -1.68,-0.91zm-10.49 14.5c-1.31,2.36 -2.44,4.54 -3.18,6.17 -0.38,1.08 0.75,1.81 1.68,1.27 1.87,-1.09 4.12,-2.9 6.18,-5.25 0.94,-0.91 0.57,-2.36 -0.56,-2.72 -0.38,-0.18 -0.56,-0.18 -0.75,-0.37 -1.31,-0.54 -2.63,-0.18 -3.37,0.91zm122.12 10.16c-0.56,0 -0.94,-0.18 -1.5,-0.18 -3.74,-0.73 -5.06,-2.91 -5.62,-4.18 -1.68,-5.08 3.75,-11.79 7.12,-15.23 9.55,-9.98 19.29,-13.42 24.54,-12.52 2.06,0.37 3.18,2 2.99,3.81 -0.37,1.82 -2.25,3.09 -4.12,2.72 -2.25,-0.36 -9.92,1.63 -18.35,10.52 -0.94,1.09 -2.06,2.18 -2.81,3.26 -2.06,3.08 0.18,4.71 2.99,3.26 0.75,-0.36 1.32,-0.54 2.06,-0.91 0.75,-0.54 1.5,-0.91 2.06,-1.27 0.94,-0.54 1.68,-0.91 2.43,-1.45 0.94,-0.54 1.87,-1.27 2.81,-1.81 0.37,-0.18 0.75,-0.54 1.31,-0.72 6.94,-4.9 13.12,-9.8 13.87,-10.7 1.12,-1.27 3.37,-1.45 4.87,-0.36 1.12,1.08 1.5,2.9 0.75,4.16 -1.32,2.36 -1.13,4.18 0.18,5.62 0.94,1.1 4.49,3.45 14.05,2.72 8.8,-0.72 20.04,-3.81 32.77,-9.07l0.16 -0.07c1.08,-1.62 2.17,-3.07 3.21,-4.27 1.31,-1.46 3.37,-1.82 4.87,-0.73 1.69,1.27 1.88,3.44 0.56,4.9 -1.5,1.63 -3.18,4.16 -4.87,6.89 -0.75,1.27 0.94,2.72 2.25,1.82 1.69,-1.46 3.18,-2.72 4.87,-3.81 11.61,-8.88 20.22,-13.42 25.85,-13.42 0,0 0,0 0,0 1.68,0 2.99,0.72 3.74,2 1.88,3.09 -0.37,6.89 -5.99,15.78 -0.37,0.91 -0.93,1.82 -1.49,2.72 -1.12,1.63 0.94,3.44 2.43,2.36 0.94,-0.55 1.87,-1.1 2.63,-1.63 8.24,-4.89 16.67,-10.16 23.04,-9.25 3,0.55 5.06,1.81 6.74,3.08 4.48,3.07 11.17,7.93 57.3,-6.28 5.55,-13.3 17.43,-34.8 41.04,-70.61 1.12,-1.63 3.36,-2.17 4.87,-0.91 1.5,0.91 1.87,3.09 0.94,4.54 -13.49,20.31 -23.41,36.63 -30.72,49.87 -3.18,5.81 -5.62,10.7 -7.49,14.69 -1.12,2.35 1.68,4.54 3.94,3.08 6.37,-4.71 12.55,-7.25 17.42,-6.53 3.37,0.55 5.81,2.9 6.75,6.16 0.56,2.36 0.37,5.08 -0.57,7.8 -0.75,2.72 1.69,5.26 4.5,4.54 5.62,-1.63 11.61,-3.09 17.61,-4.71 10.11,-2.54 20.6,-5.26 29.97,-8.16 1.88,-0.55 3.94,0.54 4.49,2.36 0.38,1.81 -0.75,3.62 -2.61,4.16 -9.37,2.72 -19.86,5.45 -29.97,8.17 -11.24,2.9 -22.66,5.8 -32.59,9.07 -0.75,0.18 -1.32,0.54 -1.69,0.91 -3.37,3.81 -6.37,6.72 -7.68,7.98 -4.68,4.36 -13.3,10.34 -18.73,10.34 -0.37,0 -0.75,0 -1.12,-0.18 -1.69,-0.18 -2.82,-1.08 -3.56,-2.35 -1.87,-3.81 0.94,-10.34 9.93,-15.06 4.49,-2.35 10.3,-4.71 16.67,-6.89 0.75,-0.18 1.31,-0.54 1.87,-1.27 4.87,-6.16 7.49,-11.97 6.74,-15.05 -0.19,-0.91 -0.56,-1.09 -1.13,-1.09 -4.87,-0.73 -17.04,6.53 -26.21,19.95 -0.57,0.91 -1.51,1.45 -2.63,1.63 -1.49,0.18 -3,-0.54 -3.56,-1.99 -0.99,-2.31 -1.33,-5.85 0.64,-12.48 -18.86,5.58 -32.64,8.32 -42.04,8.49 -9.73,0 -13.67,-2.72 -16.48,-4.71 -1.49,-1.09 -2.44,-1.63 -3.74,-1.81 -3.75,-0.54 -11.99,4.53 -18.17,8.34 -7.12,4.35 -11.8,7.07 -15.55,7.25 -1.87,0 -3.37,-0.72 -4.31,-2.18 -2.06,-3.44 0.75,-8.16 6.56,-17.77 0.56,-0.72 1.12,-1.63 1.68,-2.36 0.75,-1.27 -0.75,-2.72 -2.06,-1.99 -3.37,1.81 -7.68,4.71 -12.92,8.71 -8.43,6.34 -17.61,14.69 -22.11,20.13 -0.56,0.72 -1.69,1.26 -2.63,1.26 -0.75,0 -1.3,-0.17 -2.06,-0.72 -1.13,-0.72 -1.68,-2.36 -1.31,-3.8 1.59,-5 4.33,-11.53 7.46,-17.58 -10.23,3.74 -19.33,5.94 -27.12,6.52 -8.99,0.72 -15.73,-1.09 -19.48,-4.9 -0.56,-0.37 -0.94,-0.91 -1.13,-1.27 -0.94,-1.27 -2.62,-1.63 -3.74,-0.72 -1.87,1.45 -3.94,2.9 -5.81,4.16 -11.43,7.63 -16.85,9.26 -19.85,9.26z"/>
   <path class="fil1" d="M621.91 394.23c-29.47,0 -58.99,0 -88.46,0 -37.53,-73.59 -74.98,-147.26 -112.51,-220.85l-44.62 86.48 -8.83 -17.31 53.59 -103.73 122.25 239.94 53 0 -175.37 -344.17c-52.03,100.76 -104.07,201.53 -156.09,302.29l-50.81 -86.24c17.61,-5.75 33.33,-15.48 46.17,-28.05 21.47,-21.04 34.75,-50.1 34.75,-82.19 0,-32.09 -13.28,-61.16 -34.75,-82.19 -21.47,-21.04 -51.13,-34.05 -83.88,-34.05l-148.88 0 27.46 46.62 121.35 0c19.6,0 37.39,7.77 50.23,20.4 12.83,12.57 20.82,30.01 20.82,49.22 0,19.2 -7.93,36.63 -20.82,49.21 -12.83,12.57 -30.62,20.4 -50.23,20.4l-39.33 0 110.96 188.11 -8.57 16.55 -129.85 -220.21 66.79 0c15.21,0 29.01,-6.07 39.01,-15.86 9.99,-9.8 16.18,-23.31 16.18,-38.22 0,-14.91 -6.19,-28.43 -16.18,-38.22 -10,-9.8 -23.8,-15.86 -39.01,-15.86l-130.5 0 -45.77 -77.71 176.34 0c37.14,0 70.8,14.78 95.1,38.6 24.37,23.81 39.4,56.79 39.4,93.18 0,36.39 -15.02,69.36 -39.4,93.18 -10.12,9.92 -21.79,18.19 -34.62,24.58l27.21 46.11c52.35,-101.39 104.71,-202.85 157.06,-304.25 66.99,131.4 133.91,262.87 200.9,394.27l0 0 -0.08 -0.04z"/>
  </g>
 </g>
</svg>
