<?xml version="1.0" encoding="UTF-8"?>
<!DOCTYPE svg PUBLIC "-//W3C//DTD SVG 1.1//EN" "http://www.w3.org/Graphics/SVG/1.1/DTD/svg11.dtd">
<!-- Creator: CorelDRAW 2017 -->
<svg xmlns="http://www.w3.org/2000/svg" xml:space="preserve" width="0.937417in" height="0.266665in" version="1.1" style="shape-rendering:geometricPrecision; text-rendering:geometricPrecision; image-rendering:optimizeQuality; fill-rule:evenodd; clip-rule:evenodd"
viewBox="0 0 223.41 63.55"
 xmlns:xlink="http://www.w3.org/1999/xlink">
 <defs>
  <style type="text/css">
   <![CDATA[
    .fil0 {fill:#336699}
    .fil1 {fill:#336699;fill-rule:nonzero}
   ]]>
  </style>
 </defs>
 <g id="Layer_x0020_1">
  <metadata id="CorelCorpID_0Corel-Layer"/>
  <g id="_2276151660576">
   <path class="fil0" d="M96.46 62.41c-4.57,0 -9.15,0 -13.72,0 -5.82,-11.65 -11.63,-23.31 -17.45,-34.96l-6.92 13.69 -1.37 -2.74 8.31 -16.42 18.96 37.98 8.22 0 -27.2 -54.48c-8.07,15.95 -16.14,31.9 -24.21,47.85l-7.88 -13.65c2.73,-0.91 5.17,-2.45 7.16,-4.44 3.33,-3.33 5.39,-7.93 5.39,-13.01 0,-5.08 -2.06,-9.68 -5.39,-13.01 -3.33,-3.33 -7.93,-5.39 -13.01,-5.39l-23.09 0 4.26 7.38 18.82 0c3.04,0 5.8,1.23 7.79,3.23 1.99,1.99 3.23,4.75 3.23,7.79 0,3.04 -1.23,5.8 -3.23,7.79 -1.99,1.99 -4.75,3.23 -7.79,3.23l-6.1 0 15.99 27.69 -1.33 2.62 -18.92 -32.77 10.36 0c2.36,0 4.5,-0.96 6.05,-2.51 1.55,-1.55 2.51,-3.69 2.51,-6.05 0,-2.36 -0.96,-4.5 -2.51,-6.05 -1.55,-1.55 -3.69,-2.51 -6.05,-2.51l-20.24 0 -7.1 -12.3 27.35 0c5.76,0 10.98,2.34 14.75,6.11 3.78,3.77 6.11,8.99 6.11,14.75 0,5.76 -2.33,10.98 -6.11,14.75 -1.57,1.57 -3.38,2.88 -5.37,3.89l4.22 7.3c8.12,-16.05 16.24,-32.11 24.36,-48.16 10.39,20.8 20.77,41.61 31.16,62.41l0 0z"/>
   <path class="fil1" d="M114.32 51.41c0.07,0 0.18,0 0.29,-0.04 0.44,-0.22 1.2,-0.55 1.49,-0.62 0.36,-0.04 0.62,-0.4 0.55,-0.73 -0.07,-0.36 -0.4,-0.62 -0.77,-0.55 -0.55,0.07 -1.64,0.58 -1.86,0.69 -0.33,0.15 -0.47,0.55 -0.29,0.88 0.11,0.22 0.33,0.36 0.58,0.36zm109.08 3.43c-0.11,-0.33 -0.44,-0.55 -0.77,-0.47l-3.86 0.88c-0.66,0.15 -1.31,0.33 -1.97,0.47 -0.11,0.04 -0.22,0.07 -0.36,0.11l0.22 -0.51c0.07,-0.22 0.11,-0.4 0.11,-0.66l0 -0.36c-0.04,-0.15 -0.07,-0.26 -0.15,-0.4 -0.07,-0.15 -0.15,-0.25 -0.26,-0.36 -0.11,-0.11 -0.22,-0.22 -0.36,-0.26 -0.22,-0.15 -0.47,-0.18 -0.69,-0.22 -0.11,0 -0.22,0 -0.33,0l-0.26 0c-0.18,0.04 -0.36,0.04 -0.55,0.07 -0.36,0.04 -0.73,0.15 -1.06,0.26 -0.36,0.15 -0.69,0.29 -1.02,0.47 -0.47,0.26 -0.91,0.62 -1.28,1.02 0.15,-1.13 0.29,-2.26 0.47,-3.35l0.55 -3.94c0.4,-2.59 0.77,-5.21 1.2,-7.8l0.33 -1.97 0.33 -1.93c0.11,-0.66 0.22,-1.31 0.36,-1.97l0.18 -0.95 0.18 -0.98c0.11,-0.66 0.26,-1.28 0.36,-1.93l0.22 -0.98 0.18 -0.95 0.07 -0.22c0.04,0 0.11,-0.04 0.18,-0.04 0.33,-0.11 0.51,-0.47 0.4,-0.8 0,-0.04 -0.04,-0.11 -0.04,-0.15l0 -0.22c-0.04,-0.15 -0.04,-0.29 -0.04,-0.47l0 -0.36 0 -0.15 0 -0.07c-0.04,0 -0.04,-0.04 -0.04,-0.07 0,-0.04 0,-0.04 -0.04,-0.11 -0.07,0.04 0.22,-0.33 -0.73,-0.4 -0.51,0.22 -0.36,0.29 -0.44,0.33 0,0.04 -0.04,0.04 -0.04,0.07 0,0.04 0,0.04 -0.04,0.07l0 0.04c0,0.04 0,0.07 -0.04,0.07l0 0.15 -0.04 0.11 -0.22 0.98 -0.18 0.99 -0.11 0.47 -0.07 0.51 -0.22 0.95c-0.11,0.66 -0.26,1.31 -0.36,1.97l-0.18 0.98 -0.18 0.95 -0.33 1.97c-0.11,0.66 -0.22,1.31 -0.36,1.97l-0.33 1.93c-0.4,2.62 -0.84,5.25 -1.28,7.84 -0.36,2.35 -0.69,4.69 -1.01,7.02l-0.7 0.57c-0.15,0.07 -0.29,0.18 -0.4,0.26l-0.44 0.29c-0.29,0.15 -0.58,0.33 -0.91,0.47 -0.29,0.15 -0.58,0.26 -0.88,0.36l-0.44 0.11 -0.04 0 -0.04 0c0,0 -0.04,0 -0.04,0l-0.04 0 -0.07 0c-0.04,0 -0.07,-0.04 -0.11,-0.04l0 -0.15c0.04,-0.11 0.04,-0.29 0.07,-0.44l0 -0.04 0.04 0 0 -0.11c0,-0.04 0.04,-0.07 0.04,-0.11l0 -0.11c0,-0.18 -0.04,-0.36 -0.11,-0.55 0,-0.04 -0.04,-0.07 -0.07,-0.11l-0.07 -0.11c-0.04,-0.04 -0.07,-0.11 -0.11,-0.11 0,-0.04 -0.04,-0.04 -0.04,-0.07 -0.04,0 -0.04,0 -0.07,-0.04 -0.15,-0.11 -0.26,-0.15 -0.4,-0.22 -0.15,-0.04 -0.26,-0.07 -0.36,-0.07 -0.07,0 -0.15,0 -0.18,0l-0.11 0 -0.22 0 -0.33 0.11 -0.07 0.04 -0.04 0 0 0.04 -0.15 0.07c-0.07,0 -0.11,0.04 -0.15,0.04 -0.04,0.04 -0.07,0.07 -0.11,0.07 -0.07,0.07 -0.18,0.11 -0.26,0.18 -0.29,0.22 -0.55,0.44 -0.8,0.66 -0.26,0.22 -0.47,0.44 -0.69,0.66 -0.04,0.04 -0.07,0.07 -0.11,0.07l-0.04 0.04 0 0.04 -0.04 0c-0.04,0.04 -0.07,0.07 -0.11,0.11l-0.11 0.07c-0.04,0 -0.07,0 -0.07,0l-0.04 -0.04 0 -0.15 -0.04 -0.26c-0.04,-0.18 -0.04,-0.36 -0.07,-0.55 -0.07,-0.18 -0.11,-0.36 -0.18,-0.55 -0.04,-0.11 -0.07,-0.18 -0.15,-0.29 -0.04,-0.11 -0.11,-0.22 -0.18,-0.29 -0.07,-0.11 -0.18,-0.22 -0.33,-0.33l-0.26 -0.11c-0.07,-0.04 -0.18,-0.04 -0.26,-0.04 -0.18,0 -0.36,0 -0.47,0.07 -0.15,0.04 -0.26,0.11 -0.36,0.15 -0.11,0.07 -0.18,0.15 -0.25,0.18 -0.04,0.04 -0.07,0.07 -0.11,0.11l-0.11 0.11c-0.07,0.07 -0.15,0.11 -0.22,0.18l-0.15 0.22c-0.26,0.26 -0.44,0.51 -0.66,0.73 -0.22,0.26 -0.4,0.47 -0.62,0.69l-0.15 0.15c-0.07,0.04 -0.11,0.11 -0.18,0.15 -0.07,0.04 -0.11,0.07 -0.18,0.11l0 -0.18c-0.04,-0.15 0,-0.29 0,-0.4 0.04,-0.29 0.07,-0.55 0.15,-0.84l0.33 -0.8c0.18,-0.29 0.04,-0.69 -0.26,-0.84 -0.33,-0.18 -0.69,-0.04 -0.87,0.26 -0.09,0.17 -0.16,0.34 -0.23,0.52 -0.33,0.25 -0.72,0.5 -1.12,0.72 -0.4,0.22 -0.8,0.44 -1.24,0.62 -0.4,0.18 -0.84,0.33 -1.28,0.44 -0.44,0.15 -0.87,0.22 -1.31,0.29 -0.22,0 -0.44,0.04 -0.66,0.04 -0.22,0 -0.4,-0.04 -0.58,-0.07l-0.04 -0.04 -0.04 0 -0.04 0c-0.04,0 -0.04,-0.04 -0.04,-0.04l-0.04 0 -0.04 -0.04 -0.04 0 -0.04 0 -0.04 -0.04c0,0 0,-0.04 -0.04,-0.11 0,-0.04 -0.04,-0.11 -0.04,-0.22 0,-0.15 0,-0.37 0,-0.55l0.11 -0.66c0.07,-0.22 0.11,-0.44 0.18,-0.66l0.04 -0.18 0.04 -0.11 0 -0.11 0.04 -0.04c0,0 0,-0.04 0,-0.04l0 -0.15c0.11,0.11 -0.22,-0.77 -0.91,-0.51 -0.26,0.11 -0.22,0.15 -0.26,0.18l-0.04 0.04 -0.04 0.04 0 0.04c-0.04,0.04 -0.04,0.04 -0.04,0.07 -0.04,0.04 -0.04,0.07 -0.04,0.07l-0.07 0.11c0,0 0,0.04 0,0.04l-0.07 0.11c-0.07,-0.18 -0.26,-0.29 -0.47,-0.33 -0.25,-0.04 -0.51,-0.07 -0.8,-0.07 -0.26,0 -0.55,0.04 -0.84,0.07 -0.29,0.07 -0.58,0.15 -0.84,0.26l-0.11 0.07 -0.11 0.04c-0.04,0.04 -0.11,0.07 -0.18,0.15 -0.11,0.07 -0.26,0.15 -0.36,0.26 -0.22,0.22 -0.4,0.44 -0.55,0.73 -0.11,0.11 -0.15,0.26 -0.22,0.4 -0.04,0.07 -0.07,0.15 -0.07,0.22 0,0.04 0,0.04 -0.04,0.07l0 0.04 -0.04 0.11c0,0.15 -0.04,0.29 -0.04,0.47 0,0.15 0,0.33 0.04,0.51 0.04,0.18 0.11,0.36 0.26,0.55 0.04,0.11 0.11,0.18 0.18,0.26l0.29 0.18c0.18,0.11 0.36,0.15 0.55,0.18 0.15,0.04 0.33,0.04 0.47,0 0.18,0 0.33,-0.04 0.47,-0.07 0.07,-0.04 0.15,-0.04 0.22,-0.07 0.07,-0.04 0.15,-0.04 0.22,-0.07 0.29,-0.15 0.51,-0.29 0.73,-0.47 0.07,-0.04 0.11,-0.07 0.15,-0.11 0.07,-0.04 0.11,-0.11 0.18,-0.15 0.07,-0.07 0.18,-0.18 0.29,-0.26 0.15,-0.15 0.26,-0.29 0.4,-0.44l0.11 0.44c0.07,0.18 0.18,0.36 0.33,0.55 0.07,0.07 0.18,0.15 0.29,0.18 0.04,0.04 0.07,0.07 0.11,0.07l0.04 0.04c0.04,0 0.04,0 0.07,0.04 0.15,0.04 0.29,0.11 0.44,0.11 0.29,0.07 0.58,0.11 0.87,0.11 0.26,0 0.51,-0.04 0.77,-0.07 0.55,-0.04 1.02,-0.18 1.53,-0.29 0.47,-0.15 0.95,-0.29 1.42,-0.51 0.47,-0.18 0.91,-0.36 1.35,-0.62l0.12 -0.05c-0.01,0.13 -0.01,0.26 -0.01,0.38 0,0.11 0.04,0.22 0.04,0.33 0.04,0.11 0.04,0.22 0.07,0.33 0,0.04 0.04,0.04 0.04,0.07 0,0.04 0.04,0.07 0.04,0.11l0.04 0.07 0.04 0.04c0,0.04 0,0.04 0.04,0.07 0,0 0,0.04 0.04,0.07l0.04 0.04c0,0 0,0 0.04,0.04l0.04 0.04c0.04,0.04 0.07,0.07 0.11,0.07 0.04,0.04 0.07,0.07 0.15,0.07 0.04,0.04 0.07,0.07 0.11,0.07 0.18,0.07 0.36,0.07 0.55,0.07l0.4 -0.11c0.26,-0.11 0.4,-0.26 0.58,-0.36l0.18 -0.18 0.22 -0.22 0.66 -0.77c0.22,-0.26 0.4,-0.51 0.62,-0.73 0.04,-0.07 0.11,-0.11 0.15,-0.18l0.15 -0.15c0.04,0 0.04,-0.04 0.07,-0.07 0.04,0 0.04,-0.04 0.07,-0.04 0.04,-0.04 0.11,-0.07 0.15,-0.11l0.04 -0.04c0.04,0.04 0.11,0.15 0.15,0.26l0.11 0.4c0,0.11 0.04,0.26 0.04,0.4 0.04,0.07 0.04,0.15 0.04,0.22l0 0.15 0.04 0.04 0 0.04 0 0.11c0.04,0.15 0.11,0.29 0.18,0.44 0.07,0.11 0.18,0.26 0.33,0.36 0.11,0.07 0.29,0.15 0.44,0.22 0.15,0.04 0.33,0.04 0.47,0 0.15,0 0.29,-0.04 0.4,-0.07l0.33 -0.18c0.11,-0.07 0.18,-0.15 0.26,-0.18l0.11 -0.11 0.11 -0.07c0.26,-0.22 0.47,-0.47 0.69,-0.66 0.26,-0.22 0.47,-0.44 0.69,-0.58 0.07,-0.04 0.11,-0.07 0.18,-0.15 0.04,0 0.07,0 0.07,-0.04l0.04 -0.04 0.07 0 0.07 -0.07 0.04 0 0.04 -0.04c0.04,0 0.07,0 0.11,-0.04 0,0 0.04,0 0.07,0l0.15 0.04c0,0 0,0 0.04,0l-0.04 0.04 0 0.07c0,0.11 -0.04,0.18 -0.04,0.29 -0.04,0.11 -0.04,0.18 -0.07,0.29l0 0.36c0,0.04 0.04,0.07 0.04,0.11 0,0.04 0,0.07 0,0.11l0.11 0.26c0.04,0.11 0.11,0.18 0.18,0.26 0.07,0.11 0.15,0.15 0.22,0.22 0.11,0.04 0.18,0.07 0.26,0.07 0.07,0.04 0.15,0.04 0.18,0.07l0.18 0 0.07 0.04 0.29 0 0.11 0 0.04 -0.04 0.04 0c0.22,-0.04 0.44,-0.07 0.62,-0.15 0.36,-0.11 0.69,-0.26 1.06,-0.4 0.33,-0.15 0.66,-0.33 0.98,-0.51 0.21,-0.13 0.43,-0.26 0.66,-0.4l-0.01 0.04c-0.04,0.33 -0.07,0.66 -0.15,0.98 0,0.11 -0.04,0.22 -0.04,0.36 -0.07,0.15 -0.15,0.33 -0.18,0.51 -0.07,0.18 -0.11,0.37 -0.15,0.55 -0.04,0.07 -0.04,0.18 -0.07,0.29 0,0.04 0,0.11 0,0.15l0 0.15c0,0 0,0.04 0,0.07l0 0.07c0.04,0.04 0.04,0.11 0.11,0.25 0.04,0.18 0.73,0.36 0.84,0.18 0.18,-0.11 0.18,-0.15 0.22,-0.18 0.04,-0.04 0.04,-0.07 0.04,-0.07 0.04,-0.04 0.04,-0.07 0.07,-0.07 0,-0.07 0.04,-0.07 0.04,-0.11 0,-0.07 0.04,-0.11 0.04,-0.18 0.04,-0.07 0.07,-0.18 0.07,-0.26 0.07,-0.18 0.11,-0.33 0.11,-0.51 0.07,-0.22 0.11,-0.4 0.15,-0.62 0,-0.04 0.04,-0.11 0.07,-0.18 0.26,-0.55 0.55,-1.09 0.95,-1.53 0.36,-0.47 0.8,-0.88 1.31,-1.17 0.51,-0.29 1.06,-0.47 1.64,-0.58 0.15,0 0.29,-0.04 0.44,-0.04 0.07,0 0.15,0 0.22,0l0.18 0c0.11,0 0.22,0.04 0.26,0.07 0.04,0 0.04,0 0.04,0.04l0.04 0c0,0.04 0.04,0.11 0.04,0.22 -0.04,0.07 -0.04,0.18 -0.07,0.33 -0.07,0.22 -0.22,0.47 -0.36,0.73 -0.18,0.29 -0.4,0.55 -0.62,0.8 -0.51,0.18 -1.02,0.4 -1.5,0.58l-0.47 0.22 -0.22 0.07 -0.11 0.07 -0.04 0 -0.07 0.04c-0.04,0 -0.04,0.04 -0.07,0.04 -0.07,0.04 -0.15,0.07 -0.22,0.15 -0.07,0.07 -0.15,0.15 -0.18,0.26 -0.04,0.04 -0.07,0.11 -0.11,0.18 -0.04,0.07 -0.04,0.15 -0.04,0.26 0,0.07 0,0.18 0.04,0.29 0.04,0.07 0.11,0.18 0.18,0.26 0.04,0.07 0.11,0.11 0.18,0.15 0.07,0.04 0.15,0.07 0.18,0.11 0.15,0.04 0.22,0.04 0.33,0.04 0.18,0 0.33,-0.04 0.44,-0.07l0.04 -0.04 0.04 0 0.07 -0.04c0.04,0 0.11,-0.04 0.15,-0.04l0.26 -0.11c0.15,-0.11 0.33,-0.18 0.47,-0.29 0.33,-0.18 0.62,-0.4 0.88,-0.62 0.15,-0.11 0.26,-0.22 0.4,-0.36 0.07,0 0.11,-0.04 0.18,-0.07 0.62,-0.22 1.2,-0.4 1.86,-0.55 0.62,-0.18 1.24,-0.33 1.9,-0.47 1.28,-0.29 2.55,-0.62 3.86,-0.91 0.33,-0.07 0.55,-0.4 0.47,-0.77zm-8.75 -29.46l0 0.04c-0.18,-0.04 -0.07,-0.04 0,-0.04zm-1.82 33.03l0 -0.04 0.04 0 -0.04 0.04zm-26.18 -3.76c-0.26,0.36 -0.55,0.73 -0.88,1.06 -0.15,0.15 -0.29,0.29 -0.47,0.4 -0.15,0.15 -0.33,0.26 -0.47,0.33 -0.04,0.04 -0.07,0.04 -0.11,0.04 -0.07,0.04 -0.11,0.04 -0.15,0.07 -0.07,0 -0.15,0.04 -0.22,0.04l-0.22 0c-0.07,-0.04 -0.11,-0.04 -0.15,-0.07 -0.04,0 -0.04,0 -0.04,-0.04 -0.04,-0.04 -0.04,-0.07 -0.04,-0.11 -0.04,-0.07 -0.04,-0.11 0,-0.22 0,-0.04 0,-0.07 0,-0.11l0 -0.07c0,0 0,-0.04 0.04,-0.07l0 -0.11 0.07 -0.11c0,-0.07 0.07,-0.15 0.11,-0.22 0.07,-0.18 0.18,-0.29 0.33,-0.44 0.07,-0.04 0.15,-0.11 0.22,-0.15l0.11 -0.07 0.04 -0.04 0.07 -0.04c0.18,-0.07 0.33,-0.11 0.55,-0.15 0.18,-0.04 0.36,-0.07 0.58,-0.07 0.18,0 0.4,0.04 0.62,0.04l0 0.04 0.07 0c0,0.04 -0.04,0.04 -0.07,0.07zm-13.27 -0.33c-0.18,-0.26 -0.58,-0.33 -0.88,-0.11l-0.15 0.11 -0.04 0 0 0.04 -0.04 0.04c-0.04,0 -0.07,0.04 -0.11,0.04 0,0.04 -0.04,0.04 -0.07,0.07 -0.15,0.07 -0.29,0.15 -0.44,0.18 -0.33,0.15 -0.66,0.26 -1.02,0.33l-1.02 0.22c-0.07,0 -0.11,0 -0.15,0l0 -0.33c-0.04,-0.22 -0.11,-0.47 -0.22,-0.77 -0.07,-0.11 -0.18,-0.26 -0.29,-0.36 -0.11,-0.11 -0.26,-0.26 -0.44,-0.33 -0.07,-0.04 -0.18,-0.04 -0.29,-0.07l-0.11 0c-0.07,0 -0.11,-0.04 -0.15,0l-0.26 0c-0.04,0.04 -0.07,0.04 -0.11,0.04 -0.04,0.04 -0.11,0.04 -0.15,0.04 -0.15,0.07 -0.29,0.18 -0.44,0.29 0,0 0,0.04 -0.04,0.04 0.07,-0.18 0.07,-0.36 0,-0.55 -0.15,-0.29 -0.51,-0.44 -0.84,-0.29 -0.22,0.11 -0.4,0.22 -0.58,0.36 -0.18,0.15 -0.36,0.33 -0.51,0.51 -0.15,0.18 -0.29,0.4 -0.4,0.62 -0.11,0.18 -0.18,0.44 -0.22,0.66 -0.04,0.11 -0.04,0.22 -0.04,0.36 -0.04,0.11 -0.04,0.26 -0.04,0.36 0,0.11 0.04,0.26 0.04,0.36l0.11 0.36c0.07,0.22 0.22,0.47 0.36,0.66 0.15,0.22 0.33,0.4 0.55,0.55 0.15,0.07 0.26,0.15 0.4,0.18 0.07,0.04 0.11,0.04 0.22,0.07 0,0 0.07,0 0.11,0.04l0.07 0c0.29,0.04 0.55,0 0.77,-0.04 0.47,-0.11 0.87,-0.33 1.28,-0.58 0.18,-0.11 0.33,-0.26 0.51,-0.44 0.07,-0.07 0.15,-0.18 0.22,-0.29l0.18 -0.22c0.18,-0.04 0.36,-0.04 0.58,-0.07 0.18,-0.04 0.4,-0.04 0.58,-0.07 0.18,-0.04 0.4,-0.07 0.58,-0.15 0.4,-0.07 0.77,-0.18 1.17,-0.33 0.18,-0.07 0.4,-0.15 0.58,-0.26 0.07,0 0.11,-0.04 0.15,-0.07 0.07,-0.04 0.11,-0.04 0.18,-0.11l0.07 -0.04 0.07 -0.07 0.04 -0.04 0.04 0 0.04 -0.04c0,-0.04 0.04,-0.07 0.07,-0.11 0.22,-0.22 0.22,-0.55 0.04,-0.8zm-5.72 2c-0.04,0.04 -0.07,0.07 -0.15,0.07 -0.22,0.18 -0.51,0.33 -0.77,0.4 -0.15,0.04 -0.26,0.04 -0.36,0l-0.04 0c0,0 -0.04,0 -0.04,0l-0.04 0c-0.07,-0.04 -0.11,-0.04 -0.15,-0.07 -0.07,-0.07 -0.18,-0.15 -0.22,-0.26 -0.07,-0.11 -0.15,-0.22 -0.18,-0.33l-0.07 -0.4c0,-0.04 0,-0.11 0.04,-0.18 0,-0.07 0,-0.15 0.04,-0.22 0,-0.11 0.07,-0.25 0.11,-0.36 0.07,-0.15 0.15,-0.26 0.22,-0.36 0.11,-0.11 0.18,-0.22 0.29,-0.29 0.11,-0.11 0.26,-0.18 0.36,-0.26 0.04,0 0.07,-0.04 0.11,-0.04 -0.04,0.04 -0.07,0.11 -0.07,0.15 -0.07,0.18 -0.11,0.33 -0.11,0.51 -0.04,0.15 0,0.29 0.04,0.44 0.04,0.29 0.18,0.55 0.4,0.8 0.07,0.11 0.22,0.22 0.36,0.29 0.04,0 0.04,0.04 0.07,0.04l0.04 0c0.04,0.04 0.07,0.04 0.11,0.04l0 0.04zm0.51 -1.13l-0.07 0 -0.04 -0.04 -0.04 0c0,0 -0.04,-0.04 -0.04,-0.07 -0.04,-0.04 -0.07,-0.11 -0.07,-0.18 -0.04,-0.07 -0.04,-0.11 0,-0.15l0 -0.04c0,-0.04 0.04,-0.04 0.04,-0.04 0,0 0.04,0 0.04,0l0.04 0c0.04,0 0.04,0.04 0.07,0.07 0.04,0.07 0.07,0.18 0.07,0.33 0,0.04 0.04,0.07 0.04,0.15l-0.04 -0.04zm-2.77 -27.27c0,-0.22 0,-0.44 -0.04,-0.66 -0.04,-0.11 -0.04,-0.22 -0.07,-0.36l-0.11 -0.36c0,-0.07 -0.04,-0.15 -0.07,-0.22 -0.04,-0.07 -0.07,-0.15 -0.15,-0.22 -0.07,-0.07 -0.15,-0.18 -0.26,-0.26 -0.07,-0.07 -0.15,-0.11 -0.26,-0.11 -0.07,-0.04 -0.18,-0.07 -0.25,-0.07 -0.11,0 -0.33,0.07 -0.37,0.11 -0.07,0.04 -0.15,0.11 -0.15,0.11 -0.04,0.04 -0.07,0.07 -0.07,0.11 -0.04,0 -0.04,0.04 -0.04,0.04 -0.04,0.07 -0.07,0.11 -0.07,0.15 -0.04,0.11 -0.07,0.15 -0.07,0.22l-0.11 0.33c-0.04,0.22 -0.11,0.44 -0.15,0.62 -0.04,0.22 -0.07,0.44 -0.11,0.62l-0.22 1.24c-0.15,0.84 -0.29,1.64 -0.4,2.44 -0.15,0.84 -0.26,1.64 -0.37,2.48 -0.47,3.24 -0.87,6.53 -1.31,9.81l-0.44 3.32c-0.51,1.53 -0.95,3.1 -1.42,4.63l0 0.04c0,0 0,0 -0.04,0l-0.07 0c-0.07,0 -0.15,0 -0.22,0.04l-0.18 0c-0.22,0.07 -0.44,0.15 -0.66,0.18 -0.44,0.15 -0.84,0.33 -1.24,0.55 -0.4,0.18 -0.77,0.4 -1.13,0.69l-0.55 0.44c-0.18,0.18 -0.32,0.35 -0.45,0.56l-0.13 0.06 -0.15 0.11 -0.26 0.15 -0.58 0.33c-0.36,0.22 -0.77,0.44 -1.13,0.62 -0.77,0.4 -1.57,0.77 -2.37,1.06 -0.4,0.15 -0.8,0.25 -1.17,0.33 -0.11,0 -0.22,0 -0.29,0.04 -0.07,0 -0.11,0 -0.15,0l-0.15 0c-0.18,0 -0.36,0 -0.51,-0.04l-0.18 -0.07c-0.04,0 -0.07,-0.04 -0.11,-0.07 0,-0.04 0,-0.04 -0.04,-0.04l0 -0.07c0,-0.04 0,-0.15 0.04,-0.22 0,-0.11 0,-0.18 0.04,-0.29 0.04,-0.22 0.07,-0.4 0.15,-0.62l0.07 -0.33c0,-0.07 0.04,-0.11 0.04,-0.18 0,-0.04 0,-0.04 0,-0.07l0 -0.07 0.04 0 0 -0.07 0 -0.04c0,-0.04 0,-0.07 -0.04,-0.07l0 -0.11c-0.04,-0.11 -0.07,-0.22 -0.15,-0.29 -0.07,-0.11 -0.15,-0.18 -0.22,-0.22 -0.07,-0.04 -0.15,-0.07 -0.18,-0.11 -0.04,0 -0.07,-0.04 -0.11,-0.04l-0.07 0c-0.11,-0.04 -0.18,-0.04 -0.29,-0.04 -0.07,-0.04 -0.15,0 -0.22,0 -0.29,0 -0.55,0.07 -0.8,0.15l-0.04 0c-0.04,0.04 -0.04,0.04 -0.07,0.04l-0.04 0 -0.11 0 -0.07 0.04 -0.15 0c-0.18,0 -0.36,-0.04 -0.55,-0.07 -0.18,0 -0.4,-0.07 -0.58,-0.11l-0.04 0c0.04,-0.07 0.07,-0.11 0.11,-0.15l0.04 -0.04 0 -0.04 0.04 0c0,-0.04 0.04,-0.07 0.07,-0.11 0.04,-0.11 0.11,-0.18 0.15,-0.33l0 -0.07 0 -0.04 0 -0.04 0.04 -0.07c0,0 0,-0.04 0,-0.07l0 -0.07c-0.04,-0.11 -0.04,-0.26 -0.11,-0.36 -0.04,-0.15 -0.11,-0.26 -0.22,-0.36 -0.07,-0.07 -0.18,-0.15 -0.29,-0.22l-0.33 -0.11c-0.07,0 -0.18,-0.04 -0.29,-0.04 -0.07,0 -0.18,0.04 -0.29,0.04 -0.04,0 -0.11,0.04 -0.18,0.04 0,0.04 -0.04,0.04 -0.07,0.04l-0.07 0.07c-0.04,0 -0.07,0.04 -0.11,0.04 -0.04,0.04 -0.04,0.04 -0.07,0.04l-0.04 0.04c-0.07,0.07 -0.15,0.15 -0.22,0.18 -0.11,0.15 -0.22,0.33 -0.29,0.51 -0.07,0.18 -0.07,0.4 -0.07,0.58 0.04,0.22 0.07,0.4 0.18,0.58l0 0.04 -0.22 0.15 -0.04 0.04c-0.04,0.03 -0.07,0.06 -0.1,0.09 -0.32,0.25 -0.71,0.5 -1.1,0.71 -0.4,0.22 -0.8,0.44 -1.24,0.62 -0.4,0.18 -0.84,0.33 -1.28,0.44 -0.44,0.15 -0.87,0.22 -1.31,0.29 -0.22,0 -0.44,0.04 -0.66,0.04 -0.22,0 -0.4,-0.04 -0.58,-0.07l-0.04 -0.04 -0.04 0 -0.04 0c-0.04,0 -0.04,-0.04 -0.04,-0.04l-0.04 0 -0.04 -0.04 -0.04 0 -0.04 0 -0.04 -0.04c0,0 0,-0.04 -0.04,-0.11 0,-0.04 -0.04,-0.11 -0.04,-0.22 0,-0.15 0,-0.37 0,-0.55l0.11 -0.66c0.07,-0.22 0.11,-0.44 0.18,-0.66l0.04 -0.18 0.04 -0.11 0 -0.11 0.04 -0.04c0,0 0,-0.04 0,-0.04l0 -0.15c0.11,0.11 -0.22,-0.77 -0.91,-0.51 -0.26,0.11 -0.22,0.15 -0.26,0.18l-0.04 0.04 -0.04 0.04 0 0.04c-0.04,0.04 -0.04,0.04 -0.04,0.07 -0.04,0.04 -0.04,0.07 -0.04,0.07l-0.07 0.11c0,0 0,0.04 0,0.04l-0.07 0.11c-0.07,-0.18 -0.26,-0.29 -0.47,-0.33 -0.25,-0.04 -0.51,-0.07 -0.8,-0.07 -0.26,0 -0.55,0.04 -0.84,0.07 -0.29,0.07 -0.58,0.15 -0.84,0.26l-0.11 0.07 -0.11 0.04c-0.04,0.04 -0.11,0.07 -0.18,0.15 -0.11,0.07 -0.26,0.15 -0.36,0.26 -0.08,0.08 -0.16,0.16 -0.23,0.25l-0.06 0.04 -0.22 0.18 -0.26 0.18 -0.4 0.33c-0.07,0.07 -0.15,0.11 -0.22,0.15l-0.22 0.18 -0.18 0.15 -0.22 0.15c-0.15,0.11 -0.29,0.22 -0.44,0.29l-0.11 0.07 -0.11 0.07 -0.22 0.11 -0.33 0.22 -0.04 0 -0.29 0.15c-0.07,0.04 -0.18,0.07 -0.25,0.11l-0.22 0.11c-0.07,0.04 -0.15,0.07 -0.26,0.07l-0.22 0.11c-0.04,0 -0.07,0.04 -0.11,0.04l-0.07 0c-0.04,0.04 -0.04,0.04 -0.07,0.04l-0.47 0.15 -0.51 0.11 -0.26 0.04c-0.07,0 -0.15,0.04 -0.26,0.04 -0.15,0.04 -0.33,0.07 -0.47,0.07 -0.33,0.04 -0.66,0.07 -0.95,0.07 -0.18,-0.04 -0.33,-0.04 -0.47,-0.07 -0.15,0 -0.29,-0.04 -0.44,-0.11 -0.25,-0.07 -0.47,-0.22 -0.66,-0.36 -0.07,-0.07 -0.15,-0.18 -0.18,-0.26 -0.04,-0.11 -0.07,-0.22 -0.07,-0.33l0 -0.07 0 -0.07c0,-0.04 0,-0.07 0.04,-0.07l0 -0.07 0 -0.04c0.04,-0.15 0.11,-0.26 0.18,-0.4l0.04 -0.07 0.07 -0.11c0,-0.04 0.04,-0.07 0.04,-0.07l0.03 -0.04 0.12 -0.1 0 0 0.04 -0.04c0.06,-0.06 0.1,-0.13 0.13,-0.21l0.05 -0.05c0.22,-0.22 0.47,-0.4 0.73,-0.58l0.4 -0.22c0.15,-0.07 0.29,-0.15 0.44,-0.18 0.15,-0.07 0.29,-0.11 0.44,-0.11 0.04,-0.04 0.11,-0.04 0.18,-0.04l0.11 0 0.04 0c0.33,0.04 0.66,-0.22 0.69,-0.55 0.07,-0.33 -0.18,-0.66 -0.51,-0.73 -0.18,0 -0.29,0 -0.44,0l-0.15 0 -0.11 0.04 -0.07 0c-0.22,0.04 -0.4,0.11 -0.62,0.18 -0.36,0.11 -0.73,0.29 -1.09,0.51 -0.18,0.11 -0.33,0.26 -0.47,0.36 -0.18,0.15 -0.33,0.26 -0.47,0.44 -0.1,0.1 -0.19,0.21 -0.28,0.32l-0.16 0.15c-0.07,0.07 -0.15,0.15 -0.25,0.22 -0.15,0.15 -0.33,0.29 -0.51,0.44l-0.55 0.4c-0.18,0.11 -0.36,0.22 -0.55,0.36 -0.36,0.22 -0.8,0.4 -1.2,0.55 -0.18,0.07 -0.4,0.15 -0.58,0.22l-0.29 0.11c-0.07,0.04 -0.11,0.04 -0.15,0.04l-0.18 0.04c-0.04,0.04 -0.07,0.04 -0.15,0.04 -0.04,0.04 -0.11,0.04 -0.15,0.04 -0.11,0.04 -0.18,0.04 -0.29,0.04 -0.07,0.04 -0.11,0.04 -0.15,0.04l-0.4 0 -0.04 0c-0.11,0 -0.22,-0.04 -0.29,-0.11 -0.07,-0.07 -0.11,-0.15 -0.11,-0.22 0,0 0,-0.04 0,-0.04l0 -0.07c0,-0.04 0,-0.04 0,-0.07l0 -0.07c0,-0.11 0.04,-0.22 0.04,-0.29 0.04,-0.22 0.04,-0.44 0.11,-0.62 0.04,-0.22 0.07,-0.44 0.15,-0.62l0.22 -0.62c0.11,-0.33 -0.04,-0.66 -0.36,-0.8 -0.29,-0.15 -0.69,0 -0.8,0.33 -0.07,0.16 -0.14,0.32 -0.2,0.48l-0.13 0.07 -0.15 0.11 -0.26 0.15 -0.58 0.33c-0.36,0.22 -0.77,0.44 -1.13,0.62 -0.77,0.4 -1.57,0.77 -2.37,1.06 -0.4,0.15 -0.8,0.25 -1.17,0.33 -0.11,0 -0.22,0 -0.29,0.04 -0.07,0 -0.11,0 -0.15,0l-0.15 0c-0.18,0 -0.36,0 -0.51,-0.04l-0.18 -0.07c-0.04,0 -0.07,-0.04 -0.11,-0.07 0,-0.04 0,-0.04 -0.04,-0.04l0 -0.07c0,-0.04 0,-0.15 0.04,-0.22 0,-0.11 0,-0.18 0.04,-0.29 0.04,-0.22 0.07,-0.4 0.15,-0.62l0.07 -0.33c0,-0.07 0.04,-0.11 0.04,-0.18 0,-0.04 0,-0.04 0,-0.07l0 -0.07 0.04 0 0 -0.07 0 -0.04c0,-0.04 0,-0.07 -0.04,-0.07l0 -0.11c-0.04,-0.11 -0.07,-0.22 -0.15,-0.29 -0.07,-0.11 -0.15,-0.18 -0.22,-0.22 -0.07,-0.04 -0.15,-0.07 -0.18,-0.11 -0.04,0 -0.07,-0.04 -0.11,-0.04l-0.07 0c-0.11,-0.04 -0.18,-0.04 -0.29,-0.04 -0.07,-0.04 -0.15,0 -0.22,0 -0.29,0 -0.55,0.07 -0.8,0.15l-0.04 0c-0.04,0.04 -0.04,0.04 -0.07,0.04l-0.04 0 -0.11 0 -0.07 0.04 -0.15 0c-0.18,0 -0.36,-0.04 -0.55,-0.07 -0.18,0 -0.4,-0.07 -0.58,-0.11l-0.04 0c0.04,-0.07 0.07,-0.11 0.11,-0.15l0.04 -0.04 0 -0.04 0.04 0c0,-0.04 0.04,-0.07 0.07,-0.11 0.04,-0.11 0.11,-0.18 0.15,-0.33l0 -0.07 0 -0.04 0 -0.04 0.04 -0.07c0,0 0,-0.04 0,-0.07l0 -0.07c-0.04,-0.11 -0.04,-0.26 -0.11,-0.36 -0.04,-0.15 -0.11,-0.26 -0.22,-0.36 -0.07,-0.07 -0.18,-0.15 -0.29,-0.22l-0.33 -0.11c-0.07,0 -0.18,-0.04 -0.29,-0.04 -0.07,0 -0.18,0.04 -0.29,0.04 -0.04,0 -0.11,0.04 -0.18,0.04 0,0.04 -0.04,0.04 -0.07,0.04l-0.07 0.07c-0.04,0 -0.07,0.04 -0.11,0.04 -0.04,0.04 -0.04,0.04 -0.07,0.04l-0.04 0.04c-0.07,0.07 -0.15,0.15 -0.22,0.18 -0.11,0.15 -0.22,0.33 -0.29,0.51 -0.07,0.18 -0.07,0.4 -0.07,0.58 0.04,0.22 0.07,0.4 0.18,0.58l0 0.04 -0.22 0.15 -0.04 0.04c-0.26,0.18 -0.33,0.58 -0.11,0.88 0.18,0.29 0.58,0.33 0.87,0.15l0.29 -0.22 0.22 -0.15c0.26,0.11 0.47,0.18 0.73,0.25 0.22,0.07 0.47,0.15 0.69,0.18 0.26,0.04 0.51,0.07 0.77,0.07l0.22 0 0.18 0 0.11 -0.04 0.11 0 0.11 -0.04 0.07 0 0.04 -0.04c0.11,0 0.22,-0.04 0.29,-0.07l0 0.04 -0.15 0.69c-0.04,0.11 -0.07,0.26 -0.07,0.36 0,0.15 -0.04,0.29 -0.04,0.44 0,0.07 0.04,0.15 0.04,0.26l0 0.07 0 0.04 0.04 0.04 0 0.04 0 0.04c0.04,0.04 0.04,0.07 0.07,0.11l0 0.04 0.04 0.04c0,0.04 0,0.04 0.04,0.07l0.04 0.07c0,0 0,0.04 0.04,0.04 0.04,0.07 0.11,0.15 0.18,0.22 0.15,0.11 0.29,0.22 0.47,0.29 0.15,0.07 0.29,0.11 0.44,0.15 0.29,0.04 0.55,0.04 0.84,0.04 0.04,0 0.11,-0.04 0.18,-0.04 0.07,0 0.11,0 0.18,-0.04l0.36 -0.04c0.04,-0.04 0.11,-0.04 0.18,-0.04l0.15 -0.07c0.15,0 0.26,-0.04 0.36,-0.07l0.33 -0.11 0.33 -0.11c0.87,-0.33 1.71,-0.69 2.52,-1.09 0.4,-0.18 0.8,-0.4 1.2,-0.62l0.12 -0.07 -0.01 0.07c0,0.11 0,0.26 0,0.36l0 0.11c0,0.04 0,0.07 0,0.11l0 0.11c0,0.04 0,0.07 0.04,0.11 0,0.22 0.07,0.4 0.15,0.55 0.11,0.18 0.22,0.33 0.36,0.44 0.15,0.15 0.29,0.22 0.44,0.29 0.18,0.07 0.37,0.15 0.55,0.15l0.07 0.04 0.55 0c0.07,0 0.11,-0.04 0.18,-0.04 0.15,0 0.25,0 0.4,-0.04 0.07,0 0.11,0 0.18,-0.04 0.07,0 0.15,0 0.18,-0.04 0.51,-0.11 0.98,-0.26 1.46,-0.47l0.33 -0.18c0.11,-0.07 0.22,-0.11 0.33,-0.18l0.15 -0.11 0.15 -0.07c0.11,-0.07 0.22,-0.15 0.33,-0.18 0.22,-0.15 0.4,-0.29 0.62,-0.4l0.02 -0.02c0.03,0.21 0.07,0.42 0.16,0.6 0.11,0.26 0.26,0.44 0.4,0.62 0.18,0.18 0.36,0.33 0.55,0.47 0.22,0.11 0.4,0.18 0.62,0.26 0.18,0.11 0.4,0.15 0.62,0.18 0.18,0.04 0.4,0.07 0.62,0.07 0.4,0.04 0.8,0 1.17,-0.04 0.11,0 0.18,-0.04 0.29,-0.04l0.07 0 0.07 -0.04 0.15 0c0.07,-0.04 0.18,-0.07 0.26,-0.07 0.11,-0.04 0.22,-0.04 0.29,-0.07l0.55 -0.15 0.55 -0.18c0,0 0.04,-0.04 0.07,-0.04l0.07 -0.04c0.04,0 0.07,-0.04 0.11,-0.04l0.26 -0.11 0.29 -0.11c0.07,-0.04 0.15,-0.07 0.26,-0.11l0.26 -0.11 0.25 -0.15 0.07 0 0.04 -0.04 0.15 -0.07 0.26 -0.15 0.22 -0.15 0.15 -0.07 0.11 -0.07c0.15,-0.11 0.33,-0.18 0.47,-0.29l0.37 -0.27c0.01,0.06 0.01,0.13 0.03,0.2 0.04,0.18 0.11,0.36 0.26,0.55 0.04,0.11 0.11,0.18 0.18,0.26l0.29 0.18c0.18,0.11 0.36,0.15 0.55,0.18 0.15,0.04 0.33,0.04 0.47,0 0.18,0 0.33,-0.04 0.47,-0.07 0.07,-0.04 0.15,-0.04 0.22,-0.07 0.07,-0.04 0.15,-0.04 0.22,-0.07 0.29,-0.15 0.51,-0.29 0.73,-0.47 0.07,-0.04 0.11,-0.07 0.15,-0.11 0.07,-0.04 0.11,-0.11 0.18,-0.15 0.07,-0.07 0.18,-0.18 0.29,-0.26 0.15,-0.15 0.26,-0.29 0.4,-0.44l0.11 0.44c0.07,0.18 0.18,0.36 0.33,0.55 0.07,0.07 0.18,0.15 0.29,0.18 0.04,0.04 0.07,0.07 0.11,0.07l0.04 0.04c0.04,0 0.04,0 0.07,0.04 0.15,0.04 0.29,0.11 0.44,0.11 0.29,0.07 0.58,0.11 0.87,0.11 0.26,0 0.51,-0.04 0.77,-0.07 0.55,-0.04 1.02,-0.18 1.53,-0.29 0.47,-0.15 0.95,-0.29 1.42,-0.51 0.47,-0.18 0.91,-0.36 1.35,-0.62 0.25,-0.11 0.47,-0.22 0.69,-0.36 0.11,-0.07 0.22,-0.15 0.29,-0.22 0.11,-0.04 0.22,-0.11 0.33,-0.18l0.04 -0.04c0.06,-0.05 0.11,-0.1 0.15,-0.16l0.18 -0.13 0.22 -0.15c0.26,0.11 0.47,0.18 0.73,0.25 0.22,0.07 0.47,0.15 0.69,0.18 0.26,0.04 0.51,0.07 0.77,0.07l0.22 0 0.18 0 0.11 -0.04 0.11 0 0.11 -0.04 0.07 0 0.04 -0.04c0.11,0 0.22,-0.04 0.29,-0.07l0 0.04 -0.15 0.69c-0.04,0.11 -0.07,0.26 -0.07,0.36 0,0.15 -0.04,0.29 -0.04,0.44 0,0.07 0.04,0.15 0.04,0.26l0 0.07 0 0.04 0.04 0.04 0 0.04 0 0.04c0.04,0.04 0.04,0.07 0.07,0.11l0 0.04 0.04 0.04c0,0.04 0,0.04 0.04,0.07l0.04 0.07c0,0 0,0.04 0.04,0.04 0.04,0.07 0.11,0.15 0.18,0.22 0.15,0.11 0.29,0.22 0.47,0.29 0.15,0.07 0.29,0.11 0.44,0.15 0.29,0.04 0.55,0.04 0.84,0.04 0.04,0 0.11,-0.04 0.18,-0.04 0.07,0 0.11,0 0.18,-0.04l0.36 -0.04c0.04,-0.04 0.11,-0.04 0.18,-0.04l0.15 -0.07c0.15,0 0.26,-0.04 0.37,-0.07l0.33 -0.11 0.33 -0.11c0.87,-0.33 1.71,-0.69 2.52,-1.09 0.4,-0.18 0.8,-0.4 1.2,-0.62l0.01 -0.01c0.01,0.11 0.04,0.2 0.06,0.3 0.04,0.15 0.11,0.29 0.18,0.44 0.11,0.15 0.18,0.25 0.33,0.36 0.11,0.11 0.22,0.18 0.36,0.26 0.15,0.07 0.29,0.15 0.4,0.18 0.15,0.04 0.29,0.07 0.44,0.07 0.15,0 0.29,0.04 0.4,0l0.22 0c0.07,-0.04 0.11,-0.04 0.18,-0.04 0.26,-0.07 0.51,-0.15 0.77,-0.29 0.22,-0.11 0.44,-0.25 0.62,-0.44 0.18,-0.18 0.36,-0.36 0.51,-0.55 0.15,-0.18 0.26,-0.36 0.36,-0.58 0.26,-0.4 0.44,-0.77 0.58,-1.17l0.15 -0.36c-0.18,1.46 -0.36,2.92 -0.55,4.38l-0.29 2.48 -0.07 0.62c0,0.18 -0.04,0.4 -0.04,0.62l-0.04 0.15 0 0.18 0 0.07c0,-0.04 0.07,0.26 0.07,0.22 0,0.04 0,0.04 0.04,0.07 0,0.04 0,0.07 0.04,0.07l0.07 0.11c0.04,0.04 0.07,0.07 0.11,0.11l0.22 0.15c0.04,0 0.11,0 0.15,0.04 0.04,0 0.04,0 0.07,0l0.07 0c0.04,0 0.07,0 0.15,0l0.11 0c0.04,-0.04 0.07,-0.04 0.11,-0.04 0.04,-0.04 0.07,-0.04 0.11,-0.04 0,-0.04 0.04,-0.04 0.04,-0.04 0.04,0 0.04,-0.04 0.04,-0.04 0.04,0 0.07,-0.04 0.11,-0.04 0,-0.04 0.04,-0.04 0.04,-0.07 0.04,0 0.07,-0.04 0.07,-0.07 0.15,-0.15 0.22,-0.29 0.29,-0.44 0.15,-0.36 0,-0.73 -0.33,-0.88 -0.07,0 -0.15,-0.04 -0.22,-0.04l0.07 -0.62c0.07,-0.8 0.15,-1.64 0.26,-2.44 0.18,-1.64 0.36,-3.28 0.58,-4.92 0.18,-1.64 0.4,-3.24 0.58,-4.88 0.07,-0.44 0.11,-0.88 0.18,-1.31 0,-0.04 0.04,-0.11 0.07,-0.18 0.26,-0.77 0.47,-1.57 0.73,-2.37 0.26,-0.8 0.47,-1.6 0.69,-2.37 0.44,-1.6 0.84,-3.24 1.2,-4.85 0.36,-1.64 0.66,-3.28 0.87,-4.92 0.15,-0.84 0.22,-1.64 0.29,-2.48 0.04,-0.44 0.04,-0.84 0.07,-1.28 0,-0.44 0,-0.87 -0.04,-1.31zm-1.31 2.48c-0.07,0.8 -0.15,1.6 -0.26,2.41 -0.22,1.64 -0.51,3.25 -0.87,4.85l-0.33 1.49c0.26,-1.6 0.47,-3.24 0.73,-4.85 0.25,-1.64 0.47,-3.28 0.77,-4.89 0,0.33 -0.04,0.66 -0.04,0.98zm-5.94 23.73c-0.18,0.36 -0.33,0.73 -0.51,1.06l-0.29 0.44c-0.11,0.15 -0.22,0.26 -0.36,0.36 -0.11,0.11 -0.22,0.18 -0.36,0.26 -0.11,0.07 -0.25,0.11 -0.4,0.15 -0.15,0.04 -0.29,0.04 -0.44,0.04 -0.04,0 -0.11,0 -0.18,-0.04 -0.04,0 -0.11,-0.04 -0.15,-0.07 -0.11,-0.04 -0.18,-0.11 -0.22,-0.18 -0.04,-0.04 -0.04,-0.07 -0.04,-0.11 -0.04,-0.07 -0.04,-0.11 -0.04,-0.18l0 -0.15c0,-0.07 0.04,-0.15 0.04,-0.22 0.04,-0.04 0.07,-0.11 0.11,-0.18 0,-0.04 0.04,-0.07 0.04,-0.11l0.07 -0.07c0.07,-0.15 0.18,-0.25 0.33,-0.36 0.11,-0.15 0.26,-0.26 0.4,-0.36 0.29,-0.22 0.62,-0.4 0.95,-0.58 0.36,-0.18 0.69,-0.33 1.06,-0.44 0.11,-0.04 0.22,-0.07 0.33,-0.11l-0.33 0.87zm-25.01 0.51c-0.26,0.36 -0.55,0.73 -0.88,1.06 -0.15,0.15 -0.29,0.29 -0.47,0.4 -0.15,0.15 -0.33,0.26 -0.47,0.33 -0.04,0.04 -0.07,0.04 -0.11,0.04 -0.07,0.04 -0.11,0.04 -0.15,0.07 -0.07,0 -0.15,0.04 -0.22,0.04l-0.22 0c-0.07,-0.04 -0.11,-0.04 -0.15,-0.07 -0.04,0 -0.04,0 -0.04,-0.04 -0.04,-0.04 -0.04,-0.07 -0.04,-0.11 -0.04,-0.07 -0.04,-0.11 0,-0.22 0,-0.04 0,-0.07 0,-0.11l0 -0.07c0,0 0,-0.04 0.04,-0.07l0 -0.11 0.07 -0.11c0,-0.07 0.07,-0.15 0.11,-0.22 0.07,-0.18 0.18,-0.29 0.33,-0.44 0.07,-0.04 0.15,-0.11 0.22,-0.15l0.11 -0.07 0.04 -0.04 0.07 -0.04c0.18,-0.07 0.33,-0.11 0.55,-0.15 0.18,-0.04 0.36,-0.07 0.58,-0.07 0.18,0 0.4,0.04 0.62,0.04l0 0.04 0.07 0c0,0.04 -0.04,0.04 -0.07,0.07z"/>
  </g>
 </g>
</svg>
