<?xml version="1.0" encoding="UTF-8"?>
<!DOCTYPE svg PUBLIC "-//W3C//DTD SVG 1.1//EN" "http://www.w3.org/Graphics/SVG/1.1/DTD/svg11.dtd">
<!-- Creator: CorelDRAW 2017 -->
<svg xmlns="http://www.w3.org/2000/svg" xml:space="preserve" width="0.0968268in" height="0.0968268in" version="1.1" style="shape-rendering:geometricPrecision; text-rendering:geometricPrecision; image-rendering:optimizeQuality; fill-rule:evenodd; clip-rule:evenodd"
viewBox="0 0 96.83 96.83"
 xmlns:xlink="http://www.w3.org/1999/xlink">
 <defs>
  <style type="text/css">
   <![CDATA[
    .fil0 {fill:white}
   ]]>
  </style>
 </defs>
 <g id="Layer_x0020_1">
  <metadata id="CorelCorpID_0Corel-Layer"/>
  <path class="fil0" d="M1.27 89.39l40.98 -40.98 -40.98 -40.98c-1.69,-1.69 -1.69,-4.46 0.01,-6.16l0 0c1.69,-1.7 4.47,-1.69 6.16,-0.01l40.98 40.98 40.98 -40.98c1.69,-1.69 4.46,-1.69 6.16,0.01l0 0c1.7,1.69 1.69,4.47 0.01,6.16l-40.98 40.98 40.98 40.98c1.69,1.69 1.69,4.46 -0.01,6.16l0 0c-1.69,1.7 -4.47,1.69 -6.16,0.01l-40.98 -40.98 -40.98 40.98c-1.69,1.69 -4.46,1.69 -6.16,-0.01l0 0c-1.7,-1.69 -1.69,-4.47 -0.01,-6.16z"/>
 </g>
</svg>
