<?xml version="1.0" encoding="UTF-8"?>
<!DOCTYPE svg PUBLIC "-//W3C//DTD SVG 1.1//EN" "http://www.w3.org/Graphics/SVG/1.1/DTD/svg11.dtd">
<!-- Creator: CorelDRAW 2017 -->
<svg xmlns="http://www.w3.org/2000/svg" xml:space="preserve" width="0.333339in" height="0.333335in" version="1.1" style="shape-rendering:geometricPrecision; text-rendering:geometricPrecision; image-rendering:optimizeQuality; fill-rule:evenodd; clip-rule:evenodd"
viewBox="0 0 62.97 62.97"
 xmlns:xlink="http://www.w3.org/1999/xlink">
 <defs>
  <style type="text/css">
   <![CDATA[
    .fil0 {fill:#DA1392}
    .fil1 {fill:white}
   ]]>
  </style>
 </defs>
 <g id="Layer_x0020_1">
  <metadata id="CorelCorpID_0Corel-Layer"/>
  <g id="_2377702022224">
   <circle class="fil0" cx="31.49" cy="31.49" r="31.49"/>
   <path class="fil1" d="M47.23 39.52l0 -3.84 -1.47 -0.38c-0.01,-0.02 -0.02,-0.05 -0.03,-0.07l0.77 -1.3 -2.71 -2.71 -1.3 0.77c-0.03,-0.01 -0.05,-0.02 -0.07,-0.03l-0.37 -1.47 -3.84 0 -0.38 1.47c-0.02,0.01 -0.05,0.02 -0.07,0.03l-1.3 -0.77 -2.71 2.71 0.77 1.3c-0.01,0.03 -0.02,0.05 -0.03,0.07l-1.47 0.38 0 3.84 1.47 0.38c0.01,0.02 0.02,0.05 0.03,0.07l-0.77 1.3 2.71 2.71 1.3 -0.77c0.03,0.01 0.05,0.02 0.07,0.03l0.37 1.47 3.84 0 0.38 -1.47c0.02,-0.01 0.05,-0.02 0.07,-0.03l1.3 0.77 2.71 -2.71 -0.77 -1.3c0.01,-0.03 0.02,-0.05 0.03,-0.07l1.47 -0.38zm-7.11 -18.17l0 6.39 -1.16 -1.16 -0.72 0.72 2.39 2.39 2.39 -2.39 -0.72 -0.72 -1.16 1.16 0 -6.39c0,-0.84 -0.68,-1.52 -1.52,-1.52l-2.54 0 0 1.02 2.54 0c0.28,0 0.51,0.23 0.51,0.51l0 0zm-18.79 0c0,-0.28 0.23,-0.51 0.51,-0.51l2.33 0 -1.16 1.16 0.72 0.72 2.39 -2.39 -2.39 -2.39 -0.72 0.72 1.16 1.16 -2.33 0c-0.84,0 -1.52,0.68 -1.52,1.52l0 9.14 1.02 0 0 -9.14zm7.98 14.58l-0.72 -0.72 -2.39 2.39 2.39 2.39 0.72 -0.72 -1.16 -1.16 3.85 0 0 -1.02 -3.85 0 1.16 -1.16zm-11.53 5.73l4.06 0 0 1.02 -4.06 0 0 -1.02zm5.08 0l1.02 0 0 1.02 -1.02 0 0 -1.02zm-5.08 -2.03l6.09 0 0 1.02 -6.09 0 0 -1.02zm0 -2.03l6.09 0 0 1.02 -6.09 0 0 -1.02zm2.03 -2.03l4.06 0 0 1.02 -4.06 0 0 -1.02zm-2.03 0l1.02 0 0 1.02 -1.02 0 0 -1.02zm0 -2.03l6.09 0 0 1.02 -6.09 0 0 -1.02zm-2.03 11.17l10.16 0 0 -13.2 -10.16 0 0 13.2zm1.02 -12.19l8.13 0 0 11.17 -8.13 0 0 -11.17zm11.85 -10.7c0.17,0.5 0.47,0.94 0.85,1.28l0 0.43 -2.42 0.91c-0.99,0.37 -1.65,1.32 -1.65,2.38l0 2.65 12.19 0 0 -2.65c0,-1.05 -0.66,-2.01 -1.65,-2.38l-2.42 -0.91 0 -0.43c0.38,-0.35 0.68,-0.78 0.85,-1.28 0.96,-0.16 1.69,-0.99 1.69,-2l0 -2.03c0,-2.52 -2.05,-4.57 -4.57,-4.57 -2.52,0 -4.57,2.05 -4.57,4.57l0 2.03c0,1 0.73,1.83 1.69,2zm3.9 1.93l-1.02 1.69 -1.02 -1.69 0 -0.04c0.32,0.11 0.66,0.18 1.02,0.18 0.36,0 0.7,-0.07 1.02,-0.18l0 0.04zm-2.76 0.76l1.02 1.71 -1.02 0.51 -0.66 -1.97 0.65 -0.24zm6.82 2.31l0 1.64 -10.16 0 0 -1.64c0,-0.63 0.4,-1.2 0.99,-1.43l0.75 -0.28 1.02 3.05 2.33 -1.16 2.33 1.16 1.02 -3.05 0.75 0.28c0.59,0.22 0.99,0.79 0.99,1.43zm-2.69 -2.06l-0.66 1.97 -1.02 -0.51 1.02 -1.71 0.65 0.24zm-2.39 -1.88c-1.12,0 -2.03,-0.91 -2.03,-2.03l0 -2.07c0.74,-0.08 1.45,-0.35 2.03,-0.81 0.59,0.46 1.29,0.73 2.03,0.81l0 2.07c0,1.12 -0.91,2.03 -2.03,2.03zm3.05 -2.17l0 -1.75c0.3,0.18 0.51,0.5 0.51,0.87 0,0.37 -0.21,0.7 -0.51,0.87zm-3.05 -6.46c1.96,0 3.56,1.59 3.56,3.55l0 0.28c-0.3,-0.17 -0.64,-0.28 -1.02,-0.28l-0.09 0c-0.79,0 -1.53,-0.31 -2.09,-0.87l-0.36 -0.36 -0.36 0.36c-0.56,0.56 -1.3,0.87 -2.09,0.87l-0.09 0c-0.37,0 -0.72,0.11 -1.02,0.28l0 -0.28c0,-1.96 1.6,-3.55 3.56,-3.55l0 0zm-3.05 4.71l0 1.75c-0.3,-0.18 -0.51,-0.5 -0.51,-0.87 0,-0.37 0.21,-0.7 0.51,-0.87zm11.68 16.62c-1.12,0 -2.03,0.91 -2.03,2.03 0,1.12 0.91,2.03 2.03,2.03 1.12,0 2.03,-0.91 2.03,-2.03 0,-1.12 -0.91,-2.03 -2.03,-2.03zm0 3.05c-0.56,0 -1.02,-0.46 -1.02,-1.02 0,-0.56 0.46,-1.02 1.02,-1.02 0.56,0 1.02,0.46 1.02,1.02 0,0.56 -0.46,1.02 -1.02,1.02zm0 -5.08c-2.24,0 -4.06,1.82 -4.06,4.06 0,2.24 1.82,4.06 4.06,4.06 2.24,0 4.06,-1.82 4.06,-4.06 0,-2.24 -1.82,-4.06 -4.06,-4.06zm0 7.11c-1.68,0 -3.05,-1.37 -3.05,-3.05 0,-1.68 1.37,-3.05 3.05,-3.05 1.68,0 3.05,1.37 3.05,3.05 0,1.68 -1.37,3.05 -3.05,3.05zm5.11 0.46l-1.6 1.6 -1.09 -0.64 -0.24 0.12c-0.16,0.07 -0.32,0.14 -0.48,0.2l-0.26 0.09 -0.31 1.22 -2.26 0 -0.31 -1.22 -0.26 -0.09c-0.17,-0.06 -0.33,-0.13 -0.48,-0.2l-0.24 -0.12 -1.09 0.64 -1.6 -1.6 0.64 -1.09 -0.12 -0.24c-0.07,-0.16 -0.14,-0.32 -0.2,-0.48l-0.09 -0.26 -1.22 -0.31 0 -2.26 1.22 -0.31 0.09 -0.26c0.06,-0.17 0.12,-0.33 0.2,-0.48l0.12 -0.24 -0.64 -1.09 1.6 -1.6 1.09 0.64 0.24 -0.12c0.16,-0.07 0.32,-0.14 0.48,-0.2l0.26 -0.09 0.31 -1.22 2.26 0 0.31 1.22 0.26 0.09c0.17,0.06 0.33,0.13 0.48,0.2l0.24 0.12 1.09 -0.64 1.6 1.6 -0.64 1.09 0.12 0.24c0.07,0.16 0.14,0.32 0.2,0.48l0.09 0.26 1.22 0.31 0 2.26 -1.22 0.31 -0.09 0.26c-0.06,0.17 -0.12,0.33 -0.2,0.48l-0.12 0.24 0.64 1.09z"/>
  </g>
 </g>
</svg>
