<?xml version="1.0" encoding="UTF-8"?>
<!DOCTYPE svg PUBLIC "-//W3C//DTD SVG 1.1//EN" "http://www.w3.org/Graphics/SVG/1.1/DTD/svg11.dtd">
<!-- Creator: CorelDRAW 2017 -->
<svg xmlns="http://www.w3.org/2000/svg" xml:space="preserve" width="0.233339in" height="0.181969in" version="1.1" style="shape-rendering:geometricPrecision; text-rendering:geometricPrecision; image-rendering:optimizeQuality; fill-rule:evenodd; clip-rule:evenodd"
viewBox="0 0 232.18 181.06"
 xmlns:xlink="http://www.w3.org/1999/xlink">
 <defs>
  <style type="text/css">
   <![CDATA[
    .fil0 {fill:silver}
   ]]>
  </style>
 </defs>
 <g id="Layer_x0020_1">
  <metadata id="CorelCorpID_0Corel-Layer"/>
  <path class="fil0" d="M60.29 180.63c0.43,0.29 0.96,0.43 1.48,0.43 0.71,0 1.45,-0.27 1.91,-0.81l6.46 -7.56 91.97 0 6.46 7.56c0.46,0.54 1.19,0.81 1.9,0.81 0.52,0 1.04,-0.14 1.48,-0.43 0.85,-0.58 1.11,-1.6 0.42,-2.41l-7.15 -8.37c-0.46,-0.54 -1.19,-0.81 -1.9,-0.81l-14.83 0 -9.18 -22.46 45.03 0c1.05,0 2.3,-0.68 2.3,-1.82 0,-1.14 -1.25,-1.82 -2.3,-1.82l-179.68 0 0 -25.11 222.93 0 0 25.11 -6.26 0c-1.05,0 -2.3,0.68 -2.3,1.82 0,1.14 1.25,1.82 2.3,1.82l8.56 0c1.05,0 2.3,-0.68 2.3,-1.82l0 -142.95c0,-1.14 -1.24,-1.82 -2.3,-1.82l-227.59 0c-1.05,0 -2.29,0.68 -2.29,1.82l0 75.21c0,0.34 0.02,0.68 0.05,1.21l0 66.53c0,1.14 1.25,1.82 2.3,1.82l89.73 0 -9.19 22.46 -13.97 0c-0.7,0 -1.44,0.27 -1.9,0.81l-7.15 8.37c-0.69,0.81 -0.43,1.83 0.42,2.41zm27.43 -11.58l9.19 -22.46 37.56 0 9.19 22.46 -55.95 0zm45.65 -129.95c-0.07,-0.09 -0.14,-0.18 -0.48,-0.58l-25.66 -22.79 0 -12.07 120.36 0 0 110.55 -222.93 0 0 -27.12 3.38 1.57c2.19,1.02 4.59,1.52 7,1.52 7.57,0 15.05,-5.31 15.05,-13.14l0 -25.8 3.38 1.59c2.21,1.03 4.63,1.54 7.07,1.54 2.39,0 4.77,-0.48 6.94,-1.46l3.35 -1.51 0 10.45c0,7.83 7.47,13.15 15.05,13.15 6.83,0 13.67,-4.29 14.87,-11.16l0.72 -4.16 14.61 12.52 23.36 5.34 14.94 13.27c2.75,2.44 6.38,3.68 10.06,3.68 3.67,0 7.32,-1.25 10.06,-3.68 5.39,-4.78 5.39,-12.47 0,-17.25l-15.01 -13.33 -6.03 -20.78c-0.03,-0.09 -0.06,-0.18 -0.08,-0.27l-0.02 -0.07zm-9.61 36.81l13.62 -12.1 13.7 12.17c3.82,3.39 3.82,9.02 0,12.41 -3.69,3.28 -9.6,3.27 -13.29,0l-14.04 -12.48zm-119.1 1.96l0 -74.22 97.97 0 0 12.56 -33.82 30.06c-0.27,0.3 -0.44,0.67 -0.44,1.07 0,0.47 0.24,0.9 0.58,1.21l7.38 6.55 0 6.75c0,5.52 -4.99,9.5 -10.44,9.5 -5.45,0 -10.46,-3.98 -10.46,-9.5l0 -18.84c0,-1.07 -1.1,-1.75 -2.09,-1.81 -1.03,-0.07 -2.28,0.47 -2.48,1.56 -0.86,4.84 -5.42,7.96 -10.31,7.96 -5.45,0 -10.45,-3.98 -10.45,-9.5 0,-1.14 -1.25,-1.82 -2.3,-1.82 -1.05,0 -2.29,0.68 -2.29,1.82l0 35.82c0,5.52 -5.01,9.5 -10.46,9.5 -5,0 -9.72,-3.36 -10.39,-8.67zm96.14 -8.39l29.16 -25.9 4.93 17 -14.95 13.28 -19.14 -4.38zm-11.75 -8.54l31.46 -27.95 7.61 6.76 -31.47 27.95 -7.61 -6.77zm-15.31 -13.59l8.05 -7.15 3.08 2.59c0.46,0.38 1.07,0.58 1.67,0.58 0.64,0 1.28,-0.21 1.75,-0.64 0.76,-0.72 0.73,-1.75 -0.07,-2.42l-3.35 -2.83 8.81 -7.82 3.07 2.59c0.46,0.39 1.06,0.58 1.66,0.58 0.64,0 1.28,-0.21 1.75,-0.65 0.77,-0.72 0.72,-1.74 -0.08,-2.42l-3.35 -2.82 8.48 -7.54 12.23 10.87 -31.46 27.95 -12.24 -10.87zm-54.16 57.76l42.91 0c1.06,0 2.3,-0.68 2.3,-1.83 0,-1.14 -1.24,-1.83 -2.3,-1.83l-42.91 0c-1.05,0 -2.29,0.68 -2.29,1.83 0,1.14 1.24,1.83 2.29,1.83zm61.18 -1.74c0.25,0.95 1.31,1.47 2.24,1.47 0.2,0 0.39,-0.02 0.58,-0.06l0.2 -0.04c1,-0.21 1.97,-1.06 1.68,-2.13 -0.31,-1.16 -1.75,-1.62 -2.83,-1.4l-0.21 0.04c-1,0.21 -1.96,1.06 -1.67,2.13zm99.26 -16.08l32.03 0c1.05,0 2.3,-0.68 2.3,-1.82 0,-1.14 -1.24,-1.83 -2.3,-1.83l-32.03 0c-1.05,0 -2.29,0.68 -2.29,1.83 0,1.14 1.24,1.82 2.29,1.82zm9.95 -16.15l22.07 0c1.05,0 2.3,-0.68 2.3,-1.83 0,-1.14 -1.25,-1.82 -2.3,-1.82l-22.07 0c-1.05,0 -2.3,0.68 -2.3,1.82 0,1.14 1.25,1.83 2.3,1.83zm-24.56 -15.47l46.64 0c1.05,0 2.3,-0.68 2.3,-1.82 0,-1.14 -1.25,-1.82 -2.3,-1.82l-46.64 0c-1.05,0 -2.3,0.68 -2.3,1.82 0,1.14 1.24,1.82 2.3,1.82zm-18.66 -15.74l65.92 0c1.05,0 2.3,-0.68 2.3,-1.82l0 -22.92c0,-1.14 -1.25,-1.83 -2.3,-1.83l-65.92 0c-1.05,0 -2.3,0.68 -2.3,1.83l0 22.92c0,1.14 1.25,1.82 2.3,1.82zm2.3 -3.64l0 -19.28 61.32 0 0 19.28 -61.32 0zm-109.84 -6.82c0,1.14 1.24,1.82 2.3,1.82 1.05,0 2.3,-0.68 2.3,-1.82l0 -15.24c0,-1.14 -1.24,-1.82 -2.3,-1.82 -1.05,0 -2.3,0.67 -2.3,1.82l0 15.24zm160.99 115.59c0.25,0.95 1.31,1.47 2.25,1.47 0.2,0 0.4,-0.02 0.57,-0.06l0.2 -0.04c0.99,-0.22 1.98,-1.06 1.69,-2.14 -0.3,-1.15 -1.74,-1.63 -2.82,-1.4l-0.2 0.04c-1,0.21 -1.97,1.05 -1.69,2.13zm-92.5 -12.82l17.26 0c1.05,0 2.3,-0.68 2.3,-1.82 0,-1.14 -1.24,-1.83 -2.3,-1.83l-17.26 0c-1.05,0 -2.3,0.68 -2.3,1.83 0,1.14 1.24,1.82 2.3,1.82z"/>
 </g>
</svg>
