<?xml version="1.0" encoding="UTF-8"?>
<!DOCTYPE svg PUBLIC "-//W3C//DTD SVG 1.1//EN" "http://www.w3.org/Graphics/SVG/1.1/DTD/svg11.dtd">
<!-- Creator: CorelDRAW 2017 -->
<svg xmlns="http://www.w3.org/2000/svg" xml:space="preserve" width="0.228669in" height="0.181969in" version="1.1" style="shape-rendering:geometricPrecision; text-rendering:geometricPrecision; image-rendering:optimizeQuality; fill-rule:evenodd; clip-rule:evenodd"
viewBox="0 0 270.79 215.48"
 xmlns:xlink="http://www.w3.org/1999/xlink">
 <defs>
  <style type="text/css">
   <![CDATA[
    .fil0 {fill:#DA1392}
   ]]>
  </style>
 </defs>
 <g id="Layer_x0020_1">
  <metadata id="CorelCorpID_0Corel-Layer"/>
  <path class="fil0" d="M70.31 214.97c0.5,0.34 1.11,0.52 1.72,0.52 0.83,0 1.69,-0.32 2.23,-0.97l7.53 -8.99 107.27 0 7.54 8.99c0.54,0.64 1.39,0.96 2.22,0.96 0.61,0 1.22,-0.16 1.72,-0.51 1,-0.69 1.3,-1.9 0.49,-2.86l-8.35 -9.96c-0.54,-0.64 -1.39,-0.96 -2.21,-0.96l-17.3 0 -10.71 -26.73 52.52 0c1.23,0 2.68,-0.81 2.68,-2.17 0,-1.36 -1.45,-2.17 -2.68,-2.17l-209.56 0 0 -29.88 260 0 0 29.88 -7.3 0c-1.23,0 -2.68,0.81 -2.68,2.17 0,1.36 1.45,2.17 2.68,2.17l9.98 0c1.23,0 2.68,-0.81 2.68,-2.17l0 -170.12c0,-1.36 -1.45,-2.17 -2.68,-2.17l-265.44 0c-1.23,0 -2.67,0.81 -2.67,2.17l0 89.51c0,0.41 0.02,0.81 0.06,1.44l0 79.17c0,1.36 1.45,2.17 2.68,2.17l104.65 0 -10.72 26.73 -16.29 0c-0.82,0 -1.68,0.32 -2.21,0.96l-8.34 9.96c-0.81,0.96 -0.51,2.18 0.49,2.86zm31.99 -13.78l10.72 -26.73 43.81 0 10.72 26.73 -65.25 0zm53.24 -154.66c-0.08,-0.1 -0.17,-0.22 -0.56,-0.69l-29.93 -27.12 0 -14.37 140.38 0 0 131.57 -260 0 0 -32.27 3.94 1.87c2.55,1.21 5.35,1.81 8.17,1.81 8.83,0 17.55,-6.32 17.55,-15.64l0 -30.71 3.95 1.89c2.57,1.23 5.39,1.84 8.24,1.84 2.78,0 5.56,-0.57 8.09,-1.73l3.91 -1.8 0 12.44c0,9.32 8.71,15.65 17.55,15.65 7.97,0 15.94,-5.1 17.34,-13.28l0.85 -4.96 17.04 14.9 27.25 6.36 17.43 15.79c3.2,2.9 7.44,4.38 11.73,4.38 4.29,0 8.54,-1.48 11.73,-4.38 6.28,-5.69 6.28,-14.83 0,-20.53l-17.5 -15.87 -7.03 -24.73c-0.04,-0.11 -0.07,-0.21 -0.09,-0.32l-0.02 -0.08zm-11.2 43.81l15.89 -14.41 15.98 14.48c4.46,4.04 4.46,10.73 0,14.77 -4.31,3.9 -11.2,3.9 -15.5,0l-16.37 -14.85zm-138.91 2.33l0 -88.32 114.26 0 0 14.95 -39.45 35.77c-0.32,0.35 -0.51,0.79 -0.51,1.27 0,0.56 0.27,1.07 0.68,1.44l8.6 7.8 0 8.03c0,6.57 -5.83,11.31 -12.18,11.31 -6.35,0 -12.19,-4.73 -12.19,-11.31l0 -22.42c0,-1.27 -1.29,-2.08 -2.44,-2.16 -1.19,-0.08 -2.66,0.56 -2.89,1.86 -1.01,5.76 -6.32,9.48 -12.02,9.48 -6.35,0 -12.19,-4.73 -12.19,-11.31 0,-1.36 -1.45,-2.17 -2.68,-2.17 -1.23,0 -2.68,0.81 -2.68,2.17l0 42.63c0,6.57 -5.84,11.31 -12.19,11.31 -5.83,0 -11.33,-4 -12.12,-10.32zm112.12 -9.99l34.01 -30.83 5.75 20.23 -17.44 15.8 -22.32 -5.21zm-13.7 -10.17l36.7 -33.26 8.88 8.05 -36.71 33.27 -8.87 -8.05zm-17.86 -16.18l9.38 -8.5 3.59 3.08c0.54,0.46 1.25,0.69 1.95,0.69 0.75,0 1.49,-0.25 2.04,-0.76 0.89,-0.85 0.85,-2.08 -0.08,-2.88l-3.91 -3.37 10.28 -9.31 3.58 3.09c0.54,0.46 1.24,0.69 1.94,0.69 0.75,0 1.49,-0.25 2.04,-0.77 0.9,-0.85 0.85,-2.07 -0.09,-2.88l-3.9 -3.36 9.89 -8.97 14.26 12.93 -36.7 33.26 -14.28 -12.93zm-63.16 68.74l50.05 0c1.23,0 2.68,-0.81 2.68,-2.17 0,-1.36 -1.45,-2.17 -2.68,-2.17l-50.05 0c-1.23,0 -2.68,0.81 -2.68,2.17 0,1.36 1.45,2.17 2.68,2.17zm71.35 -2.07c0.29,1.13 1.53,1.74 2.62,1.74 0.23,0 0.45,-0.02 0.67,-0.07l0.24 -0.05c1.16,-0.25 2.29,-1.26 1.96,-2.54 -0.35,-1.38 -2.04,-1.93 -3.3,-1.66l-0.24 0.05c-1.17,0.25 -2.28,1.26 -1.95,2.53zm115.77 -19.13l37.35 0c1.23,0 2.68,-0.81 2.68,-2.17 0,-1.36 -1.45,-2.17 -2.68,-2.17l-37.35 0c-1.23,0 -2.68,0.81 -2.68,2.17 0,1.36 1.45,2.17 2.68,2.17zm11.61 -19.22l25.74 0c1.23,0 2.68,-0.81 2.68,-2.17 0,-1.36 -1.45,-2.17 -2.68,-2.17l-25.74 0c-1.23,0 -2.68,0.81 -2.68,2.17 0,1.36 1.45,2.17 2.68,2.17zm-28.65 -18.41l54.39 0c1.23,0 2.68,-0.81 2.68,-2.17 0,-1.36 -1.45,-2.17 -2.68,-2.17l-54.39 0c-1.23,0 -2.68,0.81 -2.68,2.17 0,1.36 1.45,2.17 2.68,2.17zm-21.76 -18.73l76.88 0c1.23,0 2.68,-0.81 2.68,-2.17l0 -27.28c0,-1.36 -1.45,-2.17 -2.68,-2.17l-76.88 0c-1.23,0 -2.69,0.81 -2.69,2.17l0 27.28c0,1.36 1.45,2.17 2.69,2.17zm2.68 -4.34l0 -22.94 71.52 0 0 22.94 -71.52 0zm-128.11 -8.12c0,1.36 1.45,2.17 2.68,2.17 1.23,0 2.68,-0.81 2.68,-2.17l0 -18.14c0,-1.36 -1.45,-2.17 -2.68,-2.17 -1.23,0 -2.68,0.8 -2.68,2.17l0 18.14zm187.76 137.56c0.29,1.13 1.53,1.74 2.62,1.74 0.23,0 0.46,-0.03 0.66,-0.07l0.23 -0.05c1.16,-0.26 2.31,-1.26 1.98,-2.54 -0.35,-1.37 -2.02,-1.94 -3.29,-1.66l-0.24 0.05c-1.16,0.25 -2.3,1.25 -1.97,2.53zm-107.89 -15.26l20.13 0c1.23,0 2.68,-0.81 2.68,-2.17 0,-1.36 -1.45,-2.17 -2.68,-2.17l-20.13 0c-1.23,0 -2.68,0.81 -2.68,2.17 0,1.36 1.45,2.17 2.68,2.17z"/>
 </g>
</svg>
