<?xml version="1.0" encoding="UTF-8"?>
<!DOCTYPE svg PUBLIC "-//W3C//DTD SVG 1.1//EN" "http://www.w3.org/Graphics/SVG/1.1/DTD/svg11.dtd">
<!-- Creator: CorelDRAW 2017 -->
<svg xmlns="http://www.w3.org/2000/svg" xml:space="preserve" width="1.03433in" height="0.999996in" version="1.1" style="shape-rendering:geometricPrecision; text-rendering:geometricPrecision; image-rendering:optimizeQuality; fill-rule:evenodd; clip-rule:evenodd"
viewBox="0 0 898.41 868.58"
 xmlns:xlink="http://www.w3.org/1999/xlink">
 <defs>
  <style type="text/css">
   <![CDATA[
    .fil0 {fill:#24D0F4}
    .fil29 {fill:white}
    .fil21 {fill:#166799;fill-rule:nonzero}
    .fil11 {fill:#1C1C1A;fill-rule:nonzero}
    .fil5 {fill:#212121;fill-rule:nonzero}
    .fil22 {fill:#22ABC7;fill-rule:nonzero}
    .fil20 {fill:#24D0F4;fill-rule:nonzero}
    .fil19 {fill:#282F38;fill-rule:nonzero}
    .fil14 {fill:#2A094E;fill-rule:nonzero}
    .fil28 {fill:#413F42;fill-rule:nonzero}
    .fil8 {fill:#424242;fill-rule:nonzero}
    .fil15 {fill:#531199;fill-rule:nonzero}
    .fil3 {fill:#606060;fill-rule:nonzero}
    .fil7 {fill:#797979;fill-rule:nonzero}
    .fil2 {fill:#909090;fill-rule:nonzero}
    .fil18 {fill:#95C11F;fill-rule:nonzero}
    .fil1 {fill:#A8A8A8;fill-rule:nonzero}
    .fil16 {fill:#BABCBD;fill-rule:nonzero}
    .fil10 {fill:#C8D4DB;fill-rule:nonzero}
    .fil26 {fill:#CFD1D1;fill-rule:nonzero}
    .fil9 {fill:#D4D4D4;fill-rule:nonzero}
    .fil27 {fill:#DA1392;fill-rule:nonzero}
    .fil17 {fill:#EF5928;fill-rule:nonzero}
    .fil4 {fill:#F4F4F4;fill-rule:nonzero}
    .fil24 {fill:#FB931D;fill-rule:nonzero}
    .fil23 {fill:#FBE25D;fill-rule:nonzero}
    .fil25 {fill:#FBF2C1;fill-rule:nonzero}
    .fil13 {fill:white;fill-rule:nonzero}
    .fil6 {fill:url(#id0);fill-rule:nonzero}
    .fil12 {fill:url(#id1);fill-rule:nonzero}
   ]]>
  </style>
  <linearGradient id="id0" gradientUnits="userSpaceOnUse" x1="330.24" y1="53.11" x2="330.24" y2="458.32">
   <stop offset="0" style="stop-opacity:1; stop-color:#24D0F4"/>
   <stop offset="1" style="stop-opacity:1; stop-color:#2A094E"/>
  </linearGradient>
  <linearGradient id="id1" gradientUnits="userSpaceOnUse" x1="324.68" y1="138.87" x2="335.79" y2="138.87">
   <stop offset="0" style="stop-opacity:1; stop-color:#2DB8E6"/>
   <stop offset="1" style="stop-opacity:1; stop-color:#3D46A1"/>
  </linearGradient>
 </defs>
 <g id="Layer_x0020_1">
  <metadata id="CorelCorpID_0Corel-Layer"/>
  <g id="_2348561908528">
   <path class="fil0" d="M738.79 120.13c5.98,5.38 11.83,10.91 17.52,16.59 61.47,61.47 103.9,139.38 121.77,224.48l0.26 1.22 -6.28 3.63 -0.49 -2.34c-17.47,-84.22 -59.34,-161.33 -120.13,-222.13 -5.86,-5.86 -11.9,-11.56 -18.08,-17.09l-1.77 -1.58 6.28 -3.63 0.93 0.83zm-732.02 423.87c17.46,84.22 59.34,161.33 120.13,222.13 5.86,5.86 11.9,11.56 18.08,17.09l1.77 1.59 -6.28 3.62 -0.93 -0.83c-5.98,-5.38 -11.83,-10.91 -17.52,-16.59 -61.47,-61.47 -103.9,-139.38 -121.77,-224.48l-0.26 -1.22 6.29 -3.63 0.49 2.33z"/>
   <path class="fil1" d="M898.41 578.59l0 11.72c0,8 -4.28,15.33 -11.17,19.33l-428.42 247.32c-4.61,2.72 -9.78,4.06 -14.94,4.06 -5.17,0 -10.33,-1.33 -14.94,-4.06l-313.37 -180.88c-7.78,-4.5 -12.55,-12.78 -12.55,-21.78l0 -10.11 340.87 196.83 454.53 -262.43z"/>
   <path class="fil2" d="M443.87 841.02l0 20c-5.17,0 -10.33,-1.33 -14.94,-4.06l-313.37 -180.88c-7.78,-4.5 -12.55,-12.78 -12.55,-21.78l0 -10.11 340.87 196.83z"/>
   <path class="fil3" d="M516.49 3.03l-409.78 236.59c-6.92,3.99 -11.19,11.38 -11.19,19.37l0 372.02c0,5.39 2.83,10.39 7.46,13.16l10.47 -6.04 436.59 -260.84 0 -354.89c0,-17.22 -18.64,-27.98 -33.55,-19.37z"/>
   <polygon class="fil4" points="102.98,644.18 443.87,840.99 898.39,578.57 557.5,381.76 "/>
   <path class="fil5" d="M102.98 263.46l0 380.71 454.52 -262.42 0 -354.89c0,-17.22 -18.64,-27.98 -33.55,-19.37l-409.78 236.59c-6.92,4 -11.18,11.38 -11.18,19.37z"/>
   <polygon class="fil6" points="136.31,269.79 524.17,45.86 524.17,362.51 136.31,586.44 "/>
   <path class="fil7" d="M600.99 435.12l111.54 72.87c1.61,1.05 1.7,2.06 0.27,2.93l-345.95 209.89c-3.48,2.11 -23.02,4.44 -25.54,3l-130.98 -74.36c-1.7,-0.97 -1.52,-2.07 0.53,-3.25l373.07 -213.19c2.01,-1.15 14.44,0.41 17.05,2.11z"/>
   <path class="fil1" d="M595.57 434.41l112.69 73.3c1.62,1.05 1.72,2.07 0.28,2.94l-349.71 211.13c-3.53,2.13 -23.32,4.48 -25.87,3.04l-132.85 -74.79c-1.73,-0.97 -1.55,-2.08 0.53,-3.27l377.69 -214.49c2.02,-1.15 14.6,0.42 17.23,2.13z"/>
   <path class="fil8" d="M595.57 434.41l112.69 73.3c1.62,1.05 1.72,2.07 0.28,2.94l-349.71 211.13c-3.53,2.13 -23.32,4.48 -25.87,3.04l-132.85 -74.79c-1.73,-0.97 -1.55,-2.08 0.53,-3.27l377.69 -214.49c2.02,-1.15 14.6,0.42 17.23,2.13z"/>
   <path class="fil2" d="M637.69 496.17l27.37 -16.56 -3.09 -2.01 -27.4 16.48 -19.42 -12.97 27.65 -15.99 -3.25 -2.11 -27.69 15.9 -19.58 -13.07 27.5 -15.69 -3.44 -2.24 -27.54 15.6 -30.1 -20.09 -3.09 1.76 30.19 20.04 -26.11 14.79 -30.97 -19.56 -3.26 1.85 31.06 19.51 -24.08 13.64 -31.16 -19.42 -3.49 1.98 31.26 19.36 -25.19 14.27 -31.35 -19.28 -3.57 2.03 -0.16 0.1 31.45 19.21 -26.39 14.95 -31.53 -19.13 -4 2.27 31.64 19.06 -27.66 15.67 -31.7 -18.99 -4.3 2.45 31.82 18.92 -29.03 16.45 -31.87 -18.86 -0.66 0.38 -3.97 2.25 31.98 18.78 -30.52 17.29 -32.01 -18.73 -4.99 2.83 32.14 18.65 -32.11 18.2 -32.15 -18.6 -5.38 3.05 32.28 18.52 -33.85 19.18 -32.27 -18.48 -5.81 3.3 32.41 18.4 -35.71 20.24 -32.37 -18.37 -6.29 3.58 32.51 18.28 -20.47 11.6 2.15 1.21 2.9 1.63 20.4 -11.64 22.53 12.67 -20.34 11.68 4.77 2.69 20.28 -11.73 27.77 15.61 -19.9 11.96 4.53 2.55 19.84 -12 18.75 10.54 -20.17 11.83 4.21 2.37 20.11 -11.86 25.85 14.53 5.43 -3.28 -25.66 -14.56 35 -20.64 25.24 14.33 5 -3.02 -25.07 -14.36 33.1 -19.52 24.66 14.15 4.62 -2.79 -24.51 -14.18 31.36 -18.5 24.1 13.98 4.27 -2.58 -23.95 -14.01 29.75 -17.55 23.56 13.84 3.97 -2.39 -23.42 -13.86 28.26 -16.67 23.04 13.7 3.68 -2.22 -22.91 -13.73 26.89 -15.86 22.54 13.58 3.42 -2.06 -22.42 -13.6 25.61 -15.1 22.05 13.47 3.19 -1.93 -21.94 -13.49 24.42 -14.4 21.58 13.37 2.98 -1.8 -21.48 -13.38 23.31 -13.75 21.08 13.24 0.12 -0 0 0 2.71 -1.64 -21.03 -13.29 23.68 -13.96 20.24 13.44 2.64 -1.59 -20.16 -13.46 28.05 -16.54 -2.84 -1.85 -28.09 16.47 -2.75 1.61 -23.82 13.97 -22.23 -14.04 24.03 -14.54 2.77 -1.68zm-313.76 153.31l0 0 26.83 15.23 -34.66 20.84 -27.52 -15.62 35.36 -20.44zm254.38 -121.58l0 0 -24.29 14.6 -21.84 -13.43 24.84 -14.36 21.29 13.19zm-18.02 -15.07l0 0 23.74 -13.73 20.63 12.96 -23.21 13.95 -21.16 -13.19zm-9.63 31.7l0 0 -25.46 15.31 -22.55 -13.68 26.03 -15.05 21.98 13.42zm-29.07 17.47l0 0 -26.71 16.06 -23.29 -13.95 27.31 -15.78 22.7 13.68zm-30.59 18.39l0 0 -28.06 16.87 -24.06 -14.24 28.67 -16.58 23.45 13.95zm-32.23 19.38l0 0 -29.52 17.75 -24.87 -14.55 30.15 -17.44 24.24 14.24zm-34.02 20.45l0 0 -31.1 18.7 -25.72 -14.88 31.75 -18.36 25.06 14.54zm-35.95 21.62l0 0 -32.8 19.72 -26.6 -15.24 33.48 -19.36 25.92 14.87zm-91.71 -7.58l0 0 22.29 12.65 -35.47 20.37 -22.41 -12.72 35.59 -20.3zm39.36 -22.46l0 0 22.04 12.64 -33.59 19.3 -22.17 -12.7 33.73 -19.24zm37.21 -21.23l0 0 21.79 12.64 -31.86 18.3 -21.93 -12.69 32 -18.25zm35.23 -20.1l0 0 21.54 12.65 -30.26 17.38 -21.68 -12.68 30.41 -17.35zm33.4 -19.05l0 0 21.29 12.66 -28.78 16.53 -21.44 -12.69 28.92 -16.5zm31.72 -18.1l0 0 21.04 12.68 -27.4 15.74 -21.2 -12.7 27.56 -15.72zm30.15 -17.2l0 0 20.8 12.7 -26.13 15.01 -20.96 -12.72 26.29 -15zm28.7 -16.37l0 0 20.56 12.73 -24.93 14.32 -20.72 -12.74 25.09 -14.31zm27.35 -15.61l0 0 20.32 12.77 -23.82 13.69 -20.48 -12.77 23.99 -13.69zm48.72 -3.54l0 0 -25.33 14.54 -20.25 -12.79 25.93 -14.79 19.65 13.04zm22.84 15.16l0 0 -24.18 14.54 -20.51 -12.96 25.16 -14.55 19.53 12.96zm-24.93 46.08l0 0 -21.98 -13.7 23.12 -13.99 22.25 13.98 -23.39 13.71zm-27.59 16.18l0 0 -21.71 -13.35 24.2 -14.64 22.01 13.63 -24.49 14.36zm-29.02 17.01l0 0 -21.41 -12.99 25.37 -15.35 21.73 13.27 -25.7 15.06zm-30.53 17.91l0 0 -21.07 -12.62 26.62 -16.11 21.43 12.91 -26.97 15.82zm-32.19 18.87l0 0 -20.69 -12.25 27.96 -16.92 21.09 12.54 -28.36 16.63zm-33.98 19.92l0 0 -20.28 -11.86 29.42 -17.8 20.71 12.16 -29.85 17.5zm-35.92 21.06l0 0 -19.82 -11.47 31 -18.75 20.29 11.77 -31.46 18.45zm-38.02 22.29l0 0 -19.31 -11.06 32.7 -19.78 19.82 11.37 -33.21 19.47zm-40.31 23.64l0 0 -18.75 -10.64 34.54 -20.9 19.31 10.96 -35.11 20.58z"/>
   <path class="fil9" d="M640.53 496.38l26.02 -15.79 -3.08 -2 -26.05 15.71 -19.31 -12.92 26.25 -15.22 -3.23 -2.1 -26.28 15.14 -19.46 -13.03 26.06 -14.92 -3.43 -2.23 -26.09 14.83 -33.05 -20.52 -0.92 0.53 -2.15 1.22 33.14 20.47 -25.95 14.75 -32.94 -20.6 -1.17 0.67 -2.07 1.18 33.04 20.55 -23.93 13.61 -32.91 -20.64 -1.83 1.04 -1.64 0.93 33.01 20.58 -25.03 14.23 -33.76 -20.17 -1.25 0.71 -2.46 1.4 33.86 20.11 -26.22 14.91 -33.7 -20.22 -1.36 0.77 -2.62 1.49 33.81 20.16 -27.48 15.62 -34.51 -19.78 -1.27 0.72 -3.01 1.72 34.62 19.71 -28.83 16.39 -34.45 -19.83 -1.36 0.77 -3.24 1.85 34.57 19.76 -30.31 17.23 -34.55 -19.8 -1.4 0.79 -3.55 2.02 34.68 19.72 -31.88 18.13 -34.31 -19.96 -1.92 1.09 -3.42 1.95 34.45 19.88 -33.59 19.1 -34.2 -20.05 -2.37 1.34 -3.41 1.94 34.34 19.96 -35.44 20.15 -34.6 -19.84 -2.68 1.53 -3.57 2.03 34.75 19.76 -22.24 14.01 1.41 0.79 3.6 2.03 22.16 -14.04 22.35 12.63 -22.09 14.04 1.43 0.81 3.31 1.86 22.02 -14.07 27.55 15.56 -22.53 13.73 2.3 1.3 2.2 1.23 22.47 -13.76 18.6 10.51 -22.84 13.51 1.94 1.09 2.24 1.27 22.78 -13.55 23.76 13.42 5.41 -3.27 -23.6 -13.45 34.75 -20.56 23.24 13.25 4.99 -3.01 -23.08 -13.28 32.88 -19.45 22.73 13.09 4.61 -2.78 -22.58 -13.12 31.15 -18.43 22.23 12.95 4.26 -2.57 -22.1 -12.98 29.56 -17.48 21.76 12.82 3.95 -2.38 -21.64 -12.85 28.08 -16.62 21.3 12.71 3.67 -2.22 -21.18 -12.74 26.72 -15.81 20.86 12.61 3.41 -2.06 -20.75 -12.63 25.45 -15.06 20.43 12.52 3.18 -1.92 -20.33 -12.54 24.27 -14.36 20.02 12.43 2.96 -1.79 -19.92 -12.45 23.17 -13.71 19.61 12.36 2.77 -1.67 -19.52 -12.37 23.54 -13.92 18.81 12.52 2.63 -1.59 -18.73 -12.54 26.72 -15.81 -2.83 -1.84 -26.76 15.73 -2.73 1.6 -23.69 13.93 -22.09 -14 23.89 -14.5 2.76 -1.67zm-311.72 152.8l0 0 26.62 15.18 -34.4 20.75 -27.31 -15.57 35.09 -20.35zm252.69 -121.16l0 0 -24.15 14.56 -21.7 -13.38 24.69 -14.32 21.16 13.14zm-17.91 -15.02l0 0 23.59 -13.69 20.5 12.91 -23.07 13.91 -21.02 -13.14zm-9.58 31.6l0 0 -25.31 15.26 -22.4 -13.63 25.87 -15.01 21.83 13.38zm-28.89 17.42l0 0 -26.55 16.01 -23.13 -13.9 27.13 -15.74 22.55 13.63zm-30.4 18.33l0 0 -27.88 16.81 -23.9 -14.19 28.49 -16.52 23.29 13.9zm-32.02 19.31l0 0 -29.33 17.69 -24.69 -14.5 29.95 -17.37 24.07 14.19zm-33.79 20.38l0 0 -30.89 18.63 -25.53 -14.83 31.53 -18.29 24.88 14.5zm-35.7 21.53l0 0 -32.57 19.65 -26.4 -15.19 33.24 -19.28 25.73 14.82zm-91.03 -7.57l0 0 22.11 12.61 -35.21 20.29 -22.23 -12.67 35.32 -20.22zm39.07 -22.36l0 0 21.87 12.6 -33.35 19.22 -22 -12.65 33.48 -19.16zm36.94 -21.15l0 0 21.63 12.6 -31.64 18.23 -21.76 -12.64 31.77 -18.19zm34.98 -20.03l0 0 21.38 12.6 -30.06 17.32 -21.52 -12.64 30.2 -17.29zm33.17 -18.99l0 0 21.14 12.62 -28.59 16.47 -21.29 -12.65 28.73 -16.44zm31.51 -18.04l0 0 20.9 12.64 -27.23 15.69 -21.05 -12.66 27.37 -15.67zm29.96 -17.15l0 0 20.66 12.66 -25.97 14.96 -20.82 -12.67 26.12 -14.95zm28.52 -16.33l0 0 20.43 12.69 -24.78 14.28 -20.58 -12.7 24.93 -14.27zm27.19 -15.56l0 0 20.2 12.72 -23.68 13.64 -20.35 -12.72 23.84 -13.64zm48.43 -3.55l0 0 -25.18 14.51 -20.12 -12.75 25.77 -14.76 19.53 13zm22.7 15.11l0 0 -24.04 14.5 -20.38 -12.92 25.01 -14.51 19.42 12.92zm-24.79 45.94l0 0 -21.85 -13.65 22.98 -13.95 22.12 13.93 -23.25 13.67zm-27.43 16.13l0 0 -21.57 -13.31 24.06 -14.6 21.87 13.59 -24.35 14.32zm-28.84 16.96l0 0 -21.27 -12.95 25.21 -15.3 21.59 13.23 -25.54 15.02zm-30.35 17.84l0 0 -20.93 -12.58 26.45 -16.05 21.29 12.87 -26.81 15.76zm-31.99 18.81l0 0 -20.55 -12.21 27.78 -16.86 20.94 12.5 -28.17 16.57zm-33.76 19.85l0 0 -20.14 -11.83 29.23 -17.73 20.57 12.12 -29.66 17.44zm-35.68 20.98l0 0 -19.67 -11.43 30.78 -18.68 20.15 11.74 -31.25 18.38zm-37.76 22.2l0 0 -19.16 -11.03 32.46 -19.7 19.68 11.34 -32.98 19.39zm-40.02 23.53l0 0 -18.61 -10.61 34.29 -20.81 19.17 10.93 -34.85 20.49z"/>
   <path class="fil10" d="M509.4 694.64l54.4 31.4c2,1.16 4.48,1.16 6.49,0l121.77 -70.3c4.33,-2.5 4.33,-8.74 0,-11.24l-54.39 -31.4c-2.01,-1.16 -4.48,-1.16 -6.49,0l-121.77 70.3c-4.33,2.5 -4.33,8.74 0,11.24z"/>
   <polygon class="fil8" points="141.36,672.79 141.36,685.75 163.8,698.72 163.8,685.75 "/>
   <polygon class="fil11" points="141.36,685.75 152.58,679.27 141.36,672.79 "/>
   <polygon class="fil8" points="178.4,693.86 178.4,706.82 200.84,719.78 200.84,706.82 "/>
   <polygon class="fil11" points="178.4,706.82 189.62,700.34 178.4,693.86 "/>
   <polygon class="fil8" points="215.43,714.93 215.43,727.89 237.88,740.85 237.88,727.89 "/>
   <polygon class="fil11" points="215.43,727.89 226.65,721.41 215.43,714.93 "/>
   <path class="fil12" d="M335.8 138.87c0,4.99 -2.49,9.03 -5.56,9.03 -3.07,0 -5.55,-4.04 -5.55,-9.03 0,-4.99 2.49,-9.03 5.55,-9.03 3.07,0 5.56,4.04 5.56,9.03z"/>
   <path class="fil13" d="M467.21 334.43l-249.87 144.26c0,0 -0.08,-171.78 0.08,-173.18l249.79 -144.22 0 173.14z"/>
   <polygon class="fil14" points="197.94,296.15 217.42,305.51 217.34,478.69 197.86,469.32 "/>
   <polygon class="fil15" points="217.42,305.51 467.21,161.29 447.72,151.93 197.94,296.15 "/>
   <polygon class="fil16" points="454.75,294.76 354.1,357.13 354.04,355.85 454.76,293.49 "/>
   <polygon class="fil16" points="455.1,270.21 352.98,332.51 352.93,331.19 455.13,268.9 "/>
   <polygon class="fil16" points="455.48,244.94 351.84,307.14 351.78,305.79 455.49,243.59 "/>
   <polygon class="fil16" points="455.86,218.94 350.66,281.01 350.6,279.62 455.88,217.55 "/>
   <polygon class="fil16" points="456.25,192.16 349.44,254.06 349.38,252.62 456.27,190.73 "/>
   <path class="fil17" d="M423.02 338.37c-0.05,0.03 -0.1,0.04 -0.14,0.04l-10.72 -1.6c-0.13,-0.02 -0.22,-0.19 -0.22,-0.44l-0.16 -15.24 -7.88 -2.35c-0.1,-0.03 -0.18,-0.16 -0.2,-0.36l-1.73 -16.36 1.71 -65.49 -19.64 50.69 5.09 14.61c0.1,0.27 0.03,0.7 -0.14,0.97l-7.98 12.44 -11.22 31.54 2.29 4.55c0.07,0.13 0.09,0.32 0.05,0.53 -0.03,0.2 -0.12,0.4 -0.22,0.53l-7.16 8.71 -5.08 16.81c-0.11,0.36 -0.34,0.56 -0.51,0.47 -0.17,-0.09 -0.23,-0.45 -0.12,-0.81l5.14 -17.04c0.04,-0.13 0.11,-0.26 0.18,-0.35l6.85 -8.32 -2.19 -4.33c-0.09,-0.18 -0.09,-0.49 0.01,-0.77l11.44 -32.15c0.03,-0.08 0.06,-0.16 0.11,-0.22l7.74 -12.06 -5.05 -14.47c-0.08,-0.21 -0.06,-0.53 0.04,-0.8l20.53 -53.03c0.11,-0.28 0.27,-0.44 0.43,-0.41 0.15,0.04 0.24,0.27 0.24,0.57l-1.79 67.34 1.69 15.91 7.91 2.37c0.12,0.03 0.2,0.21 0.2,0.44l0.15 15.22 10.51 1.58c0.18,0.03 0.26,0.34 0.18,0.71 -0.06,0.27 -0.19,0.48 -0.32,0.57z"/>
   <path class="fil18" d="M440.78 327.2c-0.12,0.08 -0.24,0.04 -0.3,-0.12l-7.4 -19.21c-0.07,-0.18 -0.06,-0.48 0.03,-0.73l10.31 -29.09 -10.85 -4.99c-0.11,-0.05 -0.18,-0.23 -0.18,-0.47l0.02 -14.01 -12.3 -0.9 -8.98 25.2c-0.1,0.26 -0.25,0.43 -0.39,0.44l-15.1 0.83 -4.74 25.82 5.07 29.31c0.04,0.21 -0,0.48 -0.11,0.7l-10.07 21.66c-0.15,0.31 -0.38,0.42 -0.51,0.25 -0.14,-0.18 -0.13,-0.58 0.02,-0.9l9.91 -21.32 -5.06 -29.14c-0.02,-0.12 -0.02,-0.27 0.01,-0.41l4.9 -26.7c0.07,-0.37 0.26,-0.65 0.45,-0.67l15.2 -0.82 9 -25.25c0.1,-0.28 0.27,-0.47 0.41,-0.44l12.79 0.95c0.15,0.01 0.24,0.21 0.24,0.49l-0.03 14.1 11.03 5.09c0.09,0.04 0.15,0.17 0.17,0.34 0.01,0.18 -0.01,0.39 -0.08,0.57l-10.42 29.38 7.27 18.93c0.09,0.24 0.03,0.65 -0.14,0.93 -0.05,0.09 -0.11,0.15 -0.17,0.18z"/>
   <path class="fil17" d="M365.53 360.1c0.04,0.95 -0.39,2.02 -0.96,2.37 -0.57,0.35 -1.05,-0.14 -1.09,-1.09 -0.04,-0.95 0.39,-2.02 0.95,-2.37 0.57,-0.35 1.06,0.14 1.09,1.09z"/>
   <path class="fil17" d="M372.75 351.26c0.03,0.96 -0.4,2.02 -0.96,2.37 -0.57,0.35 -1.05,-0.14 -1.08,-1.1 -0.03,-0.97 0.39,-2.02 0.96,-2.38 0.56,-0.35 1.05,0.14 1.08,1.11z"/>
   <path class="fil17" d="M370.36 346.39c0.04,0.97 -0.39,2.03 -0.96,2.38 -0.57,0.35 -1.06,-0.14 -1.09,-1.11 -0.03,-0.97 0.4,-2.04 0.97,-2.39 0.56,-0.35 1.05,0.15 1.08,1.12z"/>
   <path class="fil17" d="M381.85 314.22c0.03,1.01 -0.4,2.08 -0.98,2.43 -0.57,0.35 -1.05,-0.17 -1.08,-1.17 -0.03,-1 0.41,-2.09 0.98,-2.43 0.57,-0.35 1.05,0.18 1.08,1.18z"/>
   <path class="fil17" d="M389.76 301.81c0.02,1.01 -0.41,2.09 -0.98,2.44 -0.57,0.35 -1.05,-0.17 -1.08,-1.19 -0.02,-1.01 0.42,-2.1 0.99,-2.45 0.57,-0.35 1.05,0.19 1.07,1.2z"/>
   <path class="fil17" d="M384.63 286.77c0.03,1.03 -0.42,2.14 -1,2.48 -0.57,0.35 -1.06,-0.2 -1.09,-1.23 -0.03,-1.03 0.42,-2.14 1,-2.49 0.57,-0.35 1.07,0.21 1.09,1.23z"/>
   <path class="fil17" d="M405.17 233.77c0.01,1.08 -0.44,2.22 -1.02,2.56 -0.58,0.34 -1.06,-0.25 -1.08,-1.33 -0.02,-1.07 0.44,-2.22 1.03,-2.56 0.58,-0.34 1.06,0.26 1.08,1.33z"/>
   <path class="fil17" d="M403.2 301.2c0.02,1 -0.42,2.08 -0.98,2.42 -0.56,0.34 -1.03,-0.18 -1.04,-1.18 -0.02,-1 0.43,-2.08 0.98,-2.42 0.56,-0.34 1.03,0.19 1.04,1.19z"/>
   <path class="fil17" d="M405 317.67c0.01,0.98 -0.42,2.04 -0.97,2.38 -0.55,0.34 -1.01,-0.16 -1.03,-1.15 -0.01,-0.97 0.42,-2.04 0.98,-2.39 0.55,-0.34 1.01,0.18 1.02,1.16z"/>
   <path class="fil18" d="M396.49 339.05c0.02,0.97 -0.42,2.01 -0.96,2.36 -0.55,0.35 -1.02,-0.14 -1.04,-1.11 -0.02,-0.95 0.41,-2.01 0.96,-2.36 0.55,-0.34 1.02,0.16 1.04,1.11z"/>
   <path class="fil18" d="M391.52 309.53c0.02,1 -0.41,2.08 -0.98,2.42 -0.56,0.35 -1.04,-0.18 -1.06,-1.18 -0.02,-0.99 0.41,-2.08 0.98,-2.42 0.57,-0.35 1.04,0.18 1.06,1.18z"/>
   <path class="fil18" d="M411.72 282.01c0.01,1.01 -0.43,2.09 -1,2.43 -0.56,0.34 -1.02,-0.2 -1.03,-1.21 -0.01,-1.02 0.43,-2.11 0.99,-2.45 0.56,-0.34 1.03,0.21 1.04,1.22z"/>
   <path class="fil18" d="M396.44 282.84c0.02,1.02 -0.43,2.13 -1,2.47 -0.57,0.35 -1.05,-0.21 -1.07,-1.23 -0.02,-1.03 0.42,-2.13 1,-2.48 0.57,-0.34 1.05,0.21 1.07,1.23z"/>
   <path class="fil18" d="M421.04 256.29c0,1.03 -0.45,2.15 -1.01,2.48 -0.56,0.34 -1.03,-0.23 -1.03,-1.27 -0,-1.04 0.45,-2.15 1.01,-2.49 0.56,-0.34 1.03,0.23 1.03,1.27z"/>
   <path class="fil18" d="M433.71 257.32c-0,1.03 -0.45,2.12 -1.01,2.46 -0.55,0.33 -1.01,-0.22 -1.01,-1.25 0,-1.03 0.46,-2.13 1.01,-2.46 0.56,-0.34 1,0.23 1,1.25z"/>
   <path class="fil18" d="M433.68 271.76c-0,1.01 -0.45,2.09 -1,2.43 -0.55,0.33 -1,-0.21 -1,-1.22 0,-1 0.45,-2.1 1.01,-2.43 0.55,-0.33 1,0.22 1,1.22z"/>
   <path class="fil18" d="M444.94 276.93c-0.01,1 -0.45,2.07 -1,2.39 -0.54,0.33 -0.97,-0.2 -0.96,-1.2 0.01,-0.99 0.46,-2.07 1,-2.4 0.54,-0.33 0.98,0.21 0.97,1.2z"/>
   <path class="fil18" d="M434.37 306.75c-0,0.98 -0.44,2.02 -0.98,2.36 -0.54,0.34 -0.97,-0.17 -0.97,-1.15 0,-0.97 0.44,-2.02 0.98,-2.36 0.54,-0.34 0.97,0.18 0.97,1.15z"/>
   <path class="fil17" d="M413.1 319.92c0.01,0.98 -0.42,2.02 -0.98,2.37 -0.55,0.34 -1,-0.16 -1.01,-1.14 -0.01,-0.97 0.43,-2.03 0.97,-2.37 0.55,-0.34 1,0.17 1.01,1.14z"/>
   <path class="fil17" d="M413.25 335.54c0.01,0.96 -0.42,1.99 -0.96,2.33 -0.54,0.34 -0.99,-0.15 -1,-1.1 -0.01,-0.95 0.42,-2 0.97,-2.34 0.55,-0.34 0.99,0.16 1,1.11z"/>
   <polygon class="fil19" points="454.4,318.63 355.18,381.04 355.12,379.8 454.41,317.4 "/>
   <path class="fil16" d="M347.28 361.87l0.42 -0.26 -0.09 -1.87 -0.36 0.22 -0.02 -0.46c0.21,-0.2 0.34,-0.37 0.47,-0.59l0.32 -0.2 0.13 2.62 0.36 -0.22 0.03 0.61 -1.22 0.76 -0.03 -0.61z"/>
   <path class="fil16" d="M348.73 359.92c-0.05,-1.1 0.19,-1.83 0.61,-2.09 0.41,-0.25 0.71,0.14 0.76,1.24 0.05,1.1 -0.19,1.86 -0.61,2.11 -0.41,0.26 -0.71,-0.17 -0.76,-1.27zm0.95 -0.59l0 0c-0.04,-0.89 -0.17,-1.02 -0.32,-0.92 -0.15,0.09 -0.26,0.36 -0.22,1.25 0.04,0.88 0.17,1.04 0.32,0.94 0.15,-0.09 0.26,-0.39 0.22,-1.27z"/>
   <path class="fil16" d="M350.33 358.93c-0.05,-1.1 0.19,-1.84 0.61,-2.09 0.41,-0.25 0.71,0.14 0.76,1.24 0.05,1.1 -0.19,1.86 -0.6,2.11 -0.41,0.26 -0.71,-0.17 -0.77,-1.26zm0.95 -0.59l0 0c-0.04,-0.89 -0.16,-1.02 -0.32,-0.92 -0.14,0.09 -0.25,0.37 -0.21,1.25 0.04,0.88 0.17,1.03 0.31,0.94 0.15,-0.09 0.26,-0.39 0.22,-1.27z"/>
   <path class="fil16" d="M345.97 337.5c0.46,-1.1 0.78,-1.88 0.76,-2.36 -0.02,-0.32 -0.13,-0.44 -0.3,-0.34 -0.14,0.09 -0.24,0.31 -0.33,0.56l-0.26 -0.27c0.17,-0.47 0.35,-0.76 0.63,-0.93 0.38,-0.23 0.67,0.03 0.7,0.66 0.03,0.56 -0.25,1.35 -0.54,2.1 0.1,-0.08 0.23,-0.18 0.32,-0.24l0.39 -0.24 0.03 0.65 -1.37 0.84 -0.02 -0.44z"/>
   <path class="fil16" d="M347.54 335.28c-0.06,-1.13 0.19,-1.89 0.61,-2.14 0.42,-0.25 0.72,0.16 0.78,1.29 0.05,1.13 -0.19,1.9 -0.61,2.16 -0.42,0.25 -0.72,-0.18 -0.78,-1.31zm0.96 -0.59l0 0c-0.04,-0.91 -0.17,-1.04 -0.32,-0.95 -0.15,0.09 -0.26,0.37 -0.22,1.28 0.04,0.91 0.17,1.07 0.32,0.98 0.15,-0.1 0.26,-0.4 0.22,-1.31z"/>
   <path class="fil16" d="M349.16 334.29c-0.05,-1.13 0.2,-1.88 0.62,-2.14 0.42,-0.25 0.72,0.16 0.77,1.29 0.05,1.13 -0.19,1.9 -0.61,2.16 -0.41,0.26 -0.72,-0.18 -0.78,-1.31zm0.96 -0.59l0 0c-0.04,-0.91 -0.17,-1.05 -0.32,-0.95 -0.15,0.09 -0.26,0.37 -0.22,1.28 0.04,0.91 0.17,1.07 0.32,0.97 0.15,-0.09 0.26,-0.4 0.22,-1.3z"/>
   <path class="fil16" d="M344.86 311.59c0.13,0.12 0.28,0.18 0.45,0.08 0.19,-0.11 0.31,-0.34 0.3,-0.6 -0.01,-0.3 -0.13,-0.43 -0.55,-0.17l-0.03 -0.56c0.35,-0.22 0.46,-0.47 0.44,-0.74 -0.01,-0.24 -0.11,-0.33 -0.26,-0.23 -0.14,0.09 -0.24,0.26 -0.36,0.53l-0.26 -0.35c0.17,-0.38 0.36,-0.67 0.61,-0.81 0.41,-0.25 0.7,-0.07 0.72,0.53 0.02,0.36 -0.09,0.68 -0.29,0.96l0 0.02c0.23,-0.02 0.41,0.16 0.43,0.6 0.03,0.64 -0.29,1.2 -0.69,1.44 -0.32,0.19 -0.55,0.14 -0.71,-0.07l0.19 -0.63z"/>
   <path class="fil16" d="M346.31 309.89c-0.05,-1.16 0.2,-1.94 0.62,-2.19 0.42,-0.25 0.74,0.18 0.79,1.34 0.05,1.17 -0.2,1.96 -0.62,2.21 -0.42,0.25 -0.74,-0.2 -0.79,-1.36zm0.98 -0.58l0 0c-0.05,-0.94 -0.17,-1.08 -0.33,-0.99 -0.15,0.09 -0.26,0.38 -0.22,1.32 0.05,0.93 0.18,1.1 0.33,1.01 0.15,-0.09 0.26,-0.4 0.22,-1.34z"/>
   <path class="fil16" d="M347.95 308.91c-0.05,-1.17 0.2,-1.94 0.62,-2.19 0.42,-0.25 0.74,0.18 0.79,1.34 0.05,1.16 -0.2,1.96 -0.62,2.21 -0.42,0.25 -0.73,-0.2 -0.79,-1.36zm0.98 -0.59l0 0c-0.04,-0.94 -0.17,-1.08 -0.32,-0.98 -0.15,0.09 -0.27,0.37 -0.22,1.31 0.04,0.94 0.18,1.1 0.33,1.01 0.15,-0.09 0.26,-0.4 0.22,-1.34z"/>
   <path class="fil16" d="M344.89 284.8l-0.23 0.14 0.04 0.84 -0.43 0.25 -0.04 -0.84 -0.88 0.51 -0.03 -0.56 0.63 -2.56 0.57 -0.34 0.1 2.06 0.23 -0.14 0.03 0.62zm-0.69 -0.23l0 0 -0.03 -0.57c-0.01,-0.23 -0.02,-0.57 -0.02,-0.8l-0.01 0c-0.04,0.23 -0.09,0.46 -0.13,0.7l-0.23 0.92 0.43 -0.25z"/>
   <path class="fil16" d="M345.04 283.74c-0.06,-1.2 0.2,-1.99 0.63,-2.24 0.43,-0.25 0.75,0.2 0.8,1.4 0.06,1.2 -0.2,2.02 -0.63,2.27 -0.43,0.25 -0.75,-0.22 -0.8,-1.43zm1 -0.58l0 0c-0.05,-0.97 -0.18,-1.12 -0.34,-1.02 -0.15,0.09 -0.27,0.38 -0.22,1.35 0.04,0.96 0.18,1.14 0.34,1.05 0.15,-0.09 0.26,-0.41 0.22,-1.37z"/>
   <path class="fil16" d="M346.71 282.76c-0.05,-1.2 0.2,-1.99 0.63,-2.24 0.43,-0.25 0.75,0.19 0.8,1.4 0.06,1.2 -0.2,2.01 -0.63,2.27 -0.43,0.25 -0.75,-0.22 -0.8,-1.42zm1 -0.59l0 0c-0.04,-0.97 -0.17,-1.11 -0.33,-1.02 -0.15,0.09 -0.27,0.38 -0.22,1.35 0.04,0.96 0.18,1.14 0.34,1.05 0.16,-0.09 0.26,-0.41 0.22,-1.37z"/>
   <path class="fil16" d="M342.24 258.59c0.13,0.13 0.28,0.21 0.46,0.11 0.21,-0.12 0.34,-0.4 0.32,-0.77 -0.02,-0.37 -0.16,-0.49 -0.35,-0.38 -0.12,0.07 -0.17,0.15 -0.29,0.36l-0.22 -0.12 -0.03 -1.87 1.16 -0.67 0.03 0.71 -0.75 0.43 0 0.7c0.08,-0.11 0.14,-0.17 0.23,-0.22 0.35,-0.21 0.67,-0.02 0.7,0.76 0.04,0.8 -0.29,1.47 -0.69,1.71 -0.34,0.19 -0.57,0.1 -0.75,-0.1l0.18 -0.65z"/>
   <path class="fil16" d="M343.74 256.83c-0.06,-1.24 0.2,-2.05 0.64,-2.3 0.44,-0.25 0.76,0.22 0.82,1.45 0.06,1.24 -0.2,2.08 -0.64,2.33 -0.43,0.25 -0.76,-0.25 -0.82,-1.48zm1.01 -0.59l0 0c-0.05,-1 -0.18,-1.15 -0.34,-1.06 -0.16,0.09 -0.27,0.39 -0.23,1.39 0.05,0.99 0.18,1.17 0.34,1.08 0.16,-0.09 0.27,-0.42 0.22,-1.41z"/>
   <path class="fil16" d="M345.44 255.85c-0.06,-1.24 0.21,-2.04 0.64,-2.3 0.44,-0.25 0.76,0.22 0.82,1.45 0.05,1.24 -0.2,2.07 -0.64,2.33 -0.43,0.25 -0.76,-0.25 -0.82,-1.48zm1.01 -0.58l0 0c-0.04,-1 -0.18,-1.15 -0.34,-1.06 -0.16,0.09 -0.27,0.39 -0.23,1.38 0.05,1 0.18,1.18 0.34,1.09 0.16,-0.1 0.27,-0.42 0.22,-1.41z"/>
   <polygon class="fil20" points="620.74,363.82 620.74,248.4 720.7,306.11 720.6,421.48 "/>
   <polygon class="fil21" points="720.7,306.11 738.59,295.75 738.59,411.06 720.6,421.48 "/>
   <polygon class="fil22" points="620.74,248.4 638.2,238.29 738.59,295.75 720.7,306.11 "/>
   <path class="fil13" d="M692.23 362.92c-11.9,-16.15 -19.54,-22.41 -19.54,-22.41l0.21 -6.02c2.33,-1.24 4.23,-3.56 5.47,-6.75 1.63,0.68 3.3,-1.39 3.83,-4.9 0.55,-3.7 -0.39,-7.54 -2.08,-8.6 -0.02,-0.02 -0.05,-0.01 -0.08,-0.03l0.24 -10.22 -0.04 -0.02c-0.04,-1.02 -0.23,-2.07 -0.58,-3.13 -0.37,-1.64 -0.95,-3.36 -1.65,-4.97 -0.56,-1.28 -1.17,-2.37 -2.03,-3.41 -0.9,-1.09 -2.17,-2.08 -2.72,-3.39 0.38,-0.17 0.7,-0.38 1,-0.68 -1.31,0.08 -4.25,-1.34 -5.8,-1.99 0.46,-0.57 0.66,-1.39 0.94,-2.12 -1.52,1.05 -4.07,0.68 -6,0.71 -1.92,0.03 -3.8,0.19 -5.52,0.83 -1.22,0.46 -2.51,1.01 -3.43,2.05 -0.25,0.28 -0.56,0.82 -0.83,1.42 -0.52,0.77 -0.87,1.69 -1.02,2.73l-0.03 -0.01 -0.75 9.6c-1.43,-0.1 -2.46,2.49 -2.34,6.08 0.12,3.35 1.2,6.47 2.54,7.53 0.78,4 2.24,7.84 4.2,11.1l-0.38 5.76c0,0 -7.24,-1.34 -18.35,2.24 -7.82,2.51 -9.59,12.05 -9.97,17.59 0.65,2.5 2.08,4.76 3.89,5.81l65.21 37.34c2.3,1.32 4.31,0.82 5.41,-0.98 0.2,-6.45 -0.82,-18.94 -9.8,-31.13z"/>
   <polygon class="fil23" points="144.73,306.31 144.73,190.88 44.77,248.6 44.86,363.96 "/>
   <polygon class="fil24" points="44.77,248.6 26.87,238.23 26.87,353.54 44.86,363.96 "/>
   <polygon class="fil25" points="144.73,190.88 127.27,180.77 26.87,238.23 44.77,248.6 "/>
   <path class="fil13" d="M56.24 333.82l0.09 -57.49c0,-3.14 2.01,-6.95 4.5,-8.51l13.69 -8.61 -0.01 -5.75c-0,-3.17 2.05,-7.05 4.61,-8.69l28.48 -18.18c2.69,-1.72 4.89,-0.47 4.92,2.78l0.05 5.91 14.88 -9.36c2.78,-1.75 5.07,-0.49 5.11,2.82l0.7 60.65c0.04,3.39 -2.22,7.44 -5.04,9.06l-67.44 38.59c-2.52,1.44 -4.54,0 -4.54,-3.21zm9.12 -11.1l0 0 57.68 -33.55 -0.48 -48.19 -14.8 9.17 -4.86 3.01 -0.08 -11.77 -19.02 11.97 0.04 11.61 -4.67 2.9 -13.82 8.56 0 46.29zm52.31 -69.72l0 0c0.01,1.65 -1.08,3.66 -2.45,4.5 -1.36,0.83 -2.48,0.17 -2.49,-1.47 -0.01,-1.64 1.08,-3.66 2.44,-4.49 1.36,-0.84 2.49,-0.18 2.5,1.46zm-9.74 20.9l0 0c0.08,9.89 -6.43,21.79 -14.43,26.49 -7.9,4.63 -14.25,0.45 -14.27,-9.24 -0.02,-9.67 6.25,-21.35 14.11,-26.18 7.95,-4.89 14.53,-0.93 14.6,8.93zm-4.88 2.93l0 0c-0.04,-6.55 -4.4,-9.22 -9.7,-5.99 -5.25,3.2 -9.46,11.02 -9.44,17.49 0.02,6.48 4.28,9.24 9.55,6.12 5.32,-3.15 9.63,-11.05 9.59,-17.62z"/>
   <path class="fil14" d="M288.25 419.36c-24.33,12.28 -47.24,-5.48 -51.62,-39.05 -4.35,-33.33 11,-71.17 34.77,-84.94 24.42,-14.14 48.76,2.17 53.69,36.99 4.96,35.1 -11.84,74.38 -36.84,87zm-15.16 -111.58l0 0c-19.04,10.88 -31.39,41.18 -27.87,67.87 3.54,26.86 21.9,40.91 41.3,30.97 19.83,-10.16 33.09,-41.36 29.19,-69.18 -3.88,-27.65 -23.16,-40.79 -42.62,-29.67z"/>
   <path class="fil26" d="M305.96 342.73c2.82,20.3 -6.78,43.02 -21.26,50.55 -14.24,7.41 -27.76,-2.78 -30.39,-22.56 -2.62,-19.69 6.5,-41.93 20.55,-49.85 14.28,-8.05 28.28,1.65 31.09,21.86z"/>
   <path class="fil27" d="M287.39 290.33l-0.84 13.52c11.01,-0.15 20.7,7.46 25.88,20.77l9.09 -6.88c-6.53,-18.06 -19.48,-28.17 -34.13,-27.41z"/>
   <path class="fil28" d="M265.83 369.86c1.96,-4.49 3.34,-7.68 3.09,-9.55 -0.17,-1.3 -0.79,-1.72 -1.6,-1.28 -0.68,0.37 -1.11,1.3 -1.48,2.26l-1.4 -1c0.74,-1.9 1.51,-3.08 2.86,-3.82 1.84,-1.01 3.33,-0.03 3.67,2.52 0.3,2.24 -0.86,5.42 -2.08,8.5 0.46,-0.34 1.1,-0.77 1.55,-1.01l1.9 -1.03 0.35 2.6 -6.61 3.56 -0.24 -1.75z"/>
   <path class="fil28" d="M274.17 363.43c0.66,0.43 1.42,0.65 2.22,0.22 0.97,-0.52 1.5,-1.57 1.31,-2.94 -0.18,-1.34 -0.89,-1.73 -1.77,-1.25 -0.55,0.3 -0.81,0.62 -1.31,1.43l-1.1 -0.35 -0.64 -6.86 5.36 -2.93 0.36 2.6 -3.47 1.89 0.17 2.58c0.32,-0.42 0.63,-0.68 1.02,-0.89 1.62,-0.88 3.19,-0.34 3.58,2.5 0.4,2.96 -1,5.55 -2.85,6.54 -1.55,0.83 -2.71,0.58 -3.59,-0.07l0.72 -2.48z"/>
   <path class="fil28" d="M280.28 353.64c-0.37,-2.73 0.43,-4.88 1.84,-5.65 1.42,-0.77 2.67,0.26 3.04,3 0.38,2.76 -0.44,4.94 -1.86,5.7 -1.41,0.77 -2.65,-0.3 -3.02,-3.05zm3.33 -1.81l0 0c-0.27,-1.93 -0.76,-2.39 -1.26,-2.11 -0.5,0.27 -0.81,1.16 -0.54,3.09 0.27,1.95 0.76,2.43 1.26,2.16 0.5,-0.27 0.81,-1.18 0.54,-3.14zm0.79 10.2l0 0 3.36 -17.12 1.27 -0.69 -3.35 17.12 -1.28 0.69zm3.85 -6.79l0 0c-0.38,-2.74 0.44,-4.91 1.87,-5.68 1.42,-0.77 2.69,0.27 3.07,3.01 0.38,2.77 -0.44,4.97 -1.87,5.73 -1.43,0.77 -2.69,-0.3 -3.07,-3.06zm3.38 -1.83l0 0c-0.27,-1.96 -0.77,-2.4 -1.27,-2.12 -0.5,0.27 -0.82,1.14 -0.55,3.11 0.27,1.96 0.77,2.44 1.27,2.17 0.5,-0.27 0.81,-1.19 0.54,-3.16z"/>
   <g>
    <g>
     <circle class="fil0" transform="matrix(0.0595022 -0.000380225 0.00038022 0.0595024 213.637 70.0084)" r="482.55"/>
     <polygon class="fil29" points="195.5,67.97 211.47,67.87 211.37,51.9 215.68,51.87 215.78,67.84 231.75,67.74 231.78,72.04 215.81,72.15 215.91,88.12 211.6,88.15 211.5,72.17 195.53,72.28 "/>
    </g>
    <g>
     <circle class="fil0" transform="matrix(0.0595022 -0.000380225 0.00038022 0.0595024 664.697 839.866)" r="482.55"/>
     <polygon class="fil29" points="646.56,837.83 662.53,837.73 662.43,821.75 666.73,821.73 666.84,837.7 682.81,837.6 682.83,841.91 666.86,842 666.97,857.98 662.66,858 662.56,842.03 646.59,842.13 "/>
    </g>
   </g>
  </g>
 </g>
</svg>
