<?xml version="1.0" encoding="UTF-8"?>
<!DOCTYPE svg PUBLIC "-//W3C//DTD SVG 1.1//EN" "http://www.w3.org/Graphics/SVG/1.1/DTD/svg11.dtd">
<!-- Creator: CorelDRAW 2017 -->
<svg xmlns="http://www.w3.org/2000/svg" xml:space="preserve" width="0.233331in" height="0.233335in" version="1.1" style="shape-rendering:geometricPrecision; text-rendering:geometricPrecision; image-rendering:optimizeQuality; fill-rule:evenodd; clip-rule:evenodd"
viewBox="0 0 233.34 233.34"
 xmlns:xlink="http://www.w3.org/1999/xlink">
 <defs>
  <style type="text/css">
   <![CDATA[
    .fil0 {fill:silver;fill-rule:nonzero}
   ]]>
  </style>
 </defs>
 <g id="Layer_x0020_1">
  <metadata id="CorelCorpID_0Corel-Layer"/>
  <path class="fil0" d="M18.82 233.34c-10.37,0 -18.82,-8.44 -18.82,-18.82l0 -195.7c0,-10.38 8.44,-18.82 18.82,-18.82l188.18 0c6.22,0 11.29,5.07 11.29,11.29l0 45.16c0,6.22 -5.07,11.29 -11.29,11.29l-51.44 0 -20.07 15.06 0 26.34 64.66 0 27.22 10.21c3.57,1.34 5.96,4.8 5.96,8.61 0,3.81 -2.4,7.27 -5.96,8.61l-27.22 10.21 -64.66 0 0 67.75c0,10.37 -8.45,18.82 -18.82,18.82l-97.85 0zm-11.29 -18.82c0,6.22 5.07,11.29 11.29,11.29l97.85 0c6.22,0 11.3,-5.07 11.3,-11.29l0 -11.29 -120.44 0 0 11.29zm0 -18.82l120.44 0 0 -48.93 -48.93 0c-10.37,0 -18.82,-8.44 -18.82,-18.82 0,-10.37 8.45,-18.82 18.82,-18.82l48.93 0 0 -20.7 -7.53 5.65 0 -26.35 -18.82 0c-6.22,0 -11.29,-5.06 -11.29,-11.29l0 -18.82 -82.8 0 0 158.07zm105.38 -56.46l82.8 0 0 -7.52 -82.8 0 0 7.52zm-15.06 0l7.53 0 0 -22.58 -7.53 0 0 22.58zm-30.11 -11.29c0,6.22 5.07,11.29 11.29,11.29l11.29 0 0 -22.58 -11.29 0c-6.22,0 -11.29,5.06 -11.29,11.29zm135.49 9.62l21.5 -8.06c0.65,-0.24 1.09,-0.87 1.09,-1.56 0,-0.69 -0.44,-1.32 -1.09,-1.57l-21.5 -8.06 0 19.24zm-90.33 -13.39l82.8 0 0 -7.52 -82.8 0 0 7.52zm-15.06 -112.91l0 45.16c0,2.07 1.69,3.76 3.76,3.76l26.35 0 0 18.82 25.09 -18.82 53.94 0c2.07,0 3.76,-1.69 3.76,-3.76l0 -45.16c0,-2.07 -1.69,-3.76 -3.76,-3.76l-97.85 0 -7.53 0c-2.07,0 -3.76,1.69 -3.76,3.76zm-90.33 7.52l0 11.3 82.8 0 0 -18.82c0,-1.32 0.27,-2.58 0.69,-3.76l-72.2 0c-6.22,0 -11.29,5.07 -11.29,11.29zm48.93 199.48l0 -7.53 22.58 0 0 7.53 -22.58 0zm-37.37 -73.04l0 -66.69 0 -6.29 4.15 0 89.01 0 4.15 0 0 6.29 0 27.25 -7.53 0 0 -21.84 -30.4 21.85c-5.32,0.13 -10.17,2.15 -13.93,5.41l-37.92 -27.25 0 53.75 32.53 0c1.45,2.93 3.52,5.5 6.06,7.53l-46.12 0zm48.65 -41l34.03 -24.45 -68.06 0 34.03 24.45zm120.44 -51.56l0 -7.53 7.53 0 0 7.53 -7.53 0zm-15.06 0l0 -7.53 7.52 0 0 7.53 -7.52 0zm-15.06 0l0 -7.53 7.53 0 0 7.53 -7.53 0zm-15.06 0l0 -7.53 7.53 0 0 7.53 -7.53 0zm-15.05 0l0 -7.53 3.76 0 7.53 0 0 7.53 -11.29 0zm-22.58 -15.05l0 -7.53 97.85 0 0 7.53 -97.85 0zm0 -15.06l0 -7.53 97.85 0 0 7.53 -97.85 0zm-52.69 0l0 -7.53 30.11 0 0 7.53 -30.11 0zm-15.06 0l0 -7.53 7.53 0 0 7.53 -7.53 0z"/>
 </g>
</svg>
