<?xml version="1.0" encoding="UTF-8"?>
<!DOCTYPE svg PUBLIC "-//W3C//DTD SVG 1.1//EN" "http://www.w3.org/Graphics/SVG/1.1/DTD/svg11.dtd">
<!-- Creator: CorelDRAW 2017 -->
<svg xmlns="http://www.w3.org/2000/svg" xml:space="preserve" width="5.24355in" height="3.23226in" version="1.1" style="shape-rendering:geometricPrecision; text-rendering:geometricPrecision; image-rendering:optimizeQuality; fill-rule:evenodd; clip-rule:evenodd"
viewBox="0 0 5260.98 3243.01"
 xmlns:xlink="http://www.w3.org/1999/xlink">
 <defs>
  <style type="text/css">
   <![CDATA[
    .str0 {stroke:#425972;stroke-width:45.99;stroke-linecap:round;stroke-linejoin:round;stroke-miterlimit:10}
    .str1 {stroke:#425972;stroke-width:38.32;stroke-linecap:round;stroke-linejoin:round;stroke-miterlimit:10}
    .fil7 {fill:none;fill-rule:nonzero}
    .fil2 {fill:#212121;fill-rule:nonzero}
    .fil4 {fill:#3D3D3D;fill-rule:nonzero}
    .fil5 {fill:#6E6E6E;fill-rule:nonzero}
    .fil3 {fill:#B3B3B3;fill-rule:nonzero}
    .fil9 {fill:#D6809E;fill-rule:nonzero}
    .fil11 {fill:#DB9021;fill-rule:nonzero}
    .fil8 {fill:#DD9AB1;fill-rule:nonzero}
    .fil10 {fill:#E8C1CF;fill-rule:nonzero}
    .fil6 {fill:white;fill-rule:nonzero}
    .fil0 {fill:#A1DBF0;fill-rule:nonzero;fill-opacity:0.219608}
    .fil1 {fill:#A1DBF0;fill-rule:nonzero;fill-opacity:0.301961}
   ]]>
  </style>
 </defs>
 <g id="Layer_x0020_1">
  <metadata id="CorelCorpID_0Corel-Layer"/>
  <g id="_2795567858704">
   <g>
    <g>
     <path class="fil0" d="M2829.84 476.56c-545.39,174.13 -2272.95,-684.52 -2137.75,488.34 21.13,174.39 133.46,420.73 38.59,583.54 -68.74,121.93 -194.74,193.38 -316.43,240.79 -317.92,129.24 -436.29,371.81 -355.78,718.01 215.36,932.89 1387.67,711.65 2003.1,435.04 437.67,-205.84 953.85,-241.2 1407.06,-67.06 355.06,141.78 576.39,439.23 993.11,352.09 369.56,-74.16 425.33,-423.07 317.42,-747.86 -61.31,-200.95 -105.33,-285.85 16.27,-479.81 102.47,-192.64 282.84,-338.61 296.72,-564.29 3.03,-244.44 -109.29,-490.75 -326.66,-583.33 -177.85,-75.75 -339.06,-45.17 -514.99,-91.74 -391.34,-109.98 -642.82,-718.01 -1128.29,-508.9 -121.05,57.14 -189.16,188.81 -321.05,227.15l28.69 -1.97z"/>
    </g>
    <g>
     <g>
      <g>
       <path class="fil1" d="M2632.08 392.79c49.43,0 49.43,-76.64 0,-76.64 -49.42,0 -49.42,76.64 0,76.64z"/>
      </g>
     </g>
     <g>
      <g>
       <path class="fil1" d="M361.54 1571.17c98.85,0 98.85,-153.28 0,-153.28 -98.85,0 -98.85,153.28 0,153.28z"/>
      </g>
     </g>
     <g>
      <g>
       <path class="fil1" d="M4969.69 2182.4c98.85,0 98.85,-153.29 0,-153.29 -98.85,0 -98.85,153.29 0,153.29z"/>
      </g>
     </g>
     <g>
      <g>
       <path class="fil1" d="M2373.42 354.47c98.85,0 98.85,-153.28 0,-153.28 -98.86,0 -98.86,153.28 0,153.28z"/>
      </g>
     </g>
     <g>
      <g>
       <path class="fil1" d="M5122.97 1939.06c128.51,0 128.51,-199.27 0,-199.27 -128.5,0 -128.5,199.27 0,199.27z"/>
      </g>
     </g>
     <g>
      <g>
       <path class="fil1" d="M102.88 1824.1c128.5,0 128.5,-199.27 0,-199.27 -128.5,0 -128.5,199.27 0,199.27z"/>
      </g>
     </g>
     <g>
      <g>
       <path class="fil1" d="M4356.55 626.55c128.5,0 128.5,-199.27 0,-199.27 -128.5,0 -128.5,199.27 0,199.27z"/>
      </g>
     </g>
     <g>
      <g>
       <path class="fil1" d="M2593.76 229.93c148.27,0 148.27,-229.93 0,-229.93 -148.27,0 -148.27,229.93 0,229.93z"/>
      </g>
     </g>
     <g>
      <g>
       <path class="fil1" d="M5205.38 2119.16c74.14,0 74.14,-114.96 0,-114.96 -74.14,0 -74.14,114.96 0,114.96z"/>
      </g>
     </g>
     <g>
      <g>
       <path class="fil1" d="M76.05 1504.11c74.14,0 74.14,-114.96 0,-114.96 -74.14,0 -74.14,114.96 0,114.96z"/>
      </g>
     </g>
     <g>
      <g>
       <path class="fil1" d="M4596.06 737.68c74.14,0 74.14,-114.96 0,-114.96 -74.14,0 -74.14,114.96 0,114.96z"/>
      </g>
     </g>
     <g>
      <g>
       <path class="fil1" d="M4576.9 526.92c49.42,0 49.42,-76.64 0,-76.64 -49.43,0 -49.43,76.64 0,76.64z"/>
      </g>
     </g>
     <g>
      <g>
       <path class="fil1" d="M694.95 394.7c98.85,0 98.85,-153.28 0,-153.28 -98.86,0 -98.86,153.28 0,153.28z"/>
      </g>
     </g>
     <g>
      <g>
       <path class="fil1" d="M5055.91 3036.97c98.85,0 98.85,-153.28 0,-153.28 -98.85,0 -98.85,153.28 0,153.28z"/>
      </g>
     </g>
     <g>
      <g>
       <path class="fil1" d="M74.14 3104.04c98.85,0 98.85,-153.29 0,-153.29 -98.85,0 -98.85,153.29 0,153.29z"/>
      </g>
     </g>
     <g>
      <g>
       <path class="fil1" d="M924.88 279.73c49.42,0 49.42,-76.64 0,-76.64 -49.43,0 -49.43,76.64 0,76.64z"/>
      </g>
     </g>
     <g>
      <g>
       <path class="fil1" d="M5065.49 2730.4c49.43,0 49.43,-76.64 0,-76.64 -49.42,0 -49.42,76.64 0,76.64z"/>
      </g>
     </g>
     <g>
      <g>
       <path class="fil1" d="M304.06 3199.84c49.42,0 49.42,-76.64 0,-76.64 -49.43,0 -49.43,76.64 0,76.64z"/>
      </g>
     </g>
    </g>
   </g>
   <g>
    <g>
     <g>
      <g>
       <g>
        <g>
         <path class="fil2" d="M1398.16 1909.42c-51.62,18.24 -85.71,21.73 -112.17,-30.49 -20.37,-40.21 -33.95,-81.73 -59.6,-119.37 -55.57,-81.58 -109.39,-87.05 -198.38,-75.43 -88.32,11.53 -208.8,-11.03 -222.2,-113.16 -9.55,-72.79 -10.11,-139.72 -41.98,-207.82 -15.7,-33.55 -65.25,-4.35 -49.63,29.02 35.35,75.56 19.89,157.82 45.77,234.79 26.25,78.09 113.67,103.27 187.16,112.04 55.53,6.62 104.14,-6.77 158.59,-6.71 58.47,0.07 98.39,100.37 116.92,144.4 38.63,91.8 93.36,122.59 190.8,88.17 34.7,-12.25 19.76,-67.8 -15.28,-55.43z"/>
        </g>
       </g>
       <g>
        <g>
         <g>
          <path class="fil2" d="M790.7 1285.56c-17.21,22.54 -38.25,36.62 -63.3,49.23 -26.49,13.34 -3.2,53.01 23.22,39.71 32.56,-16.4 57.62,-36.71 79.78,-65.73 7.63,-9.99 1.56,-25.71 -8.24,-31.46 -11.83,-6.92 -23.87,-1.69 -31.46,8.25z"/>
         </g>
        </g>
        <g>
         <g>
          <path class="fil2" d="M708.36 1224.36c0.13,48.63 7.22,96.98 7.66,145.62 0.26,29.64 46.25,29.67 45.98,0 -0.44,-48.64 -7.53,-97 -7.66,-145.62 -0.08,-29.65 -46.07,-29.66 -45.98,0z"/>
         </g>
        </g>
        <g>
         <g>
          <path class="fil2" d="M630.79 1271.28c30.77,38.47 62.01,76.83 104.27,103.23 25.24,15.75 48.29,-24.04 23.21,-39.71 -38.59,-24.09 -66.91,-60.96 -94.98,-96.03 -18.53,-23.16 -50.84,9.61 -32.51,32.51z"/>
         </g>
        </g>
        <g>
         <g>
          <path class="fil2" d="M592.47 1340.25c42.78,40.46 96.11,53.86 152.65,36.58 28.27,-8.64 16.21,-53.04 -12.22,-44.35 -40.82,12.48 -76.68,4.79 -107.92,-24.74 -21.52,-20.36 -54.1,12.1 -32.51,32.51z"/>
         </g>
        </g>
       </g>
      </g>
      <g>
       <g>
        <g>
         <path class="fil2" d="M3749.16 2052.1c2.07,-75.12 27.18,-100.18 99.7,-106.09 47.11,-3.84 94.91,-3.2 141.5,-11.87 71.12,-13.24 69.79,-111.34 97.31,-161.97 42.02,-77.33 154.93,-69.11 227.79,-91.95 80.28,-25.16 111.08,-93.12 115.82,-172.28 2.22,-37.04 -55.28,-36.83 -57.48,0 -7.05,117.75 -93.41,121.85 -188.26,141.37 -83.61,17.2 -140.24,63.03 -169.31,143.6 -9.1,25.22 -11.31,77.79 -41.16,85.8 -48.61,13.04 -104.56,7.08 -154.57,12.5 -93.98,10.18 -126.37,71.7 -128.83,160.89 -1.02,37.09 56.46,36.99 57.48,0z"/>
        </g>
       </g>
       <g>
        <g>
         <g>
          <path class="fil2" d="M4296.06 1437.4c19.65,46.86 53.51,80.73 100.38,100.37 11.58,4.85 25.28,-5.15 28.28,-16.07 3.65,-13.26 -4.5,-23.44 -16.06,-28.29 -30.23,-12.66 -55.58,-38.02 -68.26,-68.24 -4.84,-11.55 -15.02,-19.71 -28.28,-16.07 -10.91,3.01 -20.92,16.7 -16.06,28.28z"/>
         </g>
        </g>
        <g>
         <g>
          <path class="fil2" d="M4364.21 1377.65c0,38.32 0,76.64 0,114.96 0,29.65 46,29.65 46,0 0,-38.32 0,-76.64 0,-114.96 0,-29.65 -46,-29.65 -46,0z"/>
         </g>
        </g>
        <g>
         <g>
          <path class="fil2" d="M4441.68 1386.86c-13.93,40.2 -38,70.45 -70.73,97.16 -22.99,18.76 9.76,51.09 32.52,32.51 38.98,-31.8 66.06,-69.88 82.55,-117.45 9.74,-28.1 -34.69,-40.06 -44.34,-12.22z"/>
         </g>
        </g>
        <g>
         <g>
          <path class="fil2" d="M4497.65 1435.02c-20.03,31.76 -51.69,52.05 -85.9,66.08 -27.05,11.09 -15.23,55.6 12.22,44.35 45.82,-18.78 86.48,-44.56 113.39,-87.21 15.86,-25.16 -23.94,-48.22 -39.71,-23.22z"/>
         </g>
        </g>
       </g>
      </g>
     </g>
     <g>
      <g>
       <g>
        <path class="fil3" d="M4023.2 2884.94c0,40.21 -301.06,51.89 -333.6,51.89l-2252.97 0c-32.5,0 -333.6,-11.68 -333.6,-51.89l274.73 -411.81c0,-40.21 26.37,-72.81 58.87,-72.81l2252.97 0c32.54,0 58.88,32.6 58.88,72.81l274.72 411.81z"/>
        <g>
         <g>
          <polygon class="fil4" points="2099.79,2793.21 1520.77,2793.21 1622.08,2547.95 2145.79,2547.95 "/>
          <polygon class="fil4" points="3026.43,2793.21 3605.46,2793.21 3504.11,2547.95 2980.43,2547.95 "/>
          <polygon class="fil4" points="3669.81,2793.21 3873.71,2793.21 3706.87,2547.95 3553.05,2547.95 "/>
          <polygon class="fil4" points="1456.44,2793.21 1252.53,2793.21 1419.38,2547.95 1573.17,2547.95 "/>
          <polygon class="fil4" points="2975.49,2793.21 2150.72,2793.21 2196.7,2547.95 2929.51,2547.95 "/>
         </g>
         <g>
          <polygon class="fil3" points="3823.4,2630.26 1302.86,2630.26 1302.86,2592.71 3823.4,2592.71 "/>
          <polygon class="fil3" points="3850.72,2722.22 1275.53,2722.22 1275.53,2684.68 3850.72,2684.68 "/>
         </g>
        </g>
       </g>
       <g>
        <path class="fil4" d="M4038.61 2980.32c0,32.51 -6.73,58.85 -39.22,58.85l-2872.55 0c-32.54,0 -39.24,-26.34 -39.24,-58.85l0 -50.47c0,-32.51 6.7,-58.86 39.24,-58.86l2872.55 0c32.49,0 39.22,26.34 39.22,58.86l0 50.47z"/>
        <path class="fil5" d="M3101.52 2956.49c0,16.93 -13.72,30.66 -30.64,30.66l-1015.51 0c-16.94,0 -30.66,-13.73 -30.66,-30.66 0,-16.93 13.72,-30.66 30.66,-30.66l1015.51 0c16.93,0 30.64,13.73 30.64,30.66z"/>
       </g>
      </g>
      <g>
       <path class="fil4" d="M3777.9 2417.55c0,32.51 -26.35,58.88 -58.88,58.88l-2311.81 0c-32.53,0 -58.88,-26.37 -58.88,-58.88l0 -1508.23c0,-32.51 26.36,-58.88 58.88,-58.88l2311.81 0c32.54,0 58.88,26.37 58.88,58.88l0 1508.23z"/>
       <g>
        <g>
         <path class="fil6" d="M2563.12 932.33c31.63,0 31.63,-49.06 0,-49.06 -31.64,0 -31.64,49.06 0,49.06z"/>
        </g>
       </g>
       <g>
        <path class="fil6" d="M3607.84 2322.74c0,27.97 -22.67,50.64 -50.61,50.64l-1988.21 0c-27.95,0 -50.65,-22.67 -50.65,-50.64l0 -1297.03c0,-27.97 22.7,-50.64 50.65,-50.64l1988.21 0c27.94,0 50.61,22.67 50.61,50.64l0 1297.03z"/>
        <g>
         <g>
          <g>
           <line class="fil7 str0" x1="2258.96" y1="1500.8" x2="2085.52" y2= "1674.2" />
           <line class="fil7 str0" x1="2258.96" y1="1674.23" x2="2085.53" y2= "1500.81" />
          </g>
          <g>
           <line class="fil7 str0" x1="3040.71" y1="1500.8" x2="2867.26" y2= "1674.2" />
           <line class="fil7 str0" x1="3040.71" y1="1674.23" x2="2867.29" y2= "1500.81" />
          </g>
         </g>
         <g>
          <g>
           <path class="fil8" d="M2962.86 1883.49l0 171.17c0,33.87 -27.46,61.32 -61.32,61.32l-33.07 0c-33.86,0 -61.32,-27.45 -61.32,-61.32l0 -171.17 155.71 0z"/>
           <g>
            <polygon class="fil9" points="2911.9,1892.43 2885.01,2091.7 2858.12,1892.43 "/>
           </g>
          </g>
          <line class="fil7 str1" x1="2043.43" y1="1883.3" x2="3082.8" y2= "1883.3" />
         </g>
         <g>
          <g>
           <g>
            <path class="fil10" d="M1873.34 1857.95c98.85,0 98.85,-153.29 0,-153.29 -98.86,0 -98.86,153.29 0,153.29z"/>
           </g>
          </g>
          <g>
           <g>
            <path class="fil10" d="M3252.9 1857.95c98.85,0 98.85,-153.29 0,-153.29 -98.86,0 -98.86,153.29 0,153.29z"/>
           </g>
          </g>
         </g>
        </g>
       </g>
      </g>
     </g>
    </g>
    <g>
     <g>
      <g>
       <path class="fil11" d="M3383.19 649.54c0,168.62 0,337.23 0,505.84 0,49.43 76.64,49.43 76.64,0 0,-168.61 0,-337.22 0,-505.84 0,-49.42 -76.64,-49.42 -76.64,0z"/>
      </g>
     </g>
     <g>
      <g>
       <path class="fil11" d="M3421.51 1350.83c74.14,0 74.14,-114.96 0,-114.96 -74.14,0 -74.14,114.96 0,114.96z"/>
      </g>
     </g>
    </g>
   </g>
  </g>
 </g>
</svg>
