<?xml version="1.0" encoding="UTF-8"?>
<!DOCTYPE svg PUBLIC "-//W3C//DTD SVG 1.1//EN" "http://www.w3.org/Graphics/SVG/1.1/DTD/svg11.dtd">
<!-- Creator: CorelDRAW 2017 -->
<svg xmlns="http://www.w3.org/2000/svg" xml:space="preserve" width="0.333339in" height="0.333335in" version="1.1" style="shape-rendering:geometricPrecision; text-rendering:geometricPrecision; image-rendering:optimizeQuality; fill-rule:evenodd; clip-rule:evenodd"
viewBox="0 0 45.71 45.7"
 xmlns:xlink="http://www.w3.org/1999/xlink">
 <defs>
  <style type="text/css">
   <![CDATA[
    .fil0 {fill:#4267B2}
    .fil1 {fill:white}
   ]]>
  </style>
 </defs>
 <g id="Layer_x0020_1">
  <metadata id="CorelCorpID_0Corel-Layer"/>
  <g id="_2379198480672">
   <circle class="fil0" cx="22.85" cy="22.85" r="22.85"/>
   <path class="fil1" d="M29.78 19.28l0 -5.59c0.55,-0.06 0.97,-0.53 0.97,-1.09 0,-0.6 -0.49,-1.09 -1.09,-1.09l-4.86 0c-0.6,0 -1.09,0.49 -1.09,1.09 0,0.56 0.43,1.03 0.97,1.09l0 5.59c-1.1,0.43 -2.08,1.13 -2.85,2.04 -0.13,0.15 -0.11,0.38 0.04,0.51 0.07,0.06 0.15,0.09 0.23,0.09 0.1,0 0.21,-0.04 0.28,-0.13 0.74,-0.88 1.7,-1.54 2.78,-1.91 0.15,-0.05 0.25,-0.19 0.25,-0.34l0 -5.84 2.07 0c0.2,0 0.36,-0.16 0.36,-0.36 0,-0.2 -0.16,-0.36 -0.36,-0.36l-2.67 0c-0.2,0 -0.36,-0.16 -0.36,-0.36 0,-0.2 0.16,-0.36 0.36,-0.36l4.86 0c0.2,0 0.36,0.16 0.36,0.36 0,0.2 -0.16,0.36 -0.36,0.36l-0.73 0c-0.2,0 -0.36,0.16 -0.36,0.36 0,0.2 0.16,0.36 0.36,0.36l0.12 0 0 5.84c0,0.16 0.1,0.29 0.25,0.34 2.54,0.88 4.25,3.28 4.25,5.97 0,3.49 -2.84,6.32 -6.32,6.32 -0.82,0 -1.62,-0.16 -2.38,-0.46 -0.19,-0.08 -0.4,0.01 -0.48,0.2 -0.08,0.19 0.01,0.4 0.2,0.48 0.84,0.34 1.73,0.52 2.65,0.52 3.89,0 7.05,-3.16 7.05,-7.05 0,-2.92 -1.8,-5.53 -4.5,-6.57l0 0zm-15.21 7.73c-0.09,-0.07 -0.21,-0.1 -0.33,-0.06 -0.11,0.03 -0.2,0.12 -0.24,0.23l-1.02 2.96c-0.13,0.39 -0.12,0.73 0.04,0.95 0.16,0.23 0.48,0.35 0.89,0.35l7.54 0c0.41,0 0.73,-0.12 0.89,-0.35 0.16,-0.23 0.18,-0.57 0.04,-0.95l-1.02 -2.96c-0.04,-0.11 -0.13,-0.2 -0.24,-0.23 -0.11,-0.03 -0.23,-0.01 -0.33,0.06 -0.2,0.15 -0.39,0.27 -0.84,0.27 -0.43,0 -0.63,-0.17 -0.89,-0.4 -0.3,-0.26 -0.67,-0.57 -1.37,-0.57 -0.7,0 -1.07,0.32 -1.37,0.57 -0.27,0.23 -0.46,0.4 -0.89,0.4 -0.46,0 -0.64,-0.12 -0.84,-0.27l0 0zm2.21 0.43c0.27,-0.23 0.46,-0.4 0.89,-0.4 0.43,0 0.63,0.17 0.89,0.4 0.3,0.26 0.67,0.57 1.37,0.57 0.38,0 0.66,-0.07 0.87,-0.16l0.88 2.53c0.05,0.15 0.05,0.25 0.05,0.29 -0.04,0.02 -0.13,0.05 -0.29,0.05l-7.54 0c-0.16,0 -0.25,-0.03 -0.29,-0.05 -0,-0.04 -0,-0.14 0.05,-0.29l0.88 -2.53c0.21,0.1 0.49,0.16 0.87,0.16 0.7,0 1.07,-0.32 1.37,-0.57l0 0zm3.45 -7.96l0 -7.24c0.55,-0.06 0.97,-0.52 0.97,-1.09 0,-0.6 -0.49,-1.09 -1.09,-1.09l-4.86 0c-0.6,0 -1.09,0.49 -1.09,1.09 0,0.56 0.43,1.03 0.97,1.09l0 5.84c0,0.2 0.16,0.36 0.36,0.36 0.2,0 0.36,-0.16 0.36,-0.36l0 -5.84 2.07 0c0.2,0 0.36,-0.16 0.36,-0.36 0,-0.2 -0.16,-0.36 -0.36,-0.36l-2.67 0c-0.2,0 -0.36,-0.16 -0.36,-0.36 0,-0.2 0.16,-0.36 0.36,-0.36l4.86 0c0.2,0 0.36,0.16 0.36,0.36 0,0.2 -0.16,0.36 -0.36,0.36l-0.73 0c-0.2,0 -0.36,0.16 -0.36,0.36 0,0.2 0.16,0.36 0.36,0.36l0.12 0 0 7.3c0,0.04 0.01,0.08 0.02,0.12l3.54 10.25c0.21,0.62 0.17,1.19 -0.14,1.62 -0.3,0.42 -0.83,0.66 -1.48,0.66l-7.54 0c-0.65,0 -1.18,-0.23 -1.48,-0.66 -0.3,-0.42 -0.35,-1 -0.14,-1.62l3.54 -10.25c0.07,-0.19 -0.04,-0.4 -0.23,-0.46 -0.19,-0.07 -0.4,0.04 -0.46,0.23l-3.54 10.25c-0.29,0.85 -0.21,1.66 0.23,2.28 0.44,0.62 1.18,0.96 2.08,0.96l7.54 0c0.9,0 1.64,-0.34 2.08,-0.96 0.44,-0.62 0.52,-1.43 0.23,-2.28l-3.52 -10.19 0 0zm4.94 10.79c-0.18,-0.09 -0.4,-0.01 -0.48,0.18 -0.09,0.18 -0.01,0.4 0.18,0.48 0.74,0.35 1.54,0.53 2.37,0.53 3.08,0 5.59,-2.51 5.59,-5.59 0,-0.98 -0.26,-1.95 -0.75,-2.8 -0.07,-0.13 -0.22,-0.2 -0.37,-0.18l-0.13 0.02c-0.02,0 -0.03,0.01 -0.05,0.01 -0.55,0.16 -0.85,0.4 -1.09,0.59 -0.26,0.21 -0.44,0.35 -0.94,0.35 -0.43,0 -0.63,-0.17 -0.89,-0.4 -0.3,-0.26 -0.67,-0.57 -1.37,-0.57 -0.7,0 -1.07,0.32 -1.37,0.57 -0.27,0.23 -0.46,0.4 -0.89,0.4 -0.5,0 -0.68,-0.14 -0.94,-0.35 -0.24,-0.19 -0.54,-0.43 -1.09,-0.59 -0.02,-0 -0.03,-0.01 -0.05,-0.01l-0.13 -0.02c-0.15,-0.02 -0.29,0.05 -0.37,0.18 -0,0.01 -0.01,0.01 -0.01,0.02 -0.1,0.17 -0.04,0.4 0.13,0.5 0.08,0.04 0.16,0.06 0.24,0.04l0.01 0c0.39,0.12 0.59,0.28 0.81,0.45 0.31,0.25 0.64,0.51 1.4,0.51 0.7,0 1.07,-0.32 1.37,-0.57 0.27,-0.23 0.46,-0.4 0.89,-0.4 0.43,0 0.63,0.17 0.89,0.4 0.3,0.26 0.67,0.57 1.37,0.57 0.76,0 1.09,-0.26 1.4,-0.51 0.19,-0.15 0.37,-0.29 0.68,-0.4 0.34,0.68 0.52,1.43 0.52,2.19 0,2.68 -2.18,4.86 -4.86,4.86 -0.72,0 -1.41,-0.15 -2.06,-0.46l0 0zm3.68 -1.66c0,-0.2 -0.16,-0.36 -0.36,-0.36 -0.2,0 -0.36,0.16 -0.36,0.36 0,0.2 0.16,0.36 0.36,0.36 0.2,0 0.36,-0.16 0.36,-0.36zm1.46 -1.46c0,-0.2 -0.16,-0.36 -0.36,-0.36 -0.2,0 -0.36,0.16 -0.36,0.36 0,0.2 0.16,0.36 0.36,0.36 0.2,0 0.36,-0.16 0.36,-0.36z"/>
  </g>
 </g>
</svg>
