<?xml version="1.0" encoding="UTF-8"?>
<!DOCTYPE svg PUBLIC "-//W3C//DTD SVG 1.1//EN" "http://www.w3.org/Graphics/SVG/1.1/DTD/svg11.dtd">
<!-- Creator: CorelDRAW 2017 -->
<svg xmlns="http://www.w3.org/2000/svg" xml:space="preserve" width="0.133331in" height="0.133331in" version="1.1" style="shape-rendering:geometricPrecision; text-rendering:geometricPrecision; image-rendering:optimizeQuality; fill-rule:evenodd; clip-rule:evenodd"
viewBox="0 0 133.33 133.33"
 xmlns:xlink="http://www.w3.org/1999/xlink">
 <defs>
  <style type="text/css">
   <![CDATA[
    .fil0 {fill:#336699}
   ]]>
  </style>
 </defs>
 <g id="Layer_x0020_1">
  <metadata id="CorelCorpID_0Corel-Layer"/>
  <path class="fil0" d="M4.35 62.31l57.96 0 0 -57.96c0,-2.38 1.96,-4.35 4.36,-4.35l0 0c2.4,0 4.36,1.97 4.36,4.35l0 57.96 57.96 0c2.38,0 4.35,1.96 4.35,4.36l0 0c0,2.4 -1.97,4.36 -4.35,4.36l-57.96 0 0 57.96c0,2.38 -1.96,4.35 -4.36,4.35l0 0c-2.4,0 -4.36,-1.97 -4.36,-4.35l0 -57.96 -57.96 0c-2.38,0 -4.35,-1.96 -4.35,-4.36l0 0c0,-2.4 1.97,-4.36 4.35,-4.36z"/>
 </g>
</svg>
