<?xml version="1.0" encoding="UTF-8"?>
<!DOCTYPE svg PUBLIC "-//W3C//DTD SVG 1.1//EN" "http://www.w3.org/Graphics/SVG/1.1/DTD/svg11.dtd">
<!-- Creator: CorelDRAW 2017 -->
<svg xmlns="http://www.w3.org/2000/svg" xml:space="preserve" width="0.2in" height="0.2in" version="1.1" style="shape-rendering:geometricPrecision; text-rendering:geometricPrecision; image-rendering:optimizeQuality; fill-rule:evenodd; clip-rule:evenodd"
viewBox="0 0 200.01 200.01"
 xmlns:xlink="http://www.w3.org/1999/xlink">
 <defs>
  <style type="text/css">
   <![CDATA[
    .fil0 {fill:silver;fill-rule:nonzero}
   ]]>
  </style>
 </defs>
 <g id="Layer_x0020_1">
  <metadata id="CorelCorpID_0Corel-Layer"/>
  <path class="fil0" d="M28.44 200.01l-23.33 -8.75c-3.06,-1.15 -5.11,-4.11 -5.11,-7.38 0,-3.27 2.05,-6.24 5.11,-7.38l23.33 -8.75 10.26 0 0 -65.5c-2.37,-1.02 -5.05,-2.48 -7.24,-3.7l-7.73 4.65 -17.25 -17.25 4.68 -7.78c-0.91,-1.82 -1.69,-3.72 -2.35,-5.69l-8.82 -2.2 0 -24.4 8.82 -2.2c0.67,-1.97 1.44,-3.87 2.35,-5.69l-4.68 -7.78 17.25 -17.25 7.78 4.68c1.82,-0.9 3.72,-1.69 5.69,-2.35l2.2 -8.83 18.65 0 0 -6.45 122.59 0 0 32.26 19.36 0 0 90.32 -19.36 0 0 25.81 -19.36 0 0 38.71 -13.23 0c-1.5,7.35 -8.02,12.91 -15.8,12.91l-103.82 0zm94.15 -6.46l9.68 0c5.33,0 9.68,-4.34 9.68,-9.67 0,-5.34 -4.34,-9.68 -9.68,-9.68l-9.68 0 0 19.35zm-12.91 0l6.46 0 0 -19.35 -6.46 0 0 19.35zm-77.42 0l70.97 0 0 -6.45 -70.97 0 0 6.45zm-24.88 -11.01c-0.56,0.21 -0.93,0.74 -0.93,1.34 0,0.59 0.37,1.13 0.93,1.34l18.43 6.91 0 -16.5 -18.43 6.91zm37.78 -14.79l87.11 0c7.79,0 14.3,5.55 15.8,12.9l6.78 0 0 -58.07 -45.17 0 0 -77.42 -64.52 0 0 122.58zm-12.9 12.9l70.97 0 0 -6.45 -70.97 0 0 6.45zm129.04 -38.71l12.91 0 0 -19.36 -12.91 0 0 19.36zm-45.16 -25.81l77.42 0 0 -77.42 -77.42 0 0 77.42zm-81.94 -23.46c1.3,0.72 2.93,1.64 4.51,2.44l0 -7.48c-11.66,-5.09 -19.36,-16.69 -19.36,-29.56 0,-17.79 14.47,-32.26 32.26,-32.26 2.19,0 4.33,0.24 6.45,0.68l0 -13.58 -13.61 0 -1.87 7.5 -1.78 0.52c-2.78,0.81 -5.41,1.89 -7.83,3.23l-1.63 0.9 -6.61 -3.97 -10.11 10.12 3.96 6.6 -0.9 1.63c-1.33,2.42 -2.42,5.06 -3.23,7.83l-0.52 1.78 -7.49 1.86 0 14.32 7.49 1.87 0.52 1.78c0.81,2.78 1.9,5.42 3.23,7.84l0.9 1.63 -3.96 6.6 10.11 10.12 6.61 -3.97 2.85 1.57zm-8.39 -34.6c0,9.31 5.05,17.75 12.9,22.3l0 -41.66 19.36 0 0 -5.64c-2.1,-0.54 -4.26,-0.81 -6.45,-0.81 -14.23,0 -25.81,11.57 -25.81,25.8zm51.62 -19.36l32.26 0 0 -6.45 51.62 0 0 -12.91 -83.88 0 0 19.36zm-12.9 0l6.45 0 0 -25.81 96.78 0 0 19.36 6.45 0 0 -25.81 -109.69 0 0 32.26zm-12.91 122.58l0 -32.26 96.78 0 0 32.26 -96.78 0zm6.45 -6.45l83.88 0 0 -19.36 -83.88 0 0 19.36zm19.36 -6.45l0 -6.45 58.07 0 0 6.45 -58.07 0zm-12.9 0l0 -6.45 6.45 0 0 6.45 -6.45 0zm-12.91 -25.81l0 -6.45 51.62 0 0 6.45 -51.62 0zm70.98 -12.9l0 -9.62c0,-7.17 4.81,-13.54 11.7,-15.51l10.88 -3.11 0 -0.85c-4.02,-3.03 -6.45,-7.8 -6.45,-12.84l0 -6.45c0,-4.53 1.93,-8.88 5.28,-11.93 3.35,-3.04 7.87,-4.56 12.42,-4.12 8.17,0.78 14.56,8.08 14.56,16.61l0 5.9c0,5.04 -2.43,9.81 -6.45,12.84l0 0.86 10.88 3.11c6.89,1.96 11.7,8.34 11.7,15.51l0 9.62 -64.52 0zm25.75 -55.55c-2.02,1.83 -3.17,4.44 -3.17,7.16l0 6.45c0,3.45 1.82,6.56 4.85,8.33l1.6 0.93 0 9.3 -15.57 4.45c-4.13,1.18 -7.02,5.01 -7.02,9.31l0 3.17 51.62 0 0 -3.17c0,-4.3 -2.89,-8.12 -7.02,-9.31l-15.56 -4.45 0 -9.3 1.61 -0.93c3.04,-1.77 4.85,-4.88 4.85,-8.33l0 -5.9c0,-5.24 -3.83,-9.72 -8.72,-10.19 -0.33,-0.03 -0.65,-0.05 -0.98,-0.05 -2.41,0 -4.69,0.88 -6.49,2.52zm-96.72 55.55l0 -6.45 51.62 0 0 6.45 -51.62 0zm0 -12.9l0 -6.45 51.62 0 0 6.45 -51.62 0zm0 -12.9l0 -6.46 51.62 0 0 6.46 -51.62 0zm0 -12.91l0 -6.45 51.62 0 0 6.45 -51.62 0zm0 -12.9l0 -6.45 51.62 0 0 6.45 -51.62 0z"/>
 </g>
</svg>
