<?xml version="1.0" encoding="UTF-8"?>
<!DOCTYPE svg PUBLIC "-//W3C//DTD SVG 1.1//EN" "http://www.w3.org/Graphics/SVG/1.1/DTD/svg11.dtd">
<!-- Creator: CorelDRAW 2017 -->
<svg xmlns="http://www.w3.org/2000/svg" xml:space="preserve" width="17.3575in" height="10.6997in" version="1.1" style="shape-rendering:geometricPrecision; text-rendering:geometricPrecision; image-rendering:optimizeQuality; fill-rule:evenodd; clip-rule:evenodd"
viewBox="0 0 17357.52 10699.65"
 xmlns:xlink="http://www.w3.org/1999/xlink">
 <defs>
  <style type="text/css">
   <![CDATA[
    .fil19 {fill:#333332;fill-rule:nonzero}
    .fil13 {fill:#354059;fill-rule:nonzero}
    .fil3 {fill:#3A3A53;fill-rule:nonzero}
    .fil14 {fill:#424788;fill-rule:nonzero}
    .fil10 {fill:#474289;fill-rule:nonzero}
    .fil17 {fill:#575DA3;fill-rule:nonzero}
    .fil9 {fill:#646DAE;fill-rule:nonzero}
    .fil18 {fill:#79685C;fill-rule:nonzero}
    .fil5 {fill:#859ED0;fill-rule:nonzero}
    .fil16 {fill:#B97668;fill-rule:nonzero}
    .fil15 {fill:#C76C7F;fill-rule:nonzero}
    .fil8 {fill:#D7758A;fill-rule:nonzero}
    .fil2 {fill:#EAC6B2;fill-rule:nonzero}
    .fil11 {fill:#EBCFB1;fill-rule:nonzero}
    .fil6 {fill:#ECECEB;fill-rule:nonzero}
    .fil7 {fill:#F1F0F0;fill-rule:nonzero}
    .fil12 {fill:#F4DDD5;fill-rule:nonzero}
    .fil4 {fill:#FEFEFE;fill-rule:nonzero}
    .fil0 {fill:#A1DBF0;fill-rule:nonzero;fill-opacity:0.219608}
    .fil1 {fill:#A1DBF0;fill-rule:nonzero;fill-opacity:0.301961}
   ]]>
  </style>
 </defs>
 <g id="Layer_x0020_1">
  <metadata id="CorelCorpID_0Corel-Layer"/>
  <g id="_1895729043648">
   <path class="fil0" d="M9336.46 1572.31c-1799.4,574.5 -7499.13,-2258.43 -7053.06,1611.17 69.71,575.36 440.32,1388.11 127.31,1925.27 -226.79,402.29 -642.5,638.02 -1044,794.44 -1048.91,426.4 -1439.44,1226.71 -1173.83,2368.92 710.53,3077.88 4578.33,2347.94 6608.81,1435.33 1444,-679.13 3147.03,-795.79 4642.3,-221.25 1171.44,467.78 1901.68,1449.15 3276.56,1161.64 1219.28,-244.67 1403.29,-1395.84 1047.26,-2467.41 -202.28,-662.99 -347.51,-943.1 53.68,-1583.04 338.07,-635.57 933.17,-1117.17 978.96,-1861.76 10,-806.48 -360.58,-1619.13 -1077.75,-1924.58 -586.78,-249.93 -1118.66,-149.02 -1699.1,-302.68 -1291.15,-362.85 -2120.85,-2368.93 -3722.56,-1679.01 -399.38,188.52 -624.09,622.94 -1059.23,749.43l94.66 -6.5 -0.02 0.02z"/>
   <path class="fil1" d="M8684 1295.93c163.09,0 163.09,-252.85 0,-252.85 -163.05,0 -163.05,252.85 0,252.85z"/>
   <path class="fil1" d="M1192.83 5183.74c326.14,0 326.14,-505.71 0,-505.71 -326.14,0 -326.14,505.71 0,505.71z"/>
   <path class="fil1" d="M16396.45 7200.37c326.14,0 326.14,-505.76 0,-505.76 -326.14,0 -326.14,505.76 0,505.76z"/>
   <path class="fil1" d="M7830.61 1169.5c326.14,0 326.14,-505.71 0,-505.71 -326.17,0 -326.17,505.71 0,505.71z"/>
   <path class="fil1" d="M16902.17 6397.53c423.99,0 423.99,-657.45 0,-657.45 -423.96,0 -423.96,657.45 0,657.45z"/>
   <path class="fil1" d="M339.43 6018.24c423.96,0 423.96,-657.45 0,-657.45 -423.96,0 -423.96,657.45 0,657.45z"/>
   <path class="fil1" d="M8557.57 758.61c489.19,0 489.19,-758.61 0,-758.61 -489.19,0 -489.19,758.61 0,758.61z"/>
   <path class="fil1" d="M17174.06 6991.72c244.61,0 244.61,-379.28 0,-379.28 -244.61,0 -244.61,379.28 0,379.28z"/>
   <path class="fil1" d="M250.91 4962.5c244.61,0 244.61,-379.29 0,-379.29 -244.61,0 -244.61,379.29 0,379.29z"/>
   <path class="fil1" d="M14373.53 2067.17c423.96,0 423.96,-657.45 0,-657.45 -423.96,0 -423.96,657.45 0,657.45z"/>
   <path class="fil1" d="M15163.74 2433.83c244.61,0 244.61,-379.28 0,-379.28 -244.61,0 -244.61,379.28 0,379.28z"/>
   <path class="fil1" d="M15100.52 1738.46c163.05,0 163.05,-252.86 0,-252.86 -163.09,0 -163.09,252.86 0,252.86z"/>
   <path class="fil1" d="M6980.67 1283.63c409.52,-109.73 239.35,-744.78 -170.16,-635.05 -409.52,109.73 -239.35,744.78 170.16,635.05z"/>
   <path class="fil1" d="M7838.86 1433.27c236.27,-63.31 138.11,-429.67 -98.17,-366.36 -236.27,63.31 -138.11,429.67 98.17,366.36z"/>
   <path class="fil1" d="M7597.82 777.96c157.5,-42.2 92.05,-286.44 -65.44,-244.24 -157.53,42.21 -92.09,286.45 65.44,244.24z"/>
   <path class="fil1" d="M2292.85 1302.22c326.14,0 326.14,-505.71 0,-505.71 -326.17,0 -326.17,505.71 0,505.71z"/>
   <path class="fil1" d="M16680.93 10019.84c326.14,0 326.14,-505.71 0,-505.71 -326.14,0 -326.14,505.71 0,505.71z"/>
   <path class="fil1" d="M244.61 10241.14c326.14,0 326.14,-505.76 0,-505.76 -326.14,0 -326.14,505.76 0,505.76z"/>
   <path class="fil1" d="M3051.45 922.91c163.05,0 163.05,-252.86 0,-252.86 -163.09,0 -163.09,252.86 0,252.86z"/>
   <path class="fil1" d="M16712.53 9008.39c163.09,0 163.09,-252.86 0,-252.86 -163.05,0 -163.05,252.86 0,252.86z"/>
   <path class="fil1" d="M1003.19 10557.2c163.05,0 163.05,-252.86 0,-252.86 -163.09,0 -163.09,252.86 0,252.86z"/>
   <path class="fil2" d="M8478.37 8341.2l9.04 549.59c-3.7,152.49 10.04,304.5 19.32,456.49 8.61,141.17 -19.85,286.67 47.14,417.5 21,41.03 65.69,69.61 99.71,22.21 26.19,-36.5 14.14,-99.71 20.61,-142.1 48.65,-318.6 139.2,-629.32 184.37,-948.52 47.33,-334.36 -82.03,-325.54 -380.19,-355.18z"/>
   <polygon class="fil3" points="8509.59,9670.83 8474.26,9762.53 8648.13,9915.56 8807.43,9922.13 8858.94,9838.08 8644.7,9651.8 "/>
   <path class="fil2" d="M8089.04 8346.56l-100.25 540.46c-34.75,241.76 -113.74,477.22 -148.47,719 -7.99,55.6 -3.97,116.4 -27.21,168.87 -22.72,51.29 -67.21,53.31 -106.47,18.51 -52.61,-46.64 -28.33,-129.94 -27.37,-193.64 6.43,-424.31 -26.93,-842.58 -34.96,-1267.58 -0.11,-5.57 0.14,-11.96 4.44,-15.49 3.5,-2.89 8.49,-2.82 13.02,-2.51 41.26,2.75 425.11,44.04 427.28,32.39z"/>
   <polygon class="fil3" points="7678.02,9693.41 7622.91,9774.75 7757.76,9963.08 7911.44,10005.43 7980.59,9935.18 7813.94,9705.36 "/>
   <polygon class="fil3" points="9044.8,8690.89 8969.83,7905.14 8933.68,7394.64 8812.09,6977.65 8155.62,6875.76 7343.98,7014.89 7304.97,7172.57 7461.18,8632.21 8244.02,8690.89 8233.41,7782.42 8354.16,8345.52 8349.04,8690.89 "/>
   <path class="fil4" d="M7516.29 5442.47c-1.11,26.53 -1.85,53.04 -2.31,79.5 -9.5,538.97 20.21,1084.81 23.63,1628.24 278.32,-43.57 559.69,-67.57 841.37,-71.83 23.18,-0.35 75.64,5.22 135.46,10.78 108.33,10.08 240.83,20.17 267.43,-4.92 56.02,-52.82 -5.6,-42.87 -1.48,-111.69 5.29,-89.06 -37.49,-161.97 -21.32,-267.5 18.99,-124.02 56.78,-246.68 78.56,-370.67 43.62,-248.64 69.9,-500.32 78.43,-752.61 7.56,-223.76 -0.56,-455.83 -96.78,-657.98 -237.3,-498.54 -1002.37,-489.57 -1212.29,30.97 -62.17,154.17 -83.76,321.08 -90.69,487.72z"/>
   <path class="fil3" d="M8378.51 3861.52c32.72,57.32 48.49,123.36 51.39,189.3 0.78,17.53 1.97,37.78 16.15,48.14 15.17,11.07 1.82,35.39 13.37,20.56 11.54,-14.82 50.74,-66.31 52.5,-85.02 4.13,-43.82 4.07,-88.04 -0.18,-131.86 -3.71,-38.09 -11.5,-77.91 -36.43,-106.96 -14.78,-17.24 -34.52,-29.33 -53.94,-41.07 -28.17,-17.03 -57.21,-34.19 -89.57,-40.22 -55.78,-10.39 -89.98,9.61 -40.78,48.52 35.26,27.86 65.08,59.33 87.48,98.61z"/>
   <path class="fil2" d="M8030.01 4609.53c0.36,26.99 -5.17,54.99 18.64,75.92 11.46,10.06 26.93,14.08 41.97,16.47 38.91,6.15 79.22,3.31 116.86,-8.29 15.5,-4.76 30.93,-11.25 42.63,-22.47 13.81,-13.25 14.52,-25.83 15.17,-43.19 0.78,-20.33 4.89,-41.02 7.56,-61.65 5.82,-45.13 8.44,-90.6 9.75,-136.06 66.83,-11.47 145.43,-33.07 168.28,-103.08 7.2,-22.06 7.44,-46.04 7.63,-69.5 0.71,-97 1.42,-193.99 2.13,-290.97 0.25,-33.56 0.32,-68.13 -11.17,-99.25 -20.15,-54.63 -71.38,-87.18 -121.6,-107.67 -128.18,-52.29 -277.57,-50.21 -395.87,24.15 -31.49,19.8 -61.2,45.25 -79.33,79.8 -27.96,53.28 -24.44,119.07 -20.1,180.54 4,56.75 8.02,113.5 12.03,170.25 4.61,65.28 14.41,140.41 65.1,174.88 26.9,18.3 61.68,21.65 84.87,45.35 40.49,41.33 21.2,103.09 33.15,153.21 1.68,7 2.21,14.25 2.32,21.57z"/>
   <path class="fil3" d="M8240.09 4355.57c-34.83,23.42 -73.2,24.67 -112.01,13 -16.5,-4.97 -9.5,-32.67 7.01,-27.7 32.17,9.7 62.53,9.44 91.52,-10.06 14.6,-9.8 27.97,15 13.48,24.75zm241.91 -136.57c-1.08,-17.98 -8.94,-70.69 -35.99,-37.57 -7.08,8.67 -8.82,20.9 -9.25,32.43 -0.44,11.54 0.08,23.42 -3.56,34.26 -8.33,24.93 -35.92,36.26 -60.49,35.83 -9.78,-0.18 -19.74,-1.79 -28.37,-6.71 -8.39,-4.76 -15.04,-12.36 -21.54,-19.82 -15.76,-18.1 -31.54,-36.18 -47.3,-54.3 -27.11,-31.09 -80.87,-17.65 -117.41,-12.87 -42.09,5.5 -84.2,18.2 -118.61,45.89 -3.47,2.81 -6.85,5.74 -10.25,8.67 -8.29,7.15 -16.63,14.24 -26.26,18.93 -32.52,15.82 -72.76,-0.7 -95.57,-30.31 -10.44,-13.57 -20.18,-31.03 -36.4,-33.31 -12.68,-1.78 -25.03,7.32 -31.54,19.2 -6.51,11.87 -8.26,26.04 -9.14,39.79 -3.21,50.1 3.69,101.76 25.4,146.21 47.1,96.36 138.14,108.18 229.63,106.03 36.17,-0.86 72.35,-1.71 108.51,-2.57 66.13,-1.56 136.02,-4.3 191.71,-42.74 49.14,-33.9 78.35,-91.56 90.32,-151.93 6.18,-31.17 8.03,-63.35 6.11,-95.13z"/>
   <path class="fil3" d="M8495.81 3693.43c6.37,-23.52 11.1,-47.47 14.11,-71.64 -22.39,7.85 -46.75,9.94 -70.14,6.02 -0.06,-13.96 -0.11,-27.9 -0.17,-41.85 -0.11,-11.6 -157.03,-19.72 -169.78,-20.76 -119.37,-9.79 -228.54,-19.11 -336.47,44.96 -92.21,54.72 -151.33,136.44 -165.47,242.82 -13.51,101.61 19.74,234.33 78.52,318.68 -0.35,-27.06 -15.92,-90.87 -9.53,-116.58 3.9,-25.76 12.8,-50.61 25.08,-73.56 24.53,-45.79 62.51,-84.33 106.4,-111.83 69.97,-43.86 151.32,-67.04 232.56,-78.35 74.43,-10.37 165.15,-19.94 238.7,-0.22 35.35,9.47 41.2,18.35 62.62,-17.33 3.76,-6.29 33.7,-79.75 30.76,-79.79 -12.4,-0.18 -24.8,-0.38 -37.19,-0.56z"/>
   <path class="fil4" d="M6586.15 2354.18c-116.68,-830.03 461.59,-1597.47 1291.62,-1714.15 830.03,-116.68 1597.47,461.6 1714.15,1291.63 116.67,830.03 -461.6,1597.47 -1291.63,1714.15 -830.03,116.68 -1597.48,-461.6 -1714.15,-1291.63z"/>
   <path class="fil5" d="M9590.61 1922.44c-78.76,-536.74 -429.93,-967.08 -893.44,-1170.26 -0.72,-0.83 -1.44,-1.68 -2.15,-2.51 464.94,203.08 817.28,634.5 895.6,1172.78z"/>
   <path class="fil6" d="M8086.89 3659c-451.86,-0.01 -868.91,-201.97 -1150.75,-530.3 186.82,81.59 391.76,126.37 604.46,126.37 70.3,-0.02 141.44,-4.9 213.04,-14.96 830.02,-116.68 1408.31,-884.14 1291.63,-1714.15 -23.36,-166.13 -72.78,-322.17 -143.56,-464.57 106.71,60.47 205.21,134.63 292.85,220.43l0 0c-96.85,-124.19 -213.7,-231.04 -344.92,-316.33 -44.81,-75.81 -95.89,-147.1 -152.47,-213.31 463.52,203.18 814.68,633.53 893.44,1170.26 0.36,2.49 0.71,4.96 1.06,7.43 116.69,830.03 -461.6,1597.49 -1291.61,1714.17 -71.65,10.07 -142.82,14.96 -213.17,14.96z"/>
   <path class="fil4" d="M7095.87 3153.42c-214.46,-209.97 -363.83,-489.74 -408.83,-809.93 -108.33,-770.63 428.57,-1483.15 1199.2,-1591.47 66.53,-9.36 132.59,-13.91 197.92,-13.91 278.5,0 542.75,82.63 765.48,227.38 18.44,31.22 35.82,63.21 52.07,95.9 -206.43,-116.97 -443.47,-182.74 -691.96,-182.74 -65.25,0 -131.37,4.54 -197.85,13.89 -770.64,108.33 -1307.53,820.86 -1199.19,1591.48 35.58,253.24 136.44,481.24 283.17,669.39z"/>
   <path class="fil7" d="M9194.55 1281.82c-87.64,-85.8 -186.14,-159.96 -292.85,-220.43 -16.25,-32.69 -33.63,-64.68 -52.07,-95.9 131.22,85.29 248.07,192.14 344.92,316.33z"/>
   <path class="fil3" d="M7493.5 2540.26c81.3,315.7 388.44,526.79 718.92,480.33 330.47,-46.44 567.51,-334.04 558.64,-659.92l-1277.56 179.58z"/>
   <path class="fil8" d="M7746.5 2907.04c130.43,92.59 295.01,137.58 465.92,113.56 163.54,-22.99 304.14,-105.08 403.44,-221.6l-7.86 -13c-458.36,-148.86 -856.07,117.37 -861.5,121.04z"/>
   <path class="fil3" d="M8427.55 1842.7c27.6,-112.29 119.43,-195.25 233.92,-211.35 112.06,-15.75 222.08,36.79 280.32,133.85 11.13,18.59 7.69,41.82 -8.36,56.47 -16.06,14.68 -39.53,16.01 -57.06,3.22 -94.75,-69.14 -235.71,-115.5 -369.17,56.36 -7.53,9.69 -18.13,15.61 -29.44,17.21 -8.63,1.21 -17.64,-0.1 -26.04,-4.17 -19.4,-9.4 -29.33,-30.61 -24.17,-51.59z"/>
   <path class="fil3" d="M7136.34 2024.2c27.6,-112.29 119.42,-195.25 233.92,-211.35 112.04,-15.74 222.08,36.79 280.28,133.85 11.17,18.57 7.75,41.79 -8.29,56.47 -16.06,14.7 -39.56,16.03 -57.09,3.22 -94.75,-69.14 -235.68,-115.5 -369.14,56.36 -7.53,9.71 -18.14,15.62 -29.44,17.21 -8.62,1.22 -17.65,-0.1 -26.04,-4.15 -19.42,-9.4 -29.35,-30.63 -24.18,-51.61z"/>
   <path class="fil8" d="M7553.98 2462.93c20.37,144.91 -80.59,278.9 -225.5,299.28 -144.92,20.37 -278.9,-80.6 -299.28,-225.51 -20.38,-144.91 80.59,-278.89 225.5,-299.26 144.92,-20.38 278.9,80.58 299.28,225.5z"/>
   <path class="fil8" d="M9384.37 2191.75c20.37,144.9 -80.6,278.9 -225.52,299.28 -144.91,20.36 -278.91,-80.59 -299.26,-225.51 -20.37,-144.92 80.59,-278.91 225.5,-299.28 144.91,-20.36 278.91,80.6 299.28,225.52z"/>
   <path class="fil2" d="M7068.8 3026.65c2.25,3.69 4.54,7.54 5.6,11.58 9.92,37.75 -7.53,63.36 -8.32,102.25 -0.36,17.33 36.58,42.33 5.79,61.39 -11.37,7.04 -41.69,20.36 -66.07,35.11 -35.56,21.54 -67.61,70.32 -85.91,113.75 -32.78,78.31 -55.85,160.1 -72.61,243.24 -14.87,73.85 -50.17,187.36 -36.87,261.99 12.03,67.56 101.96,152.3 142.32,209.82 50.82,72.42 100.58,145.59 149.26,219.48 34.26,52.02 68.58,105.76 82.63,166.46 8.52,36.75 8.21,78.56 -14.79,108.46 -14.86,19.31 -37.19,31.13 -58.82,42.36 -38.21,19.86 -79.44,40.3 -122.2,35.08 -52.62,-6.44 -92.24,-49.57 -125.62,-90.75 -75.29,-92.87 -145.04,-191.04 -199.96,-297.47 -38.8,-75.21 -111.87,-208.2 -94.71,-293.93 39.13,-195.56 95.31,-386.53 155.64,-577.36 16.57,-52.44 58.61,-89.5 73.51,-138.14 9.5,-31.03 -5.36,-62.21 -2.87,-93.48 2.46,-30.93 13.58,-70.92 27.26,-98.74 27,-54.86 89.17,-65.94 142.54,-80.97 13.3,-3.75 22.25,-6.31 34.91,-3.58 20.57,4.41 33.82,19.94 47.54,34.87 8.11,8.85 15.56,18.39 21.76,28.58z"/>
   <path class="fil2" d="M9205.87 2958.36c-2.25,3.71 -4.53,7.54 -5.6,11.6 -9.9,37.74 7.53,63.35 8.32,102.24 0.38,17.35 -36.58,42.33 -5.79,61.39 11.39,7.04 41.7,20.36 66.07,35.11 35.57,21.54 67.61,70.32 85.93,113.75 32.76,78.31 55.83,160.11 72.6,243.24 14.89,73.85 50.18,187.36 36.89,262 -12.04,67.56 -101.97,152.29 -142.32,209.81 -50.85,72.43 -100.6,145.59 -149.28,219.48 -34.25,52.02 -68.58,105.76 -82.63,166.46 -8.5,36.75 -8.21,78.56 14.81,108.46 14.85,19.31 37.18,31.13 58.81,42.36 38.21,19.86 79.46,40.32 122.19,35.08 52.64,-6.44 92.25,-49.57 125.64,-90.75 75.29,-92.87 145.03,-191.04 199.94,-297.46 38.81,-75.22 111.87,-208.19 94.72,-293.94 -39.14,-195.54 -95.32,-386.53 -155.64,-577.36 -16.58,-52.44 -58.62,-89.5 -73.51,-138.12 -9.52,-31.04 5.35,-62.22 2.87,-93.49 -2.46,-30.94 -13.58,-70.93 -27.26,-98.75 -27,-54.86 -89.17,-65.94 -142.54,-80.97 -13.29,-3.74 -22.25,-6.31 -34.91,-3.58 -20.56,4.41 -33.82,19.96 -47.53,34.89 -8.11,8.85 -15.57,18.38 -21.78,28.57z"/>
   <path class="fil9" d="M8063.11 4617.43l-5.47 -68.13c-78.68,18.39 -176.14,27.21 -260.79,48.87 -108.53,-37.98 -230.08,-40.35 -329.71,-97.87 -70.15,-40.53 -122.83,-104.83 -173.9,-167.72 -64.96,-80.01 -94.54,-163.94 -189.67,-132.28 -71.01,23.64 -165.08,150.15 -221.69,201.37 -27.47,24.87 -54.94,49.75 -82.42,74.61 -6.42,5.82 -13.25,12.38 -14.39,20.96 -0.83,6.25 1.57,12.44 3.94,18.29 74.94,178.37 186.42,357.83 335.68,483.24 93.08,78.21 164.46,166.28 232.29,261.36 -34.14,245 -0.28,506.57 -0.06,750.17 0.1,100.44 -67.79,1176.98 -16.21,1179.58 178.83,9.04 366.6,-21.42 544.94,-37.48 81.53,-7.35 177.21,10.54 195.29,-80.36 12.96,-65.08 4.06,-142.67 5.93,-208.91 6.76,-238.26 13.53,-476.53 20.29,-714.82 1.78,-62.65 23.78,-990.9 28.14,-990.9l-207.81 -378.67 135.6 -161.32z"/>
   <path class="fil9" d="M9489.61 4428.96c-1.14,-8.59 -7.96,-15.14 -14.39,-20.94 -27.47,-24.88 -54.93,-49.75 -82.43,-74.61 -56.6,-51.24 -150.67,-177.75 -221.68,-201.39 -95.13,-31.65 -124.68,52.26 -189.65,132.29 -51.07,62.89 -103.76,127.18 -173.9,167.71 -106.78,61.67 -238.81,59.92 -352.93,106.62 -6.65,2.72 -13.24,5.91 -19.59,9.41 -21.08,-4.33 -43.65,-9.21 -68.25,-15.22 -47.68,-11.69 -150.35,-48.85 -124.57,45.5 14.76,53.99 100.92,121.46 137.36,164.82l-207.78 378.68c10.85,382.53 21.71,765.07 32.57,1147.6 5,176.29 10,352.6 15.02,528.89 1.74,61.21 3.25,122.43 5.2,183.64 0.88,27.47 -6.7,73.72 8.96,96.15 26.08,37.32 105.26,37.1 165.25,36.89 18.25,-0.07 34.72,-0.13 47.38,0.86 84.59,6.67 170.43,13.59 250.09,42.78 53.06,19.46 103.33,48.74 159.29,56.58 12.57,1.76 26.64,2.03 36.49,-5.96 11.04,-8.93 12.93,-24.74 13.97,-38.91 19.46,-262.61 19.86,-533.35 34.42,-798.79 11.91,-217.22 42.32,-446.75 23.47,-664.26 -0.31,-3.61 -0.67,-7.25 -1.32,-10.85 -36.06,-195.71 -12.46,-366.4 -24.36,-532.98 61.85,-84.24 127.98,-162.6 211.76,-232.97 149.26,-125.41 260.72,-304.86 335.68,-483.24 2.37,-5.85 4.75,-12.03 3.93,-18.29z"/>
   <path class="fil2" d="M12125.29 4082.87c4.57,0.21 9.28,0.47 13.46,1.93 38.89,13.61 51.02,43.98 84.58,67.65 14.96,10.54 58.64,-7.06 57.15,31.17 -0.56,14.1 -6.79,48.5 -8.25,78.56 -2.15,43.83 21.64,100.69 48.85,142.35 106.92,163.67 255.42,293.71 406.35,417.72 8.61,7.07 17.7,14.32 28.58,16.62 19.52,4.14 38.22,-8.4 54.46,-19.97 75.3,-53.67 155.62,-100.32 239.53,-139.17 74.89,-34.64 154.85,-63.47 237.35,-62.47 82.51,1.03 168.39,36.71 211.71,106.93 32.44,52.58 37.35,121.17 12.74,177.82 -61.08,140.54 -284.92,137.89 -414.2,161.08 -122.29,21.94 -246.15,35.32 -370.32,39.94 -15.32,0.57 -31.14,0.94 -45.46,-4.56 -15.28,-5.88 -27.28,-17.78 -38.78,-29.41 -148.08,-149.68 -282.11,-311.58 -413.54,-477.06 -36.11,-45.46 -43.74,-104.14 -77.53,-145.89 -21.54,-26.62 -57.61,-32.03 -83.52,-52.67 -25.64,-20.42 -54.07,-53.75 -70.35,-82.15 -32.08,-56.01 -5.1,-116.97 13.25,-172.57 4.57,-13.83 7.61,-23.21 17.46,-32.67 16.01,-15.4 37.44,-17.83 58.61,-21.01 12.53,-1.89 25.26,-2.79 37.86,-2.2z"/>
   <path class="fil10" d="M13158.2 5159.79c-134.22,20.2 -271.94,27.68 -396.53,17.7 -31.56,-2.54 -63.96,-6.58 -91.59,-22.02 -22.9,-12.78 -40.98,-32.51 -58.65,-51.9 -102.75,-112.87 -205.52,-225.76 -308.29,-338.64 -14.67,-16.11 -30.42,-36.88 -23.44,-57.52 4.19,-12.44 15.68,-20.74 26.51,-28.18 49.6,-34.11 99.18,-68.22 148.78,-102.33 8.98,-6.18 18.85,-12.64 29.76,-12.2 10.09,0.42 18.93,6.71 26.56,13.35 48.42,42.18 73.85,107.35 126.14,144.61 47.86,34.09 111.67,39.09 169.11,26.75 240.75,-51.83 457.24,-247.4 666.29,-369.5 110.68,-64.64 225.85,-130.78 353.42,-143.28 272.39,-26.67 441.33,291.54 241.83,492.43 -169.32,170.5 -387.39,293.83 -616.28,364.47 -90.91,28.06 -191.25,50.85 -293.62,66.25z"/>
   <polygon class="fil11" points="13774.58,9261.14 13817.41,9569.22 13634.84,9594.44 13587.35,9252.91 "/>
   <path class="fil3" d="M13645.08 9544.07l165.61 32.77 53.78 45.14 7.04 121.96 -425.78 86.98c-42.92,-48.37 -28.24,-123.07 29.79,-151.44l19.14 -9.35 150.42 -126.06z"/>
   <path class="fil11" d="M15096.95 8044.57c77.22,-25.5 152.08,-76.02 229.72,-94.11 4.03,60.46 9.72,120.71 14.86,181.06 -93.89,44.11 -190.69,79.09 -293.06,97.62 16.25,-61.18 37.08,-122.32 48.47,-184.57z"/>
   <path class="fil3" d="M15346.81 8128.11c-5.42,-7.69 -5.97,-7.91 -10.56,-25.82 -11.39,-44.37 -41.11,-167.33 0.83,-205.03 6.81,-6.11 10,-0.08 16.11,2.81 102.08,48.51 175.83,104.4 257.22,186.63 34.72,35.18 68.33,79.32 70.7,130.5 0.97,22.43 -8.2,39.86 -16.81,57.69 -12.5,26.29 -27.08,49.26 -43.61,71.94 -6.11,8.29 -11.11,17.53 -22.92,16.72 -23.75,-1.58 -35.14,-28.74 -39.72,-51.04 -4.58,-22.32 -6.39,-49.46 -21.25,-68.22 -6.67,-8.42 -16.39,-13.59 -24.44,-18.22 -59.72,-34.32 -122.92,-37.68 -165.56,-97.96z"/>
   <path class="fil3" d="M13769.15 7882.31c148.96,264.67 368.09,380.01 631.85,461.86 301.79,93.67 561.79,42.48 830.68,-107.82 4.58,-89.74 -4.03,-178.93 2.64,-263.15 -299.03,47.41 -443.4,36.93 -645.21,-230.21 -291.68,-386.08 -2.06,-954.46 -81.97,-1420.85 -9.19,-53.61 -23.82,-106.98 -51.07,-154.06 -316.74,-546.96 -886.87,-181.44 -957.28,319.38 -63.02,448.18 48.19,1000.12 270.36,1394.85z"/>
   <path class="fil3" d="M14321.39 6279.49c-20.26,-166.53 -60.59,-324.46 -106.97,-442.93 -258.47,18.24 -545.11,82.81 -792.61,165.97 -241.91,81.29 -389.98,154.6 -358.24,423.96 58.41,495.62 -82.58,941.58 -106.85,1428.01 -14.09,282.67 100.65,519.65 225.56,764.25 142.94,279.92 270.81,567.51 382.82,861.15 85.96,-11.22 171.89,-22.46 257.83,-33.7 37.28,-392.47 -47.17,-784.79 -88.69,-1176.86 -28.85,-272.43 -35.68,-554.08 32.42,-821.56 74.89,-294.01 246.91,-202.15 408.14,-387.33 156.74,-180.04 181.58,-493.33 146.6,-780.97z"/>
   <path class="fil10" d="M13976.39 4362.13c29.58,20.78 55.91,46.28 81.94,71.54 23.32,22.62 46.64,45.26 69.96,67.9 80.79,78.4 124.5,198.07 162.39,301.32 199.48,543.35 297.56,1297.08 212.04,1878.68 -425.58,57.04 -925.26,-27.4 -1354.37,-65.56 -41.72,-3.72 -89.13,-10.79 -112.33,-45.67 -14.08,-21.15 -15.71,-47.9 -16.9,-73.28 -17.18,-365.83 41.61,-762.68 97.13,-1126.74 23.44,-153.63 54.04,-306.31 95.43,-456.15 43.81,-158.63 93.57,-330.01 207.76,-453.82 122.2,-132.5 364.63,-206.5 529.71,-115.35 9.4,5.21 18.47,10.94 27.25,17.11z"/>
   <path class="fil12" d="M13933.4 4441.21c5.39,-50.13 10.75,-100.24 16.14,-150.36 10.13,-5.46 19.75,-11.4 28.6,-17.67 172.87,-122.19 443.04,-747.26 -38.47,-861.67 -437.19,-103.86 -386.81,488.48 -290.98,731.94 16.4,41.67 37.54,80.75 67.69,114.09 20.63,22.82 24.79,18.11 23.29,45.74 -1.47,26.74 -26.54,58.11 -31.25,86.46 -5.04,30.24 -1.04,63.29 17.53,87.68 11.37,14.93 27.46,25.7 44.46,33.7 27,12.71 57.99,18.97 87.02,12.03 34.53,-8.24 72.14,-46.07 75.98,-81.96z"/>
   <path class="fil13" d="M13536.81 3924.07c30.13,77.68 70.65,151.33 120.15,218.36 -9.36,-145.92 1.44,-293.13 32,-436.13 2.33,-10.9 4.54,-23.24 -1.76,-32.44 -5.86,-8.61 -17.11,-11.39 -27.39,-13.11 -183.52,-30.71 -175.52,127.9 -123,263.32z"/>
   <path class="fil13" d="M14024.44 4121.65c31.08,39.63 94.4,25.6 138.29,0.87 180.25,-101.51 278.4,-330.06 227.9,-530.68 -42.26,-167.86 -261.89,-284.89 -295.18,-72.87 -11.82,75.17 38.39,176.2 31.9,259.28 -9.28,118.75 -58.97,234.21 -102.91,343.4z"/>
   <path class="fil13" d="M13508.2 3275.85c-20.31,9.15 -40.96,18.76 -62.72,28.49 -45.07,20.11 -78.04,27.75 -126.64,3.07 -13.9,-7.06 -108.64,-88.54 -87.67,-107.38 -139.13,124.86 -12.02,291.57 48,410.97 40.46,80.49 53.44,196.2 138.19,246.06 93.21,54.83 151.72,-22.82 232.25,-60.17 71.04,-32.96 148.57,-52.63 221.03,-82.39 120.22,-49.39 298.57,-134.58 250.41,-295.14 -56.25,-187.52 -250.71,-225.75 -422.72,-203.11 -73.5,9.67 -130.32,32.62 -190.14,59.59z"/>
   <path class="fil2" d="M13448.34 4610.47c4.5,-0.92 9.11,-1.82 13.53,-1.42 41.03,3.65 60.24,30.13 98.57,44.85 5.9,2.26 14.29,0.43 23.08,-1.39 16.68,-3.46 34.79,-6.92 39.97,17.59 2.92,13.81 5.3,48.68 11.25,78.18 8.67,43.03 45.67,92.32 82.25,126.04 69.25,63.8 326.43,157.51 306.58,277.11 -46.63,280.99 -418.78,-164.21 -460.32,-195.33 -27.43,-20.54 -63.72,-16.93 -93.89,-30.58 -29.86,-13.5 -65.6,-38.86 -88.33,-62.4 -44.83,-46.44 -33.61,-112.17 -29.44,-170.56 1.03,-14.54 1.7,-24.37 8.92,-35.96 11.75,-18.85 31.93,-26.46 51.67,-34.75 11.69,-4.89 23.83,-8.89 36.17,-11.39z"/>
   <path class="fil10" d="M14562.08 5496.43c-36.13,115.94 -262.67,40.26 -342.02,5.5 -166.69,-73.02 -324.24,-161.53 -468.15,-273.46 -8.96,-6.97 -18.53,-15.14 -20.09,-26.37 -1.53,-11.1 5.3,-21.46 11.78,-30.58 40.52,-57 81.02,-114 121.53,-171 8.71,-12.26 18.04,-25.06 31.69,-31.39 51.5,-23.9 122.15,43.65 174.56,49.04 14.56,-128.6 -62.52,-237.71 -100.5,-354.61 -52.02,-160.14 131.03,-202.89 229.94,-120.67 121.07,100.64 202.6,250.64 254.61,396.71 56.39,158.33 82.83,325.48 109,491.51 4.17,26.54 3.01,48.06 -2.36,65.32z"/>
   <path class="fil2" d="M9977.29 4068.79c-22.96,-23.35 -45.15,-47.54 -66.94,-67.71 -3.68,-31.39 -7.36,-62.78 -11.04,-94.18 -0.57,-4.86 -1.07,-10.13 1.36,-14.38 2.13,-3.72 6.08,-5.96 9.87,-8 16.71,-9.06 33.43,-18.12 50.14,-27.17 3.32,-1.81 6.79,-3.65 10.58,-3.87 8.22,-0.49 14.71,6.58 19.85,13.06 17.76,22.36 81.04,97.4 82.72,36.58 0.28,-9.31 8.63,-16.82 17.64,-19.21 9,-2.4 18.54,-0.86 27.72,0.68 6.63,1.11 14.4,3.17 16.61,9.51 1,2.86 0.57,5.99 0.13,8.99 -4.76,32.17 -11.17,59.19 -4.64,91.78 6.35,35.85 12.69,71.71 19.04,107.56 0.33,1.83 -47.06,25.94 -51.35,28.61 -25,15.44 -14.68,22.26 -42.79,4.92 -27.6,-17.04 -53.72,-41.59 -78.9,-67.17z"/>
   <polygon class="fil8" points="11162.84,4705.21 10542.69,4782.75 10229.24,4092.18 10065.68,4189.26 10233.5,5205.71 10450.4,5433.2 10876.97,5398.04 "/>
   <polygon class="fil2" points="11624.16,6843.49 11396.66,8308.57 11477.44,9366.97 11311.73,9418.71 11163.41,8440.71 10846.87,6653.54 "/>
   <polygon class="fil3" points="11312.09,9448.54 11293.79,9558.2 11335.34,9766.6 11472.16,9755.02 11497.91,9446.31 11477.77,9396.82 "/>
   <polygon class="fil2" points="10283.51,6799.92 10356.65,8042.54 10666.04,9779.72 10833.72,9777.71 10759.18,8167.03 10976.66,6682.17 "/>
   <polygon class="fil3" points="10668.8,9750.01 10454.5,9890.64 10481.22,9995.74 10873.61,9912.02 10841.69,9760.21 "/>
   <polygon class="fil3" points="10246.55,6986.15 10253.55,8428.54 10450.72,9401.07 10899.94,9335.99 10886.85,8212.02 10980.09,6977.35 10933.91,6790.37 10284.18,6856.39 "/>
   <polygon class="fil3" points="11043.61,8233.25 11182.68,9256.21 11573.33,9201.78 11483.74,8227.94 11628.7,6982.7 11543.59,6645.5 10887.22,6744.41 "/>
   <path class="fil8" d="M11817.04 5172.87c-43.15,-144.68 -119.21,-391.24 -246.74,-460.87 -2.67,-1.46 -5.36,-2.9 -8.07,-4.32 -25.31,-13.31 -52.44,-25.18 -80.82,-35.42 -50.88,-32.01 -124.04,-45.8 -196.31,-41.01 -66.32,-4.39 -132.25,0.89 -191.71,18.4 -27.93,8.24 -54.32,21.96 -80.5,35.61 -76.46,39.83 -135.15,57 -182.67,135.26 -41.25,67.96 -65.97,147.28 -97.25,220.61 -261.56,613.11 -474.06,1431.56 -643.74,2079.52 80.14,-7.71 160.52,-20.79 240.58,-33.53 368.15,41.5 788.54,152.65 1113.24,262.98 97.32,57.88 193.15,118.82 288.18,180.74 -24.33,-15.85 91.57,-528.67 100.71,-586.44 33.1,-209.18 62,-419.11 81.71,-629.92 36.63,-391.49 14.78,-768.14 -96.63,-1141.61z"/>
   <path class="fil2" d="M11661.47 4168.21c-67.67,-257.07 -424.53,-366.39 -525.47,-78.29 -30.35,86.57 -50.93,179.11 -38.92,270.21 12.01,91.08 61.17,180.72 141.65,222.56l1.4 0.64c13.83,7.13 -63.83,154.85 -69.32,166.67 -8.6,18.51 -17.26,37.22 -21.5,57.19 -9.39,44.39 3.98,90.24 19.75,132.78 14.42,38.91 30.96,77.04 49.53,114.15 1.61,3.22 3.35,6.59 6.31,8.64 7.13,4.97 16.76,0.19 23.94,-4.7 57.51,-39.19 108.31,-88.19 149.54,-144.25 9.41,-12.82 18.46,-26.2 23.68,-41.22 5.93,-17.14 6.65,-35.59 6.68,-53.74 0.04,-50.54 -42.86,-175.29 -17.37,-214.86 9.68,-15.06 57.17,-26.07 73.58,-36.17 27.18,-16.72 51.68,-37.85 73.46,-61.09 81.5,-87 134.36,-219.52 103.06,-338.52z"/>
   <path class="fil3" d="M11140.05 4169.14c-40.44,65.25 -38.08,145.09 -27.83,218.59 10.04,71.87 2.08,142.12 18.78,213.3 -7.64,11.13 -24.71,3.76 -35.35,-4.4 -62.46,-47.9 -124.28,-96.68 -185.41,-146.32 -6.15,-5 -12.47,-10.21 -16.07,-17.33 -4.56,-9.01 -4.1,-19.71 -3.36,-29.83 14.51,-199.76 92.58,-345.65 204.47,-503.25 54.33,-76.54 199.5,-161.13 281.86,-69.79 18.76,20.79 25.61,49.74 30.48,77.51 2.9,16.59 5.31,33.75 1.56,50.15 -15.01,65.43 -76.25,61.81 -124.22,82.75 -59.13,25.8 -110.78,73.56 -144.92,128.62z"/>
   <path class="fil3" d="M11595.4 4300.78c0,57.57 -13.44,122.92 -30.71,177.35 -5.98,18.85 -42.1,62.68 -43.22,75.44 -3.26,36.97 72.75,123.8 92.56,156.13 118.9,-65.99 237.8,-131.97 356.71,-197.96 9.12,-5.06 18.65,-10.53 23.94,-19.6 4.8,-8.23 5.39,-18.23 5.72,-27.82 6.69,-188.17 -41.74,-357.3 -113.44,-527.54 -71.65,-170.15 -232.4,-308.44 -421.79,-296.63 -153.01,9.54 -260.04,122.4 -204.13,280.06 42.22,119.03 190.28,144.26 270.88,225.58 50.58,51.07 65.06,101.75 63.48,154.99z"/>
   <path class="fil2" d="M4344.63 3480.83c-2.31,3.37 -4.65,6.87 -5.87,10.63 -11.26,34.97 3.79,59.97 2.53,96.58 -0.57,16.32 -36.63,37.9 -8.64,57.43 10.32,7.21 38.14,21.31 60.29,36.46 32.33,22.09 59.93,69.64 74.89,111.44 58.75,164.21 71.18,339.85 78.03,513.99 0.39,9.93 0.64,20.29 -3.59,29.28 -7.57,16.1 -26.56,22.65 -43.54,27.96 -78.74,24.61 -155.17,56.57 -228,95.31 -64.98,34.57 -128.58,75.87 -172.32,135.08 -43.74,59.21 -64.64,139.48 -38.06,208.14 19.9,51.39 66.01,91.83 119.58,104.86 132.82,32.3 251.54,-128.26 337.68,-207.68 81.52,-75.13 157.75,-155.96 227.96,-241.75 8.67,-10.59 17.44,-21.64 21.26,-34.79 4.06,-14 2.06,-28.97 -0.01,-43.4 -26.63,-185.93 -69.53,-368.47 -116.33,-551.07 -12.86,-50.17 -50.47,-87.22 -61.96,-133.72 -7.32,-29.68 8.29,-58.24 7.57,-87.76 -0.69,-29.22 -9.07,-67.4 -20.5,-94.28 -22.53,-53 -80.41,-66.67 -129.83,-83.57 -12.31,-4.21 -20.6,-7.1 -32.64,-5.18 -19.57,3.08 -32.85,17 -46.53,30.33 -8.08,7.89 -15.59,16.47 -21.96,25.72z"/>
   <path class="fil8" d="M4464.84 4704.87c-46.56,-100.26 -93.1,-200.51 -139.65,-300.76 3,6.43 -467.83,183.38 -495.5,194.86 -105.6,43.87 -214.68,90.11 -292.29,174.07 -165.74,179.28 -30.54,470.87 219.78,437.28 271.76,-36.46 552.43,-179.76 746.4,-372.61 4.21,-4.18 8.56,-8.68 10.14,-14.4 2.15,-7.87 -1.35,-16.06 -4.79,-23.46 -14.69,-31.65 -29.39,-63.32 -44.08,-94.97z"/>
   <path class="fil3" d="M2085.51 7582.57c-6.22,37.82 -10.36,75.82 -13.5,110.72 -5.39,59.89 4.14,128.21 -11.01,186.58 -6,23.06 -14.12,45.46 -17.65,69.22 -3.53,23.76 -1.88,49.94 10.15,69.4 14.76,23.85 41.17,32.25 65.65,37.74 22.67,5.1 46.1,9.06 68.69,3.44 45.56,-11.31 79.15,-60.35 93.04,-113.14 16.62,-63.17 8.25,-125.39 5.96,-189.35 0,-100.85 -26.98,-186.83 -22.79,-288.43 0.7,-17.14 1.07,-35.59 -8.54,-49.8 -10.13,-15.02 -29.46,-21.61 -47.55,-21.1 -36.06,1.01 -70.86,11.08 -85.35,45.46 -17.46,41.49 -29.04,90.24 -37.11,139.25z"/>
   <path class="fil2" d="M2179.71 7502.68c-19.61,15.28 -33.53,36.53 -47.09,57.36 -9.15,14.06 -18.41,32.5 -9.17,46.5 3.52,5.33 9.17,8.82 14.64,12.14 22.88,13.89 45.75,27.78 68.64,41.68 4.65,2.83 9.79,5.76 15.19,5.04 4.46,-0.6 8.19,-3.6 11.61,-6.5 22.08,-18.7 43.09,-38.65 62.89,-59.77 89.37,-95.26 -36.51,-159 -116.72,-96.46z"/>
   <path class="fil14" d="M3757.72 6654.75c-5.82,-22.15 -24.79,-37.88 -44.6,-51.32 -203.89,-138.35 -426.22,-232.63 -666.76,-286.09 -20.26,-4.5 -149.35,396.71 -161.78,435.64 -48.19,151.09 -89.24,304.4 -124.4,459.06 -38.53,169.43 -78.49,338.56 -119.31,507.46 -78.52,-76.96 -162.72,-148.09 -251.83,-212.51 -15.34,-11.08 -31.89,-22.38 -50.78,-23.56 -22.96,-1.43 -43.89,12.3 -62.14,26.32 -31.78,24.39 -61.51,51.44 -88.78,80.78 -9.13,9.81 -18.35,20.64 -20.5,33.86 -2.15,13.17 3.11,26.29 8.26,38.6 88.53,211.12 228.74,550.64 341.18,750.37 54.39,96.6 158.65,129.68 264.46,121.39 27.1,-2.13 45.82,-9.68 69.42,-18.02 27.86,-9.83 58.18,-9.74 86.33,-19.44 18.44,-6.37 32.9,-20.69 45.96,-35.21 113.31,-126.06 190.5,-302.91 258.86,-456.46 74.21,-166.71 134.65,-339.19 189.19,-513.22 4.04,-12.85 8.13,-25.59 12.31,-38.24 85.78,-260.25 201.63,-484.22 305.28,-739.67 7.83,-19.29 15.44,-37.61 9.63,-59.75z"/>
   <path class="fil2" d="M3437.01 9625.15c36.94,14.26 75.6,11.76 113.43,19.03 38.48,-129.68 63.07,-257.87 74.97,-394.07 -76.53,45.42 -112.97,-6.19 -147.99,113 -11.33,38.59 -14.82,205.93 -40.42,262.04z"/>
   <path class="fil3" d="M3589.12 9605.14c0.09,73.34 57.82,152.33 89.77,218.29 3.75,7.75 7.58,15.82 7.73,24.43 0.24,12.81 -7.58,24.2 -15.09,34.59 -10.41,14.42 -21.72,29.56 -38.28,36.02 -16.28,6.38 -34.56,3.19 -51.61,-0.57 -28.56,-6.26 -56.83,-13.85 -84.69,-22.68 -6.94,-2.22 -14.03,-4.59 -19.68,-9.18 -6.71,-5.42 -10.75,-13.39 -14.58,-21.13 -19.7,-39.67 -36.46,-67.81 -35.39,-111.98 1.1,-45.64 6.86,-92.91 -1.49,-138.14 -4.12,-21.93 -9.59,-49.97 9.2,-62.03 14.54,-9.3 41.14,3.53 56.94,6.11 27.91,4.55 53.71,2.81 79.4,17.49 5.24,2.96 10.33,6.55 13.56,11.65 3.28,5.17 4.21,11.02 4.22,17.13z"/>
   <path class="fil14" d="M3398.95 7278.78c16.32,325.67 51.14,650.09 26.49,978.03 -30.46,405.08 -4.56,817.43 -50.33,1218.67 46.18,16.04 93.57,28.63 141.63,37.6 55.11,10.28 143.93,22.22 181.19,-29.85 19.04,-26.61 23.68,-78.08 31.78,-109.36 25.96,-100.18 49.62,-200.97 73.06,-301.76 66.32,-285.19 140.14,-571.79 174.47,-862.6 36.12,-305.94 74.83,-612.17 117.43,-916.03 22.02,-157.06 38.06,-314.94 46.63,-473.32 2.19,-40.81 23.92,-461.72 3.37,-464.69 -243.85,-35.41 -485.17,-26.17 -724.87,30.79 -23.31,5.54 -46.61,13.53 -59.92,32.17 -13.31,18.63 -12.69,38.44 -12.22,59.26 4.5,198.53 32.62,392.15 41.35,591.24 3.03,69.28 6.4,138.63 9.96,209.86z"/>
   <path class="fil8" d="M3262.01 4665.33c-3.97,1.35 -7.9,2.76 -11.82,4.24 -65.47,24.86 -121.15,69.56 -175.63,113.56 -81.82,66.1 -122.11,95.07 -153.71,192.94 -29.47,91.28 -47.93,187.68 -65.97,281.74 -92.65,482.93 -110.56,963.83 -177.06,1450.37 -18.09,132.44 -32.07,288.14 65.88,379.11 173.78,-135.28 392.24,-143.07 603.03,-143.26 148.01,-0.14 292.74,-48.08 441.11,-31.54 141.81,15.78 265.65,-19.65 409.57,-10.29 34.69,2.26 78.9,1.87 92.57,-30.09 -49.79,-149.29 -48.93,-309.83 -60.21,-466.79 -29.15,-406 -163.65,-795.61 -217.94,-1198.87 -18.44,-137.07 -28.29,-364.6 -134.44,-468.35 -115.35,-112.75 -378.49,-115.06 -526.74,-92.99 -30.02,4.46 -59.92,10.52 -88.64,20.22z"/>
   <path class="fil2" d="M3372.09 4658.53c2.44,4.74 5.71,9.28 10.07,13.58 17.24,17 41.1,26.64 64.79,30.03 31.22,4.47 62.96,-0.72 93.94,-6.62 41.86,-8 40.39,-32.5 46.46,-70.5 3.31,-20.76 5.39,-41.7 6.94,-62.65 0.86,-11.49 -3.58,-52.63 3.74,-60.68 4.97,-5.46 25.2,-3.63 34.07,-8.25 14.06,-7.33 25.79,-20.85 34.24,-33.97 13.61,-21.18 21.1,-45.6 28.44,-69.68 12.76,-41.89 25.51,-83.78 38.28,-125.67 13.04,-42.8 26.15,-85.96 30.35,-130.5 6.3,-67.14 -4.54,-161.93 -55.22,-211.03 -46.22,-44.78 -113.68,-60.46 -175.54,-68.36 -81.89,-10.47 -166.8,4.53 -237.54,48 -28.57,17.56 -55.64,40.32 -72.52,71.62 -26,48.25 -24.03,108.5 -21.24,164.82 2.59,52 5.17,103.98 7.75,155.98 2.96,59.79 10.42,128.71 55.22,161.14 23.79,17.21 54.89,20.89 75.25,42.97 25.51,27.65 23.85,69.15 24.93,104.22 0.6,20.03 -0.9,39 7.58,55.54z"/>
   <path class="fil3" d="M3631.37 3986.42c2.82,4.87 5.18,9.93 7,15.19 9.54,27.57 3.1,58.68 12.42,86.32 14.79,43.82 65.93,70.17 73.64,115.76 6.29,37.29 -19.19,72.75 -21.35,110.51 -2.33,41.25 24.07,80.31 19.97,121.02 -3.56,35.37 -26,85.09 -47.11,113.43 6.54,-8.78 65.75,-5.65 81.11,-15.03 23.54,-14.37 26.22,-23.43 33.22,-47.96 6.96,-24.35 1.57,-48.35 12.41,-73.31 13.29,-30.6 40.61,-53.06 50.18,-85.69 13.06,-44.54 -10.64,-91.52 -8.8,-137.89 2.8,-70.2 63.47,-136.32 41.46,-203.03 -12.92,-39.13 -50.92,-64.14 -72.29,-99.38 -16.22,-26.75 -22.21,-58.29 -33.46,-87.5 -11.26,-29.18 -30.61,-58.4 -60.63,-67.26 -16.68,-4.91 -34.61,-2.9 -51.69,-6.08 -29.56,-5.48 -54.1,-25.87 -82.57,-35.51 -40.71,-13.78 -112.56,27.4 -136.32,61.92 -23.6,34.26 -11.7,63.37 12.43,93.67 40.17,50.44 137.24,83.46 170.39,140.82z"/>
   <path class="fil3" d="M3082.97 3779.1c-24.41,17.9 -54.53,30.83 -76.82,51.75 -43.44,40.79 -51.71,106.03 -53.28,165.61 -1.39,53.04 -24.6,100.18 -18.86,155.46 3.88,37.13 19.64,74.67 49.86,96.6 37.63,27.29 96.71,31.78 113.48,75.12 18.24,47.09 -30.54,106.39 -0.93,147.3 16.33,22.57 48.35,25.87 71.72,41.04 26.07,16.93 39.47,47.14 55.4,73.83 15.92,26.69 39.83,53.43 70.9,54.1 1.26,-47.27 2.67,-84.72 -17.53,-127.94 -11.76,-25.18 -46.39,-71.64 -19.79,-98.91 16.78,-22.67 56.37,-30.04 57.39,-58.22 0.48,-13.22 -8.75,-24.49 -16.03,-35.54 -28.21,-42.79 -31.07,-99.82 -11.96,-147.36 19.13,-47.56 58.52,-85.53 104.64,-107.88 54.06,-26.18 45.35,-39.39 61.06,-91.14 14.46,-47.63 41.48,-58.79 84.36,-76.15 38.5,-15.58 50.88,-25.3 65.09,-61.32 10.39,-26.37 23.19,-57.94 8.11,-87.37 -11.99,-23.39 -33.56,-40.11 -54.44,-56.04 -43.65,-33.28 -92.71,-68.26 -147.44,-64.32 -30.4,2.2 -59,16.47 -89.44,18.2 -20.29,1.15 -40.48,-3.33 -60.8,-4.02 -34.64,-1.15 -71.18,9.37 -99.24,30 -28.3,20.81 -27.5,42.58 -43.22,72.11 -7.69,14.46 -19.14,25.49 -32.22,35.1z"/>
   <path class="fil3" d="M3205.55 3584.76c5.32,-32.93 1.9,-75.85 -29.54,-86.96 -9.54,-3.37 -19.71,-2.85 -29.92,-2.31 -8.25,0.43 -16.54,0.86 -24.54,-0.76 -38.17,-7.76 -51.15,-53.98 -71.17,-87.39 -3,-5 -6.57,-10.07 -11.89,-12.44 -7.61,-3.39 -16.35,-0.39 -24.64,0.62 -37.97,4.64 -66.85,-32.85 -102.61,-46.44 -44.28,-16.82 -99.97,10.88 -113.32,56.31 -5.47,18.68 -4.53,38.74 -9.67,57.52 -20.85,76.04 -132.2,108.39 -135.02,187.18 -1.9,53.25 50.21,104.25 29.94,153.54 -12.94,31.5 -53.48,52.98 -48.86,86.74 3,21.74 26.13,36.51 48.03,36.19 21.92,-0.29 42.06,-12.32 58.57,-26.74 26.21,-22.89 45.94,-52.25 70.92,-76.48 24.96,-24.24 58.25,-43.89 92.78,-39.57 33.44,4.17 63.7,30.21 96.93,24.63 26.57,-4.46 46.3,-28.17 72.42,-34.85 24.43,-6.25 49.82,3.35 75,4.86 25.17,1.51 56.09,-11.59 56.76,-36.8 0.15,-6.09 -1.56,-12.41 0.36,-18.22 5.38,-16.25 33.14,-15.31 38.41,-31.61 -13.13,-20.25 -31.67,-13 -41.08,-39.44 -7.3,-20.47 -1.21,-46.89 2.14,-67.57z"/>
   <path class="fil2" d="M3217.63 6566.26c0.86,-3.98 1.71,-8.11 1.39,-12.04 -2.85,-36.65 -26.28,-54.04 -39.02,-88.39 -5.68,-15.32 19.47,-48.99 -13.82,-56.42 -12.29,-2.74 -43.37,-5.22 -69.64,-10.81 -38.29,-8.17 -81.89,-41.67 -111.6,-74.64 -116.72,-129.58 -194.96,-287.35 -267.43,-445.82 -4.14,-9.03 -8.31,-18.53 -7.81,-28.46 0.89,-17.76 15.97,-31.03 29.65,-42.39 63.48,-52.68 122.06,-111.28 174.71,-174.78 46.98,-56.68 90.11,-119.04 108.08,-190.42 17.96,-71.39 6.79,-153.59 -43.86,-207 -37.94,-39.98 -95.96,-59.87 -150.44,-51.58 -135.15,20.58 -183.97,214.21 -233.48,320.41 -46.86,100.46 -86.68,204.2 -119.03,310.24 -4,13.08 -7.92,26.64 -6.44,40.24 1.56,14.5 9.1,27.58 16.49,40.17 95.28,161.87 204.29,314.42 316.96,465.56 30.96,41.52 79.83,61.5 108.11,100.17 18.04,24.67 14.47,57.02 26.35,84.06 11.75,26.76 34,58.91 54.78,79.42 40.97,40.47 99.72,31.11 151.85,27.99 12.97,-0.78 21.75,-1.28 32.15,-7.61 16.94,-10.29 23.93,-28.19 31.51,-45.72 4.49,-10.39 8.17,-21.17 10.54,-32.15z"/>
   <path class="fil8" d="M2641.45 5479.67c81.14,75.06 162.29,150.09 243.43,225.17 -5.21,-4.82 363.09,-347.36 384.33,-368.5 81.02,-80.7 164.35,-164.9 204.25,-272.06 85.21,-228.81 -150.61,-447.18 -369.42,-321 -237.53,136.96 -442.74,376.14 -548.89,628.22 -2.31,5.47 -4.63,11.28 -3.92,17.18 0.99,8.1 7.36,14.33 13.35,19.89 25.63,23.69 51.24,47.39 76.86,71.1z"/>
   <path class="fil4" d="M2530.3 2323.94c190.15,-673.86 890.57,-1066 1564.44,-875.85 673.88,190.15 1066,890.57 875.85,1564.44 -190.14,673.86 -890.57,1066 -1564.44,875.85 -673.86,-190.14 -1066,-890.57 -875.85,-1564.44z"/>
   <path class="fil5" d="M4970.01 3014.63c0.2,-0.71 0.39,-1.39 0.58,-2.08 123.94,-439.22 0.47,-889.76 -287.11,-1202.91 -0.28,-0.89 -0.54,-1.78 -0.8,-2.67 288.43,313.18 412.43,764.29 288.33,1204.13 -0.35,1.19 -0.67,2.33 -1,3.53z"/>
   <path class="fil6" d="M3751.52 3934.92c-113.96,0 -229.89,-15.5 -344.97,-47.97 -431.86,-121.85 -748.02,-453.31 -869.33,-853.04 153.47,166.65 353.47,294.29 587.52,360.32 115.12,32.48 230.96,47.97 344.96,47.97 553.28,-0.03 1061.83,-365.07 1219.49,-923.82 38.06,-134.87 52.79,-270.82 46.61,-403.5 61.22,82.14 111.58,171.99 149.71,267.07l0 0c-32.25,-127.56 -85.61,-248.56 -157.25,-357.94 -8.74,-73.01 -23.79,-144.71 -44.76,-214.36 287.58,313.14 411.06,763.68 287.11,1202.91 -0.19,0.69 -0.39,1.37 -0.58,2.08 -158.83,556.76 -666.35,920.32 -1218.48,920.29z"/>
   <path class="fil4" d="M2651.01 3106.56c-93.28,-232.71 -113.33,-496.89 -39.98,-756.83 146.4,-518.79 618.5,-857.71 1132.22,-857.71 105.81,0 213.43,14.39 320.28,44.53 284.32,80.24 514.63,258.33 664.72,487.46 3.6,30.08 6.11,60.41 7.54,90.87 -149.57,-200.65 -364.02,-355.36 -623.49,-428.58 -106.87,-30.15 -214.43,-44.54 -320.26,-44.54 -513.69,0 -985.85,338.96 -1132.22,857.72 -58.03,205.6 -57.64,413.85 -8.81,607.08z"/>
   <path class="fil7" d="M4885.5 2381.94c-38.13,-95.08 -88.49,-184.93 -149.71,-267.07 -1.43,-30.47 -3.94,-60.79 -7.54,-90.87 71.64,109.39 125,230.39 157.25,357.94z"/>
   <path class="fil3" d="M3474.35 2270.75c-23.61,83.69 -83,140.17 -132.67,126.17 -49.64,-14.01 -70.75,-93.21 -47.14,-176.9 23.63,-83.71 83.01,-140.18 132.67,-126.18 49.65,14.01 70.76,93.22 47.14,176.92z"/>
   <path class="fil3" d="M4373.4 2524.43c-23.61,83.69 -83.01,140.18 -132.67,126.17 -49.65,-14.02 -70.75,-93.21 -47.14,-176.9 23.61,-83.7 83.02,-140.18 132.67,-126.17 49.65,14.02 70.75,93.21 47.14,176.91z"/>
   <path class="fil3" d="M2898 2552.31c-69.71,424.85 189.24,843.44 613.4,963.13 424.15,119.69 863.72,-101.8 1026.37,-500.43l-1639.78 -462.69z"/>
   <path class="fil8" d="M3008.65 3130.25c108.37,181.33 283.37,323.28 502.75,385.18 209.9,59.24 423.53,34.8 605.56,-53.2l-2.57 -19.87c-474.83,-423.83 -1097.22,-313.64 -1105.74,-312.11z"/>
   <path class="fil4" d="M7517.98 7173.72c0,-1247.85 1011.58,-2259.43 2259.43,-2259.43 1247.86,0 2259.44,1011.58 2259.44,2259.43 0,1247.86 -1011.58,2259.44 -2259.44,2259.44 -1247.85,0 -2259.43,-1011.59 -2259.43,-2259.44z"/>
   <path class="fil5" d="M12036.85 7172.39c-0.15,-267.89 -46.91,-524.85 -132.65,-763.26 0.07,-0.67 0.14,-1.33 0.21,-2 85.75,238.61 132.44,495.79 132.44,763.94 0,0.46 0,0.87 0,1.32z"/>
   <path class="fil15" d="M11904.2 6409.13c-174.38,-484.89 -509.96,-893.06 -942,-1159.65 -0.89,-1.39 -1.78,-2.79 -2.67,-4.18 433.53,266.68 770.2,675.67 944.88,1161.83 -0.07,0.67 -0.14,1.33 -0.21,2z"/>
   <path class="fil6" d="M9777.41 9430.5c-799.72,0 -1502.41,-415.5 -1903.96,-1042.4 343.9,211.56 748.72,333.67 1182.11,333.67 1247.86,0 2259.44,-1011.58 2259.44,-2259.43 0,-249.75 -40.53,-490.03 -115.36,-714.63 144.78,111.25 274.64,240.97 386.04,385.63l0 0c-117.04,-203.2 -267.13,-384.9 -442.94,-537.83 -50.32,-121.03 -110.86,-236.71 -180.54,-346.03 432.04,266.6 767.62,674.76 942,1159.65 85.74,238.42 132.5,495.37 132.65,763.26 -0.73,1247.22 -1012.04,2258.11 -2259.44,2258.11z"/>
   <path class="fil4" d="M8103.81 8457.65c-272.64,-354.02 -434.89,-797.4 -434.89,-1278.78 0,-1158.56 939.2,-2097.75 2097.75,-2097.75 526.5,0 1007.74,194 1376.07,514.37 20.72,49.85 39.72,100.63 56.91,152.21 -353.64,-271.76 -796.35,-433.35 -1276.83,-433.35 -1158.56,0 -2097.74,939.18 -2097.74,2097.74 0,380.72 101.43,737.74 278.74,1045.56z"/>
   <path class="fil7" d="M11585.69 6133.33c-111.4,-144.65 -241.26,-274.37 -386.04,-385.63 -17.18,-51.58 -36.18,-102.36 -56.91,-152.21 175.82,152.93 325.91,334.64 442.94,537.83z"/>
   <path class="fil3" d="M8851.31 7406.61c-58.21,-56.53 -151.46,6 -121.32,81.32 166.94,417.14 574.74,711.8 1051.5,711.8 468.8,0 870.93,-284.92 1042.94,-691.03 31.37,-74.07 -62.63,-138.21 -120.38,-82.19 -330.67,320.59 -1032.64,776.76 -1852.75,-19.91z"/>
   <path class="fil3" d="M9111.5 6608.92c0,154.99 -74.54,280.61 -166.49,280.61 -91.93,0 -166.47,-125.62 -166.47,-280.61 0,-154.98 74.54,-280.61 166.47,-280.61 91.94,0 166.49,125.63 166.49,280.61z"/>
   <path class="fil3" d="M10776.3 6608.92c0,154.99 -74.54,280.61 -166.48,280.61 -91.94,0 -166.47,-125.62 -166.47,-280.61 0,-154.98 74.53,-280.61 166.47,-280.61 91.94,0 166.48,125.63 166.48,280.61z"/>
   <path class="fil4" d="M12162.55 3468.76c-34.61,-734.8 533,-1358.56 1267.8,-1393.17 734.82,-34.61 1358.56,533.01 1393.17,1267.82 34.61,734.81 -533.02,1358.54 -1267.82,1393.15 -734.81,34.61 -1358.54,-533 -1393.15,-1267.81z"/>
   <path class="fil5" d="M14823.05 3333.97c-25.68,-474.92 -297.52,-878.92 -685.76,-1093.9 -0.56,-0.78 -1.1,-1.56 -1.65,-2.35 389.46,215.01 662.21,620.06 687.42,1096.25z"/>
   <path class="fil6" d="M13491.9 4736.5c-445.37,-0.01 -844,-220.74 -1086.35,-562.51 190.96,105.43 409.96,165.19 641.65,165.19 21.12,0 42.37,-0.5 63.69,-1.5 734.81,-34.61 1302.43,-658.35 1267.81,-1393.15 -6.92,-147.07 -37.44,-287.44 -87.74,-417.62 88.33,61.5 168.4,134.29 238.01,216.39l0 0c-74.54,-116.39 -167.98,-219.25 -275.75,-304.42 -32.99,-69.89 -71.86,-136.36 -115.94,-198.8 388.25,214.98 660.08,618.98 685.76,1093.9 0.14,2.63 0.26,5.24 0.39,7.87 34.61,734.79 -533,1358.54 -1267.81,1393.15 -21.36,1 -42.57,1.5 -63.74,1.5z"/>
   <path class="fil4" d="M12543.12 4208.56c-170.35,-200.9 -278.2,-457.5 -291.54,-740.96 -32.14,-682.22 494.86,-1261.32 1177.08,-1293.46 19.82,-0.93 39.53,-1.39 59.15,-1.39 287.54,0 554.07,99.07 765.42,266.12 13.59,28.78 26.18,58.14 37.74,88.03 -200.7,-139.71 -444.04,-221.15 -704.74,-221.15 -19.6,0 -39.36,0.47 -59.15,1.4 -682.22,32.13 -1209.24,611.24 -1177.08,1293.46 10.56,224.18 80.18,431.61 193.13,607.94z"/>
   <path class="fil7" d="M14528.98 2743.29c-69.61,-82.09 -149.68,-154.89 -238.01,-216.39 -11.56,-29.89 -24.14,-59.25 -37.74,-88.03 107.76,85.17 201.21,188.03 275.75,304.42z"/>
   <path class="fil3" d="M13136.44 3143.85c-42.09,-92.33 -134.79,-148.91 -236.17,-144.14 -99.18,4.67 -185.51,67.9 -219.92,161.1 -6.57,17.85 0.17,37.32 16.41,47.35 16.25,10.03 36.69,7.36 49.74,-6.53 70.44,-75.07 184.44,-138.02 327.54,-11.54 8.07,7.14 18.18,10.52 28.18,10.04 7.64,-0.36 15.21,-2.96 21.79,-7.83 15.21,-11.26 20.32,-31.18 12.43,-48.44z"/>
   <path class="fil3" d="M14279.52 3090.02c-42.08,-92.35 -134.78,-148.93 -236.15,-144.15 -99.19,4.67 -185.52,67.92 -219.9,161.08 -6.61,17.83 0.12,37.31 16.36,47.35 16.24,10.07 36.71,7.39 49.76,-6.51 70.44,-75.07 184.43,-138 327.53,-11.54 8.07,7.14 18.17,10.52 28.18,10.04 7.64,-0.36 15.21,-2.96 21.78,-7.83 15.22,-11.26 20.32,-31.18 12.44,-48.43z"/>
   <path class="fil8" d="M12910.01 3684.92l-0.06 -2.1c-6.25,-132.76 -107.98,-249.82 -252.36,-243.01 -114.72,5.4 -177.37,90.98 -196.43,169.24 -26.32,-76.11 -96.74,-155.43 -211.46,-150.03 -144.38,6.8 -234.67,132.89 -228.42,265.65l0.15 2.11c0.59,28.92 15.17,322.8 470.65,541.46l0 0.06 0.06 -0.03 0.04 0.02 0.1 -0.03 0.04 0.03 0.02 -0.06c432.93,-260.49 419.81,-554.44 417.67,-583.31z"/>
   <path class="fil3" d="M13527.9 4146.02c-120.96,5.71 -224,-88.07 -229.69,-209.03 -2.49,-52.61 13.76,-103.35 45.35,-144.21 -35.29,-37.71 -56.24,-86.71 -58.7,-139.32 -5.7,-120.96 88.06,-223.99 209.02,-229.7 73.68,-3.46 143.78,30.02 187.48,89.57 12.31,16.76 8.7,40.32 -8.08,52.61 -16.78,12.32 -40.32,8.69 -52.59,-8.07 -28.76,-39.17 -74.83,-61.19 -123.26,-58.91 -79.49,3.75 -141.13,71.47 -137.38,150.96 2.07,43.87 23.72,83.93 59.39,109.9 9.24,6.71 14.92,17.25 15.46,28.67 0.54,11.4 -4.13,22.43 -12.7,29.98 -33.07,29.2 -50.86,71.1 -48.79,114.99 3.74,79.48 71.46,141.11 150.96,137.36 47.96,-2.25 91.54,-28.12 116.56,-69.21 10.8,-17.75 33.98,-23.39 51.72,-12.56 17.75,10.81 23.37,33.97 12.56,51.72 -38.04,62.46 -104.33,101.8 -177.29,105.24z"/>
   <path class="fil2" d="M11422.58 6851.5c-6.9,20.29 -16.07,39.81 -27.35,58.04 -5.78,9.36 -12.28,18.54 -21.1,25.11 -6.22,4.64 -13.37,7.82 -20.46,10.96 -16.76,7.42 -33.53,14.83 -50.29,22.25 -5.65,2.5 -11.75,5.04 -17.82,3.86 -4.44,-0.86 -8.24,-3.65 -11.86,-6.41 -18.92,-14.32 -37.35,-29.29 -55.24,-44.87 -2.93,-2.57 -5.93,-5.26 -7.33,-8.9 -2.83,-7.36 1.96,-15.33 6.89,-21.49 24.8,-30.85 15.87,-42.33 23.82,-75.72 5.37,-22.53 21.42,-33.61 38.43,-48.71 28.36,-25.21 56.88,-50.25 85.32,-75.36 3.21,-2.83 69.14,43.71 77.11,48.7 -10.44,25 -5.75,56.29 -11.83,83.15 -2.24,9.94 -5.02,19.75 -8.29,29.39z"/>
   <path class="fil8" d="M11460.33 4901.42c-11.9,11.13 -22.85,24.82 -32.46,41.21 -39.92,67.96 -45.81,152.1 -32.21,229.92 21.54,123.22 81.97,240.48 117.28,360.44 40.39,137.19 80.76,274.42 121.15,411.62l-326.14 769.91 157.81 88.72 570.96 -854.01c-62.46,-179.53 -124.17,-354.72 -174.94,-536.86 -45.54,-163.28 -61,-348.5 -176.24,-480.79 -65.04,-74.7 -159.74,-91.26 -225.21,-30.15z"/>
   <path class="fil3" d="M5257.16 8837.61c-29.07,157.76 -52.9,337.63 49.53,463.14 98.72,120.96 275.53,142.78 433.72,155.37 264.18,21.03 549.48,37.37 773.9,-99.9 155.5,-95.13 263.24,-260.78 285.03,-438.26 1.37,-11.22 2.4,-22.79 -0.76,-33.68 -4.52,-15.49 -16.82,-27.44 -28.67,-38.67 -95.33,-90.33 -190.67,-180.65 -285.99,-270.96 -23.24,-22.03 -46.89,-44.35 -75.5,-59.24 -24.15,-12.56 -50.96,-19.36 -77.57,-25.76 -251.39,-60.46 -579.04,-140.48 -839,-100.78 -225.33,34.42 -200.39,262.56 -234.69,448.74z"/>
   <path class="fil16" d="M5413.45 7664.02c35.49,-69.29 23.11,-153.2 -30.9,-209.56 -98.68,-102.99 -197.37,-205.96 -296.06,-308.94 -55.42,-57.82 -139.71,-118.82 -171.86,-190.29 -56.82,-126.35 -74.25,-290.09 -102.07,-425.24 -14.12,-68.64 -47.96,-159.65 -39.11,-229.49 1.65,-13.08 52.79,-125.13 49.86,-127.17l-23.89 -19.65 -19.39 23.92 -21.65 2.11 35.06 -84.11 -98.26 -34.33 -94.26 75.25c16.29,73.96 52.08,145.28 50.39,221.98 -0.71,32.43 -6.71,64.49 -10.19,96.76 -5.97,55.41 -4.43,111.2 -5.19,166.81 -0.74,53.82 -12.03,107.65 -12.03,160.6 0.03,118.18 0.87,236.36 1.32,354.53l481.08 562.5c85.79,100.33 247.14,81.58 307.17,-35.68z"/>
   <path class="fil17" d="M4989.06 7058.44c3.26,-15.42 6.61,-30.79 10.07,-46.13 29.79,-1.29 59.68,-0.19 89.63,0.89 35.14,1.28 70.36,2.57 105.57,0 80.26,-5.86 159.18,-24.07 239.3,-31.87 36.03,-3.52 72.23,-4.92 108.41,-6.32 159.79,-6.2 50.74,234.15 29.52,318.12 -31.64,125.17 -70.24,248.92 -118.56,368.67 -25.41,62.96 -53.52,124.93 -85.94,184.6 -16.49,30.33 -49.04,127.67 -83.36,136.7 -27.67,7.26 -50.33,-21.29 -65.65,-45.44 -75.93,-119.71 -177.57,-223.04 -296,-300.93 -8.08,-5.33 -16.8,-11.19 -19.97,-20.33 -2.29,-6.57 -1.32,-13.77 -0.32,-20.64 26.14,-179.76 50.15,-361.06 87.32,-537.32z"/>
   <path class="fil16" d="M6317.59 7611.1c-35.48,-69.31 -23.11,-153.22 30.91,-209.57 98.68,-102.97 197.37,-205.96 296.06,-308.94 55.42,-57.82 139.71,-118.8 171.86,-190.29 56.82,-126.35 74.25,-290.07 102.07,-425.24 14.13,-68.62 47.96,-159.67 39.11,-229.48 -1.65,-13.1 -52.79,-125.11 -49.86,-127.15l23.89 -19.67 19.39 23.9 21.65 2.13 -35.06 -84.1 98.26 -34.36 94.26 75.25c-16.29,73.97 -52.08,145.3 -50.39,221.98 0.71,32.44 6.71,64.52 10.2,96.76 5.97,55.42 4.43,111.2 5.19,166.82 0.74,53.81 12.03,107.64 12.03,160.6 -0.03,118.18 -0.87,236.36 -1.32,354.54l-481.08 562.5c-85.79,100.32 -247.14,81.57 -307.17,-35.68z"/>
   <path class="fil17" d="M6741.98 7005.52c-3.26,-15.41 -6.61,-30.79 -10.07,-46.13 -29.81,-1.29 -59.71,-0.21 -89.67,0.89 -35.12,1.28 -70.32,2.56 -105.53,0 -80.28,-5.86 -159.18,-24.06 -239.29,-31.87 -36.03,-3.52 -72.24,-4.92 -108.42,-6.32 -159.79,-6.19 -50.74,234.15 -29.51,318.13 31.64,125.15 70.24,248.9 118.56,368.67 25.4,62.97 53.51,124.93 85.94,184.6 16.48,30.32 49.03,127.68 83.36,136.7 27.67,7.28 50.33,-21.26 65.65,-45.42 75.93,-119.71 177.57,-223.04 296,-300.94 8.08,-5.32 16.79,-11.2 19.99,-20.33 2.28,-6.57 1.3,-13.75 0.3,-20.64 -26.14,-179.78 -50.15,-361.06 -87.32,-537.32z"/>
   <path class="fil17" d="M5728 6906.2c-129.86,24.58 -241.94,75.17 -316.7,203.79 -53.57,92.19 -75.91,200.14 -98.53,303.24 -59.07,269.41 -85.39,544.07 -114.87,817.86 -28.24,262.04 -103.28,538.46 -19.86,796.93 11.15,34.58 42.99,76.06 74.65,58.24 16.43,-57.18 32.87,-114.33 49.31,-171.5 7.07,-24.6 14.56,-49.97 31.03,-69.56 14.3,-16.99 34.19,-28.13 53.97,-38.21 109.8,-55.93 230.76,-89.83 353.64,-99.1 136.52,-10.28 273.24,9.78 405.39,43.31 130.24,33.04 255.9,91.83 387.13,116.21 85.98,15.97 171.22,36.12 255.26,60.39 2.78,0.82 5.76,1.63 8.53,0.74 5.21,-1.67 6.82,-8.11 7.5,-13.53 7.3,-57.75 2.71,-116.98 -13.26,-172.94 -16.14,-56.58 -15.09,-118.44 -20.74,-177.39 -12.17,-126.74 -28.52,-253.28 -54.64,-377.94 -56.76,-270.94 -155.25,-531.57 -203.15,-804.58 -20.68,-117.92 -33.46,-313.39 -144.76,-403.67 -120.96,-98.13 -394.03,-103.06 -547.6,-85.79 -31.54,3.56 -62.39,7.83 -92.29,13.52z"/>
   <path class="fil18" d="M5927.26 6940.49c-25.41,16.85 -88.81,29.82 -158.91,12.18 -14.12,-3.56 -24.86,-15.36 -26.5,-29.83 -4.65,-40.63 -6.56,-81.54 -5.7,-122.43 0.22,-10.54 -144.15,-56.41 -160.39,-68.15 -90.44,-65.53 -106.08,-182.81 -111.17,-286.29 -2.32,-47.56 -3.4,-98.15 20.71,-139.2 27.52,-46.87 81.67,-70.72 133.83,-85.9 85.82,-24.97 176.11,-34.5 265.25,-27.99 81.36,5.94 169.74,30.57 214.11,99.04 63.72,98.32 47.56,291.4 -6.65,389.81 -31.35,56.9 -81.67,74.94 -121.64,119.35 -36.93,41.03 -26.04,89.61 -42.94,139.42z"/>
   <path class="fil19" d="M6170.51 6175.75c12.64,-22.56 25,-44.53 16.92,-67.78 -5.54,-15.93 -19.76,-27.21 -27.64,-42.11 -19.29,-36.54 3.97,-83.06 -9.44,-122.14 -17.63,-51.39 -91.86,-72.57 -96.93,-126.65 -19.56,-17.43 -42.64,16.11 -64.54,30.47 -27.92,18.32 -58.87,2.35 -91.07,-13.63 -25.15,-12.47 -51.06,-24.94 -76.85,-21.08 -44.78,6.71 -74.26,61.29 -119.48,59.24 -33.83,-1.57 -66.82,-35.47 -96.72,-19.56 -13.21,7.04 -20.19,21.94 -31.8,31.4 -37.03,30.24 -109.96,-0.04 -130.61,43.08 -12.09,25.28 -6.94,47.64 -32.98,64.61 -9.32,6.07 -22.36,5.6 -35.47,5.13 -19.02,-0.68 -38.19,-1.36 -46.48,17.89 -3.07,7.14 -2.6,15.24 -2.07,23 5.39,78.5 10.78,157.02 16.15,235.53 1.47,21.47 3.37,44.19 16,61.63 8.9,12.3 22.67,21.19 28.64,35.14 7.4,17.24 0.93,37.46 5.37,55.67 7.2,29.54 103.17,181.18 131.86,130.85 10.29,-18.07 6.69,-40.5 3.24,-61.02 -5.1,-30.04 -8.79,-62.92 6.6,-89.21 24.3,-41.53 81.28,-45.74 129.3,-48.72 44.75,-2.79 90.43,-9.06 130.08,-30 27.49,-14.53 64.11,-34.82 85.11,-11.91 5.46,5.97 8.47,14.11 14.86,19.07 11.39,8.86 28.13,3.98 40.5,-3.43 12.36,-7.41 24.38,-17.32 38.78,-17.93 14.42,-0.62 29.69,15.38 21.78,27.44 3.11,9.07 12.44,5 22.74,0.93 6.14,-2.42 12.63,-4.85 18.33,-4.47 12.68,0.8 18.35,15.98 21,28.4 7.99,37.32 15.99,74.65 23.99,111.97 30.62,4.39 60.61,-17.76 73.14,-46.07 32.54,-73.51 -17.74,-143.96 -0.96,-214.17 3.43,-14.35 11.11,-28.07 18.68,-41.58z"/>
   <path class="fil4" d="M4563.5 5827.79c-33.83,-683.8 493.07,-1265.57 1176.87,-1299.4 683.81,-33.82 1265.57,493.08 1299.4,1176.89 33.83,683.8 -493.08,1265.57 -1176.89,1299.39 -683.81,33.83 -1265.57,-493.09 -1299.39,-1176.88z"/>
   <path class="fil5" d="M7039.56 5701.2c-23.41,-443.94 -277.82,-821.35 -640.89,-1021.28 -0.52,-0.74 -1.03,-1.46 -1.56,-2.19 364.25,199.96 619.5,578.29 642.44,1023.47z"/>
   <path class="fil6" d="M5800.54 7004.75c-413.33,0 -783.57,-204.33 -1009.33,-521.14 177.17,97.25 380.06,152.33 594.61,152.33 20.64,0 41.39,-0.51 62.22,-1.54 683.81,-33.82 1210.71,-615.59 1176.88,-1299.41 -6.76,-136.85 -35.5,-267.43 -82.59,-388.47 82.35,57.04 157.03,124.61 222,200.86l0 0c-69.64,-108.15 -156.83,-203.68 -257.3,-282.71 -30.86,-64.97 -67.18,-126.75 -108.35,-184.76 363.07,199.93 617.47,577.33 640.89,1021.28 0.04,0.87 0.09,1.74 0.13,2.61 33.83,683.82 -493.07,1265.57 -1176.87,1299.4 -20.86,1.03 -41.63,1.54 -62.28,1.54z"/>
   <path class="fil4" d="M4919.31 6515.47c-158.99,-186.6 -259.92,-425.17 -272.97,-688.96 -31.4,-634.88 457.79,-1175 1092.67,-1206.42 19.38,-0.96 38.61,-1.43 57.81,-1.43 266.54,0 513.81,91.53 710.21,246.01 12.71,26.75 24.48,54.04 35.3,81.85 -186.39,-129.09 -412.04,-204.28 -653.64,-204.28 -19.15,0 -38.44,0.47 -57.79,1.43 -634.87,31.4 -1124.08,571.53 -1092.67,1206.4 10.32,208.63 75.59,401.53 181.08,565.39z"/>
   <path class="fil7" d="M6764.33 5147.39c-64.97,-76.25 -139.65,-143.82 -222,-200.86 -10.82,-27.8 -22.59,-55.09 -35.3,-81.85 100.47,79.03 187.67,174.56 257.3,282.71z"/>
   <path class="fil3" d="M5300.44 5919.25c-33.42,-29.41 -82.83,7.39 -64.26,47.85 102.79,224.07 334.25,374.48 595.5,361.57 256.9,-12.71 469.53,-179.75 552.79,-406.94 15.18,-41.46 -38.07,-74.04 -68.2,-41.79 -172.51,184.65 -544.82,453.65 -1015.83,39.32z"/>
   <path class="fil3" d="M6105.09 5424.07c30.72,-89.32 111.53,-150.06 205.86,-154.72 92.31,-4.57 177.94,46.28 218.17,129.52 7.69,15.94 3.19,34.58 -10.94,45.33 -14.15,10.75 -33.33,10.09 -46.65,-1.59 -71.99,-63.22 -183.25,-111.3 -304.46,18.67 -6.83,7.35 -15.9,11.39 -25.22,11.85 -7.1,0.33 -14.35,-1.39 -20.87,-5.31 -15.1,-9.07 -21.61,-27.07 -15.88,-43.75z"/>
   <path class="fil3" d="M5041.35 5476.7c30.71,-89.33 111.52,-150.06 205.83,-154.72 92.32,-4.56 177.96,46.28 218.17,129.5 7.71,15.94 3.22,34.58 -10.91,45.33 -14.13,10.78 -33.35,10.14 -46.68,-1.57 -71.99,-63.22 -183.22,-111.3 -304.44,18.67 -6.83,7.35 -15.9,11.39 -25.21,11.85 -7.11,0.33 -14.35,-1.39 -20.87,-5.31 -15.11,-9.07 -21.63,-27.07 -15.88,-43.75z"/>
   <path class="fil8" d="M5116.02 5973.21c5.9,119.39 -86.08,220.96 -205.47,226.87 -119.39,5.91 -220.96,-86.08 -226.86,-205.48 -5.9,-119.39 86.08,-220.94 205.47,-226.86 119.39,-5.9 220.96,86.08 226.86,205.47z"/>
   <path class="fil8" d="M6936.62 5883.14c5.9,119.39 -86.09,220.96 -205.47,226.86 -119.39,5.91 -220.96,-86.08 -226.86,-205.47 -5.9,-119.37 86.08,-220.96 205.47,-226.86 119.39,-5.91 220.96,86.09 226.86,205.47z"/>
   <path class="fil16" d="M5696.85 9652.86c-35.75,7.79 -70.67,0.03 -106.23,1.31 -16.77,-123.83 -21.03,-244.35 -12.59,-370.33 63.41,52.29 103.99,10.35 119.06,124.13 4.88,36.82 -15.65,190.06 -0.24,244.9z"/>
   <path class="fil3" d="M5573.55 9593.88c-43.24,-8.57 -37.89,90.85 -34.76,113.94 1.87,13.87 5.63,27.75 4.1,41.68 -1.67,15.33 -9.56,29.18 -17.27,42.53 -16.15,27.94 -32.3,55.89 -48.46,83.83 -7.26,12.57 -14.64,25.44 -17.42,39.68 -6.86,35.3 18.67,72.16 52.82,83.46 118.49,39.23 199.04,-110.54 209.64,-203.07 1.62,-14.18 2.24,-28.46 2.83,-42.72 1.24,-29.51 13.63,-95.28 -1.94,-121.61 -18.15,-30.72 -54.86,-1.03 -83.06,-9.43 -26.17,-7.78 -48.97,-24.8 -66.48,-28.29z"/>
   <path class="fil3" d="M5867.41 7883.08c10.54,11.76 20.29,24.2 29.15,37.04 70.85,102.75 95.93,231.54 93.17,356.35 -2.78,124.78 -31.47,247.36 -60.03,368.87 -34.46,146.64 -78.85,292.94 -86.13,442.2 -3.87,79.33 -17.13,159 -25.93,237.89 -7.86,70.39 -16.42,140.83 -21.63,211.47 -1.83,24.91 -5.92,26.29 -32.35,30.39 -32.5,5.03 -65.42,7.27 -98.29,6.68 -64.44,-1.14 -128.71,-13.02 -189.17,-35.36 -43.1,-15.95 -30.17,-98.76 -33.89,-136.14 -10.86,-108.69 -19.22,-217.67 -27.35,-326.6 -16.24,-217.67 -36.22,-435.22 -42.61,-653.48 -5.53,-188.87 -35.64,-374.83 96.85,-529.24 49.83,-58.07 118.67,-104.98 195.11,-108.29 77.89,-3.33 150.36,39.33 203.09,98.22z"/>
   <path class="fil16" d="M6206.19 9593.41c36.94,6.19 72.29,-3.44 108.74,-3.88 11.08,-127.51 9.54,-251 -5.28,-379.48 -62.31,56.61 -105.89,15.68 -115.72,132.82 -3.18,37.92 25.35,193.68 12.26,250.54z"/>
   <path class="fil3" d="M6329.44 9527.02c43.8,-10.89 43.21,91.07 41.15,114.84 -1.24,14.31 -4.39,28.69 -2.15,42.85 2.46,15.6 11.21,29.39 19.76,42.67 17.89,27.8 35.78,55.6 53.67,83.4 8.04,12.49 16.22,25.3 19.76,39.72 8.76,35.78 -15.56,74.74 -49.94,87.98 -119.28,45.93 -209.04,-103.33 -224.42,-197.48 -2.36,-14.42 -3.68,-29 -4.98,-43.57 -2.72,-30.13 -18.61,-96.81 -3.99,-124.5 17.07,-32.32 56.07,-3.73 84.52,-13.71 26.39,-9.26 48.89,-27.79 66.63,-32.2z"/>
   <path class="fil3" d="M5980.48 7885.26c-9.69,11.92 -18.57,24.43 -26.57,37.29 -63.99,103.06 -82.35,229.25 -73.85,350.26 8.49,121 42.04,238.67 75.42,355.28 40.28,140.75 90.18,280.69 104.2,425.24 3.67,37.85 76.64,461.72 68.69,462.11 51.26,-2.47 102.22,11.57 153.97,5.9 55.85,-6.12 111.71,-9.76 167.37,-17.97 -1.36,-30.26 9.02,-50.47 12.43,-79.01 3.33,-27.87 0.25,-56.03 1.68,-84 5.47,-106 8.53,-212.17 11.33,-318.29 5.64,-212.06 14.92,-424.17 10.96,-636.33 -3.43,-183.6 17.15,-365.51 -118.64,-509.22 -51.07,-54.07 -120.07,-96.42 -194.44,-96.04 -75.75,0.37 -144.11,45.18 -192.56,104.79z"/>
  </g>
 </g>
</svg>
