<?xml version="1.0" encoding="UTF-8"?>
<!DOCTYPE svg PUBLIC "-//W3C//DTD SVG 1.1//EN" "http://www.w3.org/Graphics/SVG/1.1/DTD/svg11.dtd">
<!-- Creator: CorelDRAW 2017 -->
<svg xmlns="http://www.w3.org/2000/svg" xml:space="preserve" width="0.233339in" height="0.182004in" version="1.1" style="shape-rendering:geometricPrecision; text-rendering:geometricPrecision; image-rendering:optimizeQuality; fill-rule:evenodd; clip-rule:evenodd"
viewBox="0 0 19.08 14.88"
 xmlns:xlink="http://www.w3.org/1999/xlink">
 <defs>
  <style type="text/css">
   <![CDATA[
    .fil0 {fill:silver}
   ]]>
  </style>
 </defs>
 <g id="Layer_x0020_1">
  <metadata id="CorelCorpID_0Corel-Layer"/>
  <path class="fil0" d="M13.85 14.88l5.04 0c0.11,0 0.19,-0.1 0.19,-0.2l0 -10.57c0,-0.1 -0.08,-0.2 -0.19,-0.2l-2.73 0 0 -3.71c0,-0.1 -0.08,-0.2 -0.19,-0.2l-15.78 0c-0.11,0 -0.19,0.1 -0.19,0.2l0 11.39c0,0.1 0.08,0.2 0.19,0.2l1.62 0c0.11,0 0.19,-0.1 0.19,-0.2 0,-0.11 -0.08,-0.2 -0.19,-0.2l-1.43 0 0 -1.89 13.28 0 0 1.89 -8.69 0c-0.11,0 -0.19,0.1 -0.19,0.2 0,0.1 0.08,0.2 0.19,0.2l1.39 0 -0.6 1.68 -0.95 0c-0.06,0 -0.11,0.03 -0.15,0.08l-0.5 0.67c-0.07,0.09 -0.05,0.22 0.04,0.29 0.08,0.07 0.2,0.05 0.26,-0.04l0.44 -0.59 6.36 0 0.44 0.59c0.04,0.05 0.09,0.08 0.15,0.08 0.04,0 0.08,-0.01 0.11,-0.04 0.09,-0.07 0.1,-0.2 0.04,-0.29l-0.5 -0.67c-0.04,-0.05 -0.09,-0.08 -0.15,-0.08l-1.01 0 -0.6 -1.68 3.91 0 0 2.88c0,0.11 0.08,0.2 0.19,0.2zm0.19 -0.41l0 -1.81 4.66 0 0 1.81 -4.66 0zm-7.87 -1.01l0.6 -1.68 2.57 0 0.6 1.68 -3.77 0zm7.87 -1.21l0 -5.94 4.66 0 0 5.94 -4.66 0zm-13.66 -3.16l0 -8.7 15.4 0 0 3.51 -1.27 0 -0.01 -0.37 0.19 -0.01c0.11,-0.01 0.18,-0.1 0.18,-0.2l0 -1.92c0,-0.1 -0.08,-0.2 -0.19,-0.2l-3.01 0c-0.11,0 -0.19,0.1 -0.19,0.2 0,0.1 0.08,0.2 0.19,0.2l2.82 0 0 1.52 -9.33 0 0 -1.52 3.41 0c0.11,0 0.19,-0.1 0.19,-0.2 0,-0.1 -0.08,-0.2 -0.19,-0.2l-3.6 0c-0.11,0 -0.19,0.1 -0.19,0.2l0 1.92c0,0.1 0.08,0.2 0.19,0.2l9.05 0 0.01 0.37 -0.19 0.01c-0.11,0.01 -0.18,0.1 -0.18,0.2l0 0.2 -1.14 0c-0.11,0 -0.19,0.1 -0.19,0.2l0 3.54c0,0.1 0.08,0.2 0.19,0.2l1.14 0 0 0.84 -13.28 0zm12.33 -1.24l0 -3.14 0.95 0 0 3.14 -0.95 0zm1.33 -1.94l0 -1.6 4.66 0 0 1.6 -4.66 0zm2.13 7.68c0.02,0.09 0.09,0.15 0.19,0.15 0.01,0 0.03,-0 0.04,-0.01l0.03 -0.01c0.11,-0.03 0.17,-0.14 0.14,-0.25 -0.02,-0.1 -0.12,-0.17 -0.23,-0.15l-0.03 0.01c-0.11,0.03 -0.17,0.14 -0.14,0.25zm-1.19 -2.11l2.87 0c0.11,0 0.19,-0.1 0.19,-0.2l0 -1.46c0,-0.1 -0.08,-0.2 -0.19,-0.2l-2.87 0c-0.11,0 -0.19,0.1 -0.19,0.2l0 1.46c0,0.1 0.08,0.2 0.19,0.2zm0.19 -0.41l0 -1.06 2.48 0 0 1.06 -2.48 0zm-0.19 -2.15l2.87 0c0.11,0 0.19,-0.1 0.19,-0.2l0 -1.46c0,-0.1 -0.08,-0.2 -0.19,-0.2l-2.87 0c-0.11,0 -0.19,0.1 -0.19,0.2l0 1.46c0,0.1 0.08,0.2 0.19,0.2zm0.19 -0.41l0 -1.06 2.48 0 0 1.06 -2.48 0zm-13.68 -0.26l2.24 0c0.11,0 0.19,-0.1 0.19,-0.2l0 -6.65c0,-0.1 -0.08,-0.2 -0.19,-0.2l-2.24 0c-0.11,0 -0.19,0.1 -0.19,0.2l0 6.65c0,0.1 0.08,0.2 0.19,0.2zm0.19 -0.41l0 -6.25 1.86 0 0 6.25 -1.86 0zm3.28 0.33l6.34 0c0.11,0 0.19,-0.1 0.19,-0.2 0,-0.1 -0.08,-0.2 -0.19,-0.2l-6.34 0c-0.11,0 -0.19,0.1 -0.19,0.2 0,0.1 0.08,0.2 0.19,0.2zm0 -1.27l6.34 0c0.11,0 0.19,-0.1 0.19,-0.2l0 -2.2c0,-0.11 -0.08,-0.2 -0.19,-0.2l-6.34 0c-0.11,0 -0.19,0.1 -0.19,0.2l0 2.2c0,0.1 0.08,0.2 0.19,0.2zm0.19 -0.41l0 -1.79 5.96 0 0 1.79 -5.96 0zm4.77 -5.05c0.02,0.09 0.09,0.15 0.19,0.15 0.01,0 0.03,-0 0.04,-0l0.02 -0.01c0.11,-0.03 0.17,-0.14 0.14,-0.25 -0.02,-0.1 -0.12,-0.18 -0.23,-0.15l-0.02 0.01c-0.11,0.03 -0.17,0.14 -0.14,0.25zm6.11 3.86l0.7 0c0.11,0 0.19,-0.1 0.19,-0.2 0,-0.11 -0.08,-0.2 -0.19,-0.2l-0.7 0c-0.11,0 -0.19,0.1 -0.19,0.2 0,0.1 0.08,0.2 0.19,0.2zm-12.87 6.32c0.02,0.09 0.09,0.16 0.18,0.16 0.01,0 0.03,-0 0.04,-0l0.03 -0.01c0.11,-0.03 0.17,-0.14 0.14,-0.25 -0.02,-0.1 -0.12,-0.18 -0.22,-0.15l-0.03 0.01c-0.11,0.03 -0.17,0.14 -0.14,0.25zm4.34 -0.99l1.2 0c0.11,0 0.19,-0.1 0.19,-0.2 0,-0.1 -0.08,-0.2 -0.19,-0.2l-1.2 0c-0.11,0 -0.19,0.1 -0.19,0.2 0,0.1 0.08,0.2 0.19,0.2z"/>
 </g>
</svg>
