<?xml version="1.0" encoding="UTF-8"?>
<!DOCTYPE svg PUBLIC "-//W3C//DTD SVG 1.1//EN" "http://www.w3.org/Graphics/SVG/1.1/DTD/svg11.dtd">
<!-- Creator: CorelDRAW 2017 -->
<svg xmlns="http://www.w3.org/2000/svg" xml:space="preserve" width="24.5533mm" height="6.7734mm" version="1.1" style="shape-rendering:geometricPrecision; text-rendering:geometricPrecision; image-rendering:optimizeQuality; fill-rule:evenodd; clip-rule:evenodd"
viewBox="0 0 2455.32 677.34"
 xmlns:xlink="http://www.w3.org/1999/xlink">
 <defs>
  <style type="text/css">
   <![CDATA[
    .fil1 {fill:#333333}
    .fil0 {fill:#333333;fill-rule:nonzero}
   ]]>
  </style>
 </defs>
 <g id="Layer_x0020_1">
  <metadata id="CorelCorpID_0Corel-Layer"/>
  <g id="_1410379483712">
   <path class="fil0" d="M1329.86 381.14l0 158.3 -35.28 0 0 -151.04c0,-32.18 -4.76,-55.54 -14.28,-70.08 -9.5,-14.52 -24.14,-21.8 -43.86,-21.8 -10.38,0 -20.76,1.9 -31.14,5.72 -10.38,3.8 -20,9.18 -28.82,16.08 -8.82,6.94 -16.68,15.14 -23.62,24.66 -6.92,9.5 -11.94,19.8 -15.04,30.88l0 165.58 -35.3 0 0 -38.5c-1,1.16 -2.02,2.32 -3.08,3.46 -7.6,8.12 -16.44,15.24 -26.48,21.28 -10.02,6.06 -21.1,10.74 -33.2,14.02 -12.12,3.28 -24.74,4.94 -37.9,4.94 -19.74,0 -37.8,-3.72 -54.24,-11.18 -16.44,-7.44 -30.72,-17.64 -42.82,-30.62 -3.5,-3.74 -6.76,-7.66 -9.82,-11.76 -6.38,11.68 -15.16,21.48 -26.32,29.34 -11.52,8.12 -25.26,14.16 -41.2,18.04 -15.92,3.9 -33.38,5.84 -52.36,5.84 -55.94,0 -104.26,-17.46 -144.94,-52.38l17.8 -28.98c6.44,6.78 14.16,13.22 23.14,19.32 9,6.1 19,11.44 30,16.02 11.02,4.58 22.8,8.14 35.34,10.68 12.54,2.54 25.76,3.8 39.66,3.8 28.82,0 51.28,-5.18 67.38,-15.5 16.12,-10.34 24.16,-26.02 24.16,-47.04 0,-11.18 -2.28,-20.58 -6.86,-28.22 -4.58,-7.62 -11.44,-14.24 -20.6,-19.82 -9.14,-5.6 -20.5,-10.44 -34.06,-14.5 -13.56,-4.06 -29.32,-8.14 -47.3,-12.2 -18.98,-4.42 -35.6,-8.98 -49.84,-13.74 -14.24,-4.76 -26.26,-10.68 -36.1,-17.8 -9.84,-7.12 -17.22,-15.68 -22.12,-25.68 -4.92,-10 -7.38,-22.28 -7.38,-36.86 0,-16.62 3.14,-31.44 9.4,-44.5 6.28,-13.06 15.16,-23.9 26.7,-32.54 11.52,-8.64 25.08,-15.26 40.68,-19.82 15.6,-4.58 32.88,-6.86 51.86,-6.86 24.08,0 45.52,3.64 64.34,10.94 18.8,7.3 35.84,17.54 51.1,30.76l-17.28 28.48c-10.18,-11.52 -23.74,-20.84 -40.68,-27.98 -16.96,-7.12 -36.28,-10.68 -57.98,-10.68 -31.88,0 -55.1,6.02 -69.68,18.04 -14.58,12.04 -21.88,28.4 -21.88,49.08 0,10.86 1.96,19.76 5.86,26.7 3.9,6.96 9.92,12.98 18.04,18.06 8.14,5.08 18.56,9.5 31.28,13.22 12.72,3.74 27.72,7.46 45,11.2 19.32,4.06 36.7,8.64 52.12,13.74 13.74,4.52 25.64,10.06 35.76,16.6 3.88,-21.36 12.76,-41.78 27.04,-59.1 2.94,-3.88 6.08,-7.56 9.44,-11.1 11.92,-12.64 26.22,-22.66 42.82,-30.1 16.6,-7.44 34.6,-11.16 53.98,-11.16 19.74,0 37.82,3.72 54.26,11.16 16.44,7.44 30.54,17.56 42.3,30.36 1.58,1.74 3.16,3.5 4.64,5.32l0 -42.18 32.18 0 0 61.26c11.08,-19.72 26.92,-35.66 47.5,-47.76 20.6,-12.12 43,-18.18 67.22,-18.18 14.88,0 27.5,2.76 37.9,8.32 37.48,19.98 42.28,70.6 42.56,108.48l0 -0.02zm-227.34 35.82l-199.28 0c1.04,14.52 4.42,27.94 10.12,40.22 5.72,12.28 13.06,22.92 22.06,31.92 9,9 19.3,16 30.88,21.02 11.6,5.02 23.98,7.52 37.12,7.52 8.64,0 17.3,-1.22 25.94,-3.64 8.66,-2.42 16.62,-5.72 23.88,-9.86 7.28,-4.16 13.86,-9.26 19.72,-15.32 5.9,-6.06 10.4,-12.72 13.5,-20l16.06 4.36 0 -56.26 0 0.04zm-1 -27c-1.04,-14.54 -4.42,-27.76 -10.14,-39.72 -5.7,-11.94 -12.98,-22.24 -21.78,-30.88 -8.82,-8.64 -19.02,-15.4 -30.64,-20.24 -11.58,-4.84 -23.96,-7.26 -37.1,-7.26 -13.16,0 -25.6,2.42 -37.38,7.26 -11.76,4.84 -22.06,11.6 -30.88,20.24 -8.82,8.66 -15.92,19.04 -21.28,31.14 -5.36,12.12 -8.56,25.26 -9.6,39.46l198.8 0zm970 -155.2l-23.34 -8.82 30.62 -48.26 37.38 0 -44.64 57.08 -0.02 0zm240.56 282.88c18.34,0 35.22,-3.46 50.62,-10.38 15.4,-6.94 27.08,-16.1 35.04,-27.52 3.12,-3.1 5.44,-6.48 7,-10.12 1.56,-3.62 2.34,-7 2.34,-10.12l0 -11.24 0 -32.86 -0.56 -0.22 -0.56 -0.22 -0.54 -0.22 -0.56 -0.2 -0.56 -0.22 -0.56 -0.2 -0.56 -0.2 -0.56 -0.2 -0.56 -0.2 -0.56 -0.2 -0.56 -0.18 -0.54 -0.2 -0.58 -0.2 -0.56 -0.2 -0.56 -0.18 -0.56 -0.18 -0.56 -0.2 -0.56 -0.18 -0.56 -0.18 -0.56 -0.18 -0.56 -0.18 -0.58 -0.18 -0.58 -0.18 -0.56 -0.18 0 0 -0.58 -0.18 0 0 -0.56 -0.16 -0.56 -0.18 -0.58 -0.18 -0.58 -0.16 -0.56 -0.18 -0.02 0 -0.56 -0.16 -0.58 -0.16 -0.58 -0.18 -0.56 -0.16 -0.58 -0.14 -0.58 -0.16 0 0 -0.58 -0.16 -0.58 -0.14 0 0 -0.58 -0.16 -0.58 -0.14 0 0 -0.58 -0.16 0 0 -0.56 -0.16 -0.02 0 -0.58 -0.14 0 0 -0.58 -0.14 -0.58 -0.14 -0.58 -0.14 -0.02 0 -0.56 -0.14 -0.6 -0.14 -0.58 -0.12 0 0 -0.58 -0.14 0 0 -0.58 -0.14 -0.02 0 -0.58 -0.14 0 0 -0.58 -0.14 -0.6 -0.12 -0.58 -0.12 -0.02 0 -0.58 -0.12 -0.58 -0.14 -0.6 -0.12 -0.6 -0.12 -0.6 -0.12 -0.58 -0.12 -0.58 -0.12 -0.6 -0.12 -0.02 0 -0.58 -0.12c-12.64,-2.42 -25.52,-3.64 -38.68,-3.64l-0.18 0 -0.2 0 -0.2 0 -0.2 0 -0.2 0 -0.2 0.02 -0.02 0 -0.16 0 -0.2 0 -0.2 0 -0.18 0 -0.2 0 -0.18 0 -0.08 0 -0.1 0 -0.2 0 -0.18 0 -0.2 0 -0.18 0 -0.2 0 -0.12 0 -0.06 0 -0.2 0 -0.18 0 -0.2 0 -0.18 0 -0.2 0 -0.14 0 -0.04 0 -0.2 0 -0.18 0 -0.18 0 -0.2 0 -0.18 0 -0.18 0 -0.18 0 -0.2 0 -0.18 0 -0.18 0 -0.18 0 -0.18 0 -0.04 0 -0.16 0 -0.18 0 -0.36 0.02 -0.18 0 -0.18 0.02 -0.08 0 -0.1 0 -0.18 0 -0.18 0 -0.18 0 -0.18 0 -0.18 0 -0.1 0 -0.08 0 -0.18 0.02 -0.18 0 -0.18 0 -0.18 0 -0.18 0 -0.14 0 -0.04 0 -0.18 0 -0.18 0 -0.18 0 -0.18 0.02 -0.18 0 -0.18 0 0 0 -0.18 0 -0.16 0.02c-19.64,1.42 -35.96,6.52 -49.06,15.18 -15.58,10.36 -23.34,24.04 -23.34,41 0,8.3 1.64,16.1 4.92,23.36 3.28,7.26 7.78,13.58 13.5,18.96 5.72,5.36 12.54,9.6 20.5,12.72 7.96,3.1 16.44,4.66 25.44,4.66l0.34 0.34zm-455.44 -4.16c14.52,0 27.76,-3.1 39.7,-9.34 11.94,-6.22 22.16,-14.46 30.62,-24.66 8.48,-10.22 14.98,-21.8 19.48,-34.78 4.5,-12.98 6.76,-26.4 6.76,-40.24 0,-14.52 -2.58,-28.38 -7.78,-41.52 -5.18,-13.16 -12.28,-24.74 -21.28,-34.76 -9,-10.04 -19.64,-18 -31.92,-23.88 -12.28,-5.88 -25.52,-8.82 -39.7,-8.82 -8.98,0 -18.42,1.8 -28.28,5.46 -9.86,3.62 -19.02,8.48 -27.5,14.52 -8.48,6.06 -15.76,13.14 -21.8,21.28 -6.04,8.14 -9.76,16.7 -11.16,25.7l0 83.04c4.16,9.7 9.42,18.68 15.84,27 6.4,8.3 13.66,15.48 21.78,21.54 8.14,6.04 16.88,10.82 26.22,14.26 9.34,3.46 19.02,5.2 29.06,5.2l-0.04 0zm550.44 -141.7l0 -3.12c0,-23.88 -6.76,-42.82 -20.26,-56.84 -12.66,-13.14 -29.88,-20.14 -51.7,-20.94l-1.76 0 0 -26.56c33.9,0 60.56,9.52 79.92,28.56 19.38,19.02 29.08,45.32 29.08,78.9l0 27.24 0 49.24 0 45.5c0,9.7 4.32,14.52 12.96,14.52l0 31.16c-5.86,1.02 -10.36,1.56 -13.48,1.56 -9,0 -16,-2.26 -21.02,-6.76 -5.02,-4.5 -7.7,-10.72 -8.06,-18.68l-1.02 -21.28c-12.46,16.26 -28.12,28.72 -46.98,37.38 -18.84,8.64 -39.2,12.98 -61,12.98 -12.78,0 -24.64,-2.18 -35.54,-6.5 -5.38,-2.14 -10.4,-4.68 -15.1,-7.6 -2.56,0.98 -5.3,1.96 -8.26,2.94 -5.2,1.74 -11.08,3.28 -17.66,4.68 -6.56,1.38 -13.48,2.08 -20.76,2.08 -7.62,0 -14.88,-1.04 -21.8,-3.1 -6.92,-2.1 -12.98,-5.28 -18.16,-9.6 -5.2,-4.32 -9.34,-9.78 -12.46,-16.34 -3.12,-6.58 -4.68,-14.2 -4.68,-22.86l0 -3.16c-11.28,17.76 -25.9,31.8 -43.86,42.06 -20.24,11.6 -41.78,17.4 -64.62,17.4 -29.42,0 -51.3,-9.78 -65.66,-29.34 -4.84,-6.56 -8.84,-14.2 -12.04,-22.94 -2.56,3.74 -5.3,7.3 -8.22,10.74 -10.9,12.82 -23.88,22.94 -38.94,30.36 -15.04,7.46 -31.56,11.18 -49.56,11.18 -22.84,0 -43,-5.8 -60.46,-17.4 -17.48,-11.58 -31.58,-26.2 -42.3,-43.84l0 131.66 -35.28 0 0 -78.22c-1.9,0.46 -3.88,0.9 -5.92,1.34 -6.56,1.38 -13.48,2.08 -20.76,2.08 -7.62,0 -14.88,-1.04 -21.8,-3.1 -6.92,-2.1 -12.98,-5.28 -18.16,-9.6 -5.2,-4.32 -9.34,-9.78 -12.46,-16.34 -1.76,-3.74 -3.02,-7.78 -3.8,-12.18 -11.78,13.98 -26.18,24.86 -43.16,32.66 -18.86,8.64 -39.2,12.98 -61,12.98 -12.8,0 -24.66,-2.18 -35.56,-6.5 -8.38,-3.34 -15.98,-7.64 -22.72,-12.92l0.4 1.24c-2.08,1.04 -5.1,2.42 -9.08,4.14 -3.98,1.74 -8.58,3.46 -13.76,5.2 -5.2,1.74 -11.08,3.28 -17.64,4.68 -6.58,1.38 -13.5,2.08 -20.76,2.08 -7.62,0 -14.88,-1.04 -21.8,-3.1 -6.92,-2.08 -12.98,-5.28 -18.16,-9.6 -5.2,-4.32 -9.34,-9.78 -12.46,-16.36 -3.12,-6.56 -4.68,-14.2 -4.68,-22.82l0 -104.86 0 -95 0 -26.34 0 -86.8 35.28 0 0 86.8c45.08,0 90.14,-0.08 135.22,-0.12l0 26.52 -135.22 -0.06 0 189.98c0,10.04 4.26,17.38 10.64,22.04 6.4,4.68 13.76,7 22.06,7 10.04,0 18.86,-1.64 26.48,-4.92l3.8 -1.66c-1.9,-3.1 -3.6,-6.36 -5.1,-9.76 -4.5,-10.22 -6.76,-21.2 -6.76,-32.96 0,-11.76 2.78,-22.68 8.3,-32.7 5.54,-10.02 13.32,-18.68 23.36,-25.94 10.04,-7.26 21.98,-12.9 35.82,-16.88 13.84,-3.98 29.06,-5.98 45.66,-5.98 13.86,0 27.86,1.22 42.06,3.64 14.2,2.42 26.82,5.86 37.88,10.38l0 -24.4c0,-23.88 -6.76,-42.82 -20.26,-56.84 -12.66,-13.14 -29.88,-20.14 -51.7,-20.94l-1.76 0 0 -26.56c33.92,0 60.56,9.52 79.94,28.56 19.4,19.02 29.06,45.32 29.06,78.9l0 27.24 0 79.46c0,10.04 4.24,17.38 10.64,22.04 6.42,4.68 13.76,7 22.06,7 5.64,0 10.9,-0.5 15.78,-1.54l0 -236.98 31.66 0 0 52.44c11.06,-16.96 25.42,-30.72 43.08,-41.26 17.66,-10.56 36.84,-15.84 57.62,-15.84 18.68,0 35.82,3.9 51.38,11.68 15.58,7.8 29.08,18.18 40.5,31.16l1.04 1.2 0 -39.36 35.28 0 0 134.64 0 0.84 0 0.9 0 16.22c0,61.26 20.94,91.88 62.8,91.88 10.38,0 20.6,-1.74 30.62,-5.2 10.04,-3.46 19.28,-8.48 27.76,-15.04 8.48,-6.56 16.1,-14.36 22.84,-23.34 6.76,-9 12.2,-19.22 16.34,-30.64l0 -40.24 0 -130.02 35.3 0 0 209.94c0.12,9.8 4.32,17 10.62,21.58 6.4,4.68 13.76,7 22.06,7 3.76,0 7.36,-0.24 10.78,-0.7 -2.86,-4.16 -5.34,-8.62 -7.42,-13.34 -4.5,-10.22 -6.76,-21.2 -6.76,-32.96 0,-11.76 2.76,-22.68 8.3,-32.7 5.54,-10.02 13.32,-18.68 23.36,-25.94 10.04,-7.26 21.96,-12.9 35.8,-16.88 11.86,-3.42 24.76,-5.36 38.66,-5.84l0.08 0 0.02 0 0.1 0 0.12 0 0.12 0 0.12 0 0.1 0 0.12 0 0.08 0 0.04 0 0.1 0 0.12 0 0.1 0 0.12 0 0.12 0 0.12 -0.02 0.08 0 0.02 0 0.12 0 0.12 0 0.1 0 0.12 0 0.1 0 0.12 0 0.1 0 0.02 0 0.12 0 0.22 0 0.12 0 0.1 0 0.12 0 0.1 0 0.02 0 0.1 0 0.12 0 0.12 0 0.1 0 0.12 0 0.12 0 0.1 0 0 0 0.12 0 0.12 0 0.12 0 0.1 0 0.12 0 0.12 0 0.1 0 0 0 0.12 0 0.12 0 0.12 0 0.1 0 0.12 0 0.12 0 0.1 0 0 0 0.12 0 0.12 0 0.12 0 0.1 0 0.12 0 0.12 0 0.12 0 0.1 0 0.12 0 0.12 0 0.12 0 0.12 0 0.1 0 0.12 0c13.84,0 27.86,1.22 42.04,3.64 14.2,2.42 26.82,5.86 37.9,10.38l0 -21.28 -0.12 -0.16zm-857.38 145.84c18.34,0 35.2,-3.46 50.6,-10.38 15.4,-6.94 27.08,-16.1 35.04,-27.52 3.1,-3.1 5.46,-6.48 7,-10.12 1.5,-3.52 2.28,-6.78 2.32,-9.82l0 -0.14 0 -0.16 0 -44.1c-11.76,-4.5 -23.96,-7.98 -36.58,-10.4 -12.62,-2.42 -25.52,-3.64 -38.68,-3.64 -24.92,0 -45.16,5.2 -60.74,15.58 -15.56,10.36 -23.34,24.04 -23.34,41 0,8.3 1.64,16.1 4.94,23.36 3.28,7.26 7.78,13.58 13.48,18.96 5.72,5.36 12.54,9.6 20.5,12.72 7.96,3.1 16.44,4.66 25.44,4.66l0.02 0z"/>
   <path class="fil1" d="M148.93 8.68c-90.7,27.14 -150.88,113.56 -148.88,190.56 0.32,187.22 181.72,168.88 255.32,223.58 0.54,-3.08 0.82,-6.26 0.82,-9.48 0,-15.7 -6.5,-29.9 -16.98,-40.12 0.64,-0.96 1.26,-1.92 1.86,-2.9 8.96,5.76 19.68,9.12 31.18,9.12 31.58,0 57.2,-25.26 57.2,-56.44 0,-1.16 -0.04,-2.28 -0.12,-3.42 -83.32,-44.22 -194.58,-36.72 -195.88,-124.68 -0.92,-16.94 6.02,-35.12 18.4,-49.38 -5.88,-3.68 -12.86,-5.8 -20.34,-5.8 -7.8,0 -15.06,2.32 -21.12,6.3 -1.34,-5.52 -3.32,-10.82 -5.84,-15.8 35.12,-6.74 61.64,-37.24 61.64,-73.88 0,-18.1 -6.48,-34.7 -17.26,-47.68l0 0.02zm182.9 593.38c21.06,0 38.14,16.84 38.14,37.62 0,20.78 -17.06,37.62 -38.14,37.62 -21.06,0 -38.12,-16.84 -38.12,-37.62 0,-20.78 17.06,-37.62 38.12,-37.62zm17 -73.78c5.26,0 9.52,4.22 9.52,9.42 0,5.2 -4.26,9.4 -9.52,9.4 -5.26,0 -9.54,-4.22 -9.54,-9.4 0,-5.2 4.26,-9.42 9.54,-9.42zm-14.3 31.34c10.52,0 19.06,8.42 19.06,18.8 0,10.4 -8.54,18.82 -19.06,18.82 -10.54,0 -19.06,-8.42 -19.06,-18.82 0,-10.38 8.52,-18.8 19.06,-18.8zm30.08 -4.6c5.26,0 9.54,4.22 9.54,9.42 0,5.18 -4.26,9.4 -9.54,9.4 -5.26,0 -9.52,-4.22 -9.52,-9.4 0,-5.2 4.26,-9.42 9.52,-9.42zm26.2 28.22c5.26,0 9.52,4.22 9.52,9.4 0,5.2 -4.26,9.4 -9.52,9.4 -5.26,0 -9.54,-4.2 -9.54,-9.4 0,-5.2 4.26,-9.4 9.54,-9.4zm-2.5 -140.96c5.26,0 9.52,4.22 9.52,9.4 0,5.2 -4.26,9.4 -9.52,9.4 -5.26,0 -9.54,-4.2 -9.54,-9.4 0,-5.2 4.26,-9.4 9.54,-9.4zm59.7 -28.36c5.26,0 9.52,4.2 9.52,9.4 0,5.2 -4.26,9.4 -9.52,9.4 -5.28,0 -9.54,-4.22 -9.54,-9.4 0,-5.2 4.26,-9.4 9.54,-9.4zm-33.38 -37.64c2.64,0 4.76,2.12 4.76,4.7 0,2.6 -2.12,4.72 -4.76,4.72 -2.62,0 -4.76,-2.12 -4.76,-4.72 0,-2.58 2.14,-4.7 4.76,-4.7zm38.14 141.12c2.64,0 4.76,2.1 4.76,4.7 0,2.6 -2.14,4.72 -4.76,4.72 -2.64,0 -4.76,-2.1 -4.76,-4.72 0,-2.58 2.12,-4.7 4.76,-4.7zm-128.36 -122.3c5.26,0 9.52,4.22 9.52,9.42 0,5.2 -4.26,9.42 -9.52,9.42 -5.26,0 -9.54,-4.22 -9.54,-9.42 0,-5.2 4.26,-9.42 9.54,-9.42zm90.26 16.78c5.26,0 9.52,4.22 9.52,9.4 0,5.2 -4.26,9.42 -9.52,9.42 -5.26,0 -9.52,-4.22 -9.52,-9.42 0,-5.2 4.26,-9.4 9.52,-9.4zm10.42 27.64c7.9,0 14.3,6.32 14.3,14.1 0,7.8 -6.4,14.12 -14.3,14.12 -7.9,0 -14.3,-6.32 -14.3,-14.12 0,-7.78 6.4,-14.1 14.3,-14.1zm-5.36 112.9c7.9,0 14.3,6.3 14.3,14.1 0,7.78 -6.4,14.12 -14.3,14.12 -7.9,0 -14.3,-6.32 -14.3,-14.12 0,-7.8 6.4,-14.1 14.3,-14.1zm-57.5 -213.74c10.52,0 19.06,8.42 19.06,18.8 0,10.4 -8.54,18.82 -19.06,18.82 -10.52,0 -19.06,-8.42 -19.06,-18.82 0,-10.4 8.54,-18.8 19.06,-18.8zm-33.04 20.88c7.9,0 14.3,6.3 14.3,14.12 0,7.78 -6.4,14.1 -14.3,14.1 -7.9,0 -14.3,-6.32 -14.3,-14.1 0,-7.8 6.4,-14.12 14.3,-14.12zm33.04 40.26c10.52,0 19.06,8.44 19.06,18.82 0,10.38 -8.54,18.8 -19.06,18.8 -10.52,0 -19.06,-8.42 -19.06,-18.8 0,-10.4 8.54,-18.82 19.06,-18.82zm38.12 70.54c21.06,0 38.14,16.86 38.14,37.64 0,20.78 -17.06,37.62 -38.14,37.62 -21.04,0 -38.12,-16.84 -38.12,-37.62 0,-20.78 17.08,-37.64 38.12,-37.64zm-23.82 -373.54c2.64,0 4.76,2.12 4.76,4.72 0,2.58 -2.12,4.7 -4.76,4.7 -2.62,0 -4.76,-2.12 -4.76,-4.7 0,-2.6 2.14,-4.72 4.76,-4.72zm-25.68 116.64c2.64,0 4.76,2.1 4.76,4.7 0,2.6 -2.12,4.7 -4.76,4.7 -2.62,0 -4.76,-2.1 -4.76,-4.7 0,-2.6 2.14,-4.7 4.76,-4.7zm-20.48 2.9c5.26,0 9.54,4.22 9.54,9.42 0,5.2 -4.26,9.4 -9.54,9.4 -5.26,0 -9.52,-4.22 -9.52,-9.4 0,-5.2 4.26,-9.42 9.52,-9.42zm52 -59.8c5.26,0 9.54,4.22 9.54,9.4 0,5.2 -4.28,9.4 -9.54,9.4 -5.26,0 -9.54,-4.2 -9.54,-9.4 0,-5.2 4.26,-9.4 9.54,-9.4zm-82.38 -140.66c7.9,0 14.3,6.32 14.3,14.12 0,7.78 -6.4,14.1 -14.3,14.1 -7.9,0 -14.3,-6.32 -14.3,-14.1 0,-7.78 6.4,-14.12 14.3,-14.12zm-36.88 -15.88c10.52,0 19.06,8.42 19.06,18.8 0,10.4 -8.54,18.82 -19.06,18.82 -10.54,0 -19.08,-8.42 -19.08,-18.82 0,-10.38 8.54,-18.8 19.08,-18.8zm-58.74 4.42c21.06,0 38.14,16.84 38.14,37.62 0,20.78 -17.08,37.64 -38.14,37.64 -21.06,0 -38.12,-16.84 -38.12,-37.64 0,-20.78 17.06,-37.62 38.12,-37.62zm28.3 71.42c7.88,0 14.28,6.32 14.28,14.12 0,7.8 -6.4,14.1 -14.28,14.1 -7.9,0 -14.3,-6.3 -14.3,-14.1 0,-7.78 6.4,-14.12 14.3,-14.12zm4.22 31.9c10.54,0 19.08,8.42 19.08,18.8 0,10.4 -8.54,18.82 -19.08,18.82 -10.52,0 -19.06,-8.42 -19.06,-18.82 0,-10.38 8.54,-18.8 19.06,-18.8zm-57.84 -30.28c5.26,0 9.54,4.22 9.54,9.4 0,5.2 -4.26,9.42 -9.54,9.42 -5.26,0 -9.52,-4.22 -9.52,-9.42 0,-5.18 4.26,-9.4 9.52,-9.4zm-20.54 38.8c7.88,0 14.3,6.32 14.3,14.1 0,7.8 -6.4,14.12 -14.3,14.12 -7.9,0 -14.3,-6.32 -14.3,-14.12 0,-7.78 6.4,-14.1 14.3,-14.1zm113.14 28.52c5.26,0 9.54,4.22 9.54,9.42 0,5.2 -4.26,9.4 -9.54,9.4 -5.26,0 -9.54,-4.2 -9.54,-9.4 0,-5.2 4.26,-9.42 9.54,-9.42zm116.2 -92.46c2.64,0 4.76,2.12 4.76,4.7 0,2.6 -2.12,4.72 -4.76,4.72 -2.64,0 -4.76,-2.1 -4.76,-4.72 0,-2.58 2.14,-4.7 4.76,-4.7zm17.92 24.6c2.62,0 4.76,2.1 4.76,4.7 0,2.6 -2.12,4.7 -4.76,4.7 -2.64,0 -4.76,-2.1 -4.76,-4.7 0,-2.6 2.12,-4.7 4.76,-4.7zm42.3 17.12c5.26,0 9.52,4.22 9.52,9.42 0,5.2 -4.26,9.4 -9.52,9.4 -5.28,0 -9.54,-4.2 -9.54,-9.4 0,-5.2 4.26,-9.42 9.54,-9.42zm-83.48 -30.1c5.26,0 9.54,4.22 9.54,9.4 0,5.2 -4.26,9.4 -9.54,9.4 -5.26,0 -9.54,-4.22 -9.54,-9.4 0,-5.2 4.26,-9.4 9.54,-9.4zm-49.74 77.32c10.54,0 19.06,8.42 19.06,18.8 0,10.4 -8.52,18.82 -19.06,18.82 -10.52,0 -19.06,-8.44 -19.06,-18.82 0,-10.38 8.54,-18.8 19.06,-18.8zm101.28 3.98c5.26,0 9.52,4.22 9.52,9.42 0,5.18 -4.26,9.4 -9.52,9.4 -5.26,0 -9.54,-4.22 -9.54,-9.4 0,-5.2 4.28,-9.42 9.54,-9.42zm-24.68 -25.98c7.9,0 14.3,6.32 14.3,14.1 0,7.8 -6.4,14.12 -14.3,14.12 -7.9,0 -14.3,-6.32 -14.3,-14.12 0,-7.78 6.4,-14.1 14.3,-14.1zm-33.12 19.06c7.9,0 14.3,6.32 14.3,14.12 0,7.78 -6.4,14.1 -14.3,14.1 -7.9,0 -14.3,-6.32 -14.3,-14.1 0,-7.8 6.4,-14.12 14.3,-14.12zm18.22 -138.34c2.64,0 4.76,2.1 4.76,4.7 0,2.6 -2.12,4.7 -4.76,4.7 -2.62,0 -4.76,-2.1 -4.76,-4.7 0,-2.6 2.14,-4.7 4.76,-4.7zm-89.26 121.28c5.26,0 9.54,4.22 9.54,9.4 0,5.2 -4.26,9.4 -9.54,9.4 -5.26,0 -9.52,-4.2 -9.52,-9.4 0,-5.2 4.26,-9.4 9.52,-9.4zm-23.68 -23.68c5.26,0 9.52,4.22 9.52,9.42 0,5.2 -4.26,9.4 -9.52,9.4 -5.26,0 -9.54,-4.22 -9.54,-9.4 0,-5.2 4.26,-9.42 9.54,-9.42zm61.08 -47.02c10.52,0 19.06,8.42 19.06,18.82 0,10.38 -8.54,18.82 -19.06,18.82 -10.54,0 -19.06,-8.44 -19.06,-18.82 0,-10.4 8.54,-18.82 19.06,-18.82zm-57.86 -0.4c7.9,0 14.3,6.32 14.3,14.1 0,7.8 -6.4,14.12 -14.3,14.12 -7.9,0 -14.3,-6.32 -14.3,-14.12 0,-7.78 6.4,-14.1 14.3,-14.1zm67.54 48.48c10.52,0 19.06,8.42 19.06,18.8 0,10.38 -8.54,18.82 -19.06,18.82 -10.54,0 -19.08,-8.44 -19.08,-18.82 0,-10.4 8.54,-18.8 19.08,-18.8zm87.42 100.68c5.28,0 9.54,4.22 9.54,9.42 0,5.2 -4.26,9.42 -9.54,9.42 -5.26,0 -9.52,-4.22 -9.52,-9.42 0,-5.2 4.26,-9.42 9.52,-9.42zm-39.18 -11.48c10.54,0 19.06,8.42 19.06,18.82 0,10.38 -8.54,18.8 -19.06,18.8 -10.52,0 -19.06,-8.42 -19.06,-18.8 0,-10.4 8.54,-18.82 19.06,-18.82zm-98.18 -12.62c10.52,0 19.06,8.42 19.06,18.8 0,10.4 -8.54,18.82 -19.06,18.82 -10.54,0 -19.06,-8.42 -19.06,-18.82 0,-10.38 8.54,-18.8 19.06,-18.8zm-21.54 253.76c13.24,12.16 21.68,27.7 22.9,48.92 0,44 -29.78,79.9 -76.1,79.9 -43.12,-2.36 -70.9,-28.84 -75.96,-68.62l-133.64 0c13.82,112.1 103.6,187.2 209.62,188.14 9.88,-0.12 19.44,-0.88 28.7,-2.14 1.38,-3.46 2.26,-7.16 2.52,-11.04 2.42,0.48 4.94,0.74 7.5,0.74 21.06,0 38.14,-16.86 38.14,-37.62 0,-4.92 -0.96,-9.62 -2.7,-13.92 16.74,-9.86 27.96,-27.9 27.96,-48.52 0,-16.92 -7.54,-32.08 -19.48,-42.44 2.44,-4.96 3.8,-10.52 3.8,-16.4 0,-3.02 -0.36,-5.98 -1.04,-8.78 13.76,-5.68 23.42,-19.1 23.42,-34.72 0,-20.78 -17.08,-37.64 -38.14,-37.64 -6.3,0 -12.24,1.5 -17.48,4.18l-0.02 -0.04zm65.72 53.44c10.52,0 19.08,8.42 19.08,18.8 0,10.4 -8.54,18.82 -19.08,18.82 -10.54,0 -19.06,-8.42 -19.06,-18.82 0,-10.4 8.52,-18.8 19.06,-18.8zm28.6 -26.46c7.9,0 14.3,6.32 14.3,14.1 0,7.78 -6.4,14.12 -14.3,14.12 -7.9,0 -14.3,-6.32 -14.3,-14.12 0,-7.78 6.4,-14.1 14.3,-14.1zm-27.7 -15c5.26,0 9.52,4.22 9.52,9.4 0,5.2 -4.26,9.42 -9.52,9.42 -5.26,0 -9.54,-4.22 -9.54,-9.42 0,-5.18 4.26,-9.4 9.54,-9.4zm-43.2 -57.92c10.54,0 19.08,8.44 19.08,18.82 0,10.4 -8.54,18.82 -19.08,18.82 -10.52,0 -19.06,-8.42 -19.06,-18.82 0,-10.38 8.54,-18.82 19.06,-18.82z"/>
  </g>
 </g>
</svg>
